<svg id="Layer_1" data-name="Layer 1" xmlns="http://www.w3.org/2000/svg" xmlns:xlink="http://www.w3.org/1999/xlink" viewBox="0 0 66 66"><defs><style>.cls-1{fill:none;}.cls-2{clip-path:url(#clip-path);}.cls-3{fill:#69c5ac;}.cls-4{fill:#414143;}.cls-5{fill:#fed97b;}</style><clipPath id="clip-path"><rect class="cls-1" width="66" height="66"/></clipPath></defs><title>community</title><g id="Artwork_2" data-name="Artwork 2"><g class="cls-2"><g class="cls-2"><path class="cls-3" d="M66,33A33,33,0,1,1,33,0,33,33,0,0,1,66,33"/><path class="cls-4" d="M51.5,28.29c-1.25.4-3.15.87-4.4.27-.11,0,0-.21.08-.18,1.35.34,2.88-.24,4.2-.54a.23.23,0,0,1,.12.45"/><path class="cls-4" d="M46.25,36c1,.44,2.42.52,3.16,1.45.21.26-.12.61-.37.38-.83-.8-2-1-2.92-1.6a.13.13,0,0,1,.13-.23"/><path class="cls-4" d="M43.84,20.71c-.38.46-.88,1.06-1.55.93-.09,0-.06-.15,0-.16.82-.07,1.4-1.33,1.83-1.91s.82-1.17,1.49-1.24c.21,0,.23.26.1.36a10.66,10.66,0,0,0-1.89,2"/><path class="cls-4" d="M37.6,19c.85-.31,1-1.71,1.32-2.45.22-.54.52-1.32,1.18-1.41.18,0,.24.22.14.33a4,4,0,0,0-.84,1.12c-.19.43-.35.87-.54,1.31s-.56,1.22-1.25,1.23c-.08,0-.08-.1,0-.13"/><path class="cls-5" d="M32.39,31.19a3.58,3.58,0,0,0-.21,2.62.33.33,0,0,0,.6.08,4.92,4.92,0,0,0,.33-2.57l.06-.05a3.57,3.57,0,0,1,.25,1.25,3.5,3.5,0,0,0,0,1.43.33.33,0,0,0,.65-.08c0-.31,0-.61,0-.91.15-1,.62-2.28,1.17-1.55s.33,2.52.15,3.48a.31.31,0,0,0,.2.36c-.06.71-.14,1.42-.19,2.15a40.16,40.16,0,0,0,.16,6.67h0c-.61.09-1.21.21-1.83.24-.36,0-.72,0-1.08.06a41.59,41.59,0,0,0-1.19-4.74c-.48-2-.74-4-1.16-6a.14.14,0,0,1,0-.06c0-.22,0-.45.06-.69a5.89,5.89,0,0,1,.11-1.18c0-.14.38-1.1.57-.62a.19.19,0,0,0,0,.07c-.41,1-.31,2.38.46,2.83a.32.32,0,0,0,.48-.27,11.3,11.3,0,0,0-.18-2.39c.17-.4.38-.68.55-.24a.32.32,0,0,1,0,.09"/><path class="cls-4" d="M32.54,44.39c-1.43-3.12-2-6.5-2.66-9.83a.15.15,0,0,1-.15-.18,1.47,1.47,0,0,0,0-.37c0-.07,0-.14,0-.2a.26.26,0,0,1,.06-.26c0-1.36.2-3.79,1.36-3.25a1,1,0,0,1,.32.26,1.17,1.17,0,0,1,.54-.33.75.75,0,0,1,.92.42,1.15,1.15,0,0,1,.32-.14.34.34,0,0,1,.38.15,3.38,3.38,0,0,1,.22.52c.28-.53.68-.87,1.22-.71.88.26,1.23,1.3,1.27,2.37.31,1.33-.22,2.9-.33,4.2-.19,2.33,0,4.68-.21,7l-.22,0a40.16,40.16,0,0,1-.16-6.67c.05-.73.13-1.44.19-2.15a.31.31,0,0,1-.2-.36c.18-1,.5-2.63-.15-3.48s-1,.58-1.17,1.55c0,.3,0,.6,0,.91a.33.33,0,0,1-.65.08,3.5,3.5,0,0,1,0-1.43,3.57,3.57,0,0,0-.25-1.25l-.06.05a4.92,4.92,0,0,1-.33,2.57.33.33,0,0,1-.6-.08,3.58,3.58,0,0,1,.21-2.62.32.32,0,0,0,0-.09c-.17-.44-.38-.16-.55.24A11.3,11.3,0,0,1,32,33.73a.32.32,0,0,1-.48.27c-.77-.45-.87-1.86-.46-2.83,0,0,0-.05,0-.07-.19-.48-.53.48-.57.62a5.89,5.89,0,0,0-.11,1.18c0,.24,0,.47-.06.69a.14.14,0,0,0,0,.06c.42,2,.68,4,1.16,6a41.59,41.59,0,0,1,1.19,4.74Z"/><path class="cls-5" d="M38.2,40.44a7.5,7.5,0,0,0-.36,3.81A1.76,1.76,0,0,0,37,44a6.41,6.41,0,0,0-1.24.06c.22-2.33,0-4.68.21-7,.11-1.3.64-2.87.33-4.19,0-1.08-.39-2.12-1.27-2.38-.54-.16-.94.18-1.22.71a3.38,3.38,0,0,0-.22-.52.34.34,0,0,0-.38-.15,1.15,1.15,0,0,0-.32.14.75.75,0,0,0-.92-.42,1.17,1.17,0,0,0-.54.33,1,1,0,0,0-.32-.26c-1.16-.54-1.31,1.89-1.36,3.25a.26.26,0,0,0-.06.26c0,.06,0,.13,0,.2a2.21,2.21,0,0,1,0,.37.15.15,0,0,0,.15.18c.7,3.33,1.23,6.71,2.66,9.83-1.2.09-2.4.19-3.61.2.58-1.48-.88-3.31-1.73-4.38s-1.81-1.83-2.69-2.78a9,9,0,0,1-2.12-5.1c-.71-5.42,2.49-9.56,7.64-11,4.78-1.32,11.32.12,12.62,5.55.75,3.12-.43,6.4-1.87,9.13-.8,1.51-1.87,2.86-2.58,4.41"/><path class="cls-4" d="M29.19,18.39c.1-1.1-.85-2-.78-3,0-.2.32-.33.41-.11a12,12,0,0,1,.61,1.87,1.88,1.88,0,0,1,0,1.34c-.06.13-.27.07-.25-.06"/><path class="cls-4" d="M37.52,45.89a15.37,15.37,0,0,1-7.09.83,4.1,4.1,0,0,1-1.08-.23c0,.38,0,.82-.2.82l.83.08c.92.09,1.84.16,2.76.18,1.32,0,4.95.25,4.78-1.68M40.78,36c1.44-2.73,2.62-6,1.87-9.13C41.35,21.47,34.81,20,30,21.35c-5.15,1.42-8.35,5.56-7.64,11a9,9,0,0,0,2.12,5.1c.88,1,1.9,1.75,2.69,2.78s2.31,2.9,1.73,4.38c1.21,0,2.41-.11,3.61-.2h.12c.36,0,.72-.05,1.08-.06.62,0,1.22-.15,1.83-.24h0l.22,0A6.41,6.41,0,0,1,37,44a1.76,1.76,0,0,1,.81.26,7.5,7.5,0,0,1,.36-3.81c.71-1.55,1.78-2.9,2.58-4.41M33.36,50.79c-1.7.05-4.44.6-4.28-1.86l0,0A.75.75,0,0,1,29,47.78a.23.23,0,0,1-.18-.23c0-.27.15-1.06.15-1.37a1.6,1.6,0,0,1-.28-1,.39.39,0,0,1,0-.43.16.16,0,0,1,0-.1c.51-1.39-1.13-3.29-2-4.27s-2.13-2-3-3.11a11.17,11.17,0,0,1-1.83-8.15c.71-4.66,4.76-7.81,9.27-8.54C35.4,19.85,41.34,21,43,25.7a11.87,11.87,0,0,1-.55,8.39,30,30,0,0,1-2.57,4.77,8.29,8.29,0,0,0-1.32,2.64,11.86,11.86,0,0,0,0,3.15.29.29,0,0,1-.08.21.63.63,0,0,1-.28.73,1.73,1.73,0,0,1,0,1.14,1.24,1.24,0,0,1-.28,1.65c0,2.1-2.9,2.35-4.51,2.41m-3.28-4.65a15.91,15.91,0,0,0,2.29,0,21.4,21.4,0,0,0,2.88-.37,7.24,7.24,0,0,0,2.27-.59c.55-.38-1.11-.58-1.2-.57-.37,0-.73.09-1.08.16-.51.08-1,.15-1.5.18-1.59.14-3.18.27-4.77.28a1,1,0,0,0,1.11.89m-.77,2.92c.26,1.31,1.07,1.34,2.29,1.32.59,0,1.18,0,1.76,0,1.21-.07,3.59-.19,4-1.61a12.06,12.06,0,0,1-4.06.8,7.91,7.91,0,0,1-3.59-.28,2,2,0,0,1-.36-.19m-.09-1.24C28.55,49.4,32.74,49,33.51,49s4.43-.33,4.23-1.67c-1.65,1.42-7,.72-8.52.53"/><path class="cls-4" d="M22.17,23.28c-.64-1.14-1.76-2.29-2-3.6,0-.21.26-.36.37-.15.34.63.62,1.28,1,1.9a10.76,10.76,0,0,1,.89,1.76.11.11,0,0,1-.21.09"/><path class="cls-4" d="M18.36,27.12,20,28.42c.07.06,0,.16-.09.12A10,10,0,0,1,16.42,26c-.13-.17.13-.42.29-.3.59.44,1.09,1,1.65,1.46"/><path class="cls-4" d="M16,33.39c-.47,0-1.27.13-1.65-.21a.2.2,0,0,1,0-.31,4.91,4.91,0,0,1,2.09,0,6.43,6.43,0,0,1,2.38.43c.18.09,0,.32-.13.3A20.65,20.65,0,0,0,16,33.39"/></g></g></g></svg>