<svg id="Layer_1" data-name="Layer 1" xmlns="http://www.w3.org/2000/svg" xmlns:xlink="http://www.w3.org/1999/xlink" viewBox="0 0 66 66"><defs><style>.cls-1{fill:none;}.cls-2{clip-path:url(#clip-path);}.cls-3{fill:#fed97b;}.cls-4{fill:#414143;}.cls-5{fill:#f58f8b;}</style><clipPath id="clip-path"><rect class="cls-1" width="66" height="66"/></clipPath></defs><title>inspire</title><g id="Artwork_3" data-name="Artwork 3"><g class="cls-2"><g class="cls-2"><path class="cls-3" d="M66,33A33,33,0,1,1,33,0,33,33,0,0,1,66,33"/><path class="cls-4" d="M49.52,31c-1.26-3.84-4.85-6.71-8.25-8.59-6.23-3.45-15-3.14-20.5,1.54a14.2,14.2,0,0,0-4.58,9.89c-.14,3.19,1.71,5.77,4.23,7.53a20.3,20.3,0,0,0,5.22,2.41c-.14,2.52-.8,5-.48,7.54a.4.4,0,0,0,.5.38,8,8,0,0,0,3.55-2.58c1.25-1.54,2.14-3.11,4.07-3.88s4.52-.87,6.66-1.33A14.47,14.47,0,0,0,46,41.3C49.19,38.69,50.84,35,49.52,31"/><path class="cls-5" d="M43.48,41.69c-3.55,1.8-7.83,1.28-11.34,3-2.71,1.34-3.49,4.58-6.25,5.91-.18-2.33.33-4.65.33-7a.55.55,0,0,0-.15-1c-3.2-1-6.55-2.57-8.16-5.7-1.69-3.28-.07-7.7,1.86-10.5,4.13-6,13-6.41,19.26-4.08a17.39,17.39,0,0,1,9.15,8c2.29,4.52-.54,9.21-4.7,11.32"/></g></g></g></svg>