<svg id="Layer_1" data-name="Layer 1" xmlns="http://www.w3.org/2000/svg" viewBox="0 0 122 128"><defs><style>.cls-1{fill:#484545;}</style></defs><title>quick-fact-stem</title><path class="cls-1" d="M73.52,2.32c-.37-.1-.74-.21-1.12-.3C63.93-.21,50.11-1.93,43.05,4.45a.4.4,0,0,0-.16.21C35.44,8.9,31.45,18.65,29,27c-1.24,4.19-2.3,8.41-3.25,12.64l-.23,0a.43.43,0,0,0-.21.84l.24.09C23,51.85,21.32,63.32,19.62,74.79c-1.85,12.29-4.07,27,2.94,38.06,6.76,10.68,19.78,13.86,31.47,15,13.11,1.35,25.8-10.25,33-19.92,4.42-6,6.13-13,8.17-20.08,2.49-8.69,4.44-17.48,6.33-26.32,2.91-13.46,4.78-29-1.11-41.87C95.73,9.48,84.65,5.37,74.51,2.58L73.92,2l-.4.37M27.62,38.38C30.44,27.83,33.34,12,43.21,5.76a.73.73,0,0,0,.86,0,17.81,17.81,0,0,1,6.39-2.56c.45-.05.9-.09,1.38-.11a.27.27,0,0,0,.23-.17c5.26-.77,11.07-.14,15.71.61,1.84.29,3.67.68,5.51,1.15-2.9,6.56-3.85,13.77-5.59,20.69-1.06,4.32-2,8.68-3.11,13-.47,1.89-1.27,4-1.13,6,0,.05,0,.09,0,.13l0,0a.53.53,0,0,0,.18.32C58,44.21,52.23,43.72,46.48,43c-6.48-.84-12.82-2-19.24-3.08.12-.5.26-1,.38-1.52M93.57,85.33c-1.88,6.85-3.41,14.1-7.4,20.1A55.59,55.59,0,0,1,68.65,122c-11.43,7.16-27.18,4.08-37.89-3.16-13-8.77-11.54-24-10.36-37.65C21,74,22.68,67.06,23.69,60c.91-6.42,1.77-12.71,3.28-19a71.6,71.6,0,0,0,13.78,3c6.56.68,13,2.21,19.64,2.44,7.39.24,14.52,1.78,21.73,3.34,5.71,1.22,13.31,2.73,18.32,6-1.52,10-4.27,20-6.87,29.56M85.24,8.82c13.33,5.94,16.38,18.51,16.4,32a95,95,0,0,1-.94,13.1c-3.85-2.23-8.56-3.1-12.75-4.4A121.43,121.43,0,0,0,68.5,45.39l-4.14-.48a.6.6,0,0,0,.35-.39v0a.21.21,0,0,0,.05-.13c.48-6.25,2.58-12.61,4.19-18.63,1.85-6.95,2.89-14,5.13-20.83A74.37,74.37,0,0,1,85.24,8.82"/></svg>