<svg id="Layer_1" data-name="Layer 1" xmlns="http://www.w3.org/2000/svg" viewBox="0 0 122 128"><defs><style>.cls-1{fill:#484545;}</style></defs><title>quick-fact-inspire</title><path class="cls-1" d="M121.46,48.6c-4.08,1.33-10.29,2.85-14.37.9-.35-.17-.1-.69.26-.61,4.41,1.12,9.42-.77,13.71-1.77a.77.77,0,0,1,.4,1.48"/><path class="cls-1" d="M104.31,73.68c3.35,1.44,7.92,1.7,10.33,4.73.67.86-.39,2-1.22,1.23-2.71-2.59-6.48-3.16-9.54-5.21a.43.43,0,0,1,.43-.75"/><path class="cls-1" d="M96.43,23.81c-1.24,1.51-2.88,3.49-5.06,3.06-.3-.05-.19-.49.07-.51,2.68-.23,4.56-4.36,6-6.25,1.21-1.66,2.68-3.82,4.88-4.06.7-.07.76.84.32,1.17-2.51,1.87-4.21,4.19-6.17,6.59"/><path class="cls-1" d="M76,18.29c2.79-1,3.36-5.6,4.32-8,.73-1.76,1.71-4.31,3.86-4.6.58-.09.78.71.44,1.07a13.12,13.12,0,0,0-2.73,3.65c-.63,1.4-1.14,2.86-1.75,4.27-.78,1.8-1.85,4-4.09,4.05a.21.21,0,0,1,0-.42"/><path class="cls-1" d="M59.51,101.23C54.84,91,53.09,80,50.8,69.11a.49.49,0,0,1-.48-.6,8.78,8.78,0,0,0,.1-1.22c-.05-.21-.1-.43-.14-.64a.92.92,0,0,1,.2-.85c.16-4.45.65-12.4,4.45-10.61A2.84,2.84,0,0,1,56,56,3.85,3.85,0,0,1,57.73,55a2.43,2.43,0,0,1,3,1.38,4.64,4.64,0,0,1,1.06-.48,1.1,1.1,0,0,1,1.22.49,11,11,0,0,1,.74,1.71c.91-1.73,2.23-2.85,4-2.33,2.87.85,4,4.26,4.14,7.77,1,4.33-.71,9.48-1.06,13.71-.62,7.62,0,15.29-.71,22.93l-.7.06a130.26,130.26,0,0,1-.53-21.81c.16-2.39.42-4.71.64-7a1.06,1.06,0,0,1-.68-1.16c.6-3.16,1.66-8.6-.46-11.39-1.83-2.4-3.33,1.89-3.83,5.06,0,1,0,2,0,3a1.09,1.09,0,0,1-2.13.28,11.72,11.72,0,0,1,0-4.68,12,12,0,0,0-.81-4.1l-.19.16c.44,3-.29,7.1-1.08,8.42a1.08,1.08,0,0,1-2-.26A11.63,11.63,0,0,1,59,58.09c0-.1-.06-.22-.1-.31-.57-1.43-1.27-.53-1.82.78a36.13,36.13,0,0,1,.61,7.82,1.06,1.06,0,0,1-1.58.9c-2.52-1.5-2.86-6.09-1.49-9.26a2.34,2.34,0,0,1-.09-.24c-.6-1.54-1.72,1.58-1.84,2a20.14,20.14,0,0,0-.39,3.86,20.42,20.42,0,0,1-.19,2.27.49.49,0,0,1,.06.17c1.39,6.53,2.24,13.11,3.83,19.6,1.26,5.13,3.22,10.24,3.87,15.5Z"/><path class="cls-1" d="M48.54,16.23c.32-3.56-2.77-6.51-2.54-9.93,0-.65,1-1.08,1.34-.36a42.92,42.92,0,0,1,2,6.12,6.2,6.2,0,0,1,0,4.39.43.43,0,0,1-.81-.22"/><path class="cls-1" d="M75.77,106.12c-6.69,2.76-16.25,3.63-23.18,2.73a13.08,13.08,0,0,1-3.52-.77c.13,1.25.06,2.68-.65,2.68l2.72.28c3,.28,6,.52,9,.59,4.3.1,16.18.82,15.62-5.51m10.65-32.2C91.14,65,95,54.27,92.54,44.05,88.29,26.3,66.92,21.59,51.29,25.92,34.46,30.57,24,44.11,26.32,61.81c.81,6.09,2.66,12.07,6.92,16.66,2.88,3.1,6.21,5.74,8.81,9.08,2.76,3.52,7.53,9.49,5.64,14.34,4,0,7.88-.37,11.82-.66l.38,0c1.18-.08,2.36-.16,3.54-.21,2-.1,4-.49,6-.78v0l.7-.06a21.25,21.25,0,0,1,4.07-.22,5.9,5.9,0,0,1,2.65.87c-.28-4.32-.72-8.3,1.19-12.46,2.3-5.07,5.8-9.48,8.41-14.4M62.18,122.14c-5.57.18-14.52,2-14-6.07a.3.3,0,0,1,.06-.11c-1.15-1.07-1.5-2.45-.43-3.65a.75.75,0,0,1-.58-.76c.08-.87.48-3.47.47-4.46a5.4,5.4,0,0,1-.91-3.42,1.19,1.19,0,0,1,0-1.38.35.35,0,0,1,0-.33c1.68-4.57-3.69-10.75-6.42-13.95-3.08-3.62-6.94-6.48-9.94-10.19-5.55-6.88-7.27-18.07-6-26.62C26.76,36,40,25.65,54.73,23.29,68.86,21,88.28,24.74,93.53,40.14c3,8.94,1.81,18.83-1.81,27.43a97.73,97.73,0,0,1-8.41,15.6c-1.72,2.64-3.61,5.48-4.3,8.6-.77,3.52-.26,6.78-.13,10.31a.88.88,0,0,1-.27.7,2,2,0,0,1-.9,2.36,5.58,5.58,0,0,1,.12,3.72c1.19,2.38.6,4.12-.92,5.42-.11,6.86-9.48,7.67-14.73,7.86M51.45,107A56.88,56.88,0,0,0,59,107a70.32,70.32,0,0,0,9.39-1.22c2.16-.45,5.56-.66,7.43-1.93S72.15,102,71.85,102c-1.19.12-2.37.28-3.54.5-1.64.27-3.23.48-4.88.61-5.21.44-10.4.85-15.62.91.49,1.8,1.18,2.78,3.64,2.91m-2.52,9.54c.87,4.28,3.51,4.38,7.49,4.32,1.93,0,3.85,0,5.76-.13,3.94-.23,11.74-.62,12.93-5.26-4.06,2-10.67,2.43-13.28,2.61-4,.28-7.94.59-11.72-.93a6.55,6.55,0,0,1-1.18-.61m-.3-4.06c-2.19,5.15,11.53,4,14,3.74s14.51-1.1,13.84-5.46c-5.39,4.64-22.72,2.35-27.86,1.72"/><path class="cls-1" d="M25.61,32.24C23.52,28.5,19.84,24.75,19,20.47a.66.66,0,0,1,1.2-.5c1.11,2.06,2,4.18,3.21,6.2a37.13,37.13,0,0,1,2.91,5.77c.16.41-.49.67-.69.3"/><path class="cls-1" d="M13.16,44.77c1.74,1.44,3.52,2.83,5.28,4.26.23.2-.07.51-.31.41-4-1.91-8.62-4.92-11.33-8.45-.42-.56.42-1.38,1-1,1.91,1.41,3.54,3.24,5.39,4.75"/><path class="cls-1" d="M5.57,65.27c-1.54,0-4.17.43-5.38-.69a.65.65,0,0,1,.12-1c1.68-.85,5-.07,6.82,0,2.61.15,5.37.3,7.78,1.42.6.27.13,1-.41,1a72.13,72.13,0,0,0-8.93-.71"/></svg>