<svg id="Layer_1" data-name="Layer 1" xmlns="http://www.w3.org/2000/svg" viewBox="0 0 122 128"><defs><style>.cls-1{fill:none;stroke:#414143;stroke-miterlimit:10;stroke-width:2px;}</style></defs><title>quick-fact-community</title><path class="cls-1" d="M118.89,46.72c-4.44-13.51-17.09-23.63-29.06-30.24C67.88,4.32,37.06,5.41,17.65,21.9,7.81,30.26,2.1,44,1.53,56.71,1,68,7.55,77.05,16.41,83.25c5.53,3.85,12,6.34,18.37,8.46-.5,8.88-2.79,17.63-1.69,26.56.1.81.81,1.68,1.76,1.35a28.26,28.26,0,0,0,12.52-9.09c4.4-5.42,7.53-10.94,14.33-13.67,7.17-2.87,15.92-3,23.45-4.68s15.35-4.16,21.31-9c11.27-9.19,17.08-22.26,12.43-36.45"/></svg>