<svg id="Layer_1" data-name="Layer 1" xmlns="http://www.w3.org/2000/svg" xmlns:xlink="http://www.w3.org/1999/xlink" viewBox="0 0 66 66"><defs><style>.cls-1{fill:none;}.cls-2{clip-path:url(#clip-path);}.cls-3{fill:#f58f8b;}.cls-4{fill:#aadfec;}.cls-5{fill:#414143;}</style><clipPath id="clip-path"><rect class="cls-1" width="66" height="66"/></clipPath></defs><title>stem</title><g id="Artwork_4" data-name="Artwork 4"><g class="cls-2"><g class="cls-2"><path class="cls-3" d="M66,33A33,33,0,1,1,33,0,33,33,0,0,1,66,33"/><path class="cls-4" d="M33.74,31.2c-1.8-.06-3.56-.48-5.35-.67a19.44,19.44,0,0,1-3.76-.83c-.41,1.71-.64,3.43-.89,5.18-.27,1.93-.73,3.82-.9,5.77-.32,3.71-.7,7.87,2.83,10.26,2.91,2,7.21,2.81,10.32.86a15.22,15.22,0,0,0,4.77-4.51,18.25,18.25,0,0,0,2-5.48,70.84,70.84,0,0,0,1.87-8.05,15.88,15.88,0,0,0-5-1.62,32.1,32.1,0,0,0-5.92-.91"/><path class="cls-5" d="M42,11.89c-.51,2.74-2.58,5.28-4.6,7.18l.16.17a15.25,15.25,0,0,0,4.31-5.18c1.24-2.39,1.11-5.63.77-8.21a24.14,24.14,0,0,0-1.2-4.75L40.84,1c.1.24.19.49.27.73A20.75,20.75,0,0,1,42,11.89"/><path class="cls-4" d="M34.93,30.62s0,0,0,0h0a.18.18,0,0,1-.1.11L36,30.9A32,32,0,0,1,41.25,32a16.93,16.93,0,0,1,3.47,1.19A23.82,23.82,0,0,0,45,29.64c0-3.66-.84-7.09-4.47-8.7a20.23,20.23,0,0,0-3-1.07c-.61,1.86-.89,3.78-1.4,5.67a28.89,28.89,0,0,0-1.14,5.08"/><path class="cls-4" d="M34.64,30.75a.19.19,0,0,1,0-.09h0s0,0,0,0a5.66,5.66,0,0,1,.3-1.63c.3-1.17.56-2.36.85-3.54a34,34,0,0,1,1.53-5.64c-.51-.12-1-.23-1.51-.31a14.74,14.74,0,0,0-4.28-.17.06.06,0,0,1-.06.05c-.13,0-.25,0-.38,0a4.76,4.76,0,0,0-1.74.7.19.19,0,0,1-.23,0c-2.69,1.7-3.48,6-4.25,8.89,0,.14-.07.28-.1.41,1.75.28,3.47.62,5.24.84,1.56.21,3.13.34,4.69.51"/><path class="cls-5" d="M37.32,19.17,37,19.08c-2.3-.61-6.07-1.07-8,.66a.21.21,0,0,0,0,.06c-2,1.16-3.12,3.82-3.79,6.09-.34,1.14-.62,2.29-.88,3.45h-.07a.12.12,0,0,0-.06.23l.07,0c-.68,3.08-1.15,6.21-1.61,9.33-.5,3.35-1.11,7.35.8,10.37s5.39,3.78,8.57,4.1c3.58.37,7-2.79,9-5.43a16.46,16.46,0,0,0,2.22-5.47c.68-2.37,1.21-4.76,1.73-7.17.79-3.67,1.3-7.89-.3-11.41-1.27-2.78-4.29-3.9-7-4.66l-.16-.18-.11.11M24.81,29c.77-2.87,1.56-7.19,4.25-8.89a.19.19,0,0,0,.23,0,4.76,4.76,0,0,1,1.74-.7c.13,0,.25,0,.38,0a.06.06,0,0,0,.06-.05,14.74,14.74,0,0,1,4.28.17c.5.08,1,.19,1.51.31a33.09,33.09,0,0,0-1.53,5.64c-.29,1.18-.55,2.37-.85,3.54a5.66,5.66,0,0,0-.3,1.63s0,0,0,0h0a.19.19,0,0,0,0,.09c-1.56-.17-3.12-.3-4.69-.51-1.77-.22-3.49-.56-5.24-.84,0-.13.07-.27.1-.41m18,12.79a18.25,18.25,0,0,1-2,5.48A15.22,15.22,0,0,1,36,51.77c-3.11,1.95-7.41,1.11-10.32-.86-3.53-2.39-3.15-6.55-2.83-10.26.17-1.95.62-3.84.9-5.77.25-1.75.48-3.47.89-5.18a19.44,19.44,0,0,0,3.76.83c1.79.19,3.55.61,5.35.67a32.1,32.1,0,0,1,5.92.91,15.8,15.8,0,0,1,5,1.62,70.84,70.84,0,0,1-1.87,8.05M40.51,20.94c3.63,1.61,4.46,5,4.47,8.7a23.82,23.82,0,0,1-.26,3.57A16.93,16.93,0,0,0,41.25,32,32,32,0,0,0,36,30.9l-1.13-.13a.18.18,0,0,0,.1-.11h0s0,0,0,0a28.89,28.89,0,0,1,1.14-5.08c.51-1.89.79-3.81,1.4-5.67a20.23,20.23,0,0,1,3,1.07"/></g></g></g></svg>