<svg xmlns="http://www.w3.org/2000/svg" fill="none" viewBox="-1.02 -1.02 98 98" height="98" width="98"><path fill="#00034a" stroke="#00034a" stroke-linejoin="round" d="M12.503587999999999 54.901115000000004a14.758648 14.758648 0 0 0 -0.038384 3.464156c0 2.619708 5.332977 5.738408 7.571244 6.256592 2.101524 0.48459800000000003 5.057092 0.184723 6.028687 -1.571345a17.447927 17.447927 0 0 0 1.6385170000000002 -4.063906c6.352552 0.045580999999999997 12.750685 -2.727663 15.082513 -12.865837a11.040198 11.040198 0 0 0 -5.313784999999999 -12.940206l-0.074369 -0.08156600000000001a6.650028 6.650028 0 0 0 7.813543 -4.994718c1.149121 -4.714035 -4.598883 -8.415692 -8.144605 -10.514817a15.967744 15.967744 0 0 0 0.153536 -3.8048140000000004c0 -2.559733 -5.25381 -5.712019 -7.453693 -6.256592 -1.9647809999999999 -0.48459800000000003 -5.059491 -0.16073300000000001 -6.028687 1.5929360000000001a16.536307 16.536307 0 0 0 -1.801649 4.227038 15.036932 15.036932 0 0 0 -15.152084 12.681113999999999 11.040198 11.040198 0 0 0 5.330578 12.880231l0.235102 0.244698v0.04078300000000001a6.628437 6.628437 0 0 0 -7.945488 4.965929999999999c-1.12753 4.898758 4.332594 8.626804 8.099024 10.740323Z" stroke-width="2.04"></path><path fill="#00034a" stroke="#00034a" stroke-linejoin="round" d="M75.882769 20.206777a3.3466050000000003 3.3466050000000003 0 0 1 -2.492561 -2.677284c-1.108338 -3.627288 2.586122 -6.698008 6.052677 -7.830336 2.08713 -0.6813159999999999 4.65406 -0.8612409999999999 6.726795999999999 0.309471 2.259858 1.2738690000000001 5.076284 5.15785 5.817575 7.60483a4.917949999999999 4.917949999999999 0 0 1 -0.39583500000000005 4.241432l0.045580999999999997 0.15593500000000002c0.129546 0.422224 0.21591 0.8036650000000001 0.259092 1.149121 1.7104869999999999 -0.067172 2.024756 0.9452060000000001 2.377409 2.1471050000000003 1.077151 3.5337270000000003 -0.830054 4.1046890000000005 -5.87755 5.620857l-0.820458 0.244698c-2.578925 0.782074 -5.556083999999999 1.674502 -7.540057 0.14393999999999998 -1.144323 -0.882832 -3.9535519999999997 -4.752419000000001 -4.334993 -6.026288a5.498507999999999 5.498507999999999 0 0 1 0.460608 -3.943956 3.3394079999999997 3.3394079999999997 0 0 1 -0.131945 -0.520583 4.598883 4.598883 0 0 1 -0.14393999999999998 -0.618942Z" stroke-width="2.04"></path><path fill="#00034a" stroke="#00034a" stroke-linejoin="round" d="M65.579064 6.115051c-0.985989 -1.144323 -1.6553099999999998 -2.156701 -2.6389 -3.2962260000000003a3.5097370000000003 3.5097370000000003 0 0 0 -1.883215 -1.134727 13.647911 13.647911 0 0 1 -0.496593 -0.16073300000000001c-1.185106 -0.39823400000000003 -1.955185 -0.6573260000000001 -5.325780000000001 0.832453a11.337674 11.337674 0 0 0 -3.461757 2.031953c-0.6957099999999999 0.55177 -0.554169 1.986372 -0.16313200000000003 2.909987a4.3182 4.3182 0 0 0 0.9811909999999999 1.420208c1.002782 0.926014 1.614527 1.77526 1.614527 1.77526a42.702200000000005 42.702200000000005 0 0 0 -0.978792 4.519716c-1.9407910000000002 -0.393436 -3.5337270000000003 -0.254294 -4.042315 1.4993750000000001a2.44698 2.44698 0 0 0 0.14393999999999998 1.602532c0.537376 1.1995 2.4949600000000003 3.819208 3.74244 4.466938 1.6361180000000002 0.705306 3.349004 1.22349 5.102672999999999 1.547355 1.70329 0.594952 3.471353 0.997984 5.265804999999999 1.1995a2.42299 2.42299 0 0 0 2.54294 -1.6840979999999999c0.50379 -1.70329 -0.779675 -2.674885 -2.619708 -3.3681959999999997l0.028788 -0.105556c0.6717200000000001 -1.6097290000000002 1.252278 -3.257842 1.734477 -4.934743 0.753286 -2.293444 1.187505 -4.67805 1.29546 -7.0890450000000005a3.5097370000000003 3.5097370000000003 0 0 0 -0.8420489999999999 -2.031953Z" stroke-width="2.04"></path><path fill="#00034a" stroke="#00034a" stroke-linejoin="round" d="M73.159904 33.466049999999996c13.225687 4.526913 21.502236999999997 17.651842 18.318764 31.52286a1.9623819999999998 1.9623819999999998 0 0 1 -2.42299 1.453794l-22.034815000000002 -6.352552 -2.6389 -3.2962260000000003 6.467704 -22.034815000000002a1.9192 1.9192 0 0 1 2.310237 -1.293061Z" stroke-width="2.04"></path><path fill="#00034a" stroke="#00034a" stroke-miterlimit="10" d="M80.31851999999999 67.81013399999999c-4.085497 -0.590154 -13.590335 -1.8880130000000002 -21.197564 -2.643698 1.019575 -7.415309000000001 1.9743769999999998 -15.828602 2.478167 -20.273949l0.127147 -1.120333a2.029554 2.029554 0 0 0 -0.04798 -0.81566c-0.403032 -1.489779 -2.1998830000000003 -3.471353 -3.488146 -4.171861000000001a2.029554 2.029554 0 0 0 -0.782074 -0.23750100000000002c-16.12128 -1.153919 -25.383819 8.08463 -27.231049000000002 23.097572 -2.019958 16.50512 8.977058 30.172223 25.381420000000002 32.177787 16.586686 2.031953 26.424985000000003 -6.398133 28.941536 -20.787335a2.031953 2.031953 0 0 0 -0.367047 -1.501774c-0.8276549999999999 -1.132328 -2.298242 -3.47855 -3.81441 -3.7232480000000003Z" stroke-width="2.04"></path><path fill="#e29269" stroke="#00034a" stroke-miterlimit="10" d="M80.31851999999999 67.81013399999999a2.031953 2.031953 0 0 1 1.686497 2.310237c-2.5189500000000002 14.389202000000001 -12.35485 22.819288 -28.939137000000002 20.787335 -17.39275 -2.125514 -24.80566 -13.60233 -22.888859 -29.263002 1.8472300000000001 -15.012942 11.10737 -24.25389 27.22865 -23.097572a2.029554 2.029554 0 0 1 1.825639 2.310237c-0.508588 4.457342000000001 -1.732078 15.427969000000001 -2.979558 24.042778000000002 7.899907000000001 0.6717200000000001 19.448693 2.240666 24.066768 2.909987Z" stroke-width="2.04"></path><path fill="#ffffff" stroke="#00034a" stroke-linejoin="round" d="M88.842167 61.690285c2.955568 -12.887428 -1.9192 -23.5102 -15.682263 -28.224235a1.9192 1.9192 0 0 0 -2.310237 1.29546l-6.467704 22.032415999999998 22.034815000000002 6.352552a1.96718 1.96718 0 0 0 2.4253889999999996 -1.456193Z" stroke-width="2.04"></path><path fill="#ffffff" stroke="#00034a" stroke-linejoin="round" d="M39.96734 43.928089a11.040198 11.040198 0 0 0 -5.5177 -13.05056 6.650028 6.650028 0 0 0 7.945488 -4.965929999999999c1.084348 -4.454943 -3.648879 -7.782356000000001 -8.269353 -9.835899999999999a15.970143 15.970143 0 0 0 0.27828400000000003 -4.481332c0 -1.986372 -2.655693 -3.581707 -4.620474 -4.066305 -1.9623819999999998 -0.48459800000000003 -5.057092 -0.16073300000000001 -6.028687 1.5929360000000001a16.536307 16.536307 0 0 0 -1.79925 4.227038 15.036932 15.036932 0 0 0 -15.152084 12.681113999999999 11.040198 11.040198 0 0 0 5.5656799999999995 13.00258v0.16313200000000003a6.628437 6.628437 0 0 0 -7.945488 4.965929999999999c-1.153919 5.011511 3.8336020000000004 8.175792 8.221373 9.955850000000002a14.756249 14.756249 0 0 0 -0.16073300000000001 4.24623c0 2.0103619999999998 2.6341020000000004 3.581707 4.735626 4.066305 2.101524 0.48459800000000003 5.057092 0.184723 6.028687 -1.571345a17.44073 17.44073 0 0 0 1.6385170000000002 -4.063906c6.352552 0.04798 12.748286 -2.7252639999999997 15.082513 -12.865837Z" stroke-width="2.04"></path><path stroke="#00034a" stroke-linecap="round" stroke-linejoin="round" d="M34.44964 30.901519a24.25389 24.25389 0 0 0 -9.631984999999998 -2.307838" stroke-width="2.04"></path><path stroke="#00034a" stroke-linecap="round" stroke-linejoin="round" d="M12.254092 39.05572a22.243528 22.243528 0 0 0 9.607994999999999 2.310237" stroke-width="2.04"></path><path fill="#e29269" stroke="#00034a" stroke-miterlimit="10" d="M60.711493 16.975324c0.690912 -1.640916 1.2858640000000001 -3.322615 1.77526 -5.035501000000001 0.755685 -2.293444 1.189904 -4.67805 1.29546 -7.091444A3.512136 3.512136 0 0 0 61.056949 1.6840979999999999c-1.523365 -0.460608 -2.0103619999999998 -1.014777 -5.819974 0.6717200000000001a11.340073 11.340073 0 0 0 -3.464156 2.031953c-0.6957099999999999 0.55177 -0.554169 1.986372 -0.16313200000000003 2.909987 0.393436 0.9236150000000001 1.29546 2.031953 2.195085 1.9407910000000002 0.251895 0.035984999999999996 0.508588 0.035984999999999996 0.7628820000000001 0 0 0.184723 -0.115152 0.369446 -0.16313200000000003 0.55177a42.337552 42.337552 0 0 0 -1.17551 5.2226230000000005c-1.9431900000000002 -0.393436 -3.536126 -0.254294 -4.044714 1.4993750000000001a2.44698 2.44698 0 0 0 1.2474800000000001 2.773244c1.6385170000000002 0.705306 3.351403 1.22349 5.105072000000001 1.547355 1.70329 0.594952 3.471353 0.997984 5.265804999999999 1.1995a2.42299 2.42299 0 0 0 2.54294 -1.6840979999999999c0.506189 -1.7104869999999999 -0.786872 -2.679683 -2.6341020000000004 -3.372994Z" stroke-width="2.04"></path><path fill="#e29269" stroke="#00034a" stroke-linejoin="round" d="M87.249231 20.254756999999998a4.917949999999999 4.917949999999999 0 0 0 2.101524 -5.935126c-1.662507 -5.498507999999999 -6.443714 -5.752802 -9.907869999999999 -4.620474 -3.466555 1.132328 -7.161015 4.203048 -6.052677 7.830336a3.349004 3.349004 0 0 0 3.488146 2.770845 5.496109 5.496109 0 0 0 -1.177909 4.989920000000001c1.477784 4.917949999999999 5.728812 3.648879 9.238549 2.586122 5.659241 -1.7080879999999998 7.830336 -2.1471050000000003 6.698008 -5.865555 -0.463007 -1.571345 -0.8540439999999999 -2.818825 -4.39017 -1.756068Z" stroke-width="2.04"></path><path stroke="#00034a" stroke-linecap="round" stroke-linejoin="round" d="M76.832773 20.300338a12.611543 12.611543 0 0 1 3.4857470000000004 -3.349004" stroke-width="2.04"></path><path stroke="#00034a" stroke-linecap="round" stroke-linejoin="round" d="M87.249231 20.254756999999998a11.17934 11.17934 0 0 0 -2.7252639999999997 1.038767" stroke-width="2.04"></path></svg>