<svg xmlns="http://www.w3.org/2000/svg" enable-background="new 0 0 75 75" viewBox="0 0 75 75"><path d="M14.6497526,56.9511719c-0.1004744,0.0211983-3.5676899,0.7528152-3.357605,0.7084961
		c-1.3447733-0.1034431-2.4038744,0.9977913-2.857605,2.2734985c-0.3828125,1.0771484-0.3896484,2.2490234-0.3662109,3.2636719
		c0.0449219,1.9599609,0.2207031,4.2236328,1.1845703,6.1533203c0.9396973,1.8813477,2.0413818,3.1478882,4.3268433,3.2262573
		c4.763154,0.2947235,26.1780701-6.7447739,30.897522-8.3009644c3.2958069,6.2195969,13.0462799,8.0058136,17.2561035-0.6088867
		c3.7426109-7.4852219-2.3199501-14.8105049-9.6473389-13.5792236c-0.3049316-1.1898193-0.7850952-3.0498657-1.0743408-4.1707764
		l-0.1040649-0.4036255l2.1089478-1.4801636c6.7464142-4.7668076,7.5411148-5.1599693,7.8251953-5.9423828
		c0.3858528-1.0040245-0.281723-2.1929054-1.7792969-2.2675781c-0.9135246-0.0479355-10.5805016,0.6361351-11.1327515,0.670166
		c-0.3034821-0.8228493-0.8601494-2.2272491-1.2785645-3.3637695c1.212822-0.5339279,1.901432-1.2865639,2.8771362-2.2233887
		c13.8148041-13.495882,16.9713326-16.673933,18.1376915-20.3466797c0.8388672-2.6152344,1.2890625-5.2802734-1.0791016-7.0615234
		c-1.1132813-0.8378906-2.5371094-1.2128906-3.9150352-1.0429688c-0.9404297,0.1210938-4.1591797,0.6513672-6.0742188,2.4023438
		c-2.9406891,2.6938066-9.4289055,8.6756926-13.6348267,12.5392456c-0.482666-1.434082-1.1109619-2.9797363-1.5839233-3.6964722
		c-0.1411552-0.2156191-0.3825111-0.3359375-0.5996094-0.3359375c-1.9082031,0-28.9990234,7.5361328-29.2138672,7.6210938
		c-1.0458193,0.414381-3.2431965,0.8182621-4.110352,1.8359375c-1.3144531,1.5195313-0.7128906,4.5830078-0.2304688,7.0439453
		C7.8967853,33.3005142,8.4518738,43.5220528,14.6497526,56.9511719z M16.7568073,67.9312134
		c-0.0830078,0.7841797-0.2333984,1.6757813-0.6992188,2.3378906c-0.2949209,0.4033203-0.70996,0.6943359-1.1103506,0.7792969
		c-0.0026855,0.0005493-0.0045776,0.0025024-0.0072632,0.0031128c-0.2950869,0.0492706-1.3303823,0.0384598-1.2302246,0.0376587
		c-1.3065786-0.0855484-2.1037588-0.385231-3.1150513-2.4089355c-0.8320313-1.6660156-0.9853516-3.7236328-1.0263672-5.5185547
		c-0.0205078-0.8798828-0.0175781-1.8896484,0.2802734-2.7265625c0.2607422-0.7333984,0.7734375-1.2646484,1.2490234-1.2919922
		c1.4767866-0.0376587,3.7372246,4.3603935,1.9667969,7.5380859c-0.2011719,0.3623047-0.0712891,0.8193359,0.2900391,1.0205078
		c0.3652344,0.2021484,0.8203125,0.0712891,1.0205078-0.2900391c1.4777117-2.6538773,0.8944378-6.4726982-1.0751953-8.6432495
		l1.9799805-0.4160156C16.6025105,61.3624268,17.1199665,64.65802,16.7568073,67.9312134z M54.6127663,62.6513672
		c0.0300293,0.4199829-0.289978,0.7700195-0.6999512,0.7999878c-0.4000244,0.0300293-0.7700195-0.289978-0.8000488-0.7000122
		c-0.0345383-0.6799355-0.0499878-2.0464973-0.0499878-2.1499634c-3.7114563-0.0139656-3.0999756-0.0100098-3.2000122-0.0100098
		l-0.0299683,2.2399902c-0.0100098,0.4100342-0.3400269,0.7399902-0.75,0.7399902c-0.0100098,0-0.0100098,0-0.0100098,0
		c-0.4199829-0.0100098-0.75-0.3499756-0.7399902-0.7600098c0.0585747-3.8489342,0.0038872-4.4412918,0.3699951-5.3199463
		c0.9858398-2.269886,4.009449-2.4918365,5.2399902-0.5400391C54.7852898,58.2853966,54.4760246,60.7359581,54.6127663,62.6513672z
		 M56.7728004,57.0213623c-0.4100342,0-0.7399902-0.3200073-0.75-0.7299805l-0.0100098-0.25
		c0-0.4100342,0.3200073-0.7600098,0.7399902-0.7700195c0.4100342,0.0200195,0.7600098,0.3200073,0.7600098,0.7399902
		l0.0100098,0.25C57.532856,56.6733742,57.1979675,57.0213623,56.7728004,57.0213623z M57.582798,58.4613647l0.0999756,4.0200195
		c0.0100098,0.4099731-0.3200073,0.7600098-0.7299805,0.7699585c-0.4562416,0-0.760498-0.3494186-0.7700195-0.7299805
		l-0.0999756-4.0200195C56.05933,57.5402412,57.5574265,57.4222946,57.582798,58.4613647z M52.0918922,37.7113647
		l-0.1280518,2.1671143c-0.0251274,0.4251099,0.3110466,0.7939453,0.75,0.7939453
		c0.3935547,0,0.7246094-0.3076172,0.7480469-0.7060547l0.1390991-2.3535767
		c0.3327789-0.0196228,2.7558975-0.1627045,3.0786743-0.1757202c0.8877335-0.0866241,2.9153099-0.2905922,2.7568359,0.1289063
		c-0.1145096,0.3148918-5.8536301,4.1706886-28.89258,20.40625c-0.7995071,0.5569229-1.906374,0.5309067-2.4228516-0.2636719
		C17.2888355,40.950264,18.2192898,42.29459,17.6894245,41.6050415c-0.8886719-1.1611328-0.8994141-1.4560547-0.8574219-1.5029297
		c0.547266-0.3502502,3.901741-0.4680405,4.5515137-0.4903564l-0.1149902,1.9454346
		c-0.0244141,0.4130859,0.2910156,0.7685547,0.7050781,0.7929688c0.4036083,0.0269089,0.7683067-0.2858047,0.7929688-0.7050781
		l0.1226807-2.0760498c3.0089607-0.066391,1.8164597-0.0231476,4.0732422-0.15802l-0.1090088,1.8473511
		c-0.0244141,0.4130859,0.2910156,0.7685547,0.7050781,0.7929688c0.4036083,0.0269089,0.7683067-0.2858047,0.7929688-0.7050781
		l0.1196899-2.0280762c0.3061619-0.0193367-0.8614006,0.0530815,4.411623-0.270874l-0.116272,1.9805908
		c-0.0244141,0.4130859,0.2910156,0.7685547,0.7050781,0.7929688c0.4036064,0.0269089,0.7683067-0.2858047,0.7929497-0.7050781
		l0.1267891-2.1594238c2.0669975-0.1211662,4.8298187-0.3325233,4.9344482-0.340332l-0.1149292,1.9558105
		c-0.0244141,0.4130859,0.2910156,0.7685547,0.7050781,0.7929688c0.4036064,0.0269089,0.7683029-0.2858047,0.7929688-0.7050781
		l0.1264038-2.1524048c0.1002274-0.0075722,3.864502-0.2848663,4.8481445-0.3505859l-0.1298218,2.2109985
		c-0.0241356,0.4253426,0.3127403,0.7929688,0.75,0.7929688c0.3945313,0,0.7246094-0.3076172,0.7480469-0.7070313
		l0.1411743-2.4024658c0.2524643-0.0162888,0.4923706-0.0407562,0.9164429-0.0672607
		C48.2098656,37.977066,51.7125549,37.7372932,52.0918922,37.7113647z M40.7724342,32.3569946
		c-0.7457581-1.0483437-2.2306595-2.9470348-3.1650391-4.2616577c0.4254189-1.5107536,1.3326836-4.6453571,2.3726196-5.8289795
		c1.7586708,3.2723427,4.2058525,6.0843563,7.6987915,8.3379517C45.753849,32.3940506,44.8347282,32.2150879,40.7724342,32.3569946z
		 M60.5265846,11.1340942c-3.4849243,4.6340942-10.8930664,11.9362183-15.3839722,15.5493774
		c-0.7692261-0.7508545-1.4754639-1.5602417-2.1213989-2.423645c4.5496216-3.3586426,12.0774536-10.1886597,16.117981-14.6270752
		C59.5968971,10.1508789,60.058506,10.6487427,60.5265846,11.1340942z M48.785862,29.5350952
		c-0.8934937-0.5568237-1.7328491-1.1680298-2.5186157-1.8308105c4.5237427-3.678833,11.7720337-10.8318481,15.3312378-15.4989624
		c0.7112427,0.6829224,1.4503784,1.3432007,2.2433472,1.9874268C61.1057091,17.538517,52.8222046,25.5906219,48.785862,29.5350952z
		 M62.862278,3.9429321c0.9873047-0.1298828,2.0175743,0.1484375,2.8232384,0.7539063
		c1.5332031,1.1533203,1.3476563,2.9228516,0.5517578,5.4042969c-0.0009766,0.0009766-0.0009766,0.0019531-0.0009766,0.0029297
		c-0.1044312,0.3293457-0.2333984,0.647583-0.3737793,0.9610596c-2.3046837-1.8740845-4.0641441-3.8265381-5.8139-6.4550781
		C60.9957619,4.2727661,62.0007668,4.0535889,62.862278,3.9429321z M56.7421608,6.7595215
		c0.4770508,0.5975952,0.9470215,1.1772461,1.4101563,1.7284546c-3.8843994,4.293335-11.513916,11.2265015-15.9868774,14.5390015
		c-0.3869019-0.6016846-0.7501831-1.2237549-1.0820923-1.8723755C44.8999672,17.6643639,52.7436104,10.4289408,56.7421608,6.7595215
		z M8.5927458,23.7974243c0.5010223-0.5861282,2.609972-1.054697,3.5244141-1.4179688
		c1.8466797-0.7255859,25.0009766-6.8164063,28.2333984-7.4658203c0.440918,0.8486938,1.0087891,2.3500366,1.3982544,3.597168
		c-4.2821007,3.9289322-3.4667549,2.8136673-5.6864624,9.4780884c-0.6907921,2.0723686-1.6411552,3.5922813-1.430542,4.8427124
		c0.2352219,1.4551048,1.9172096,1.3441162,3.3427734,1.171875c1.6983795-0.2043686,5.4078369-0.0964851,7.2385254-0.4395142
		c0.3682175,1.0056648,0.8606567,2.2604561,1.1573486,3.0419312c-0.1004715,0.006691-0.5568924,0.0370865-0.4564209,0.0303955
		c-15.9860992,1.0698547-19.050621,1.353138-22.2070332,1.4160156c-2.1302795,0.0420456-7.0270443,0.062912-7.9042959,0.9628906
		c-1.1240234,1.1240234,0.0595703,2.6708984,0.6953115,3.5019531c0.3731441,0.4850845,0.8220387,1.2428398,10.3642578,16.0058594
		c0.9635372,1.4867249,3.0047264,1.7494583,4.5410156,0.6787109l18.192873-12.7683716
		c0.2906494,1.1257324,0.7401123,2.8672485,1.0331421,4.0098267c-1.2060318,0.408802-2.2057991,0.9858971-3.2123413,1.7497559
		c-1.5235863-0.2330856-4.2407074,0.1381836-5.3769531,0.9462891c-0.9891014,0.6981888-0.7909241,2.2122955,0.1601563,2.5039063
		c0.7080002,0.2002907,1.3310776,0.4423103,1.9384766,0.7958984c-0.8510399,1.9761429-1.0052147,4.2798347-0.2680054,6.4570923
		c-6.303833,2.0770264-19.0844135,6.1746216-26.2583637,7.680603c1.0397339-2.096756,1.356678-8.0244598-1.2119141-13.4072266
		c-6.4405298-13.5465736-7.0169735-24.0903664-7.7041006-27.59375C8.3437223,27.7778931,7.7538781,24.769104,8.5927458,23.7974243z"/><path d="M43.4673805 43.0888062c-.0007935 0-.0018311-.0003662-.0025635-.0003662-.0029297 0-.0068359 0-.0097656.0009766-.6143684-.0592651-12.4781666.8725815-14.5468769.9121094-2.4433594.0498047-3.1308594.1513672-3.5097656.5195313-.8086357.8011131.145668 1.8346786.3496094 2.1484375l4.1181641 6.3730469c.5241699.839962 1.6554413 1.0044823 2.4941425.4111328l10.5800781-7.4316406c1.177803-.8087578 1.4120483-1.057972 1.3847046-1.0354004C45.1076279 44.1490135 44.2051811 42.9432755 43.4673805 43.0888062zM31.4970417 52.2271118c-.1112213.0809975-.2933865.1279678-.3652344.0107422-3.5761032-5.5180054-3.8887863-6.0845222-4.3144531-6.6416016.6416016-.0644531 1.6621094-.0849609 2.1210938-.0947266 1.8568363-.037674 9.563818-.6334534 13.3603535-.8613281C42.154747 44.7416458 31.870327 51.9649277 31.4970417 52.2271118zM15.9853239 29.0776978l15.6689444-4.8505859c.3955097-.1230469.6171894-.5429688.4951191-.9384766s-.5380878-.6142578-.9384785-.4951172L15.5419645 27.644104c-.3955078.1230469-.6171875.5429688-.4951172.9384766C15.1700211 28.9810829 15.5921783 29.1982632 15.9853239 29.0776978zM25.8525105 29.1939087l-8.5410156 2.5195313c-.9397659.2770805-.5430527 1.7214622.4238281 1.4394531l8.5410156-2.5195313c.3974609-.1171875.625-.5341797.5078125-.9316406C26.665987 29.3032837 26.2480183 29.0806274 25.8525105 29.1939087zM50.0928078 58.0813599c-.1300049.2999878-.1799927.6500244-.1900024 1.0100098.1012878 0-.4846954-.0039368 3.1099854.0100098-.039978-.4800415-.1099854-.9899902-.3400269-1.3500366C52.0765991 56.8017693 50.5616302 56.9425583 50.0928078 58.0813599z"/></svg>