<svg id="Layer_1" data-name="Layer 1" xmlns="http://www.w3.org/2000/svg" viewBox="0 0 24 24"><defs><style>.cls-1{fill:#f2cb05;}.cls-2{fill:#3f7e43;}.cls-3{fill:#7503a6;}.cls-4{fill:#fff;}</style></defs><circle class="cls-1" cx="7.83" cy="9.39" r="7.83"/><circle class="cls-2" cx="16.07" cy="14.41" r="7.83"/><circle class="cls-3" cx="12.29" cy="12.09" r="7.83"/><path class="cls-4" d="M8.78,8.6l-.6,2.86H7.62L7.27,10c0-.17-.08-.39-.1-.49a4.85,4.85,0,0,1-.09.49l-.36,1.47H6.18L5.58,8.6h.6L6.43,10c0,.14.06.35.07.47,0-.12.07-.33.1-.47L6.93,8.6h.5L7.77,10c0,.14.08.35.1.47,0-.12,0-.33.07-.47L8.19,8.6Z"/><path class="cls-4" d="M10.82,10.39a.87.87,0,0,1,0,.18H9.53A.41.41,0,0,0,10,11a.48.48,0,0,0,.37-.15l.4.34a1,1,0,0,1-.77.35,1,1,0,0,1-1-1.12,1,1,0,0,1,.95-1.12C10.49,9.27,10.82,9.78,10.82,10.39Zm-.55-.25a.37.37,0,1,0-.74,0Z"/><path class="cls-4" d="M13.67,10.88H13.3v.58h-.56v-.58H11.18v-.52L12.69,8.6h.61v1.74h.37Zm-.91-1.63c-.06.07-.16.21-.26.32l-.41.48-.27.3h.92V9.88C12.74,9.71,12.76,9.36,12.76,9.25Z"/><path class="cls-4" d="M7.92,12.61l-.54.25a.53.53,0,0,0-.52-.31c-.43,0-.68.37-.68.91s.25.9.68.9A.62.62,0,0,0,7.43,14l.48.29a1.1,1.1,0,0,1-1.06.64,1.29,1.29,0,0,1-1.26-1.47A1.33,1.33,0,0,1,6.87,12,1.08,1.08,0,0,1,7.92,12.61Z"/><path class="cls-4" d="M10.26,14.89H9.69V13.73c0-.39-.13-.5-.36-.5s-.37.11-.37.48v1.18H8.4v-2.7L9,11.9v1a.72.72,0,0,1,.5-.19c.55,0,.8.38.8,1Z"/><path class="cls-4" d="M12.53,14.89H12v-.14a.7.7,0,0,1-.48.18.75.75,0,0,1-.81-.76c0-.48.39-.71.88-.71a1,1,0,0,1,.41.08v-.1a.27.27,0,0,0-.31-.28,1.12,1.12,0,0,0-.59.14l-.21-.39a1.45,1.45,0,0,1,.8-.22c.52,0,.87.27.87.76v1.44ZM12,14.26V14a.66.66,0,0,0-.39-.09c-.22,0-.33.1-.33.27s.09.28.33.28A.46.46,0,0,0,12,14.26Z"/><path class="cls-4" d="M14.93,14.89h-.57V13.73c0-.39-.13-.5-.36-.5s-.37.11-.37.48v1.18h-.57V12.74h.57v.14a.72.72,0,0,1,.5-.19c.55,0,.8.38.8,1Z"/><path class="cls-4" d="M17.2,14.52c0,.71-.17,1.08-.93,1.16l-.2-.43c.44-.06.56-.17.56-.5a.62.62,0,0,1-.45.18c-.46,0-.84-.34-.84-1.14,0-.65.31-1.1.84-1.1a.68.68,0,0,1,.45.17v-.12h.57v1.78Zm-.57-.3v-.81a.43.43,0,0,0-.38-.18c-.21,0-.33.18-.33.55s.14.62.37.62A.38.38,0,0,0,16.63,14.22Z"/><path class="cls-4" d="M19.51,13.82c0,.08,0,.14,0,.18H18.21a.42.42,0,0,0,.45.4.48.48,0,0,0,.36-.15l.41.34a1,1,0,0,1-.77.34,1,1,0,0,1-1-1.11,1,1,0,0,1,1-1.13C19.18,12.69,19.51,13.2,19.51,13.82ZM19,13.57a.38.38,0,0,0-.39-.38.37.37,0,0,0-.35.38Z"/></svg>