<svg xmlns="http://www.w3.org/2000/svg" viewBox="0 0 64 64">
	<defs>
		<style>.cls-1{fill:#69c5ac;}.cls-2{fill:#fff;}

			path {
				fill: #212121;
				}

			@media  (prefers-color-scheme: dark ) {
				path {
				fill: white;
				opacity: 0.5;
				}

			}
		</style>
	</defs>
		<g>
			<g>
				<circle class="cls-1" cx="32" cy="32" r="32"/>
				<path class="cls-2" d="M9.65,26.77c0,1.67.75,2.44,1.72,2.44,1.58,0,2-1.83,2.24-3,.07-.43,1.22-1,2.08-1,.27,0,.38.14.38.34s-.22.5-.38,1.18a27.15,27.15,0,0,0-.41,2.87c-.31,6.1-1.9,10.55-6.39,10.55-2.22,0-4.07-1.46-4.07-3.5a3.49,3.49,0,0,1,3.64-3.5c.54,0,.83.09.83.34s-.09.25-.29.36A1.76,1.76,0,0,0,8,35.2c0,.82.45,1.4,1.56,1.4,1.94,0,3.21-3.05,3.57-6.89A4.15,4.15,0,0,1,9.54,32c-2,0-3.73-1.56-3.73-4.21C5.81,22.48,9.72,18,13.2,18c1.88,0,3,1.08,3,2.62,0,1.27-.59,2.22-1.47,2.22a1,1,0,0,1-1.09-1c0-1,.91-1.13.91-1.81,0-.38-.25-.58-.73-.58a2.58,2.58,0,0,0-1.76.81A9.34,9.34,0,0,0,9.65,26.77Z"/><path class="cls-2" d="M16.44,31.2c0-1.44.74-2.91.74-3.73,0-.38-.13-.43-.13-.72,0-.5,1.19-.84,2.5-.84.5,0,.77.21.77.59,0,.9-.72,2.33-.72,3.82,0,.59.34.93.75.93s.56-.18.85-.48.25-.22.39-.22a.32.32,0,0,1,.31.31,1.21,1.21,0,0,1-.36.73,3.67,3.67,0,0,1-2.87,1.49C17.18,33.08,16.44,32.24,16.44,31.2Zm3-9.56a1.16,1.16,0,0,1,1.27,1.2A1.94,1.94,0,0,1,19,24.72a1.24,1.24,0,0,1-1.26-1.23A1.9,1.9,0,0,1,19.44,21.64Z"/><path class="cls-2" d="M24,32.49c0,.38-.15.47-.49.47-.68,0-1.56.12-1.9.12s-.48-.12-.48-.5c0-.84.95-3.89.95-5.11,0-.38-.16-.43-.16-.72,0-.5,1.23-.84,2.54-.84.49,0,.76.21.76.59a6.19,6.19,0,0,1-.13,1,2.4,2.4,0,0,1,2-1.47,1,1,0,0,1,1,1.07,1.66,1.66,0,0,1-1.47,1.78.88.88,0,0,1-.95-.86,2.25,2.25,0,0,0-.77,1A10.54,10.54,0,0,0,24,32.49Z"/><path class="cls-2" d="M28,31c0-2.05,1.75-4.95,1.75-8.45,0-.75-.39-1.11-.89-1.11-.2,0-.31-.09-.31-.27,0-.47,1.2-1.22,2.48-1.22a1.69,1.69,0,0,1,1.92,1.76c0,1.9-1.8,6.49-1.8,8.66,0,.59.31.93.72.93s.56-.18.86-.48.25-.22.38-.22a.32.32,0,0,1,.32.31c0,.25-.14.43-.36.73a3.66,3.66,0,0,1-2.85,1.49A2,2,0,0,1,28,31Z"/><path class="cls-2" d="M34.52,30.84c0,.57.2.95.61.95s.49-.2.49-.61c0-1.33-2.23-1.54-2.23-3.23,0-1.43,1.42-2.15,3.12-2.15s2.39.63,2.39,1.56a1,1,0,0,1-1.06,1.15.8.8,0,0,1-.81-.77c0-.34.18-.47.18-.67s-.18-.32-.43-.32a.74.74,0,0,0-.66.75c0,1.33,2.49,1.51,2.49,3.16,0,1.47-1.18,2.46-3.17,2.46-1.69,0-2.93-.74-2.93-2a1.08,1.08,0,0,1,1-1.16C34.16,30,34.52,30.3,34.52,30.84Z"/><path class="cls-2" d="M22.07,40.69c0-.25.07-.42.35-.42h3.89c.19,0,.28.1.28.25v4.82c0,.32-.11.48-.4.48h-.93c-.34,0-.5-.08-.62-.34l-.08-.16a6.58,6.58,0,0,1-3,.67c-3.69,0-6.4-1.84-6.4-5.82,0-3.27,2.3-5.67,6.49-5.67,3.84,0,4.79,1.62,4.79,2.86a1.57,1.57,0,0,1-1.67,1.57,1.48,1.48,0,0,1-1.52-1.52,1.65,1.65,0,0,1,.23-.84,6.31,6.31,0,0,0-1.63-.2,3.52,3.52,0,0,0-3.81,3.87A3.35,3.35,0,0,0,21.73,44a5.16,5.16,0,0,0,2.3-.5v-.82c0-.36-.23-.5-.54-.5h-1c-.25,0-.37-.12-.37-.42Z"/><path class="cls-2" d="M32.41,37.39c3.33,0,4.68,2,4.68,4.31S35.74,46,32.41,46s-4.66-2-4.66-4.32S29.07,37.39,32.41,37.39Zm-1.93,4.32c0,1.68.63,2.61,1.93,2.61s2-.93,2-2.61-.63-2.61-2-2.61S30.48,40,30.48,41.71Z"/><path class="cls-2" d="M46.86,44.08H47c.34,0,.39.08.39.28v1.1c0,.3-.08.36-.39.36H42.25c-.3,0-.39-.06-.39-.36v-1.1c0-.2.06-.28.39-.28h.12c.65,0,.9-.15.9-.86v-6c0-.71-.25-.87-.9-.87h-.14c-.31,0-.37-.08-.37-.28V35c0-.29.09-.35.37-.35H47c.3,0,.39.06.39.35v1.1c0,.2-.06.28-.39.28h-.15c-.64,0-.87.11-.87.87v6C46,44,46.21,44.08,46.86,44.08Z"/><path class="cls-2" d="M49.15,34.64h9.17c.58,0,.69,0,.73.72l.13,2.33c0,.26,0,.37-.3.37H57.66c-.27,0-.36-.08-.4-.34l-.08-.5c-.11-.71-.48-.72-2-.72h-.1v6.89c0,.6.27.69.87.69h.15c.33,0,.38.08.38.28v1.1c0,.3-.08.36-.38.36H51.35c-.27,0-.37-.06-.37-.36v-1.1c0-.2.06-.28.37-.28h.14c.64,0,.89-.15.89-.86V36.5h-.11c-1.49,0-1.86,0-2,.72l-.08.5c0,.26-.15.34-.4.34H48.58c-.31,0-.29-.11-.28-.37l.13-2.33C48.46,34.67,48.57,34.64,49.15,34.64Z"/>
			</g>
		</g>
</svg>