<?xml version="1.0" encoding="UTF-8"?>
<svg id="Layer_1" data-name="Layer 1" xmlns="http://www.w3.org/2000/svg" viewBox="0 0 1719 1080">
  <defs>
    <style>
      .cls-1 {
        stroke: #d3cdcb;
        stroke-dasharray: 0 50;
        stroke-width: 9px;
      }

      .cls-1, .cls-2, .cls-3, .cls-4, .cls-5, .cls-6, .cls-7 {
        stroke-miterlimit: 10;
      }

      .cls-1, .cls-8, .cls-7 {
        fill: none;
      }

      .cls-9 {
        letter-spacing: -.03em;
      }

      .cls-10 {
        letter-spacing: -.03em;
      }

      .cls-2, .cls-3, .cls-4, .cls-5, .cls-6, .cls-8, .cls-7, .cls-11, .cls-12 {
        stroke: #00034a;
        stroke-width: 2.04px;
      }

      .cls-2, .cls-6 {
        fill: #e29269;
      }

      .cls-2, .cls-8, .cls-7 {
        stroke-linecap: round;
      }

      .cls-3 {
        fill-rule: evenodd;
      }

      .cls-3, .cls-5, .cls-13, .cls-12 {
        fill: #00034a;
      }

      .cls-4, .cls-11 {
        fill: #fff;
      }

      .cls-14 {
        font-family: Inter-Black, Inter;
        font-size: 92px;
        font-weight: 800;
      }

      .cls-8, .cls-11, .cls-12 {
        stroke-linejoin: round;
      }

      .cls-15 {
        letter-spacing: -.03em;
      }

      .cls-16 {
        letter-spacing: -.03em;
      }

      .cls-17 {
        fill: #f9e9e1;
      }

      .cls-17, .cls-13 {
        stroke-width: 0px;
      }
    </style>
  </defs>
  <rect class="cls-17" x="-2" width="1721" height="1082"/>
  <rect class="cls-1" x="67.5" y="72" width="1584" height="936" rx="27.08" ry="27.08"/>
  <text class="cls-14" transform="translate(124.37 209.43)"><tspan class="cls-10" x="0" y="0">F</tspan><tspan x="50.57" y="0">und</tspan><tspan class="cls-15" x="229.08" y="0">r</tspan><tspan x="266.59" y="0">aising</tspan></text>
  <text class="cls-14" transform="translate(976.37 936.43)"><tspan x="0" y="0">G</tspan><tspan class="cls-16" x="71.09" y="0">r</tspan><tspan x="108.6" y="0">ant </tspan><tspan class="cls-9" x="277.96" y="0">W</tspan><tspan x="375.44" y="0">riting</tspan></text>
  <g>
    <path class="cls-13" d="m497,570.77c1.52,7.15,11.7,23.24,20.08,23.24,5.82,0,10.39-5.92,12.17-21.94,16.11-1.65,22.04-6.45,22.04-12.27,0-8.11-16.23-18.12-23.14-19.64-1.49-7.12-11.69-23.2-20.01-23.2-5.72,0-10.41,5.83-12.27,21.94-16.01,1.56-21.94,6.45-21.94,12.17,0,8.1,16.19,18.14,23.07,19.71h0Z"/>
    <path class="cls-13" d="m410.85,538.49c0-7.06,5.72-12.79,12.79-12.79,7.98,0,19.53,11.44,19.53,19.42,0,7.06-5.73,12.79-12.81,12.79-7.97,0-19.51-11.43-19.51-19.42Z"/>
    <path class="cls-13" d="m533.24,620c0-9.36,7.59-16.95,16.95-16.95,10.57,0,23.68,13.01,23.68,23.59,0,9.36-7.59,16.95-16.95,16.95-10.57,0-23.69-13.02-23.69-23.59h.01Z"/>
    <path class="cls-7" d="m497,570.77c1.52,7.15,11.7,23.24,20.08,23.24,5.82,0,10.39-5.92,12.17-21.94,16.11-1.65,22.04-6.45,22.04-12.27,0-8.11-16.23-18.12-23.14-19.64-1.49-7.12-11.69-23.2-20.01-23.2-5.72,0-10.41,5.83-12.27,21.94-16.01,1.56-21.94,6.45-21.94,12.17,0,8.1,16.19,18.14,23.07,19.71h0Z"/>
    <path class="cls-7" d="m410.85,538.49c0-7.06,5.72-12.79,12.79-12.79,7.98,0,19.53,11.44,19.53,19.42,0,7.06-5.73,12.79-12.81,12.79-7.97,0-19.51-11.43-19.51-19.42Z"/>
    <path class="cls-7" d="m533.24,620c0-9.36,7.59-16.95,16.95-16.95,10.57,0,23.68,13.01,23.68,23.59,0,9.36-7.59,16.95-16.95,16.95-10.57,0-23.69-13.02-23.69-23.59h.01Z"/>
    <path class="cls-5" d="m246.45,730c30.1,31.12,69.74,39.23,111.14,26.13,47.94-15.19,71.23-46.59,72.78-85.27,39.73-21.74,56.26-43.36,50.23-62.08-10.39-31.88-57.95-31.59-83.78-28.49-29.99-31.26-69.85-39.89-111.28-26.41-47.63,15.5-71.24,46.58-72.78,85.27-39.74,21.83-56.27,43.46-50.14,62.39,10.35,31.94,57.97,31.53,83.81,28.47h.01Z"/>
    <path class="cls-6" d="m471.58,601.08c-6.14-18.81-32.23-26.61-77.16-20.79-23.81-30.78-61.25-42.22-108.87-26.72-47.63,15.5-71.24,46.58-72.78,85.27-39.74,21.83-56.27,43.46-50.14,62.39,6.14,18.92,32.12,26.52,77.16,20.8,23.7,30.47,60.83,41.59,108.76,26.41,47.94-15.19,71.24-46.59,72.78-85.27,39.73-21.74,56.26-43.36,50.23-62.08h.01Z"/>
    <path class="cls-7" d="m268.91,715.78c44.14-8.46,87.04-22.43,127.69-41.59"/>
    <path class="cls-4" d="m268.91,629.9c9.42,0,17.05-7.64,17.05-17.05s-7.64-17.05-17.05-17.05-17.05,7.64-17.05,17.05,7.64,17.05,17.05,17.05Z"/>
    <path class="cls-4" d="m349.3,627.81c7.06,0,12.79-5.73,12.79-12.79s-5.73-12.79-12.79-12.79-12.79,5.73-12.79,12.79,5.73,12.79,12.79,12.79Z"/>
    <path class="cls-7" d="m431.13,615.03c-47.11,28.9-169.91,68.73-225.13,72.78"/>
    <path class="cls-7" d="m212.97,638.84c.46,9.01,2.07,17.92,4.78,26.51"/>
    <path class="cls-7" d="m394.42,579.98c3.43,5.9,6.15,12.18,8.11,18.72"/>
    <path class="cls-5" d="m432.95,858.31c1.3,3.97,2.7,7.9,4.2,11.79,4.25,10.9,9.58,21.34,15.9,31.19,6.52,9.16,15.38,17.13,26.79,12.48,5.1-2.08,11.44-6.03,10.41-12.59-2.26-11.47-5.75-22.65-10.41-33.37-3.86-9.67-8.41-19.05-13.62-28.07,4.13-6.19,6.57-13.37,7.06-20.81l6.77-2.38c14.56-5.21,31.19-11.24,42.53-16.65,6.03,6.98,17.78,4.06,24.65,1.68,6.85-2.4,19.64-8.54,17.98-19.04-4.33-18.47-10.18-36.55-17.47-54.06-5.62-17.83-12.57-35.21-20.8-51.99-8.04-13.34-21.72-19.47-36.56-14.03-7.37,2.7-17.78,7.68-18.09,16.84-12.38,3.33-28.8,9.05-43.36,14.25-24.55,8.84-54.08,19.86-58.02,26.31-3.37,3.97-4.85,9.21-4.06,14.35-16.14,5.67-31.4,13.58-45.33,23.5-3.88,3.31-6.02,8.21-5.83,13.31-6.9,2.48-13.38,5.98-19.23,10.39-5.41,4.27-2.91,14.97,0,22.77,2.79,7.47,15.57,28.58,25.02,28.28,7.39-.21,14.71-1.5,21.73-3.84,3.11,4.04,7.9,6.41,13,6.45,9.24-.23,18.42-1.54,27.35-3.9-4.63,8.28-8.75,16.84-12.34,25.62-4.63,10.73-8.11,21.92-10.39,33.38-.98,5.61,15.63,21.21,20.96,23.39,5.3,2.19,12.27,3.75,16.11-1.65,6.41-9.8,11.74-20.26,15.91-31.21,3.22-7.68,6.34-16.53,8.43-23.29,3.51.76,7.11,1.06,10.7.9h0Z"/>
    <path class="cls-4" d="m537.19,717.65c-5.62-17.83-12.57-35.2-20.8-51.98-5.51-9.16-18.61-5.93-26-3.22-7.37,2.7-17.78,7.68-18.09,16.84-12.38,3.33-28.8,9.05-43.36,14.25-24.55,8.84-54.08,19.86-58.02,26.31-3.37,3.97-4.85,9.21-4.06,14.35-16.14,5.67-31.4,13.58-45.33,23.5-3.88,3.31-6.03,8.21-5.83,13.31-6.9,2.48-13.38,5.98-19.23,10.39-5.41,4.27-2.91,14.97,0,22.77,2.91,7.79,7.68,17.68,14.45,17.47,7.4-.2,14.72-1.5,21.74-3.84,3.11,4.04,7.9,6.42,13,6.45,11.63-.3,23.15-2.3,34.2-5.93,1.17,3.7,2.88,7.2,5.09,10.41-5.21,9.03-9.79,18.41-13.72,28.07-4.63,10.73-8.11,21.92-10.39,33.38-1.14,6.55,5.09,10.41,10.39,12.59,5.3,2.18,12.27,3.74,16.11-1.68,6.41-9.79,11.75-20.25,15.91-31.19,3.22-7.68,6.35-16.54,8.43-23.29,2.9.62,5.87.94,8.84.93,3.01.01,6.01-.3,8.94-.93,2.16,7.96,4.72,15.79,7.68,23.5,4.27,10.9,9.59,21.34,15.92,31.19,3.84,5.4,11.12,3.74,16.22,1.66,5.09-2.08,11.43-6.04,10.39-12.59-2.25-11.47-5.74-22.65-10.39-33.37-3.86-9.67-8.42-19.05-13.63-28.07,4.14-6.2,6.58-13.37,7.08-20.81l6.76-2.39c14.56-5.2,31.19-11.23,42.53-16.64,6.03,6.97,17.78,4.06,24.65,1.66,6.85-2.39,19.65-8.53,17.98-19.03-4.33-18.47-10.18-36.56-17.47-54.08h0Z"/>
    <path class="cls-6" d="m419.8,822.06c9.42,0,17.05-7.64,17.05-17.05s-7.64-17.05-17.05-17.05-17.05,7.64-17.05,17.05,7.64,17.05,17.05,17.05h0Z"/>
    <path class="cls-7" d="m480.01,702.57c6.19,21.92,13.87,43.39,22.97,64.27"/>
    <path class="cls-7" d="m366.55,733.78c3.7,18.37,8.64,36.47,14.76,54.17"/>
    <path class="cls-7" d="m315.39,770.58c.39,5.26,1.62,10.42,3.64,15.28"/>
    <path class="cls-6" d="m541.97,551.07c0-5.72-5.92-10.39-22.04-12.17-1.56-16.11-6.45-21.94-12.17-21.94s-10.41,5.83-12.27,21.94c-16.01,1.56-21.94,6.45-21.94,12.17s5.92,10.41,21.94,12.27c1.66,16.01,6.45,21.94,12.27,21.94s10.39-5.92,12.17-21.94c16.11-1.66,22.04-6.45,22.04-12.27Z"/>
    <path class="cls-2" d="m423.64,551.29c7.06,0,12.79-5.73,12.79-12.79s-5.73-12.79-12.79-12.79-12.79,5.73-12.79,12.79,5.73,12.79,12.79,12.79Z"/>
    <path class="cls-2" d="m550.19,636.76c9.36,0,16.95-7.59,16.95-16.95s-7.59-16.95-16.95-16.95-16.95,7.59-16.95,16.95,7.59,16.95,16.95,16.95Z"/>
  </g>
  <g>
    <path class="cls-12" d="m703.84,558.9c.88,1.78,1.83,3.54,2.86,5.25,6.92,12.5,24.78,21.84,38.57,18.36,9.09-2.29,20.11-9.18,20.56-17.63.61-6.43.33-12.91-.82-19.27,25.24-12.21,45.06-35.07,34.97-78.76-2.79-17.45-15.53-29.05-28.18-40.1-2.52-2.2-5.26-4.13-8.17-5.76,9.63-6.72,14.24-18.6,11.66-30.05-5.09-21.94-35.55-33.38-55.1-33.91-1.02-2.15-2.15-4.25-3.38-6.29-6.7-12.65-24.75-21.5-38.39-18.46-9.09,2.01-20.11,9.18-20.56,17.63-.66,6.68-.34,13.42.92,20.01-24.97,13.04-44.43,37.45-35.16,78.31,1.77,11.08,7.39,21.18,15.86,28.53,4.29,3.72,8.03,7.75,12.32,11.47,2.48,2.16,5.15,4.02,7.98,5.61-9.57,6.7-14.11,18.55-11.47,29.93,5.18,22.74,34.82,35.15,55.52,35.14Z"/>
    <path class="cls-5" d="m926.04,455.15c-4.52-6.73,2.72-19.52,16.19-28.57,8.46-5.68,33.26-14.45,41.26-2.55,4.52,6.73-2.72,19.53-16.19,28.58-8.46,5.68-33.26,14.44-41.26,2.54Z"/>
    <path class="cls-5" d="m932.53,377.26c6.81,4.41,5.18,19.02-3.65,32.64-7.77,11.99-23.27,23.89-36.99,15-6.8-4.42-5.17-19.03,3.65-32.64,7.3-11.25,23.48-23.76,36.99-15Z"/>
    <path class="cls-5" d="m858.17,353.61c-8.1-.55-15.55,12.13-16.63,28.32-1.09,16.19,4.58,29.75,12.68,30.29,17.32,1.17,24.01-7.26,25.32-26.67,1.11-16.42-4.05-30.78-21.36-31.95h0Z"/>
    <path class="cls-3" d="m914.23,532.29c4.77,2.44,9.25,5.41,13.35,8.87,9.34,6.5,18.55,20.74,21.4,31.42,4.63,17.34,4.53,41.97,1.36,61.67-4.77,29.65-17.63,57.56-35.25,62.6-9.45,6.33-54.43,6.97-90.6,1.1-36.17-5.88-78.67-20.37-85.55-29.56-10.4-7.12-20.52-22.26-23.55-34.14-3.49-13.74-3.5-31.4-.86-48.74,4.48-29.66,19.08-67.74,36.71-72.8,8.97-3.62,18.6-5.31,28.27-4.96.37-2.84.73-5.5,1.19-8.44,4.84-32.39,35.03-54.73,67.42-49.88,1.25.19,2.49.41,3.73.68,8.03.9,15.8,3.43,22.83,7.44,11.39,6.5,20.73,17.76,28.58,28.17,10.02,13.3,13.99,30.2,10.95,46.57Zm-46.31-35.72c2.15,5.25,2.87,11.83,1.69,19.74-9.04-2.34-18.18-4.29-27.39-5.84-4.84-.8-9.7-1.45-14.57-1.97,5.67-13.07,17.01-17.7,29.16-15.7h.35c3.95.62,7.6,1.87,10.78,3.76h0Z"/>
    <path class="cls-6" d="m927.2,541.17c-7.42-6.25-16.04-10.9-25.33-13.68.55-2.76,1.1-5.42,1.55-8.35,5.53-32.33-16.2-63.01-48.52-68.54-1.14-.19-2.28-.36-3.43-.48-32.01-6.9-63.56,13.45-70.46,45.47-.27,1.24-.49,2.48-.68,3.73-.46,2.94-.82,5.6-1.19,8.44-9.67-.35-19.3,1.34-28.27,4.96-17.63,5.05-32.22,43.15-36.72,72.79-4.49,29.65-1.28,60.22,13.87,70.59,6.88,9.18,49.38,23.68,85.55,29.57,36.16,5.87,81.14,5.23,90.59-1.11,17.63-5.05,30.48-32.95,35.25-62.6s2.58-70.49-12.21-80.78h0Zm-80.3-60.91c15.7,2.48,26.8,14.5,23.5,36.72-9.39-2.44-18.88-4.46-28.45-6.07-9.55-1.54-19.17-2.62-28.82-3.21,3.48-22.03,17.81-30.01,33.41-27.44,0,0,.36,0,.36,0Z"/>
    <path class="cls-7" d="m737.86,568.33c8.26,22.4,48.56,28.92,88.85,35.43,40.3,6.52,80.69,12.94,95.47-5.6"/>
    <path class="cls-4" d="m796.05,582.38c-.83-3.21-7.16-5.78-12.11-6.61-4.96-.83-11.76,0-13.5,2.38-2.77,4.79-4.53,10.1-5.15,15.6-1.1,5.42-1.1,11.01,0,16.43.83,3.21,7.16,5.78,12.12,6.61,4.96.83,11.75,0,13.5-2.48,2.79-4.78,4.54-10.1,5.14-15.6,1.09-5.39,1.09-10.95,0-16.34Z"/>
    <path class="cls-4" d="m888.21,597.25c-.82-3.21-7.15-5.78-12.11-6.61-4.96-.82-11.75,0-13.5,2.48-2.79,4.78-4.54,10.1-5.14,15.6-1.16,5.42-1.16,11.02,0,16.43.73,3.12,7.07,5.69,12.03,6.51,4.96.83,11.75,0,13.5-2.38,2.77-4.8,4.55-10.1,5.23-15.6,1.06-5.43,1.06-11.01,0-16.43Z"/>
    <path class="cls-11" d="m787.94,455.63c-3.68-22.97-23.23-40.04-46.48-40.59v-.93c15.52-3.61,25.21-19.06,21.72-34.6-4.42-19.06-29.09-23.2-50.9-22.47-1.78-6.27-4.38-12.27-7.74-17.86-4.05-7.64-17.02-9.02-26.14-6.99-9.12,2.02-20.16,9.2-20.62,17.68-.66,6.7-.34,13.46.92,20.07-25.02,13.07-44.55,37.55-35.26,78.53,3.66,22.94,23.26,39.93,46.48,40.32v.92c-15.48,3.47-25.23,18.83-21.76,34.32.02.07.03.13.05.2,4.96,21.81,30.56,24.76,51.17,23.47,1.69,5.98,4.17,11.71,7.36,17.03,4.24,7.65,17.22,9.21,26.33,6.91,9.12-2.3,20.15-9.2,20.62-17.67.61-6.45.33-12.95-.83-19.33,25.32-12.24,45.19-35.17,35.07-78.99Z"/>
    <path class="cls-8" d="m741.35,414.77c-14.47.16-28.75,3.28-41.96,9.18"/>
    <path class="cls-8" d="m670.02,488.67c14.51.22,28.87-2.92,41.96-9.18"/>
    <path class="cls-6" d="m871.04,383.9c1.09-16.19-4.58-29.76-12.68-30.29-8.09-.55-15.54,12.13-16.62,28.32-1.1,16.19,4.58,29.75,12.68,30.29s15.55-12.13,16.63-28.32Z"/>
    <path class="cls-6" d="m920.18,408.72c8.83-13.61,10.46-28.23,3.65-32.64-6.8-4.41-19.48,3.05-28.3,16.66-8.82,13.61-10.45,28.23-3.65,32.64,6.81,4.42,19.48-3.05,28.31-16.66h0Z"/>
    <path class="cls-6" d="m958.62,451.39c13.45-9.05,20.7-21.84,16.18-28.57-4.52-6.73-19.1-4.85-32.57,4.2-13.46,9.06-20.71,21.84-16.19,28.57,4.53,6.73,19.11,4.86,32.57-4.2h0Z"/>
  </g>
  <g>
    <path class="cls-5" d="m1395.88,330.46c21.37,0,54.94,1.57,71.04,11.24,5.54,3.32,13.79,12.65,16.21,18.79,6.94,8.9,7.6,56.2,7.6,95.56s-.65,86.75-7.6,95.65c-4.51,11.56-21.09,9.08-42.24,5.91-11.45-1.71-24.22-3.63-37.15-3.63-14.63.59-29.2,2.17-43.62,4.74-3.35,13.4-19.2,15.28-28.68,15.28s-24.71-1.79-28.48-14.47c-.64-.38-1.25-.8-1.84-1.25-13.87-2.42-27.89-3.85-41.96-4.3-11.57,0-23.68,1.81-34.9,3.48-13.53,2.02-25.74,3.84-34.12,2.06-6.62-1.41-15.74-11.39-18.23-17.75-6.94-8.9-7.6-56.36-7.6-95.64s.65-86.66,7.6-95.57c6.94-17.65,52.68-20.1,79.39-20.1,25.42,1.35,50.17,8.62,72.28,21.24,22.11-12.62,46.87-19.89,72.29-21.24Z"/>
    <path class="cls-6" d="m1475.28,351c-6.95-17.65-52.69-20.1-79.39-20.1-25.42,1.35-50.18,8.62-72.29,21.24-22.11-12.61-46.86-19.89-72.28-21.24-26.72,0-72.45,2.45-79.39,20.1-6.94,8.9-7.6,56.28-7.6,95.56s.65,86.75,7.6,95.65c6.94,17.81,45.49,2.29,79.39,2.29,14.61.46,29.15,1.99,43.53,4.57,3.27,13.57,19.28,15.44,28.75,15.44s25.33-1.88,28.68-15.28c14.41-2.57,28.99-4.16,43.62-4.74,36.83,0,72.44,15.52,79.39-2.29,6.93-8.9,7.59-56.28,7.59-95.64s-.65-86.66-7.6-95.57h0Z"/>
    <path class="cls-7" d="m1281.12,383.56c-24.69-2.86-49.63-2.86-74.33,0"/>
    <path class="cls-7" d="m1281.12,436.65c-24.69-2.86-49.63-2.86-74.33,0"/>
    <path class="cls-7" d="m1281.12,491.87c-24.69-2.86-49.63-2.86-74.33,0"/>
    <path class="cls-7" d="m1440.39,383.56c-24.69-2.86-49.63-2.86-74.33,0"/>
    <path class="cls-7" d="m1440.39,436.65c-24.69-2.86-49.63-2.86-74.33,0"/>
    <path class="cls-7" d="m1440.39,491.87c-24.69-2.86-49.63-2.86-74.33,0"/>
    <path class="cls-7" d="m1324,352v148"/>
  </g>
</svg>