<svg xmlns="http://www.w3.org/2000/svg" fill="none" viewBox="-1.02 -1.02 98 98" height="98" width="98"><path fill="#00034a" stroke="#00034a" stroke-linejoin="round" d="M22.277114 58.494817c0.220708 0.448613 0.460608 0.890029 0.7197 1.31945 1.741674 3.145089 6.232602 5.49371 9.701555999999998 4.618075 2.286247 -0.5757599999999999 5.057092 -2.307838 5.172244 -4.433352a17.831767 17.831767 0 0 0 -0.206314 -4.84598c6.347754 -3.07072 11.335275 -8.821123 8.797132999999999 -19.810941999999997 -0.702907 -4.39017 -3.905572 -7.307353999999999 -7.0890450000000005 -10.085396a12.09096 12.09096 0 0 0 -2.055943 -1.448996 7.2689699999999995 7.2689699999999995 0 0 0 2.933977 -7.559248999999999c-1.281066 -5.5177 -8.941073 -8.3965 -13.859023 -8.528445a18.462704 18.462704 0 0 0 -0.849246 -1.5833400000000002C23.858055 2.955568 19.316748 0.7292959999999999 15.886178 1.492178c-2.286247 0.506189 -5.057092 2.307838 -5.172244 4.433352 -0.165531 1.6793 -0.086364 3.3753930000000003 0.230304 5.0331019999999995C4.663656 14.238064999999999 -0.230304 20.379504999999998 2.101524 30.656821a12.006995 12.006995 0 0 0 3.9895370000000003 7.175409c1.07955 0.93561 2.019958 1.9503869999999999 3.099508 2.885997 0.6237400000000001 0.542174 1.29546 1.012378 2.0079629999999997 1.410612a7.201797999999999 7.201797999999999 0 0 0 -2.885997 7.528062c1.3026570000000002 5.719215999999999 8.758749 8.840315 13.964578999999999 8.837916Z" stroke-width="2.04"></path><path fill="#00034a" stroke="#00034a" stroke-miterlimit="10" d="M78.16901600000001 32.398495000000004c-1.1371259999999999 -1.6936939999999998 0.683715 -4.910753000000001 4.071103 -7.187404 2.127913 -1.4298039999999999 8.365313 -3.6344849999999997 10.378074 -0.640533 1.1371259999999999 1.6936939999999998 -0.683715 4.913152 -4.071103 7.1898029999999995 -2.127913 1.4298039999999999 -8.365313 3.632086 -10.378074 0.6381340000000001Z" stroke-width="2.04"></path><path fill="#00034a" stroke="#00034a" stroke-miterlimit="10" d="M79.800336 12.805862000000001c1.712886 1.108338 1.3026570000000002 4.783606 -0.918817 8.209378000000001 -1.955185 3.0155429999999996 -5.85356 6.009494999999999 -9.303322 3.773627 -1.7104869999999999 -1.110737 -1.3002580000000001 -4.786005 0.918817 -8.209378000000001 1.835235 -2.8308199999999997 5.906338000000001 -5.975909000000001 9.303322 -3.773627Z" stroke-width="2.04"></path><path fill="#00034a" stroke="#00034a" stroke-miterlimit="10" d="M61.145711999999996 6.856342000000001c-2.0367509999999998 -0.13914200000000002 -3.91037 3.0515280000000002 -4.1838560000000005 7.122631 -0.273486 4.071103 1.1515199999999999 7.482481000000001 3.188271 7.619224000000001 4.356584 0.295077 6.038283 -1.825639 6.369344999999999 -6.707604 0.27828400000000003 -4.131078 -1.019575 -7.741573 -5.373760000000001 -8.03665Z" stroke-width="2.04"></path><path fill="#00034a" fill-rule="evenodd" stroke="#00034a" stroke-miterlimit="10" d="M75.199054 51.801607c1.1995 0.614144 2.32703 1.3602329999999998 3.3586 2.2310700000000003 2.348621 1.6361180000000002 4.666055 5.2178249999999995 5.383356000000001 7.902306 1.163515 4.361382 1.139525 10.557998999999999 0.343057 15.511934 -1.1995 7.458491 -4.433352 14.477965000000001 -8.866704 15.747036 -2.377409 1.5929360000000001 -13.691093 1.753669 -22.788101 0.275885 -9.097007999999999 -1.477784 -19.786952 -5.124264 -21.51903 -7.434501000000001 -2.61491 -1.7920530000000001 -5.162648000000001 -5.599266 -5.923131 -8.588420000000001 -0.878034 -3.4569590000000003 -0.880433 -7.897507999999999 -0.21591 -12.258890000000001 1.12753 -7.46089 4.800399 -17.040097 9.233751 -18.311567a17.29679 17.29679 0 0 1 7.110636 -1.2474800000000001c0.093561 -0.7149019999999999 0.184723 -1.384223 0.299875 -2.123115a14.916982 14.916982 0 0 1 17.89654 -12.376441c2.019958 0.225506 3.975143 0.86364 5.743206000000001 1.87122 2.864406 1.6337190000000001 5.215426 4.466938 7.1898029999999995 7.086646000000001a14.938573000000002 14.938573000000002 0 0 1 2.7540519999999997 11.714317Zm-11.467220000000001 -8.857108c0.561366 1.372228 0.748488 3.089912 0.441416 5.15785a83.92661600000001 83.92661600000001 0 0 0 -7.156217000000001 -1.5257640000000001 65.212017 65.212017 0 0 0 -3.807213 -0.513386c1.480183 -3.413777 4.442948 -4.625272 7.6168249999999995 -4.10229h0.09116199999999999c1.03157 0.16313200000000003 1.986372 0.489396 2.816426 0.98359Z" clip-rule="evenodd" stroke-width="2.04"></path><path fill="#e29269" stroke="#00034a" stroke-miterlimit="10" d="M78.557654 54.035076000000004a17.778989 17.778989 0 0 0 -6.3717440000000005 -3.440166c0.13914200000000002 -0.693311 0.275885 -1.3626319999999998 0.391037 -2.101524a14.936174 14.936174 0 0 0 -13.067353 -17.361563 14.914582999999999 14.914582999999999 0 0 0 -17.894140999999998 12.374042000000001c-0.115152 0.738892 -0.206314 1.408213 -0.299875 2.123115a17.289593 17.289593 0 0 0 -7.110636 1.2474800000000001c-4.433352 1.27147 -8.103822000000001 10.853076 -9.23615 18.309168 -1.129929 7.458491 -0.32146600000000003 15.147286000000001 3.488146 17.754998999999998 1.729679 2.310237 12.419623 5.956717 21.51903 7.4369000000000005 9.094609 1.475385 20.408293 1.3146520000000002 22.785701999999997 -0.27828400000000003 4.433352 -1.27147 7.667204000000001 -8.288545000000001 8.866704 -15.747036s0.64773 -17.731009 -3.07072 -20.31953Zm-20.295540000000003 -15.168877000000002c3.9487539999999997 0.6237400000000001 6.7411900000000005 3.64648 5.911136 9.23615a83.833055 83.833055 0 0 0 -7.156217000000001 -1.5257640000000001 74.08112 74.08112 0 0 0 -7.249777999999999 -0.808463c0.8756349999999999 -5.54169 4.478933 -7.549652999999999 8.403697000000001 -6.901922999999999h0.09116199999999999Z" stroke-width="2.04"></path><path stroke="#00034a" stroke-linecap="round" stroke-miterlimit="10" d="M30.834347 60.867428c2.077534 5.635251 12.213309 7.2737680000000005 22.349084 8.912284999999999 10.135774999999999 1.640916 20.295540000000003 3.255443 24.01399 -1.408213" stroke-width="2.04"></path><path fill="#ffffff" stroke="#00034a" stroke-miterlimit="10" d="M45.473045 64.401155c-0.20871299999999998 -0.808463 -1.801649 -1.453794 -3.04673 -1.662507 -1.2474800000000001 -0.20871299999999998 -2.9579670000000005 0 -3.394585 0.59975a10.090194 10.090194 0 0 0 -1.29546 3.9247639999999997 10.41166 10.41166 0 0 0 0 4.133477c0.20871299999999998 0.808463 1.801649 1.453794 3.0491289999999998 1.662507 1.2474800000000001 0.20871299999999998 2.955568 0 3.394585 -0.6237400000000001a9.929461 9.929461 0 0 0 1.293061 -3.9247639999999997 10.325296000000002 10.325296000000002 0 0 0 0 -4.109487000000001Z" stroke-width="2.04"></path><path fill="#ffffff" stroke="#00034a" stroke-miterlimit="10" d="M68.65218300000001 68.141196c-0.206314 -0.808463 -1.79925 -1.453794 -3.04673 -1.662507 -1.2474800000000001 -0.206314 -2.955568 0 -3.394585 0.6237400000000001a9.931859999999999 9.931859999999999 0 0 0 -1.293061 3.9247639999999997 9.898274 9.898274 0 0 0 0 4.133477c0.184723 0.7844730000000001 1.777659 1.432203 3.025139 1.6385170000000002 1.2474800000000001 0.20871299999999998 2.955568 0 3.394585 -0.59975a10.41166 10.41166 0 0 0 1.3146520000000002 -3.9247639999999997 10.733126 10.733126 0 0 0 0 -4.133477Z" stroke-width="2.04"></path><path fill="#ffffff" stroke="#00034a" stroke-linejoin="round" d="M43.371521 32.516046a12.098157 12.098157 0 0 0 -11.65914 -10.181356v-0.23270300000000002a7.2737680000000005 7.2737680000000005 0 0 0 5.448129 -8.679582c-1.108338 -4.781207 -7.2953589999999995 -5.819974 -12.767478 -5.635251a18.477098 18.477098 0 0 0 -1.9407910000000002 -4.478933C21.437464 1.3914199999999999 18.18442 1.0459640000000001 15.895774000000001 1.5545520000000002c-2.286247 0.506189 -5.057092 2.307838 -5.172244 4.433352 -0.165531 1.6793 -0.086364 3.3753930000000003 0.230304 5.0331019999999995C4.67805 14.29804 -0.220708 20.43948 2.11112 30.716796000000002a12.006995 12.006995 0 0 0 11.65914 10.111785v0.230304a7.206596 7.206596 0 0 0 -5.44573 8.657991c1.245081 5.46972 7.664804999999999 6.211011 12.83465 5.887146 0.424623 1.4993750000000001 1.0459640000000001 2.936376 1.8472300000000001 4.27022 1.062757 1.9192 4.3182 2.310237 6.604447 1.732078 2.286247 -0.5757599999999999 5.054693 -2.307838 5.172244 -4.430953a17.824569999999998 17.824569999999998 0 0 0 -0.20871299999999998 -4.8483789999999996c6.350153 -3.07072 11.335275 -8.821123 8.797132999999999 -19.810941999999997Z" stroke-width="2.04"></path><path stroke="#00034a" stroke-linecap="round" stroke-linejoin="round" d="M31.712381 22.241129a26.600112 26.600112 0 0 0 -10.553201 2.307838" stroke-width="2.04"></path><path stroke="#00034a" stroke-linecap="round" stroke-linejoin="round" d="M13.77026 40.828581a23.601361999999998 23.601361999999998 0 0 0 10.553201 -2.310237" stroke-width="2.04"></path><path fill="#e29269" stroke="#00034a" stroke-miterlimit="10" d="M64.333983 14.475565999999999c0.273486 -4.071103 -1.1515199999999999 -7.48488 -3.1906700000000003 -7.619224000000001 -2.034352 -0.13914200000000002 -3.907971 3.0515280000000002 -4.181457 7.122631 -0.275885 4.071103 1.1515199999999999 7.482481000000001 3.188271 7.619224000000001 2.0367509999999998 0.136743 3.91037 -3.0515280000000002 4.1838560000000005 -7.122631Z" stroke-width="2.04"></path><path fill="#e29269" stroke="#00034a" stroke-miterlimit="10" d="M76.69603 20.597814c2.221474 -3.423373 2.631703 -7.10104 0.918817 -8.209378000000001 -1.7104869999999999 -1.108338 -4.898758 0.76768 -7.117833 4.191053 -2.219075 3.423373 -2.6293040000000003 7.10104 -0.918817 8.209378000000001 1.712886 1.110737 4.898758 -0.76768 7.120232 -4.191053Z" stroke-width="2.04"></path><path fill="#e29269" stroke="#00034a" stroke-miterlimit="10" d="M86.364 31.342935c3.38259 -2.2766509999999998 5.20583 -5.49371 4.068704 -7.187404s-4.805197000000001 -1.221091 -8.192585 1.05556c-3.384989 2.27905 -5.208228999999999 5.49371 -4.071103 7.187404 1.139525 1.6936939999999998 4.807596 1.22349 8.192585 -1.05556Z" stroke-width="2.04"></path></svg>