<svg xmlns="http://www.w3.org/2000/svg" fill="none" viewBox="-1.02 -1.02 98 98" height="98" width="98"><path fill="#00034a" stroke="#00034a" stroke-miterlimit="10" d="M67.53184999999999 14.521147c6.122248 0 15.73744 0.451012 20.350717000000003 3.2194580000000004 1.588138 0.9524030000000001 3.9487539999999997 3.62249 4.6420650000000006 5.3809569999999995 1.9887709999999998 2.550137 2.1758930000000003 16.09729 2.1758930000000003 27.37259 0 11.280098 -0.187122 24.848842 -2.1758930000000003 27.398978999999997 -1.2906620000000002 3.3106199999999997 -6.040681999999999 2.6005160000000003 -12.100556 1.6936939999999998 -3.279433 -0.489396 -6.937908 -1.038767 -10.641964 -1.038767 -4.191053 0.16793000000000002 -8.365313 0.621341 -12.493992 1.357834 -0.9596 3.8384 -5.498507999999999 4.375776 -8.214176 4.375776 -2.646097 0 -7.077050000000001 -0.513386 -8.158999 -4.145472a5.867954 5.867954 0 0 1 -0.52778 -0.35745099999999996 85.78824 85.78824 0 0 0 -12.018989999999999 -1.230687c-3.313019 0 -6.784371999999999 0.518184 -9.996633 0.997984 -3.874385 0.578159 -7.372127 1.1011410000000001 -9.773526 0.590154 -1.89521 -0.403032 -4.51012 -3.26264 -5.2226230000000005 -5.08588C1.386622 72.500179 1.1995 58.905046 1.1995 47.653736c0 -11.256108000000001 0.187122 -24.824852000000003 2.1758930000000003 -27.374989 1.9887709999999998 -5.054693 15.08971 -5.7576 22.742520000000003 -5.7576a46.794894 46.794894 0 0 1 20.705769 6.083864 46.794894 46.794894 0 0 1 20.708168 -6.083864Z" stroke-width="2.04"></path><path fill="#e29269" stroke="#00034a" stroke-miterlimit="10" d="M90.27437 20.278747c-1.9911699999999999 -5.054693 -15.092109 -5.7576 -22.742520000000003 -5.7576a46.794894 46.794894 0 0 0 -20.708168 6.083864 46.794894 46.794894 0 0 0 -20.705769 -6.083864c-7.65281 0 -20.753749 0.702907 -22.742520000000003 5.7576C1.386622 22.828884 1.1995 36.400027 1.1995 47.651337c0 11.256108000000001 0.187122 24.848842 2.1758930000000003 27.398978999999997 1.9887709999999998 5.100274 13.031368 0.654927 22.742520000000003 0.654927 4.1838560000000005 0.131945 8.350919 0.570962 12.470002000000001 1.309854 0.93561 3.8863800000000004 5.522498000000001 4.423756 8.235767 4.423756 2.715668 0 7.254576 -0.539775 8.214176 -4.375776a92.011246 92.011246 0 0 1 12.493992 -1.357834c10.550802 0 20.751350000000002 4.445347 22.742520000000003 -0.654927 1.986372 -2.550137 2.1734940000000003 -16.12128 2.1734940000000003 -27.39658 0 -11.277698999999998 -0.187122 -24.824852000000003 -2.1758930000000003 -27.374989Z" stroke-width="2.04"></path><path stroke="#00034a" stroke-linecap="round" stroke-miterlimit="10" d="M34.658353 29.730807000000002a92.558218 92.558218 0 0 0 -21.291125 0" stroke-width="2.04"></path><path stroke="#00034a" stroke-linecap="round" stroke-miterlimit="10" d="M34.658353 44.938068a92.558218 92.558218 0 0 0 -21.291125 0" stroke-width="2.04"></path><path stroke="#00034a" stroke-linecap="round" stroke-miterlimit="10" d="M34.658353 60.754675a92.558218 92.558218 0 0 0 -21.291125 0" stroke-width="2.04"></path><path stroke="#00034a" stroke-linecap="round" stroke-miterlimit="10" d="M80.28253500000001 29.730807000000002a92.55581900000001 92.55581900000001 0 0 0 -21.291125 0" stroke-width="2.04"></path><path stroke="#00034a" stroke-linecap="round" stroke-miterlimit="10" d="M80.28253500000001 44.938068a92.55581900000001 92.55581900000001 0 0 0 -21.291125 0" stroke-width="2.04"></path><path stroke="#00034a" stroke-linecap="round" stroke-miterlimit="10" d="M80.28253500000001 60.754675a92.55581900000001 92.55581900000001 0 0 0 -21.291125 0" stroke-width="2.04"></path><path stroke="#00034a" stroke-linecap="round" stroke-miterlimit="10" d="M46.823682000000005 20.60741v42.58225" stroke-width="2.04"></path></svg>