<svg xmlns="http://www.w3.org/2000/svg" fill="none" viewBox="-1.02 -1.02 98 98" height="98" width="98"><path fill="#00034a" d="M76.976713 16.457140000000003c0.34065799999999996 1.6073300000000001 2.6293040000000003 5.225022 4.514918 5.225022 1.307455 0 2.336626 -1.3314450000000002 2.73486 -4.9323440000000005 3.62249 -0.371845 4.9539349999999995 -1.448996 4.9539349999999995 -2.75885 0 -1.82324 -3.648879 -4.0735019999999995 -5.2010320000000005 -4.41416 -0.33586000000000005 -1.600133 -2.626905 -5.215426 -4.498125 -5.215426 -1.2858640000000001 0 -2.339025 1.309854 -2.75885 4.9323440000000005 -3.5985 0.35025399999999995 -4.9323440000000005 1.448996 -4.9323440000000005 2.73486 0 1.820841 3.639283 4.0783 5.186637999999999 4.430953Z" stroke-width="2.04"></path><path fill="#00034a" d="M57.69595 9.200165c0 -1.588138 1.2858640000000001 -2.874002 2.874002 -2.874002 1.794452 0 4.39017 2.5717280000000002 4.39017 4.36618 0 1.588138 -1.2882630000000002 2.874002 -2.8788 2.874002 -1.7920530000000001 0 -4.385372 -2.5693289999999998 -4.385372 -4.36618Z" stroke-width="2.04"></path><path fill="#00034a" d="M85.207682 27.480545c0 -2.103923 1.705689 -3.8096120000000004 3.8096120000000004 -3.8096120000000004 2.37501 0 5.3233809999999995 2.9243810000000003 5.3233809999999995 5.30179 0 2.103923 -1.705689 3.8096120000000004 -3.8096120000000004 3.8096120000000004 -2.37501 0 -5.325780000000001 -2.92678 -5.325780000000001 -5.30179Z" stroke-width="2.04"></path><path stroke="#00034a" stroke-linecap="round" stroke-miterlimit="10" d="M76.976713 16.457140000000003c0.34065799999999996 1.6073300000000001 2.6293040000000003 5.225022 4.514918 5.225022 1.307455 0 2.336626 -1.3314450000000002 2.73486 -4.9323440000000005 3.62249 -0.371845 4.9539349999999995 -1.448996 4.9539349999999995 -2.75885 0 -1.82324 -3.648879 -4.0735019999999995 -5.2010320000000005 -4.41416 -0.33586000000000005 -1.600133 -2.626905 -5.215426 -4.498125 -5.215426 -1.2858640000000001 0 -2.339025 1.309854 -2.75885 4.9323440000000005 -3.5985 0.35025399999999995 -4.9323440000000005 1.448996 -4.9323440000000005 2.73486 0 1.820841 3.639283 4.0783 5.186637999999999 4.430953Z" stroke-width="2.04"></path><path stroke="#00034a" stroke-linecap="round" stroke-miterlimit="10" d="M57.69595 9.200165c0 -1.588138 1.2858640000000001 -2.874002 2.874002 -2.874002 1.794452 0 4.39017 2.5717280000000002 4.39017 4.36618 0 1.588138 -1.2882630000000002 2.874002 -2.8788 2.874002 -1.7920530000000001 0 -4.385372 -2.5693289999999998 -4.385372 -4.36618Z" stroke-width="2.04"></path><path stroke="#00034a" stroke-linecap="round" stroke-miterlimit="10" d="M85.207682 27.480545c0 -2.103923 1.705689 -3.8096120000000004 3.8096120000000004 -3.8096120000000004 2.37501 0 5.3233809999999995 2.9243810000000003 5.3233809999999995 5.30179 0 2.103923 -1.705689 3.8096120000000004 -3.8096120000000004 3.8096120000000004 -2.37501 0 -5.325780000000001 -2.92678 -5.325780000000001 -5.30179Z" stroke-width="2.04"></path><path fill="#00034a" stroke="#00034a" stroke-miterlimit="10" d="M20.739355 52.183048c6.76518 6.995484 15.677465 8.818724000000001 24.983186 5.872752 10.776308 -3.413777 16.010926 -10.474034 16.36118 -19.168010000000002 8.931477 -4.886763 12.647528000000001 -9.747136999999999 11.292093 -13.954983 -2.336626 -7.165813 -13.02657 -7.10104 -18.83215 -6.40533 -6.7411900000000005 -7.0266709999999994 -15.701455 -8.967462 -25.014373 -5.937525 -10.706737 3.483348 -16.013325 10.471635000000001 -16.36118 19.168010000000002C4.234235 36.666316 0.518184 41.526689999999995 1.897609 45.782516c2.32703 7.180206999999999 13.031368 7.086646000000001 18.839347 6.400532Z" stroke-width="2.04"></path><path fill="#e29269" stroke="#00034a" stroke-miterlimit="10" d="M71.34626 23.2703c-1.379425 -4.229437 -7.24498 -5.980707 -17.34477 -4.673252 -5.352169 -6.918716 -13.767861 -9.490444 -24.472199 -6.007096 -10.706737 3.483348 -16.013325 10.471635000000001 -16.36118 19.168010000000002C4.234235 36.666316 0.518184 41.526689999999995 1.897609 45.782516c1.379425 4.253426999999999 7.22099 5.9615149999999995 17.34477 4.675651 5.328179 6.849145 13.6743 9.348903 24.448209000000002 5.937525 10.776308 -3.413777 16.013325 -10.474034 16.36118 -19.168010000000002 8.931477 -4.886763 12.647528000000001 -9.747136999999999 11.292093 -13.954983Z" stroke-width="2.04"></path><path stroke="#00034a" stroke-linecap="round" stroke-miterlimit="10" d="M25.78925 49.054752a120.513765 120.513765 0 0 0 28.704035 -9.348903" stroke-width="2.04"></path><path fill="#ffffff" stroke="#00034a" stroke-miterlimit="10" d="M25.78925 29.747600000000002a3.8336020000000004 3.8336020000000004 0 1 0 0 -7.667204000000001 3.8336020000000004 3.8336020000000004 0 0 0 0 7.667204000000001Z" stroke-width="2.04"></path><path fill="#ffffff" stroke="#00034a" stroke-miterlimit="10" d="M43.858518000000004 29.279795a2.874002 2.874002 0 1 0 0 -5.7504029999999995 2.874002 2.874002 0 0 0 0 5.7504029999999995Z" stroke-width="2.04"></path><path stroke="#00034a" stroke-linecap="round" stroke-miterlimit="10" d="M62.25405 26.405793c-10.589186 6.496492000000001 -38.194479 15.449560000000002 -50.606905 16.36118" stroke-width="2.04"></path><path stroke="#00034a" stroke-linecap="round" stroke-miterlimit="10" d="M13.213692 31.757962c0.103157 2.024756 0.46540600000000004 4.027921 1.074752 5.959116" stroke-width="2.04"></path><path stroke="#00034a" stroke-linecap="round" stroke-miterlimit="10" d="M54.001490000000004 18.527477c0.7700790000000001 1.3266470000000001 1.381824 2.737259 1.82324 4.207846" stroke-width="2.04"></path><path fill="#00034a" stroke="#00034a" stroke-miterlimit="10" d="M62.664279 81.093397c0.292678 0.892428 0.606947 1.77526 0.9452060000000001 2.650895 0.954802 2.449379 2.154302 4.798 3.57451 7.012277 1.465789 2.058342 3.4569590000000003 3.850395 6.021489999999999 2.804431 1.146722 -0.467805 2.5717280000000002 -1.355435 2.339025 -2.8308199999999997a36.519977000000004 36.519977000000004 0 0 0 -2.339025 -7.501672999999999 48.783665 48.783665 0 0 0 -3.061124 -6.3093699999999995c0.928413 -1.3914199999999999 1.477784 -3.005947 1.588138 -4.67805l1.520966 -0.534977c3.2722360000000004 -1.170712 7.012277 -2.526147 9.560015 -3.74244 1.355435 1.5689460000000002 3.996734 0.91162 5.54169 0.376643 1.5401580000000001 -0.539775 4.41416 -1.9192 4.042315 -4.279816a77.953106 77.953106 0 0 0 -3.927163 -12.153334 83.513988 83.513988 0 0 0 -4.675651 -11.687928c-1.806447 -2.9987500000000002 -4.881965 -4.375776 -8.218974000000001 -3.1546849999999997 -1.6577089999999999 0.606947 -3.996734 1.72728 -4.066305 3.785622 -2.7828399999999998 0.748488 -6.474901 2.034352 -9.747136999999999 3.202665 -5.5177 1.986372 -12.155733 4.464539 -13.043363000000001 5.9135349999999995a4.042315 4.042315 0 0 0 -0.91162 3.226655 40.996511 40.996511 0 0 0 -10.190952000000001 5.282598 3.74244 3.74244 0 0 0 -1.309854 2.991553 16.368377000000002 16.368377000000002 0 0 0 -4.322998 2.336626c-1.216293 0.9596 -0.654927 3.365797 0 5.119466 0.626139 1.6793 3.500141 6.424522 5.623256 6.35735a16.905753 16.905753 0 0 0 4.884364 -0.86364 3.7184500000000003 3.7184500000000003 0 0 0 2.921982 1.448996 26.79683 26.79683 0 0 0 6.148637000000001 -0.8756349999999999c-1.041166 1.8616240000000002 -1.96718 3.785622 -2.773244 5.759999a37.395612 37.395612 0 0 0 -2.336626 7.504072000000001c-0.220708 1.2618740000000002 3.5145350000000004 4.766813 4.711636 5.258608000000001 1.1923030000000001 0.491795 2.75885 0.8420489999999999 3.62249 -0.371845 1.441799 -2.2022820000000003 2.6389 -4.5533019999999995 3.576909 -7.014676 0.724498 -1.72728 1.425006 -3.7160509999999998 1.89521 -5.234618a9.327312 9.327312 0 0 0 2.4061969999999997 0.201516Z" stroke-width="2.04"></path><path fill="#ffffff" stroke="#00034a" stroke-miterlimit="10" d="M86.09531199999999 49.474577000000004a83.49479600000001 83.49479600000001 0 0 0 -4.675651 -11.685529c-1.237884 -2.058342 -4.1838560000000005 -1.333844 -5.843964 -0.724498 -1.6577089999999999 0.606947 -3.996734 1.72728 -4.066305 3.785622 -2.7828399999999998 0.748488 -6.474901 2.034352 -9.747136999999999 3.202665 -5.5177 1.986372 -12.155733 4.464539 -13.043363000000001 5.9135349999999995a4.039916 4.039916 0 0 0 -0.91162 3.226655 41.003707999999996 41.003707999999996 0 0 0 -10.190952000000001 5.282598 3.7400409999999997 3.7400409999999997 0 0 0 -1.309854 2.991553 16.36118 16.36118 0 0 0 -4.322998 2.336626c-1.216293 0.9596 -0.654927 3.365797 0 5.119466 0.654927 1.7512699999999999 1.72728 3.975143 3.2482460000000004 3.927163a16.898556 16.898556 0 0 0 4.886763 -0.86364 3.7160509999999998 3.7160509999999998 0 0 0 2.921982 1.448996 26.79683 26.79683 0 0 0 7.688795 -1.333844c0.26389 0.832453 0.64773 1.6193250000000001 1.144323 2.339025a51.648071 51.648071 0 0 0 -3.085114 6.3093699999999995 37.40041 37.40041 0 0 0 -2.336626 7.504072000000001c-0.256693 1.472986 1.144323 2.339025 2.336626 2.8308199999999997 1.1923030000000001 0.489396 2.75885 0.83965 3.62249 -0.376643a36.500785 36.500785 0 0 0 3.576909 -7.012277c0.724498 -1.72728 1.427405 -3.7184500000000003 1.89521 -5.234618 0.6525280000000001 0.13914200000000002 1.31945 0.211112 1.986372 0.20871299999999998 0.676518 0.002399 1.3506369999999999 -0.067172 2.0103619999999998 -0.20871299999999998 0.48459800000000003 1.789654 1.060358 3.55052 1.72728 5.282598 0.9596 2.449379 2.156701 4.798 3.579308 7.012277 0.86364 1.213894 2.499758 0.83965 3.64648 0.374244 1.144323 -0.467805 2.5693289999999998 -1.357834 2.336626 -2.8308199999999997a36.505583 36.505583 0 0 0 -2.336626 -7.501672999999999 48.812453000000005 48.812453000000005 0 0 0 -3.063523 -6.3093699999999995 9.579207 9.579207 0 0 0 1.590537 -4.67805l1.518567 -0.537376c3.2722360000000004 -1.168313 7.012277 -2.5237480000000003 9.560015 -3.7400409999999997 1.355435 1.5665470000000001 3.996734 0.91162 5.54169 0.374244 1.5401580000000001 -0.537376 4.416559 -1.9168010000000002 4.042315 -4.277417a77.986692 77.986692 0 0 0 -3.927163 -12.155733Z" stroke-width="2.04"></path><path fill="#e29269" stroke="#00034a" stroke-miterlimit="10" d="M59.706312000000004 72.943994a3.8336020000000004 3.8336020000000004 0 1 0 0 -7.667204000000001 3.8336020000000004 3.8336020000000004 0 0 0 0 7.667204000000001Z" stroke-width="2.04"></path><path stroke="#00034a" stroke-linecap="round" stroke-miterlimit="10" d="M73.24147 46.084790000000005c1.3914199999999999 4.9275459999999995 3.1187 9.754334 5.162648000000001 14.446778" stroke-width="2.04"></path><path stroke="#00034a" stroke-linecap="round" stroke-miterlimit="10" d="M47.737701 53.099466c0.832453 4.128679 1.9431900000000002 8.197383 3.3178170000000002 12.177323999999999" stroke-width="2.04"></path><path stroke="#00034a" stroke-linecap="round" stroke-miterlimit="10" d="M36.236895000000004 61.373616999999996c0.088763 1.182707 0.36464799999999997 2.341424 0.8180590000000001 3.435368" stroke-width="2.04"></path><path fill="#e29269" stroke="#00034a" stroke-miterlimit="10" d="M87.170064 12.028586c0 -1.2858640000000001 -1.3314450000000002 -2.336626 -4.9539349999999995 -2.73486 -0.35025399999999995 -3.62249 -1.448996 -4.9323440000000005 -2.73486 -4.9323440000000005 -1.2858640000000001 0 -2.339025 1.309854 -2.75885 4.9323440000000005 -3.5985 0.35025399999999995 -4.9323440000000005 1.448996 -4.9323440000000005 2.73486 0 1.2858640000000001 1.3314450000000002 2.339025 4.9323440000000005 2.75885 0.374244 3.5985 1.448996 4.9323440000000005 2.75885 4.9323440000000005 1.307455 0 2.336626 -1.3314450000000002 2.73486 -4.9323440000000005 3.62249 -0.374244 4.9539349999999995 -1.448996 4.9539349999999995 -2.75885Z" stroke-width="2.04"></path><path fill="#e29269" stroke="#00034a" stroke-linecap="round" stroke-miterlimit="10" d="M60.569952 12.076566a2.874002 2.874002 0 1 0 0 -5.7504029999999995 2.874002 2.874002 0 0 0 0 5.7504029999999995Z" stroke-width="2.04"></path><path fill="#e29269" stroke="#00034a" stroke-linecap="round" stroke-miterlimit="10" d="M89.017294 31.290156999999997a3.8096120000000004 3.8096120000000004 0 1 0 0 -7.619224000000001 3.8096120000000004 3.8096120000000004 0 0 0 0 7.619224000000001Z" stroke-width="2.04"></path></svg>