<svg xmlns="http://www.w3.org/2000/svg" viewBox="0 0 165 165" id="identity-and-brand-design"><path d="M115.8 8.6V7.5c0-.6-.4-1-1-1h-4.1c-9-3.3-18.5-5-28.1-5-9.7 0-19.1 1.7-28.1 5H37.7c-.6 0-1 .4-1 1v8.1C14.7 30.8 1.5 55.8 1.5 82.5c0 44.3 35.9 81 81 81 20.1 0 40.4-7.5 56.3-22.8h12.7c.5 0 1-.4 1-.9v-16.6c7.2-12.3 11-26.4 11-40.7 0-31.9-18.7-60.8-47.7-73.9zm-8 70.9V53.4h42.7v26.1h-42.7zm-25.3-76c7.4 0 14.7 1 21.7 3H60.8c7-2 14.3-3 21.7-3zm-43.8 5h75.1v42.9h-7c-.6 0-1 .4-1 1v28.1c0 .6.4 1 1 1h7v13.4H75.1 75c-.5.1-.8.5-.9.9v19.5H38.7V8.5zM150.5 123v15l-35.2-20.2 35.2-20.2V123zm-68 38.5c-20.3 0-39.1-7.7-53.4-20.8H135.8c-14.3 13.2-33.3 20.8-53.3 20.8zm-6.4-63.9l35.2 20.2L76.1 138V97.6zm2.7 41.1l34.5-19.8 34.5 19.8h-69zm34.5-22.1L78.8 96.9h69l-34.5 19.7zM3.5 82.5c0-25.6 12.4-49.5 33.2-64.4v98.3c0 .6.4 1 1 1H74v21.3H27C12.5 124.4 3.5 104.5 3.5 82.5zm149 36.6V95.9v-.1-.2c0-.1 0-.1-.1-.2v-.1l-.1-.1c0-.1-.1-.1-.1-.2l-.1-.1c-.1 0-.1-.1-.2-.1h-.2-35.9V81.5h35.8c.6 0 1-.4 1-1V52.4c0-.6-.4-1-1-1h-35.8V10.8c27.8 12.9 45.7 40.9 45.7 71.7 0 12.8-3.1 25.3-9 36.6z"></path><path d="M80.2 146.8c0-.6-.4-1-1-1H55c-.6 0-1 .4-1 1s.4 1 1 1h24.2c.5 0 1-.5 1-1zM88.1 146.8c0-.6-.4-1-1-1h-4c-.6 0-1 .4-1 1s.4 1 1 1h4c.5 0 1-.5 1-1zM90.5 147.8h2.6c.6 0 1-.4 1-1s-.4-1-1-1h-2.6c-.6 0-1 .4-1 1 0 .5.4 1 1 1zM110 150.7H85.8c-.6 0-1 .4-1 1s.4 1 1 1H110c.6 0 1-.4 1-1s-.4-1-1-1zM81.9 150.7h-4c-.6 0-1 .4-1 1s.4 1 1 1h4c.6 0 1-.4 1-1s-.4-1-1-1zM74.5 150.7h-2.6c-.6 0-1 .4-1 1s.4 1 1 1h2.6c.6 0 1-.4 1-1s-.4-1-1-1zM30.5 118.8V62.2v-.1c0-.2-.1-.4-.2-.5l-6.3-16c-.2-.4-.5-.6-.9-.6s-.8.3-.9.6l-6.3 16.2c0 .1-.1.2-.1.3v56.5c0 4 3.3 7.3 7.3 7.3 4.1.2 7.4-3.1 7.4-7.1zm-2-9.3H17.8V63.2h10.6v46.3zm-10.7 2h10.7v3.1H17.8v-3.1zm5.3-62.8L28 61.2h-9.7l4.8-12.5zm0 75.4c-2.9 0-5.3-2.4-5.3-5.3v-2.1h10.7v2.1c0 2.9-2.4 5.3-5.4 5.3zM129.2 61.5c-2.7 0-5 2.2-5 5s2.2 5 5 5 5-2.2 5-5-2.3-5-5-5zm0 7.9c-1.6 0-3-1.3-3-3 0-1.6 1.3-3 3-3 1.6 0 3 1.3 3 3s-1.4 3-3 3zM108.3 104.7c0 2.7 2.2 5 5 5 2.7 0 5-2.2 5-5s-2.2-5-5-5-5 2.2-5 5zm8 0c0 1.6-1.3 3-3 3-1.6 0-3-1.3-3-3 0-1.6 1.3-3 3-3 1.6 0 3 1.3 3 3zM50.2 15.2c-2.7 0-5 2.2-5 5 0 2.7 2.2 5 5 5s5-2.2 5-5-2.2-5-5-5zm0 8c-1.6 0-3-1.3-3-3 0-1.6 1.3-3 3-3 1.6 0 3 1.3 3 3 0 1.6-1.3 3-3 3zM61.9 18.5h44.3c.6 0 1-.4 1-1s-.4-1-1-1H61.9c-.6 0-1 .4-1 1 0 .5.5 1 1 1zM82.2 23.9c.6 0 1-.4 1-1s-.4-1-1-1H61.9c-.6 0-1 .4-1 1s.4 1 1 1h20.3z"></path></svg>