<svg xmlns="http://www.w3.org/2000/svg" enable-background="new 0 0 512 512" version="1.0" viewBox="0 0 512 512"><path fill="none" stroke="#474747" stroke-linecap="round" stroke-linejoin="round" stroke-miterlimit="10" stroke-width="15" d="
			M383.561,371.82c-4.594,2.196-9.935,2.196-14.528,0l-16.79-9.546c-8.388-5.145-8.08-11.499-8.388-16.883l0.084-25.414"/><path fill="none" stroke="#474747" stroke-linecap="round" stroke-linejoin="round" stroke-miterlimit="10" stroke-width="15" d="M379.212 310.778c-24.766 12.604-60.101 11.716-55.063-44.483l66.429.004c15.249 0 27.611 12.362 27.611 27.611v74.912h.434l2.891 1.409c8.046 3.922 18.191 10.212 24.894 17.868 4.489 5.127 6.91 11.739 6.91 18.553v80.432M343.854 390.52L343.854 390.52c-13.769 3.233-23.494 15.529-23.466 29.673l.133 66.891M127.954 146.866c4.594 2.196 9.935 2.196 14.528 0l16.79-9.546c8.388-5.145 8.08-11.499 8.388-16.883l-.084-25.414M126.42 41.34l-5.484.004c-15.249 0-27.611 12.362-27.611 27.611v74.912h-.434L90 145.276c-8.046 3.922-18.191 10.212-24.894 17.868-4.489 5.127-6.91 11.739-6.91 18.553v80.432M167.661 165.565L167.661 165.565c13.769 3.233 23.494 15.529 23.466 29.673l-.133 66.891M128.037 45.245c0-12.436 10.081-22.517 22.517-22.517 10.702 0 19.641 7.473 21.932 17.48 4.123-5.241 10.507-8.618 17.692-8.618 12.436 0 22.517 10.081 22.517 22.517 0 12.436-10.081 22.517-22.517 22.517-2.414 0-4.735-.389-6.915-1.093-1.482 11.001-10.884 19.491-22.291 19.491-6.214 0-11.84-2.517-15.914-6.587M298.783 372.194l-50.555-13.278V333.9c0-14.828-12.021-26.849-26.849-26.849H85.044c-14.828 0-26.849 12.021-26.849 26.849v126.335c0 14.828 12.021 26.849 26.849 26.849h136.335c14.828 0 26.849-12.021 26.849-26.849v-67.435L298.783 372.194zM426.471 41.34H290.136c-14.828 0-26.849 12.021-26.849 26.849v43.025l-48.181 19.637 48.181 12.654v51.018c0 14.828 12.021 26.849 26.849 26.849h136.335c14.828 0 26.849-12.021 26.849-26.849V68.189C453.319 53.361 441.299 41.34 426.471 41.34z"/><g><circle cx="313.373" cy="131.356" r="10.292" fill="#474747"/><circle cx="354.146" cy="131.356" r="10.292" fill="#474747"/><circle cx="394.92" cy="131.356" r="10.292" fill="#474747"/></g><g><circle cx="112.113" cy="398.067" r="10.292" fill="#474747"/><circle cx="152.887" cy="398.067" r="10.292" fill="#474747"/><circle cx="193.661" cy="398.067" r="10.292" fill="#474747"/></g></svg>