<svg xmlns="http://www.w3.org/2000/svg" fill="none" viewBox="-1.02 -1.02 98 98" height="98" width="98"><path fill="#00034a" d="M42.618235 1.27147c-1.48738 -0.323865 -3.2194580000000004 1.816043 -3.867188 4.778808 -0.48219900000000004 2.209479 0.352653 7.067454000000001 3.152286 7.6768 1.48738 0.32626400000000005 3.221857 -1.811245 3.869587 -4.77401C46.312695 6.4773000000000005 45.542616 1.909604 42.618235 1.27147Z" stroke-width="2.04"></path><path fill="#00034a" d="M19.151217 11.208127999999999c-1.3050560000000002 -2.739658 -1.2474800000000001 -5.4913110000000005 0.129546 -6.146237999999999 2.305439 -1.096343 5.6544430000000006 3.759233 6.482098 5.498507999999999 1.3050560000000002 2.739658 1.2474800000000001 5.4913110000000005 -0.129546 6.146237999999999 -2.305439 1.096343 -5.6544430000000006 -3.759233 -6.482098 -5.498507999999999Z" stroke-width="2.04"></path><path fill="#00034a" d="M10.730727 25.026368c-2.90279 -0.88763 -5.613659999999999 -0.424623 -6.059874 1.03157 -0.748488 2.44698 4.337392 5.433735 6.076667 5.966313 2.90279 0.88763 5.613659999999999 0.42702199999999996 6.062273 -1.03157 0.746089 -2.44698 -4.337392 -5.433735 -6.079065999999999 -5.966313Z" stroke-width="2.04"></path><path fill="#00034a" d="M63.419964 12.148536c-1.036368 -1.1155350000000002 -3.677667 -0.34785499999999997 -5.90154 1.717684 -2.223873 2.06314 -3.1858720000000003 4.644464 -2.149504 5.7576 0.654927 0.7077049999999999 0.976393 1.019575 1.63132 1.7248809999999999 1.036368 1.1155350000000002 3.680066 0.34785499999999997 5.90154 -1.717684 2.2262720000000003 -2.06314 3.188271 -4.644464 2.149504 -5.7576 -0.654927 -0.7077049999999999 -0.976393 -1.019575 -1.63132 -1.7248809999999999Z" stroke-width="2.04"></path><path fill="#00034a" d="M62.179681 31.949882c-0.11995 -1.518567 2.2310700000000003 -2.945972 5.258608000000001 -3.1858720000000003 2.219075 -0.17512699999999998 7.10104 1.189904 7.324147 4.037517 0.11995 1.518567 -2.2310700000000003 2.945972 -5.256208999999999 3.1858720000000003 -2.219075 0.17512699999999998 -7.10104 -1.189904 -7.326546 -4.037517Z" stroke-width="2.04"></path><path stroke="#00034a" stroke-miterlimit="10" d="M42.618235 1.27147c-1.48738 -0.323865 -3.2194580000000004 1.816043 -3.867188 4.778808 -0.48219900000000004 2.209479 0.352653 7.067454000000001 3.152286 7.6768 1.48738 0.32626400000000005 3.221857 -1.811245 3.869587 -4.77401C46.312695 6.4773000000000005 45.542616 1.909604 42.618235 1.27147Z" stroke-width="2.04"></path><path stroke="#00034a" stroke-miterlimit="10" d="M19.151217 11.208127999999999c-1.3050560000000002 -2.739658 -1.2474800000000001 -5.4913110000000005 0.129546 -6.146237999999999 2.305439 -1.096343 5.6544430000000006 3.759233 6.482098 5.498507999999999 1.3050560000000002 2.739658 1.2474800000000001 5.4913110000000005 -0.129546 6.146237999999999 -2.305439 1.096343 -5.6544430000000006 -3.759233 -6.482098 -5.498507999999999Z" stroke-width="2.04"></path><path stroke="#00034a" stroke-miterlimit="10" d="M10.730727 25.026368c-2.90279 -0.88763 -5.613659999999999 -0.424623 -6.059874 1.03157 -0.748488 2.44698 4.337392 5.433735 6.076667 5.966313 2.90279 0.88763 5.613659999999999 0.42702199999999996 6.062273 -1.03157 0.746089 -2.44698 -4.337392 -5.433735 -6.079065999999999 -5.966313Z" stroke-width="2.04"></path><path stroke="#00034a" stroke-miterlimit="10" d="M63.419964 12.148536c-1.036368 -1.1155350000000002 -3.677667 -0.34785499999999997 -5.90154 1.717684 -2.223873 2.06314 -3.1858720000000003 4.644464 -2.149504 5.7576 0.654927 0.7077049999999999 0.976393 1.019575 1.63132 1.7248809999999999 1.036368 1.1155350000000002 3.680066 0.34785499999999997 5.90154 -1.717684 2.2262720000000003 -2.06314 3.188271 -4.644464 2.149504 -5.7576 -0.654927 -0.7077049999999999 -0.976393 -1.019575 -1.63132 -1.7248809999999999Z" stroke-width="2.04"></path><path stroke="#00034a" stroke-miterlimit="10" d="M62.179681 31.949882c-0.11995 -1.518567 2.2310700000000003 -2.945972 5.258608000000001 -3.1858720000000003 2.219075 -0.17512699999999998 7.10104 1.189904 7.324147 4.037517 0.11995 1.518567 -2.2310700000000003 2.945972 -5.256208999999999 3.1858720000000003 -2.219075 0.17512699999999998 -7.10104 -1.189904 -7.326546 -4.037517Z" stroke-width="2.04"></path><path fill="#00034a" fill-rule="evenodd" d="M82.271306 92.301525c-2.8596079999999997 0.14393999999999998 -5.94952 -0.007197 -6.702806 -1.787255a2.019958 2.019958 0 0 1 -0.211112 -0.345456 2.355818 2.355818 0 0 1 -0.220708 0.537376c-0.55177 2.08713 -4.3182 2.56693 -7.41291 2.75885a29.84356 29.84356 0 0 1 -3.675268 0.04798c-2.8883959999999997 0.134344 -6.047879 0.004798 -6.808362000000001 -1.79925a1.907205 1.907205 0 0 1 -0.19431900000000002 -0.307072 2.348621 2.348621 0 0 1 -0.21351099999999998 0.5229820000000001c-0.5757599999999999 2.08713 -4.2942100000000005 2.5189500000000002 -7.41291 2.73486a28.284209999999998 28.284209999999998 0 0 1 -3.74244 0.057576c-2.8883959999999997 0.14393999999999998 -6.009494999999999 -0.016793 -6.76518 -1.784856 -1.53536 -1.9431900000000002 -2.59092 -15.425569999999999 -3.14269 -23.294290000000004 -0.55177 -7.86872 -1.27147 -21.37509 0 -23.5102 0.5757599999999999 -2.08713 4.24623 -2.5189500000000002 7.41291 -2.73486a28.490524 28.490524 0 0 1 3.7160509999999998 -0.055177c2.933977 -0.14393999999999998 6.076667 0.026389 6.791569 1.782457a1.9431900000000002 1.9431900000000002 0 0 1 0.19431900000000002 0.31187000000000004 2.25506 2.25506 0 0 1 0.21351099999999998 -0.50379c0.55177 -2.08713 4.3182 -2.56693 7.41291 -2.75885a29.84356 29.84356 0 0 1 3.675268 -0.04798c2.8883959999999997 -0.134344 6.047879 -0.004798 6.808362000000001 1.79925a1.8472300000000001 1.8472300000000001 0 0 1 0.20871299999999998 0.33586000000000005 2.5189500000000002 2.5189500000000002 0 0 1 0.223107 -0.55177c0.5757599999999999 -2.08713 4.2942100000000005 -2.5189500000000002 7.41291 -2.73486 1.237884 -0.086364 2.5765260000000003 -0.14393999999999998 3.7928189999999997 -0.059975 2.876401 -0.14393999999999998 5.963914000000001 0.007197 6.714801 1.787255 1.53536 1.9431900000000002 2.56693 15.425569999999999 3.1187 23.294290000000004 0.55177 7.86872 1.27147 21.37509 0 23.5102 -0.5757599999999999 2.08713 -4.3182 2.5189500000000002 -7.41291 2.73486 -1.228288 0.086364 -2.564531 0.14393999999999998 -3.7808240000000004 0.059975Z" clip-rule="evenodd" stroke-width="2.04"></path><path fill="#00034a" d="m82.271306 92.301525 0.08396500000000001 -1.197101 -0.07196999999999999 -0.004798 -0.07196999999999999 0.004798 0.059975 1.1995ZM75.5685 90.51427l1.10354 -0.46540600000000004 -0.062374 -0.151137 -0.100758 -0.127147 -0.940408 0.74369Zm-0.211112 -0.345456 1.0723530000000001 -0.537376 -1.3626319999999998 -2.7300619999999998 -0.8612409999999999 2.92678 1.1515199999999999 0.34065799999999996Zm-0.220708 0.537376 -1.026772 -0.618942 -0.088763 0.146339 -0.043182 0.16793000000000002 1.158717 0.304673Zm-7.41291 2.75885 -0.074369 -1.1995 0.074369 1.1995Zm-3.675268 0.04798 0.076768 -1.194702 -0.064773 -0.004798 -0.067172 0 0.055177 1.1995Zm-6.808362000000001 -1.79925 1.10354 -0.46540600000000004 -0.062374 -0.15593500000000002 -0.105556 -0.129546 -0.93561 0.750887Zm-0.19431900000000002 -0.307072 1.062757 -0.5565680000000001 -1.372228 -2.61491 -0.83965 2.8308199999999997 1.149121 0.34065799999999996Zm-0.21351099999999998 0.5229820000000001 -1.03157 -0.614144 -0.08156600000000001 0.13914200000000002 -0.043182 0.15593500000000002 1.156318 0.31906700000000005Zm-7.41291 2.73486 0.08156600000000001 1.197101 -0.08156600000000001 -1.197101Zm-3.74244 0.057576 0.08156600000000001 -1.197101 -0.07196999999999999 -0.004798 -0.06957100000000001 0.004798 0.059975 1.1995Zm-6.76518 -1.784856 1.10354 -0.470204 -0.062374 -0.148738 -0.100758 -0.124748 -0.940408 0.74369Zm-3.14269 -23.294290000000004 1.197101 -0.08396500000000001 -1.197101 0.08396500000000001Zm0 -23.5102 1.03157 0.614144 0.08156600000000001 -0.13914200000000002 0.043182 -0.15593500000000002 -1.156318 -0.31906700000000005ZM43.182 43.39791l-0.08156600000000001 -1.197101 0.08156600000000001 1.197101Zm3.7160509999999998 -0.055177 -0.079167 1.197101 0.06957100000000001 0.004798 0.067172 -0.004798 -0.057576 -1.197101Zm6.791569 1.782457 -1.110737 0.453411 0.064773 0.15593500000000002 0.105556 0.134344 0.940408 -0.74369Zm0.19431900000000002 0.31187000000000004 -1.065156 0.549371 1.3434400000000002 2.6101120000000004 0.8684379999999999 -2.8068299999999997 -1.146722 -0.352653Zm0.21351099999999998 -0.50379 1.021974 0.626139 0.093561 -0.148738 0.043182 -0.17032899999999998 -1.158717 -0.307072Zm7.41291 -2.75885 0.07196999999999999 1.197101 -0.07196999999999999 -1.197101Zm3.675268 -0.04798 -0.076768 1.194702 0.064773 0.004798 0.067172 -0.002399 -0.055177 -1.1995Zm6.808362000000001 1.79925 -1.10354 0.46540600000000004 0.062374 0.153536 0.105556 0.131945 0.93561 -0.750887Zm0.20871299999999998 0.33586000000000005 -1.067555 0.544573 1.3746269999999998 2.696476 0.844448 -2.907588 -1.1515199999999999 -0.33586000000000005Zm0.223107 -0.55177 1.03157 0.614144 0.08156600000000001 -0.13914200000000002 0.043182 -0.15593500000000002 -1.156318 -0.31906700000000005Zm7.41291 -2.73486 -0.08396500000000001 -1.197101 0.08396500000000001 1.197101Zm3.7928189999999997 -0.059975 -0.08156600000000001 1.194702 0.07196999999999999 0.004798 0.07196999999999999 -0.002399 -0.062374 -1.1995Zm6.714801 1.787255 -1.10354 0.46540600000000004 0.062374 0.151137 0.100758 0.127147 0.940408 -0.74369Zm3.1187 46.80449 -1.03157 -0.614144 -0.08156600000000001 0.13914200000000002 -0.043182 0.15593500000000002 1.156318 0.31906700000000005Zm-7.41291 2.73486 0.08396500000000001 1.197101 -0.08396500000000001 -1.197101Zm-3.8384 -1.1371259999999999c-1.413011 0.07196999999999999 -2.7780419999999997 0.059975 -3.850395 -0.151137 -1.12753 -0.223107 -1.55935 -0.590154 -1.688896 -0.904423l-2.211878 0.9308120000000001c0.618942 1.468188 2.113519 2.065539 3.435368 2.32703 1.3746269999999998 0.271087 2.984356 0.26389 4.433352 0.19192l-0.11995 -2.394202Zm-5.704822 -1.333844a0.902024 0.902024 0 0 1 -0.079167 -0.13914200000000002l-2.1471050000000003 1.0723530000000001c0.093561 0.187122 0.206314 0.379042 0.345456 0.554169l1.880816 -1.48738Zm-2.3030399999999998 0.057576a1.324248 1.324248 0 0 1 -0.09596 0.259092l2.053544 1.237884a3.40658 3.40658 0 0 0 0.343057 -0.8180590000000001l-2.3006409999999997 -0.678917Zm-0.227905 0.570962c-0.098359 0.371845 -0.5757599999999999 0.851645 -1.9287960000000002 1.245081 -1.2594750000000001 0.36464799999999997 -2.862007 0.52778 -4.3997660000000005 0.6237400000000001l0.148738 2.394202c1.556951 -0.09596 3.384989 -0.268688 4.917949999999999 -0.7149019999999999 1.441799 -0.41742599999999996 3.1258969999999997 -1.218692 3.579308 -2.933977l-2.317434 -0.614144Zm-6.328562 1.868821c-1.185106 0.07196999999999999 -2.415793 0.11995 -3.524131 0.04798l-0.15593500000000002 2.394202c1.269071 0.08396500000000001 2.6245060000000002 0.026389 3.8288040000000003 -0.04798l-0.148738 -2.394202Zm-3.656076 0.04798c-1.4298039999999999 0.064773 -2.821224 0.059975 -3.9199659999999996 -0.153536 -1.156318 -0.223107 -1.5929360000000001 -0.594952 -1.72728 -0.914019l-2.211878 0.9308120000000001c0.626139 1.484981 2.1471050000000003 2.079933 3.483348 2.339025 1.393819 0.268688 3.027538 0.26149100000000003 4.48613 0.19192l-0.110354 -2.394202Zm-5.817575 -1.353036a0.7844730000000001 0.7844730000000001 0 0 1 -0.067172 -0.112753l-2.125514 1.1155350000000002c0.088763 0.16793000000000002 0.19192 0.34065799999999996 0.32146600000000003 0.498992l1.87122 -1.501774Zm-2.27905 0.103157a1.278667 1.278667 0 0 1 -0.09596 0.249496l2.06314 1.228288c0.146339 -0.249496 0.251895 -0.52778 0.331062 -0.794069l-2.298242 -0.683715Zm-0.220708 0.544573c-0.105556 0.379042 -0.580558 0.851645 -1.923998 1.235485 -1.2594750000000001 0.35745099999999996 -2.85481 0.513386 -4.41416 0.6237400000000001l0.165531 2.391803c1.556951 -0.107955 3.380191 -0.275885 4.903556 -0.710104 1.4394 -0.40783 3.111503 -1.194702 3.581707 -2.90279l-2.312636 -0.6381340000000001Zm-6.338158 1.856826c-1.206697 0.08396500000000001 -2.4589749999999997 0.134344 -3.579308 0.057576l-0.16313200000000003 2.394202a29.33977 29.33977 0 0 0 3.905572 -0.057576l-0.165531 -2.394202Zm-3.7184500000000003 0.057576c-1.425006 0.06957100000000001 -2.8068299999999997 0.057576 -3.893577 -0.15593500000000002 -1.146722 -0.225506 -1.5785420000000001 -0.594952 -1.7104869999999999 -0.902024l-2.20708 0.940408c0.6237400000000001 1.46339 2.127913 2.055943 3.45456 2.315035 1.384223 0.273486 3.008346 0.271087 4.474135 0.196718l-0.11995 -2.394202Zm-5.767196 -1.3314450000000002c-0.045580999999999997 -0.057576 -0.177526 -0.297476 -0.34785499999999997 -0.8468469999999999a19.714982 19.714982 0 0 1 -0.477401 -1.9911699999999999 81.06221 81.06221 0 0 1 -0.86364 -5.978308c-0.520583 -4.570095 -0.921216 -9.88388 -1.1995 -13.81824l-2.391803 0.16793000000000002c0.275885 3.93436 0.678917 9.296125 1.209096 13.921397 0.26389 2.310237 0.558967 4.459741 0.892428 6.16543 0.16793000000000002 0.851645 0.345456 1.614527 0.539775 2.243065 0.18232399999999999 0.590154 0.419825 1.194702 0.758084 1.6241230000000002l1.880816 -1.48738Zm-2.885997 -22.634565000000002c-0.275885 -3.927163 -0.592553 -9.248145 -0.6813159999999999 -13.842229999999999 -0.045580999999999997 -2.3030399999999998 -0.033586 -4.402165 0.067172 -6.04548 0.050379 -0.820458 0.11995 -1.506572 0.211112 -2.034352 0.09596 -0.570962 0.19911700000000002 -0.825256 0.23750100000000002 -0.890029l-2.06314 -1.228288c-0.27828400000000003 0.470204 -0.43182 1.10354 -0.537376 1.712886 -0.112753 0.64773 -0.189521 1.4298039999999999 -0.24229900000000001 2.295843a81.769915 81.769915 0 0 0 -0.07196999999999999 6.2350010000000005c0.09116199999999999 4.65406 0.410229 10.023022 0.686114 13.964578999999999l2.394202 -0.16793000000000002Zm-0.04078300000000001 -23.107167999999998c0.105556 -0.38384 0.5757599999999999 -0.8540439999999999 1.907205 -1.235485 1.252278 -0.35745099999999996 2.845214 -0.513386 4.430953 -0.6237400000000001l-0.16313200000000003 -2.391803c-1.5833400000000002 0.107955 -3.40658 0.275885 -4.925147 0.710104 -1.4394 0.410229 -3.09471 1.1995 -3.5625150000000003 2.90279l2.312636 0.6381340000000001Zm6.338158 -1.856826c1.1995 -0.08156600000000001 2.444581 -0.129546 3.555318 -0.055177l0.158334 -2.394202a29.65164 29.65164 0 0 0 -3.8767840000000002 0.055177l0.16313200000000003 2.394202Zm3.6944600000000003 -0.052778c1.4441979999999999 -0.07196999999999999 2.8428150000000003 -0.057576 3.936759 0.158334 1.161116 0.227905 1.5689460000000002 0.597351 1.6840979999999999 0.878034l2.221474 -0.906822c-0.59975 -1.472986 -2.120716 -2.065539 -3.442565 -2.32703 -1.3914199999999999 -0.273486 -3.029937 -0.271087 -4.517317 -0.19911700000000002l0.115152 2.394202Zm5.791186000000001 1.3266470000000001a0.83965 0.83965 0 0 1 0.06957100000000001 0.117551l2.132711 -1.098742a3.1187 3.1187 0 0 0 -0.32146600000000003 -0.50379l-1.880816 1.484981Zm2.27905 -0.076768a1.8472300000000001 1.8472300000000001 0 0 1 0.08396500000000001 -0.21591l0.004798 -0.011995 0 -0.002399 0.002399 0 -2.043948 -1.257076a3.442565 3.442565 0 0 0 -0.33586000000000005 0.7772760000000001l2.291045 0.710104Zm0.227905 -0.55177c0.098359 -0.371845 0.5757599999999999 -0.851645 1.9287960000000002 -1.245081 1.2594750000000001 -0.36464799999999997 2.862007 -0.52778 4.3997660000000005 -0.6237400000000001l-0.148738 -2.394202c-1.556951 0.09596 -3.384989 0.268688 -4.917949999999999 0.712503 -1.441799 0.41742599999999996 -3.1258969999999997 1.221091 -3.579308 2.936376l2.317434 0.614144Zm6.328562 -1.868821c1.185106 -0.07196999999999999 2.415793 -0.11995 3.524131 -0.04798l0.15593500000000002 -2.394202a30.918312 30.918312 0 0 0 -3.8288040000000003 0.04798l0.148738 2.394202Zm3.656076 -0.04798c1.4298039999999999 -0.067172 2.821224 -0.059975 3.9199659999999996 0.153536 1.156318 0.223107 1.5929360000000001 0.594952 1.72728 0.914019l2.211878 -0.9308120000000001c-0.626139 -1.484981 -2.1471050000000003 -2.079933 -3.483348 -2.339025 -1.393819 -0.268688 -3.027538 -0.26389 -4.48613 -0.19192l0.110354 2.394202Zm5.817575 1.353036a0.86364 0.86364 0 0 1 0.076768 0.129546l2.13511 -1.089146a3.159483 3.159483 0 0 0 -0.34065799999999996 -0.542174l-1.87122 1.501774Zm2.295843 -0.08156600000000001a1.372228 1.372228 0 0 1 0.103157 -0.271087l-2.06314 -1.228288a3.55052 3.55052 0 0 0 -0.343057 0.830054l2.3030399999999998 0.6717200000000001Zm0.227905 -0.566164c0.105556 -0.379042 0.580558 -0.851645 1.923998 -1.235485 1.2594750000000001 -0.35745099999999996 2.85481 -0.513386 4.41416 -0.6237400000000001l-0.165531 -2.391803c-1.556951 0.107955 -3.380191 0.275885 -4.903556 0.710104 -1.4394 0.40783 -3.111503 1.194702 -3.581707 2.90279l2.312636 0.6381340000000001Zm6.3405569999999996 -1.856826a27.5885 27.5885 0 0 1 3.627288 -0.062374l0.165531 -2.391803a29.53169 29.53169 0 0 0 -3.95835 0.059975l0.165531 2.394202Zm11.529594 0.064773c-0.618942 -1.468188 -2.11112 -2.06314 -3.432969 -2.32703 -1.3770259999999999 -0.271087 -2.989154 -0.26389 -4.445347 -0.19192l0.11995 2.394202c1.4154099999999998 -0.07196999999999999 2.7828399999999998 -0.059975 3.859991 0.151137 1.12753 0.223107 1.5545520000000002 0.592553 1.686497 0.904423l2.211878 -0.9308120000000001Zm3.209862 23.675731c-0.275885 -3.93436 -0.6717200000000001 -9.293726 -1.194702 -13.918997999999998a83.298078 83.298078 0 0 0 -0.88763 -6.16543 21.941254 21.941254 0 0 0 -0.534977 -2.243065c-0.18232399999999999 -0.590154 -0.419825 -1.1995 -0.758084 -1.626522l-1.880816 1.48738c0.043182 0.057576 0.177526 0.295077 0.34785499999999997 0.8468469999999999 0.158334 0.510987 0.316668 1.182707 0.47260300000000005 1.9911699999999999 0.31187000000000004 1.614527 0.59975 3.692061 0.856443 5.978308 0.515785 4.567696 0.91162 9.88388 1.185106 13.81824l2.394202 -0.16793000000000002Zm-0.16793000000000002 24.20591c0.280683 -0.467805 0.436618 -1.1011410000000001 0.539775 -1.7104869999999999 0.112753 -0.64773 0.189521 -1.4298039999999999 0.24229900000000001 -2.295843 0.105556 -1.7368759999999999 0.117551 -3.907971 0.07196999999999999 -6.2350010000000005 -0.09116199999999999 -4.65406 -0.410229 -10.023022 -0.686114 -13.964578999999999l-2.394202 0.16793000000000002c0.275885 3.927163 0.592553 9.248145 0.6813159999999999 13.844629 0.045580999999999997 2.3030399999999998 0.033586 4.3997660000000005 -0.067172 6.040681999999999 -0.050379 0.8228570000000001 -0.11995 1.508971 -0.211112 2.03915 -0.09596 0.566164 -0.19911700000000002 0.8228570000000001 -0.23750100000000002 0.88763l2.06314 1.228288Zm-8.358116 3.320216c1.544956 -0.107955 3.3681959999999997 -0.275885 4.89396 -0.7077049999999999 1.4394 -0.40783 3.1187 -1.194702 3.5913030000000004 -2.905189l-2.312636 -0.6381340000000001c-0.103157 0.376643 -0.582957 0.851645 -1.933594 1.2330860000000001 -1.2618740000000002 0.35985 -2.85481 0.515785 -4.406963 0.6237400000000001l0.16793000000000002 2.394202Zm-3.946355 0.059975c1.3002580000000001 0.09116199999999999 2.703673 0.02399 3.946355 -0.059975l-0.16793000000000002 -2.394202c-1.216293 0.086364 -2.4829649999999996 0.13914200000000002 -3.612894 0.059975l-0.16793000000000002 2.394202Z" stroke-width="2.04"></path><path fill="#e29269" stroke="#00034a" stroke-miterlimit="10" d="M54.04947000000001 91.92968c1.27147 -2.13511 0.55177 -15.64148 0 -23.5102 -0.55177 -7.86872 -1.6073300000000001 -21.351100000000002 -3.14269 -23.294290000000004 -0.7916700000000001 -1.9431900000000002 -4.5581 -1.9431900000000002 -7.724780000000001 -1.72728 -3.1666800000000004 0.21591 -6.83715 0.64773 -7.41291 2.73486 -1.27147 2.13511 -0.55177 15.64148 0 23.5102 0.55177 7.86872 1.6073300000000001 21.351100000000002 3.14269 23.294290000000004 0.83965 1.96718 4.6060799999999995 1.9431900000000002 7.724780000000001 1.72728 3.1187 -0.21591 6.83715 -0.64773 7.41291 -2.73486Z" stroke-width="2.04"></path><path fill="#ffffff" stroke="#00034a" stroke-miterlimit="10" d="M40.783 83.53318a15.463954 15.463954 0 0 0 5.06189 0.14393999999999998 15.300822 15.300822 0 0 0 4.965929999999999 -0.81566c0.43182 -0.2399 0.40783 -1.36743 0.33586000000000005 -2.399 -0.07196999999999999 -1.03157 -0.19192 -2.03915 -0.6237400000000001 -2.2310700000000003a15.483146 15.483146 0 0 0 -4.94194 -0.04798 15.312817 15.312817 0 0 0 -4.965929999999999 0.81566c-0.43182 0.2399 -0.40783 1.36743 -0.33586000000000005 2.399 0.07196999999999999 1.03157 0.14393999999999998 1.9431900000000002 0.50379 2.13511Z" stroke-width="2.04"></path><path stroke="#00034a" stroke-linecap="round" stroke-miterlimit="10" d="M49.491369999999996 54.28937a54.270178 54.270178 0 0 0 -10.98742 0.74369" stroke-width="2.04"></path><path stroke="#00034a" stroke-linecap="round" stroke-miterlimit="10" d="M49.73127 57.95984a56.040639999999996 56.040639999999996 0 0 0 -10.98742 0.7197" stroke-width="2.04"></path><path stroke="#ffffff" stroke-linecap="round" stroke-miterlimit="10" d="M43.61382 46.66055c4.43815 0 4.0783 -0.14393999999999998 4.51012 1.07955" stroke-width="2.04"></path><path fill="#e29269" stroke="#00034a" stroke-miterlimit="10" d="M72.35384 90.70619c1.27147 -2.11112 0.5757599999999999 -15.61749 0 -23.48621 -0.5757599999999999 -7.86872 -1.5833400000000002 -21.351100000000002 -3.14269 -23.294290000000004 -0.83965 -1.9911699999999999 -4.6060799999999995 -1.9431900000000002 -7.70079 -1.7512699999999999 -3.09471 0.19192 -6.86114 0.6717200000000001 -7.41291 2.75885 -1.29546 2.11112 -0.5757599999999999 15.61749 0 23.48621 0.5757599999999999 7.86872 1.5833400000000002 21.351100000000002 3.14269 23.294290000000004 0.83965 1.9911699999999999 4.6060799999999995 1.9431900000000002 7.70079 1.7512699999999999 3.09471 -0.19192 6.86114 -0.6717200000000001 7.41291 -2.75885Z" stroke-width="2.04"></path><path fill="#ffffff" stroke="#00034a" stroke-miterlimit="10" d="M59.183330000000005 82.33368a16.02532 16.02532 0 0 0 5.0379000000000005 0.14393999999999998 15.475949 15.475949 0 0 0 4.989920000000001 -0.91162c0.40783 -0.2399 0.38384 -1.36743 0.31187000000000004 -2.399 -0.07196999999999999 -1.03157 -0.16793000000000002 -2.06314 -0.6237400000000001 -2.2310700000000003a14.68188 14.68188 0 0 0 -5.0379000000000005 -0.14393999999999998 14.96976 14.96976 0 0 0 -4.989920000000001 0.7916700000000001c-0.40783 0.2399 -0.38384 1.36743 -0.33586000000000005 2.399 0.04798 1.03157 0.19192 2.1591 0.64773 2.35102Z" stroke-width="2.04"></path><path stroke="#00034a" stroke-linecap="round" stroke-miterlimit="10" d="M67.79574000000001 53.08987a54.366138 54.366138 0 0 0 -10.98742 0.7197" stroke-width="2.04"></path><path stroke="#00034a" stroke-linecap="round" stroke-miterlimit="10" d="M68.03564 56.736349999999995a54.390128000000004 54.390128000000004 0 0 0 -10.98742 0.74369" stroke-width="2.04"></path><path fill="#e29269" stroke="#00034a" stroke-miterlimit="10" d="M90.6822 89.50669c1.27147 -2.13511 0.55177 -15.64148 0 -23.5102 -0.55177 -7.86872 -1.5833400000000002 -21.351100000000002 -3.1187 -23.294290000000004 -0.83965 -1.9911699999999999 -4.6060799999999995 -1.9431900000000002 -7.724780000000001 -1.72728 -3.1187 0.21591 -6.83715 0.64773 -7.41291 2.73486 -1.27147 2.13511 -0.5757599999999999 15.64148 0 23.5102 0.5757599999999999 7.86872 1.6073300000000001 21.351100000000002 3.14269 23.294290000000004 0.83965 1.9911699999999999 4.6060799999999995 1.9431900000000002 7.70079 1.72728 3.09471 -0.21591 6.83715 -0.64773 7.41291 -2.73486Z" stroke-width="2.04"></path><path fill="#ffffff" stroke="#00034a" stroke-miterlimit="10" d="M77.48769999999999 81.11019a15.329609999999999 15.329609999999999 0 0 0 5.0379000000000005 0.14393999999999998 15.3536 15.3536 0 0 0 4.989920000000001 -0.81566c0.43182 -0.2399 0.38384 -1.36743 0.33586000000000005 -2.399 -0.04798 -1.03157 -0.19192 -2.03915 -0.64773 -2.2310700000000003a16.02532 16.02532 0 0 0 -5.0379000000000005 -0.14393999999999998 15.473550000000001 15.473550000000001 0 0 0 -4.989920000000001 0.81566c-0.40783 0.2399 -0.38384 1.36743 -0.31187000000000004 2.399 0.07196999999999999 1.03157 0.16793000000000002 2.03915 0.6237400000000001 2.2310700000000003Z" stroke-width="2.04"></path><path stroke="#00034a" stroke-linecap="round" stroke-miterlimit="10" d="M86.10011 51.86638a54.514876 54.514876 0 0 0 -10.98742 0.74369" stroke-width="2.04"></path><path stroke="#00034a" stroke-linecap="round" stroke-miterlimit="10" d="M86.364 55.536849999999994c-3.677667 -0.11995 -7.3577330000000005 0.11995 -10.98742 0.7197" stroke-width="2.04"></path><path fill="#00034a" stroke="#00034a" stroke-miterlimit="10" d="M43.97367 20.559430000000003c-11.53919 -3.55052 -19.40791 1.3914199999999999 -22.52661 11.49121 -2.01516 6.50129 0.38384 13.26647 3.02274 18.568260000000002a8.20458 8.20458 0 0 1 0.93561 4.5581 2.6868800000000004 2.6868800000000004 0 0 0 -2.13511 1.82324 2.59092 2.59092 0 0 0 0.98359 2.85481c-1.062757 5.340174 1.544956 10.140573000000002 6.805963 11.764696 3.8863800000000004 1.1995 7.0050799999999995 0 9.3561 -5.58967a2.61491 2.61491 0 0 0 1.70329 -4.53411 8.228570000000001 8.228570000000001 0 0 1 3.3106199999999997 -3.26264c5.10987 -2.90279 10.91545 -7.14902 12.90662 -13.650310000000001 3.5025399999999998 -11.349669 -3.7232480000000003 -20.751350000000002 -14.362813000000001 -24.023585999999998Z" stroke-width="2.04"></path><path fill="#ffffff" stroke="#00034a" stroke-miterlimit="10" d="M56.08862 42.726189999999995c3.1187 -10.09979 -0.5757599999999999 -18.61624 -12.11495 -22.16676 -11.53919 -3.55052 -19.40791 1.3914199999999999 -22.52661 11.49121 -2.01516 6.50129 0.38384 13.26647 3.02274 18.568260000000002a8.20458 8.20458 0 0 1 0.93561 4.5581 2.6868800000000004 2.6868800000000004 0 0 0 -2.13511 1.82324 2.59092 2.59092 0 0 0 0.98359 2.85481c-1.17551 5.90154 0.6717200000000001 8.70837 4.5581 9.907869999999999 3.8863800000000004 1.1995 7.0050799999999995 0 9.3561 -5.58967a2.61491 2.61491 0 0 0 1.70329 -4.53411A8.228570000000001 8.228570000000001 0 0 1 43.182 56.3765c5.10987 -2.90279 10.91545 -7.14902 12.90662 -13.650310000000001Z" stroke-width="2.04"></path><path stroke="#00034a" stroke-linecap="round" stroke-miterlimit="10" d="M29.96351 56.59241c1.816043 0.338259 3.5865050000000003 0.88763 5.2778 1.63132" stroke-width="2.04"></path><path stroke="#00034a" stroke-linecap="round" stroke-miterlimit="10" d="M28.788 60.67071c1.82324 0.31187000000000004 3.5985 0.86364 5.2778 1.63132" stroke-width="2.04"></path><path fill="#e29269" stroke="#00034a" stroke-miterlimit="10" d="M33.05822 38.8638s-0.45581 0.88763 0.38384 4.2942100000000005a14.753850000000002 14.753850000000002 0 0 0 1.31945 3.62249 1.6073300000000001 1.6073300000000001 0 0 0 2.01516 0.6237400000000001 15.092109 15.092109 0 0 0 3.1666800000000004 -2.2310700000000003 11.73111 11.73111 0 0 0 2.71087 -3.3586 1.48738 1.48738 0 0 0 -0.5757599999999999 -1.77526c-1.161116 -0.698109 -2.399 -1.254677 -3.6944600000000003 -1.6553099999999998a15.883779 15.883779 0 0 0 -3.8623900000000004 -0.74369 1.53536 1.53536 0 0 0 -1.48738 1.12753l0.02399 0.09596Z" stroke-width="2.04"></path><path stroke="#00034a" stroke-linecap="round" stroke-linejoin="round" d="m35.67313 47.47621 -0.91162 2.95077" stroke-width="2.04"></path><path fill="#e29269" stroke="#00034a" stroke-miterlimit="10" d="M44.1416 7.230586c0.64773 -2.965164 -0.033586 -5.632852 -1.523365 -5.956717 -1.48738 -0.32626400000000005 -3.2194580000000004 1.813644 -3.867188 4.776409 -0.64773 2.965164 0.033586 5.632852 1.520966 5.956717 1.48738 0.32626400000000005 3.221857 -1.813644 3.869587 -4.776409Z" stroke-width="2.04"></path><path fill="#e29269" stroke="#00034a" stroke-miterlimit="10" d="M24.001995 14.984154000000002c1.3746269999999998 -0.654927 1.434602 -3.40658 0.129546 -6.146237999999999C22.828884 6.0982579999999995 20.65539 4.409362000000001 19.280763000000004 5.06189c-1.3770259999999999 0.654927 -1.434602 3.40658 -0.129546 6.146237999999999 1.3026570000000002 2.739658 3.476151 4.430953 4.850777999999999 3.7760260000000003Z" stroke-width="2.04"></path><path fill="#e29269" stroke="#00034a" stroke-miterlimit="10" d="M15.178473 29.270199c0.443815 -1.456193 -1.547355 -3.356201 -4.447746 -4.243831 -2.90279 -0.88763 -5.613659999999999 -0.424623 -6.059874 1.03157 -0.446214 1.4585919999999999 1.544956 3.3586 4.445347 4.24623 2.90279 0.88763 5.613659999999999 0.424623 6.062273 -1.03157Z" stroke-width="2.04"></path><path fill="#e29269" stroke="#00034a" stroke-miterlimit="10" d="M61.27046 17.908535c2.2262720000000003 -2.06314 3.188271 -4.6420650000000006 2.149504 -5.7576 -1.036368 -1.117934 -3.677667 -0.35025399999999995 -5.90154 1.715285 -2.223873 2.06314 -3.1858720000000003 4.644464 -2.149504 5.7576 1.036368 1.117934 3.680066 0.35025399999999995 5.90154 -1.715285Z" stroke-width="2.04"></path><path fill="#e29269" stroke="#00034a" stroke-miterlimit="10" d="M67.874907 34.264917c3.02274 -0.2399 5.378558 -1.664906 5.256208999999999 -3.1858720000000003 -0.11995 -1.518567 -2.670087 -2.554935 -5.692827 -2.315035 -3.025139 0.2399 -5.378558 1.6673049999999998 -5.258608000000001 3.1858720000000003 0.11995 1.518567 2.670087 2.554935 5.695226 2.315035Z" stroke-width="2.04"></path></svg>