<svg xmlns="http://www.w3.org/2000/svg" fill="none" viewBox="-1.02 -1.02 98 98" height="98" width="98"><path fill="#00034a" stroke="#00034a" stroke-miterlimit="10" d="M2.017559 88.587873a1.8856140000000001 1.8856140000000001 0 0 1 -0.582957 -1.069954 19.904503000000002 19.904503000000002 0 0 1 0 -4.929945 20.134807000000002 20.134807000000002 0 0 1 1.093944 -4.651661 1.907205 1.907205 0 0 1 2.046347 -1.1371259999999999 14.696274 14.696274 0 0 1 4.651661 2.578925c1.8592250000000001 1.4441979999999999 3.7184500000000003 3.02274 5.165047 4.884364a2.000766 2.000766 0 0 1 -0.302274 2.602915 18.78417 18.78417 0 0 1 -4.114285000000001 2.5117529999999997c-4.001532 1.789654 -5.001915 1.3890209999999998 -5.001915 1.3890209999999998 -0.415027 -0.035984999999999996 -0.806064 -0.34065799999999996 -1.1131360000000001 -0.6237400000000001 -0.618942 -0.566164 -1.211495 -0.976393 -1.842432 -1.5545520000000002Z" stroke-width="2.04"></path><path fill="#00034a" stroke="#00034a" stroke-linecap="round" stroke-miterlimit="10" d="M52.058299999999996 17.15285c-2.245464 0 -4.068704 1.820841 -4.068704 4.068704 0 2.526147 3.461757 6.007096 5.987904 6.007096 2.247863 0 4.068704 -1.82324 4.068704 -4.071103 0 -2.526147 -3.459358 -6.004697 -5.985505000000001 -6.004697Z" stroke-width="2.04"></path><path fill="#00034a" stroke="#00034a" stroke-miterlimit="10" d="M76.964718 3.9199659999999996c-1.7920530000000001 -1.0459640000000001 -4.394968 -2.022357 -5.325780000000001 -1.48738a10.001430999999998 10.001430999999998 0 0 0 -3.488146 3.79042 9.979840000000001 9.979840000000001 0 0 0 -1.626522 4.881965c0 2.06314 4.493327 5.414543 6.009494999999999 6.321364999999999 1.7920530000000001 1.069954 4.394968 2.046347 5.34977 1.51137a10.092592999999999 10.092592999999999 0 0 0 3.464156 -3.81441 10.00383 10.00383 0 0 0 1.650512 -4.905955c0 -2.046347 -4.526913 -5.416942 -6.033485000000001 -6.297375Z" stroke-width="2.04"></path><path fill="#00034a" stroke="#00034a" stroke-miterlimit="10" d="M27.504535 9.607994999999999c-3.6824649999999997 -0.448613 -8.322131 0.558967 -11.467220000000001 1.405814C10.949036 12.383638 2.389404 15.360797 2.367813 20.547435 1.6936939999999998 23.313482 5.783989 39.007740000000005 8.643597 49.70728c2.862007 10.697140999999998 7.232985 26.300237 9.303322 28.370574 1.041166 1.77526 3.95835 4.068704 5.889545 4.6060799999999995 3.874385 1.07955 9.531227 -0.09116199999999999 13.12253 -1.060358 4.999516 -1.3506369999999999 13.650310000000001 -4.349387 13.6743 -9.557616 0.510987 -2.768446 -3.536126 -18.441113 -6.465305 -29.138254000000003l-0.244698 -0.894827c-2.9171839999999998 -10.651560000000002 -6.971494000000001 -25.458188 -8.871502 -27.382186 -1.3434400000000002 -2.492561 -4.817192 -4.711636 -7.547254 -5.042698Z" stroke-width="2.04"></path><path fill="#e29269" stroke="#00034a" stroke-miterlimit="10" d="M32.664784 12.49879c-2.509354 -4.646863 -11.529594 -2.85481 -16.62507 -1.48738 -5.093077000000001 1.372228 -13.650310000000001 4.349387 -13.6743 9.536025 -0.6717200000000001 2.766047 3.418575 18.462704 6.278183 29.159844999999997 2.862007 10.697140999999998 7.232985 26.300237 9.303322 28.370574 2.626905 4.48613 11.625554000000001 2.742057 16.62507 1.393819 4.999516 -1.348238 13.650310000000001 -4.349387 13.6743 -9.557616 0.510987 -2.766047 -3.536126 -18.438714 -6.465305 -29.135855 -2.9291790000000004 -10.69954 -7.161015 -26.300237 -9.1162 -28.277013000000004Z" stroke-width="2.04"></path><path stroke="#00034a" stroke-linecap="round" stroke-miterlimit="10" d="M31.829932000000003 20.103620000000003a24.30187 24.30187 0 0 0 -4.210245 0.83965c-1.4010159999999998 0.345456 -2.770845 0.8108620000000001 -4.092694 1.393819" stroke-width="2.04"></path><path stroke="#00034a" stroke-linecap="round" stroke-miterlimit="10" d="M34.61757 30.522477000000002s-0.6957099999999999 0.13914200000000002 -2.067938 0.510987c-1.372228 0.371845 -2.070337 0.604548 -2.070337 0.604548" stroke-width="2.04"></path><path stroke="#00034a" stroke-linecap="round" stroke-miterlimit="10" d="M37.410005999999996 40.847773000000004a23.831666 23.831666 0 0 0 -4.210245 0.837251 25.16551 25.16551 0 0 0 -4.092694 1.393819" stroke-width="2.04"></path><path stroke="#00034a" stroke-linecap="round" stroke-miterlimit="10" d="M40.200043 51.218650000000004s-0.7197 0.115152 -2.094327 0.486997c-1.369829 0.374244 -2.067938 0.628538 -2.067938 0.628538" stroke-width="2.04"></path><path stroke="#00034a" stroke-linecap="round" stroke-miterlimit="10" d="M42.990080000000006 61.589527a24.2299 24.2299 0 0 0 -4.231836 0.83965c-1.393819 0.345456 -2.7540519999999997 0.813261 -4.068704 1.3914199999999999" stroke-width="2.04"></path><path fill="#00034a" stroke="#00034a" stroke-miterlimit="10" d="M40.840576000000006 66.07565699999999a0.331062 0.331062 0 0 0 0.057576 -0.09116199999999999l10.044613 -14.44198c5.1386579999999995 -7.393718 17.5127 -24.508184 20.720163000000003 -25.136722 4.0783 -2.269454 12.004596 1.897609 15.545520000000002 4.36618 4.140674 2.883598 7.815942 8.25256 7.444097 10.812292999999999 0.510987 3.231453 -11.162546999999998 20.835315 -16.279614 28.231432l-10.020622999999999 14.439581c-1.9311950000000002 2.7900370000000003 -9.046629 5.860757 -10.301305999999999 6.395734a42.164824 42.164824 0 0 1 -10.627569999999999 3.02274c-1.741674 0.100758 -4.572494 -1.108338 -6.004697 -2.101524a5.093077000000001 5.093077000000001 0 0 1 -1.9623819999999998 -2.6820820000000003 43.37392 43.37392 0 0 1 -0.885231 -10.999415c0.251895 -8.965063 1.9383920000000001 -11.344871 2.269454 -11.815075Z" stroke-width="2.04"></path><path fill="#ffffff" stroke="#00034a" stroke-miterlimit="10" d="M40.898151999999996 65.984495c0 0.117551 -2.046347 1.952786 -2.32703 11.906237a43.37392 43.37392 0 0 0 0.885231 10.999415 5.093077000000001 5.093077000000001 0 0 0 5.162648000000001 3.581707 42.143233 42.143233 0 0 0 10.627569999999999 -3.02274c1.254677 -0.534977 8.370111 -3.6056969999999997 10.301305999999999 -6.395734L75.5685 68.6114c5.1170670000000005 -7.393718 16.790601 -24.99758 16.277215 -28.229032999999998 0.374244 -2.557334 -3.301024 -7.928695 -7.439299 -10.812292999999999 -4.140674 -2.883598 -10.488427999999999 -4.418958 -12.743488000000001 -3.164281 -3.209862 0.628538 -15.581505 17.743004 -20.720163000000003 25.139121l-10.044613 14.44198Z" stroke-width="2.04"></path><path stroke="#00034a" stroke-linecap="round" stroke-miterlimit="10" d="M61.035358 78.332148a43.313945 43.313945 0 0 0 -6.698008 -5.371360999999999 42.997277 42.997277 0 0 0 -7.417708 -4.349387" stroke-width="2.04"></path><path stroke="#00034a" stroke-linecap="round" stroke-miterlimit="10" d="M83.847449 45.405873a42.942099999999996 42.942099999999996 0 0 0 -6.674018 -5.419341 42.970887999999995 42.970887999999995 0 0 0 -7.487279 -4.370978" stroke-width="2.04"></path><path fill="#e29269" stroke="#00034a" stroke-miterlimit="10" d="M80.89428 7.849527999999999c0 -1.069954 -2.139908 -2.883598 -3.9295619999999998 -3.9295619999999998 -1.7920530000000001 -1.0459640000000001 -4.394968 -2.022357 -5.325780000000001 -1.48738a10.001430999999998 10.001430999999998 0 0 0 -3.488146 3.79042 9.979840000000001 9.979840000000001 0 0 0 -1.626522 4.881965c0 1.093944 2.115918 2.883598 3.905572 3.9535519999999997 1.789654 1.069954 4.394968 2.046347 5.34977 1.51137a10.094992000000001 10.094992000000001 0 0 0 3.464156 -3.81441 9.989436 9.989436 0 0 0 1.650512 -4.905955Z" stroke-width="2.04"></path><path fill="#e29269" stroke="#00034a" stroke-linecap="round" stroke-miterlimit="10" d="M52.058299999999996 25.290258a4.068704 4.068704 0 1 0 0 -8.137408 4.068704 4.068704 0 0 0 0 8.137408Z" stroke-width="2.04"></path><path fill="#e29269" stroke="#00034a" stroke-miterlimit="10" d="M3.130695 89.209214s1.002782 0.400633 5.001915 -1.3890209999999998a18.78417 18.78417 0 0 0 4.116684 -2.5117529999999997 2.000766 2.000766 0 0 0 0.302274 -2.6053140000000004 18.836948 18.836948 0 0 0 -3.325014 -3.325014 14.696274 14.696274 0 0 0 -4.651661 -2.578925 1.9048060000000002 1.9048060000000002 0 0 0 -2.046347 1.1371259999999999 20.134807000000002 20.134807000000002 0 0 0 -1.093944 4.65406 19.904503000000002 19.904503000000002 0 0 0 0 4.9275459999999995c0.07196999999999999 0.410229 0.275885 0.786872 0.582957 1.069954 0.307072 0.280683 0.698109 0.585356 1.1131360000000001 0.621341Z" stroke-width="2.04"></path></svg>