<?xml version="1.0" encoding="UTF-8"?>
<svg id="Layer_1" data-name="Layer 1" xmlns="http://www.w3.org/2000/svg" viewBox="0 0 1719 1080">
  <defs>
    <style>
      .cls-1 {
        stroke: #d3cdcb;
        stroke-dasharray: 0 50;
        stroke-width: 9px;
      }

      .cls-1, .cls-2, .cls-3, .cls-4, .cls-5, .cls-6, .cls-7, .cls-8, .cls-9 {
        stroke-miterlimit: 10;
      }

      .cls-1, .cls-10, .cls-7, .cls-8, .cls-9 {
        fill: none;
      }

      .cls-11 {
        letter-spacing: -.03em;
      }

      .cls-2, .cls-12, .cls-3, .cls-4, .cls-5, .cls-6, .cls-13, .cls-14, .cls-10, .cls-7, .cls-8, .cls-9 {
        stroke-width: 2.04px;
      }

      .cls-2, .cls-12, .cls-3, .cls-4, .cls-5, .cls-6, .cls-13, .cls-14, .cls-10, .cls-8, .cls-9 {
        stroke: #00034a;
      }

      .cls-2, .cls-12, .cls-5, .cls-13, .cls-14, .cls-10, .cls-7, .cls-8 {
        stroke-linecap: round;
      }

      .cls-2, .cls-12, .cls-6 {
        fill: #e29269;
      }

      .cls-12, .cls-13, .cls-14, .cls-10 {
        stroke-linejoin: round;
      }

      .cls-3, .cls-13 {
        fill: #fff;
      }

      .cls-4, .cls-5, .cls-14, .cls-15, .cls-16 {
        fill: #00034a;
      }

      .cls-7 {
        stroke: #fff;
      }

      .cls-17 {
        letter-spacing: -.03em;
      }

      .cls-15 {
        fill-rule: evenodd;
      }

      .cls-15, .cls-18, .cls-16 {
        stroke-width: 0px;
      }

      .cls-19 {
        font-family: Inter-Black, Inter;
        font-size: 102px;
        font-weight: 800;
      }

      .cls-18 {
        fill: #f9e9e1;
      }
    </style>
  </defs>
  <rect class="cls-18" x="-2" width="1721" height="1082"/>
  <rect class="cls-1" x="67.5" y="72" width="1584" height="936" rx="27.08" ry="27.08"/>
  <text class="cls-19" transform="translate(124.37 216.7)"><tspan x="0" y="0">Nonp</tspan><tspan class="cls-11" x="269.49" y="0">r</tspan><tspan x="310.49" y="0">ofit</tspan><tspan x="0" y="138">P</tspan><tspan class="cls-11" x="66.94" y="138">r</tspan><tspan x="107.94" y="138">og</tspan><tspan class="cls-17" x="237.9" y="138">r</tspan><tspan x="279.48" y="138">am</tspan><tspan x="0" y="276">Design</tspan></text>
  <g>
    <path class="cls-4" d="m1284.03,942.58c-1.05-.97-1.75-2.25-1.99-3.66-.7-5.6-.7-11.27,0-16.87.61-5.44,1.87-10.78,3.74-15.92,1.17-2.75,4.05-4.35,7-3.89,5.8,1.95,11.19,4.94,15.92,8.83,6.36,4.94,12.73,10.34,17.68,16.72,1.92,2.81,1.48,6.61-1.03,8.91-4.3,3.46-9.04,6.35-14.08,8.6-13.69,6.12-17.12,4.75-17.12,4.75-1.42-.12-2.76-1.17-3.81-2.13-2.12-1.94-4.15-3.34-6.31-5.32Z"/>
    <path class="cls-5" d="m1455.28,698.08c-7.68,0-13.92,6.23-13.92,13.92,0,8.64,11.85,20.56,20.49,20.56,7.69,0,13.92-6.24,13.92-13.93,0-8.64-11.84-20.55-20.48-20.55h0Z"/>
    <path class="cls-4" d="m1540.51,652.83c-6.13-3.58-15.04-6.92-18.23-5.09-5.04,3.21-9.16,7.68-11.94,12.97-3.28,4.99-5.2,10.75-5.57,16.71,0,7.06,15.38,18.53,20.57,21.63,6.13,3.66,15.04,7,18.31,5.17,5.01-3.25,9.1-7.75,11.85-13.05,3.32-5,5.27-10.79,5.65-16.79,0-7-15.49-18.54-20.65-21.55Z"/>
    <path class="cls-4" d="m1371.25,672.29c-12.6-1.54-28.48,1.91-39.24,4.81-17.41,4.69-46.71,14.88-46.78,32.63-2.31,9.47,11.69,63.17,21.48,99.79,9.79,36.61,24.75,90,31.84,97.09,3.56,6.08,13.55,13.92,20.16,15.76,13.26,3.69,32.62-.31,44.91-3.63,17.11-4.62,46.71-14.88,46.8-32.71,1.75-9.47-12.1-63.11-22.13-99.72l-.84-3.06c-9.98-36.45-23.86-87.12-30.36-93.71-4.6-8.53-16.49-16.12-25.83-17.26Z"/>
    <path class="cls-6" d="m1388.9,682.19c-8.59-15.9-39.46-9.77-56.89-5.09-17.43,4.7-46.71,14.88-46.8,32.63-2.3,9.47,11.7,63.18,21.49,99.79,9.79,36.61,24.75,90,31.84,97.09,8.99,15.35,39.78,9.38,56.89,4.77,17.11-4.61,46.71-14.88,46.8-32.71,1.75-9.47-12.1-63.1-22.13-99.71-10.02-36.62-24.51-90-31.2-96.77h0Z"/>
    <path class="cls-8" d="m1386.05,708.21c-4.88.53-9.7,1.49-14.41,2.87-4.79,1.18-9.48,2.77-14.01,4.77"/>
    <path class="cls-8" d="m1395.59,743.87s-2.38.48-7.08,1.75c-4.7,1.27-7.09,2.07-7.09,2.07"/>
    <path class="cls-8" d="m1405.15,779.2c-4.88.52-9.7,1.48-14.41,2.87-4.8,1.19-9.48,2.78-14.01,4.77"/>
    <path class="cls-8" d="m1414.7,814.69s-2.46.39-7.17,1.67c-4.69,1.28-7.08,2.15-7.08,2.15"/>
    <path class="cls-8" d="m1424.24,850.18c-4.9.53-9.75,1.49-14.48,2.87-4.77,1.18-9.42,2.78-13.92,4.76"/>
    <path class="cls-4" d="m1416.89,865.53c.08-.09.15-.2.2-.31l34.37-49.42c17.59-25.3,59.93-83.87,70.91-86.02,13.96-7.77,41.08,6.49,53.2,14.94,14.17,9.87,26.75,28.24,25.47,37,1.75,11.06-38.2,71.3-55.71,96.61l-34.29,49.41c-6.61,9.55-30.96,20.06-35.25,21.89-11.62,5.03-23.84,8.51-36.37,10.34-5.96.34-15.65-3.79-20.55-7.19-3.2-2.22-5.57-5.45-6.72-9.18-2.61-12.37-3.63-25.02-3.03-37.64.86-30.68,6.63-38.82,7.77-40.43Z"/>
    <path class="cls-3" d="m1417.15,865.22c0,.4-7,6.68-7.96,40.75-.6,12.63.42,25.27,3.03,37.64,2.37,7.66,9.66,12.72,17.67,12.26,12.52-1.84,24.75-5.32,36.37-10.34,4.29-1.83,28.64-12.34,35.25-21.89l34.29-49.42c17.51-25.3,57.46-85.55,55.7-96.6,1.28-8.75-11.3-27.13-25.46-37-14.17-9.87-35.89-15.12-43.61-10.83-10.98,2.15-53.32,60.72-70.91,86.03l-34.37,49.42h0Z"/>
    <path class="cls-8" d="m1486,907.48c-7.01-6.87-14.69-13.03-22.92-18.38-7.94-5.8-16.45-10.78-25.38-14.88"/>
    <path class="cls-8" d="m1564.06,794.8c-6.97-6.93-14.63-13.14-22.84-18.55-8.01-5.84-16.6-10.85-25.62-14.96"/>
    <path class="cls-6" d="m1553.96,666.27c0-3.66-7.32-9.87-13.45-13.45-6.13-3.58-15.04-6.92-18.23-5.09-5.04,3.21-9.16,7.68-11.94,12.97-3.28,4.99-5.2,10.75-5.57,16.71,0,3.74,7.24,9.87,13.37,13.53,6.12,3.66,15.04,7,18.31,5.17,5.01-3.25,9.1-7.75,11.85-13.05,3.33-5,5.27-10.79,5.65-16.79Z"/>
    <path class="cls-2" d="m1455.28,725.92c7.69,0,13.93-6.23,13.93-13.92,0-7.69-6.23-13.93-13.92-13.93h-.01c-7.69,0-13.92,6.23-13.92,13.92s6.23,13.92,13.92,13.92h0Z"/>
    <path class="cls-6" d="m1287.84,944.7s3.43,1.37,17.12-4.75c5.05-2.25,9.78-5.14,14.09-8.6,2.52-2.3,2.96-6.1,1.03-8.92-3.3-4.25-7.13-8.08-11.38-11.38-4.73-3.89-10.12-6.88-15.92-8.83-2.95-.46-5.84,1.14-7,3.89-1.88,5.14-3.13,10.49-3.74,15.93-.7,5.6-.7,11.26,0,16.86.25,1.4.94,2.69,1.99,3.66,1.05.96,2.39,2,3.81,2.13Z"/>
  </g>
  <g>
    <path class="cls-14" d="m270.96,822.38c-9.57,0-17.33,7.75-17.33,17.32,0,11.23,13.25,21.91,24.14,21.91,9.56,0,17.32-7.75,17.32-17.32,0-11.22-13.25-21.91-24.13-21.91Z"/>
    <path class="cls-14" d="m521.25,669.14c12.24,0,25.07,13.14,25.07,25.75,0,10.88-8.82,19.71-19.71,19.71-12.25,0-25.08-13.13-25.08-25.75,0-10.88,8.82-19.71,19.71-19.71h0Z"/>
    <path class="cls-14" d="m447.58,650.61c0,8.6,10.82,16.29,19.12,16.29,7.16,0,12.97-5.81,12.97-12.98,0-8.6-10.81-16.28-19.11-16.28-7.16,0-12.97,5.81-12.97,12.97h0Z"/>
    <path class="cls-14" d="m385.59,616.41c-2.73.33-5.26,1.62-7.14,3.64-1.42,1.3-2.78,2.67-4.05,4.11-25.72-13.41-54.49-13.57-80.93-1.57-14.54,6.57-39.66,22.65-40.24,37.52,0,13.33,48.1,32.55,55.35,23.86,3.99-5.95,9.3-10.89,15.52-14.44,5.85-2.61,12.31-3.49,18.64-2.56.99.54,1.94,1.13,2.87,1.77-1.35,2.63-2.45,5.38-3.29,8.21-1.98,5.33.13,11.31,5.02,14.21,8.68,8.55,34.77,8.52,44.18,8.18,10.3-.07,20.55-1.53,30.46-4.34,6.35-2.46,10.3-8.83,9.68-15.61-1.68-10.16-4.72-20.04-9.03-29.39-1.23-3.53-10.1-23-17.9-27.93-3.93-2.57-14.27-6.23-19.14-5.65h0Z"/>
    <path class="cls-14" d="m455.62,749.23c32.19,3.77,70.54,12.56,77.2,19.13,8.64,4.61,18.95,13.27,21.7,22.89,3.51,12.31,1.79,30.39,0,45.36-2.63,21.92-7.55,58.31-22.82,62.24-4.44,2.79-19.38,3.45-37.29,3.45l.57,22.42c6,2.47,8.87,5.02,8.22,10.68-.66,5.66-4.03,8.21-10.19,8.21-3.12.17-88.85-10.26-90.98-10.84-5.94-1.83-21.85-14-21.12-20.54.66-5.91,4.02-7.38,10.51-8.21l3.87-14.65c-7.17-2.14-14.08-5.07-20.6-8.74-7.69-3.99-17.93-12.72-20.54-21.16-4.48-14.41-1.95-38.61,0-54.9,2.62-22.01,6.64-50.9,21.92-54.85,7.96-4.77,47.38-4.28,79.57-.49h0Z"/>
    <path class="cls-12" d="m532.82,768.18c-6.65-6.57-45-15.36-77.19-19.13-32.19-3.78-71.61-4.28-79.57.49-15.27,3.93-19.3,32.84-21.92,54.85-2.63,22.01-6.33,58.47,7.63,65.7,10.95,6.16,22.96,10.22,35.4,11.98l-5.75,21.76c-6.49.83-9.85,2.3-10.51,8.21-.66,5.92,1.81,8.22,8.21,10.19,2.13.57,87.86,11,90.98,10.84,6.16,0,9.52-2.56,10.18-8.22.66-5.66-2.21-8.21-8.21-10.67l-.57-22.42c17.89,0,32.84-.66,37.28-3.45,15.27-3.94,20.2-40.32,22.82-62.24,2.63-21.93,5.09-50.5-8.78-57.9h0Z"/>
    <path class="cls-13" d="m501.53,866.06c11.41-2.71,14.29-23.16,16.42-38.51,2.14-15.36,3.87-35.97-6.64-41.05-4.93-4.68-33.75-11.09-57.49-13.88-23.73-2.79-53.7-3.45-59.62,0-11.41,2.71-14.28,23.08-16.42,38.51-2.13,15.44-3.86,35.88,6.65,41.05,5.01,4.6,33.75,11.01,57.97,13.88,24.23,2.87,52.97,3.29,59.12,0Z"/>
    <path class="cls-10" d="m411.21,903.83c8.66-.74,17.37-.38,25.94,1.07,8.69.6,17.26,2.29,25.54,5.01"/>
    <path class="cls-12" d="m460.56,663.65c7.17,0,12.98-5.81,12.98-12.98s-5.81-12.98-12.98-12.98-12.98,5.81-12.98,12.98,5.81,12.98,12.98,12.98Z"/>
    <path class="cls-12" d="m270.96,857.03c9.57,0,17.33-7.76,17.33-17.33s-7.76-17.33-17.33-17.33h0c-9.57,0-17.33,7.76-17.33,17.33s7.76,17.33,17.33,17.33Z"/>
    <path class="cls-12" d="m521.25,708.64c10.88,0,19.71-8.82,19.71-19.71s-8.82-19.71-19.71-19.71-19.71,8.82-19.71,19.71,8.82,19.71,19.71,19.71Z"/>
    <path class="cls-14" d="m255.18,752.25c-4.25-9.38-7.28-19.26-9.03-29.4-.4-6.65,3.51-12.8,9.69-15.27,9.95-2.75,20.22-4.24,30.54-4.43,27.42-1,32.85,4.43,32.85,4.43,5.47,3.34,15.17,11.26,17.46,17.69.9,2.5.91,5.25.03,7.77-.23.78-.49,1.56-.76,2.33,6.05.74,12.19-.18,17.75-2.67,6.31-3.53,11.7-8.48,15.76-14.45,3.29-4.03,15.37.62,23.28,3.66l2.26.85c7.33,2.76,31.04,18.12,31.04,27.19-.66,14.78-25.7,30.96-40.23,37.52-31.78,14.37-58.8,11.74-79.41-3.77-1.77,2.23-3.72,4.31-5.83,6.23-3.87,4.17-10.19,4.93-14.95,1.81-13.63-8.46-24.92-24.93-30.47-39.49Z"/>
    <path class="cls-13" d="m393.09,618.24c-4.76-3.12-11.07-2.36-14.95,1.81-2.13,1.95-4.11,4.06-5.91,6.32-20.36-15.52-47.38-18.14-79.08-3.76-14.54,6.57-39.66,22.65-40.24,37.52,0,5.66,10.84,12.65,18.48,15.52,7.63,2.88,21.84,8.95,25.53,4.51,3.99-5.95,9.31-10.89,15.53-14.44,10.73-4.79,23.17-3.64,32.84,3.03-1.35,2.63-2.45,5.38-3.29,8.21-1.98,5.33.13,11.31,5.02,14.21,0,0,5.42,5.34,32.84,4.35,10.3-.07,20.55-1.53,30.46-4.34,6.35-2.46,10.3-8.82,9.69-15.6-1.68-10.16-4.72-20.05-9.03-29.4-1.23-3.53-10.1-23-17.9-27.92h0Z"/>
    <path class="cls-13" d="m272.96,780.08c4.76,3.12,11.07,2.36,14.95-1.81,2.1-1.92,4.05-4,5.83-6.23,20.61,15.52,47.63,18.14,79.4,3.77,14.54-6.57,39.58-22.74,40.23-37.52,0-5.75-10.83-12.65-18.47-15.53-7.64-2.87-21.92-8.94-25.53-4.51-4.06,5.98-9.46,10.93-15.77,14.45-10.74,4.8-23.2,3.61-32.84-3.12,1.35-2.63,2.44-5.38,3.28-8.21,1.81-5.18-.24-10.93-4.92-13.8,0,0-5.42-5.42-32.85-4.43-10.33.19-20.59,1.68-30.54,4.43-6.18,2.47-10.09,8.62-9.69,15.26,1.75,10.14,4.78,20.02,9.03,29.4,1.32,3.45,10.1,23,17.9,27.83h0Z"/>
  </g>
  <g>
    <path class="cls-14" d="m957.72,495.47c2.14-.05,4.16-1.04,5.51-2.7,3.45-6.24,6.1-12.88,7.89-19.79.45-1.34,1.81-2.14,3.2-1.89,2,.37,5.67,2.33,7.37,3.62,8.62,7.23,11.42,19.29,6.86,29.57-2.32,10.35-10.79,18.2-21.29,19.71l-.86,2.61c-3.41,10.87-7.76,21.43-13.02,31.54-2.87,4.49-8.69,6.03-13.4,3.55-6.17-2.06-15.87-6.24-14.74-13.95,1.87-11.36,4.77-22.53,8.68-33.35.1-.26.21-.53.33-.78.3-.56.49-1.19.54-1.83-7.15-7.36-9.25-18.26-5.36-27.75,2.54-10.94,11.97-18.9,23.18-19.55.42-.03.84.03,1.23.19,2.1.85,5.61,2.06,7.15,3.78.57.63.82,1.49.67,2.34-2.61,6.69-4.39,13.68-5.28,20.81.07,1.4.54,2.75,1.35,3.89h0Z"/>
    <path class="cls-14" d="m984.16,565.55c0-6.62,5.37-11.99,11.98-11.99,7.65,0,18.14,6.99,18.14,15.06,0,6.62-5.37,11.98-11.99,11.98-7.65,0-18.13-6.99-18.13-15.06Z"/>
    <path class="cls-14" d="m811.08,732.16c0-10.95-12.62-20.03-23.1-20.03-9.36,0-16.95,7.59-16.95,16.96,0,10.95,12.62,20.02,23.1,20.02,9.36,0,16.94-7.59,16.95-16.95Z"/>
    <path class="cls-14" d="m805.09,483.31c-53.39,0-96.67,43.28-96.67,96.66,0,56.1,55.72,108.77,111.49,108.77s96.66-43.28,96.66-96.66c0-56.1-55.71-108.77-111.48-108.77Z"/>
    <path class="cls-12" d="m805.09,676.65c53.39,0,96.67-43.28,96.67-96.67s-43.29-96.66-96.67-96.66-96.67,43.28-96.67,96.66,43.28,96.67,96.67,96.67Z"/>
    <path class="cls-13" d="m805.09,621.46c22.91.32,41.74-17.98,42.06-40.89.32-22.91-17.98-41.74-40.89-42.06-.39,0-.78,0-1.17,0-22.91.32-41.21,19.15-40.89,42.06.32,22.45,18.44,40.57,40.89,40.89Z"/>
    <path class="cls-13" d="m835.13,627.76c3.4-5.76,0-32.17-2.91-51.96-2.92-19.79-7.89-45.97-12.78-50.38-2.84-4.81-14.74-8.28-23.65-6.86-8.91,1.41-19.79,8.28-21.05,13.72-3.4,5.76,0,32.1,2.84,51.89,2.84,19.79,7.88,45.97,12.85,50.46,2.84,4.81,14.66,8.28,23.65,6.87,8.99-1.42,19.71-8.28,21.05-13.72Z"/>
    <path class="cls-14" d="m942.21,598.75c26.57,3.07,59.06,14.27,66.55,25.94,13.53,21.05,13.14,56.7,10.47,79.89-3.07,26.73-14.58,56.7-21.21,63.08-10.33,9.94-44.39,13.02-70.97,9.94-26.57-3.08-59.06-14.19-66.55-25.94-13.58-20.93-13.12-56.72-10.47-79.81,3.07-26.81,14.59-56.69,21.21-63.07,10.25-10.02,44.39-13.09,70.97-10.02Z"/>
    <path class="cls-13" d="m1008.77,624.69c-7.49-11.67-39.98-22.86-66.55-25.94-26.58-3.08-60.72,0-70.97,10.01-6.62,6.39-18.14,36.27-21.22,63.08-3.07,26.81,1.27,58.27,6.23,65.92,7.49,11.76,39.98,22.87,66.55,25.94,26.57,3.08,60.64,0,70.97-9.93,6.62-6.39,18.13-36.35,21.22-63.08,3.07-26.73-1.27-58.27-6.23-66Z"/>
    <path class="cls-12" d="m939.85,619.33c-9.3-1.1-23.66-2.44-23.26,37.53.39,39.98,9.39,41.24,14.04,41.79,4.65.56,13.95,1.66,23.26-37.45,9.3-39.11-4.73-40.76-14.04-41.87Z"/>
    <path class="cls-12" d="m927.08,743.2c7.8,0,14.12-6.32,14.12-14.12s-6.32-14.12-14.12-14.12-14.12,6.32-14.12,14.12,6.32,14.12,14.12,14.12Z"/>
    <path class="cls-12" d="m982.19,501.35c4.56-10.28,1.76-22.34-6.86-29.56-1.25-.95-3.04-.71-3.99.54-.18.24-.33.51-.43.8-1.78,6.9-4.44,13.55-7.89,19.79-2.56,3.14-7.18,3.61-10.32,1.05-1.6-1.31-2.58-3.23-2.69-5.3.89-7.14,2.66-14.13,5.29-20.82.27-1.5-.73-2.93-2.23-3.2-.23-.04-.46-.05-.69-.04-11.21.65-20.65,8.61-23.19,19.55-3.89,9.5-1.78,20.39,5.37,27.75,0,.87-.55,1.74-.87,2.61-3.9,10.83-6.8,21.99-8.68,33.35-.95,6.46,4.34,9.46,8.6,10.88,4.71,2.47,10.54.93,13.4-3.55,5.25-10.11,9.61-20.66,13.01-31.54l.86-2.61c10.5-1.51,18.98-9.35,21.3-19.71h0Z"/>
    <path class="cls-12" d="m787.98,746.04c9.36.21,17.12-7.22,17.33-16.58.21-9.36-7.22-17.12-16.58-17.33-.25,0-.5,0-.75,0-9.36.21-16.78,7.96-16.58,17.33.2,9.07,7.51,16.38,16.58,16.58Z"/>
    <path class="cls-12" d="m996.14,577.53c6.62,0,11.99-5.37,11.99-11.99s-5.37-11.99-11.99-11.99-11.99,5.37-11.99,11.99,5.37,11.99,11.99,11.99Z"/>
  </g>
  <g>
    <path class="cls-16" d="m1250.9,143.15c-5.45-1.19-11.8,6.66-14.18,17.52-1.77,8.1,1.29,25.91,11.56,28.14,5.45,1.2,11.81-6.64,14.19-17.5,1.98-9.08-.84-25.82-11.56-28.16Z"/>
    <path class="cls-16" d="m1164.88,179.58c-4.78-10.04-4.57-20.13.47-22.53,8.45-4.02,20.73,13.78,23.76,20.16,4.78,10.04,4.57,20.13-.47,22.53-8.45,4.02-20.73-13.78-23.76-20.16Z"/>
    <path class="cls-16" d="m1134.01,230.23c-10.64-3.25-20.58-1.56-22.21,3.78-2.74,8.97,15.9,19.92,22.28,21.87,10.64,3.25,20.58,1.57,22.22-3.78,2.74-8.97-15.9-19.92-22.29-21.87Z"/>
    <path class="cls-16" d="m1327.16,183.02c-3.8-4.09-13.48-1.28-21.63,6.3-8.15,7.56-11.68,17.03-7.88,21.11,2.4,2.59,3.58,3.74,5.98,6.32,3.8,4.09,13.49,1.28,21.63-6.3,8.16-7.56,11.69-17.03,7.88-21.11-2.4-2.59-3.58-3.74-5.98-6.32Z"/>
    <path class="cls-16" d="m1322.61,255.61c-.44-5.57,8.18-10.8,19.28-11.68,8.13-.64,26.03,4.36,26.85,14.8.44,5.57-8.18,10.8-19.27,11.68-8.13.64-26.03-4.36-26.86-14.8Z"/>
    <path class="cls-9" d="m1250.9,143.15c-5.45-1.19-11.8,6.66-14.18,17.52-1.77,8.1,1.29,25.91,11.56,28.14,5.45,1.2,11.81-6.64,14.19-17.5,1.98-9.08-.84-25.82-11.56-28.16Z"/>
    <path class="cls-9" d="m1164.88,179.58c-4.78-10.04-4.57-20.13.47-22.53,8.45-4.02,20.73,13.78,23.76,20.16,4.78,10.04,4.57,20.13-.47,22.53-8.45,4.02-20.73-13.78-23.76-20.16Z"/>
    <path class="cls-9" d="m1134.01,230.23c-10.64-3.25-20.58-1.56-22.21,3.78-2.74,8.97,15.9,19.92,22.28,21.87,10.64,3.25,20.58,1.57,22.22-3.78,2.74-8.97-15.9-19.92-22.29-21.87Z"/>
    <path class="cls-9" d="m1327.16,183.02c-3.8-4.09-13.48-1.28-21.63,6.3-8.15,7.56-11.68,17.03-7.88,21.11,2.4,2.59,3.58,3.74,5.98,6.32,3.8,4.09,13.49,1.28,21.63-6.3,8.16-7.56,11.69-17.03,7.88-21.11-2.4-2.59-3.58-3.74-5.98-6.32Z"/>
    <path class="cls-9" d="m1322.61,255.61c-.44-5.57,8.18-10.8,19.28-11.68,8.13-.64,26.03,4.36,26.85,14.8.44,5.57-8.18,10.8-19.27,11.68-8.13.64-26.03-4.36-26.86-14.8Z"/>
    <path class="cls-15" d="m1396.27,476.85c-10.48.53-21.81-.03-24.57-6.55-.3-.4-.56-.82-.77-1.27-.19.69-.46,1.35-.81,1.97-2.02,7.65-15.83,9.41-27.17,10.11-4.48.34-8.98.39-13.47.18-10.59.49-22.17.02-24.96-6.6-.27-.35-.51-.73-.71-1.13-.18.67-.45,1.31-.78,1.92-2.11,7.65-15.74,9.23-27.17,10.03-4.56.37-9.15.44-13.72.21-10.59.53-22.03-.06-24.8-6.54-5.63-7.12-9.5-56.55-11.52-85.39-2.02-28.85-4.66-78.36,0-86.19,2.11-7.65,15.57-9.23,27.17-10.03,4.53-.36,9.08-.43,13.62-.2,10.76-.53,22.28.1,24.9,6.53.27.36.51.74.71,1.14.18-.65.45-1.27.78-1.85,2.02-7.65,15.83-9.41,27.17-10.11,4.48-.34,8.98-.39,13.47-.18,10.59-.49,22.17-.02,24.96,6.6.3.38.55.79.77,1.23.19-.7.47-1.38.82-2.02,2.11-7.65,15.74-9.23,27.17-10.03,4.54-.32,9.45-.53,13.9-.22,10.54-.53,21.86.03,24.62,6.55,5.63,7.12,9.41,56.55,11.43,85.39,2.02,28.85,4.66,78.36,0,86.19-2.11,7.65-15.83,9.23-27.17,10.03-4.5.32-9.4.53-13.86.22Z"/>
    <path class="cls-16" d="m1396.45,476.85l.31-4.39-.26-.02-.26.02.22,4.4h0Zm-24.75-6.55l4.05-1.71-.23-.55-.37-.47-3.45,2.73Zm-.77-1.27l3.93-1.97-5-10.01-3.16,10.73s4.22,1.25,4.22,1.25Zm-.81,1.97l-3.76-2.27-.33.54-.16.62,4.25,1.12Zm-27.17,10.11l-.27-4.4.27,4.4Zm-13.47.29l.28-4.38-.24-.02h-.25l.2,4.4Zm-24.96-6.71l4.05-1.71-.23-.57-.39-.47s-3.43,2.75-3.43,2.75Zm-.71-1.13l3.9-2.04-5.03-9.59-3.08,10.38s4.21,1.25,4.21,1.25Zm-.78,1.92l-3.78-2.25-.3.51-.16.57s4.24,1.17,4.24,1.17Zm-27.17,10.03l.3,4.39-.3-4.39Zm-13.85.21l.3-4.39-.26-.02-.26.02.22,4.4h0Zm-24.67-6.54l4.05-1.72-.23-.55-.37-.46-3.45,2.73Zm-11.52-85.39l4.39-.31-4.39.31Zm0-86.19l3.78,2.25.3-.51.16-.57-4.24-1.17Zm27.17-10.03l-.3-4.39.3,4.39Zm13.62-.2l-.29,4.39.26.02.25-.02s-.21-4.39-.21-4.39Zm24.9,6.53l-4.07,1.66.24.57.39.49s3.45-2.73,3.45-2.73Zm.71,1.14l-3.9,2.01,4.92,9.57,3.18-10.29s-4.2-1.29-4.2-1.29Zm.78-1.85l3.75,2.3.34-.55.16-.62s-4.25-1.13-4.25-1.13Zm27.17-10.11l.26,4.39-.26-4.39Zm13.64-.18l-.28,4.38.24.02h.25s-.2-4.41-.2-4.41h0Zm24.8,6.6l-4.05,1.71.23.56.39.48s3.43-2.75,3.43-2.75Zm.75,1.23l-3.91,2,5.04,9.88,3.1-10.66-4.22-1.23h0Zm.84-2.02l3.78,2.25.3-.51.16-.57s-4.24-1.17-4.24-1.17Zm27.17-10.03l-.31-4.39.31,4.39Zm13.92-.22l-.3,4.38.26.02h.26s-.23-4.41-.23-4.41h0Zm24.6,6.55l-4.05,1.71.23.55.37.47,3.45-2.73Zm11.43,171.58l-3.78-2.25-.3.51-.16.57s4.24,1.17,4.24,1.17Zm-27.17,10.03l.31,4.39-.31-4.39Zm-14.07-3.96c-5.18.26-10.18.22-14.12-.55-4.13-.82-5.72-2.16-6.19-3.32l-8.11,3.41c2.27,5.38,7.75,7.57,12.59,8.53,5.04.99,10.94.97,16.25.7l-.44-8.78h0Zm-20.91-5.1c-.11-.16-.21-.33-.29-.51l-7.87,3.93c.34.69.76,1.39,1.27,2.03,0,0,6.89-5.45,6.89-5.45Zm-8.44.21c-.08.33-.2.65-.35.95l7.53,4.54c.55-.94.97-1.95,1.26-3,0,0-8.43-2.49-8.43-2.49Zm-.84,2.09c-.36,1.36-2.11,3.12-7.07,4.56-4.62,1.34-10.49,1.93-16.13,2.29l.55,8.78c5.71-.35,12.41-.98,18.03-2.62,5.29-1.53,11.46-4.47,13.12-10.76l-8.5-2.25Zm-23.2,6.85c-4.34.26-8.86.44-12.92.18l-.57,8.78c4.65.31,9.62.1,14.04-.18,0,0-.55-8.78-.55-8.78Zm-13.4.18c-5.24.24-10.34.22-14.37-.56-4.24-.82-5.84-2.18-6.33-3.35l-8.11,3.41c2.3,5.44,7.87,7.62,12.77,8.57,5.11.98,11.1.96,16.45.7,0,0-.4-8.78-.4-8.78Zm-21.33-4.96c-.09-.13-.18-.27-.25-.41l-7.79,4.09c.33.62.7,1.25,1.18,1.83,0,0,6.86-5.51,6.86-5.51Zm-8.35.38c-.08.32-.2.62-.35.91l7.56,4.5c.54-.91.92-1.93,1.21-2.91,0,0-8.43-2.51-8.43-2.51Zm-.81,2c-.39,1.39-2.13,3.12-7.05,4.53-4.62,1.31-10.47,1.88-16.18,2.29l.61,8.77c5.71-.4,12.39-1.01,17.98-2.6,5.28-1.5,11.41-4.38,13.13-10.64,0,0-8.48-2.34-8.48-2.34Zm-23.23,7.03c-4.42.31-9.01.49-13.12.21l-.6,8.78c4.77.25,9.55.18,14.32-.21l-.61-8.78h0Zm-13.63,0c-5.22.26-10.29.21-14.27-.57-4.2-.83-5.79-2.18-6.27-3.31l-8.09,3.45c2.29,5.36,7.8,7.54,12.66,8.49,5.07,1,11.03.99,16.4.72l-.44-8.78h0Zm-21.14-4.89c-.17-.21-.65-1.09-1.28-3.1-.71-2.4-1.29-4.84-1.75-7.3-1.33-7.26-2.38-14.57-3.17-21.92-1.91-16.75-3.38-36.23-4.4-50.66l-8.77.62c1.01,14.42,2.49,34.08,4.43,51.03.97,8.47,2.05,16.35,3.27,22.6.62,3.12,1.27,5.92,1.98,8.22.67,2.16,1.54,4.38,2.78,5.95,0,0,6.89-5.45,6.89-5.45Zm-10.58-82.98c-1.01-14.4-2.17-33.9-2.5-50.74-.17-8.44-.12-16.14.25-22.16.18-3.01.44-5.52.77-7.46.35-2.09.73-3.03.87-3.26l-7.56-4.5c-1.02,1.72-1.58,4.05-1.97,6.28-.41,2.37-.69,5.24-.89,8.42-.38,7.61-.47,15.24-.26,22.86.33,17.06,1.5,36.74,2.52,51.19l8.78-.62Zm-.15-84.71c.39-1.41,2.11-3.13,6.99-4.53,4.59-1.31,10.43-1.88,16.24-2.29l-.6-8.77c-5.8.4-12.49,1.01-18.05,2.6-5.28,1.5-11.34,4.4-13.06,10.64l8.48,2.34Zm23.23-6.81c4.4-.3,8.96-.47,13.03-.2l.58-8.78c-4.74-.24-9.48-.18-14.21.2,0,0,.6,8.78.6,8.78Zm13.54-.19c5.29-.26,10.42-.21,14.43.58,4.26.84,5.75,2.19,6.17,3.22l8.14-3.32c-2.2-5.4-7.77-7.57-12.62-8.53-5.1-1-11.11-.99-16.56-.73l.42,8.78h0Zm21.23,4.86c.1.14.18.28.26.43l7.82-4.03c-.33-.65-.73-1.27-1.18-1.85,0,0-6.89,5.44-6.89,5.44Zm8.35-.24c.09-.31.19-.58.31-.83l-.02-.04v-.09h.05l-7.49-4.53c-.53.9-.94,1.85-1.23,2.85l8.4,2.64h0Zm.84-2.06c.36-1.36,2.11-3.12,7.07-4.56,4.62-1.34,10.49-1.93,16.13-2.29l-.55-8.78c-5.71.35-12.41.98-18.03,2.61-5.29,1.53-11.46,4.48-13.12,10.76,0,0,8.5,2.25,8.5,2.25Zm23.2-6.85c4.34-.26,8.86-.44,12.92-.18l.57-8.78c-4.68-.23-9.37-.17-14.04.18,0,0,.55,8.78.55,8.78Zm13.4-.18c5.24-.25,10.34-.22,14.37.56,4.24.82,5.84,2.18,6.33,3.35l8.11-3.41c-2.3-5.44-7.87-7.62-12.77-8.57-5.11-.98-11.1-.97-16.45-.7,0,0,.4,8.78.4,8.78Zm21.33,4.96c.11.15.2.31.28.47l7.83-3.99c-.35-.7-.77-1.37-1.25-1.99,0,0-6.86,5.51-6.86,5.51Zm8.51-.3c.09-.34.22-.68.38-.99l-7.56-4.5c-.55.96-.97,1.98-1.26,3.04l8.44,2.46h0Zm.74-2.08c.39-1.39,2.13-3.12,7.05-4.53,4.62-1.31,10.47-1.88,16.18-2.29l-.61-8.77c-5.71.4-12.39,1.01-17.98,2.6-5.28,1.5-11.41,4.38-13.13,10.64,0,0,8.48,2.34,8.48,2.34Zm23.24-6.81c4.42-.37,8.86-.44,13.3-.23l.61-8.77c-4.84-.25-9.68-.18-14.51.22,0,0,.61,8.78.61,8.78Zm42.27.24c-2.27-5.38-7.74-7.56-12.58-8.53-5.05-.99-10.96-.97-16.3-.7l.44,8.78c5.19-.26,10.2-.22,14.15.55,4.13.82,5.7,2.17,6.18,3.32l8.11-3.41Zm11.77,86.79c-1.01-14.42-2.46-34.07-4.38-51.03-.8-7.57-1.89-15.11-3.25-22.6-.51-2.77-1.16-5.52-1.96-8.22-.67-2.16-1.54-4.4-2.78-5.96l-6.89,5.45c.16.21.65,1.08,1.28,3.1.58,1.87,1.16,4.34,1.73,7.3,1.14,5.92,2.2,13.53,3.14,21.92,1.89,16.74,3.34,36.23,4.34,50.66l8.78-.62Zm-.62,88.74c1.03-1.71,1.6-4.04,1.98-6.27.41-2.37.69-5.24.89-8.42.39-6.37.43-14.33.26-22.86-.33-17.06-1.5-36.74-2.52-51.19l-8.78.62c1.01,14.4,2.17,33.9,2.5,50.75.17,8.44.12,16.13-.25,22.14-.18,3.02-.44,5.53-.77,7.48-.35,2.08-.73,3.02-.87,3.25l7.56,4.5h0Zm-30.64,12.17c5.66-.4,12.35-1.01,17.94-2.59,5.28-1.5,11.43-4.38,13.17-10.65l-8.48-2.34c-.38,1.38-2.14,3.12-7.09,4.52-4.63,1.32-10.47,1.89-16.16,2.29,0,0,.62,8.78.62,8.78Zm-14.47.32c4.77.33,9.91.09,14.47-.22l-.62-8.78c-4.46.32-9.1.51-13.24.22l-.62,8.78h0Z"/>
    <path class="cls-6" d="m1292.81,475.49c4.66-7.83,2.02-57.34,0-86.19-2.02-28.85-5.89-78.27-11.52-85.39-2.9-7.12-16.71-7.12-28.32-6.33-11.61.79-25.06,2.37-27.17,10.03-4.66,7.83-2.02,57.34,0,86.19,2.02,28.85,5.89,78.27,11.52,85.39,3.08,7.21,16.89,7.12,28.32,6.33,11.43-.79,25.06-2.37,27.17-10.03Z"/>
    <path class="cls-3" d="m1244.18,444.71c6.11,1.19,12.38,1.37,18.56.53,6.19.01,12.34-1,18.2-2.99,1.58-.88,1.5-5.01,1.23-8.79-.26-3.78-.7-7.48-2.29-8.18-5.99-1.03-12.11-1.09-18.12-.18-6.19-.01-12.34,1-18.2,2.99-1.58.88-1.5,5.01-1.23,8.79.26,3.78.53,7.12,1.85,7.83Z"/>
    <path class="cls-8" d="m1276.1,337.51c-13.48-.46-26.98.45-40.28,2.73"/>
    <path class="cls-8" d="m1276.98,350.96c-13.48-.44-26.97.44-40.28,2.64"/>
    <path class="cls-7" d="m1254.55,309.54c16.27,0,14.95-.53,16.53,3.96"/>
    <path class="cls-6" d="m1359.91,471c4.66-7.74,2.11-57.25,0-86.1-2.11-28.85-5.8-78.27-11.52-85.39-3.08-7.3-16.89-7.12-28.23-6.42-11.34.7-25.15,2.46-27.17,10.11-4.75,7.74-2.11,57.25,0,86.1s5.8,78.27,11.52,85.39c3.08,7.3,16.89,7.12,28.23,6.42,11.34-.7,25.15-2.46,27.17-10.11Z"/>
    <path class="cls-3" d="m1311.63,440.31c6.09,1.15,12.32,1.33,18.47.53,6.24-.1,12.42-1.23,18.29-3.34,1.5-.88,1.41-5.01,1.14-8.79-.26-3.78-.62-7.56-2.29-8.18-6.08-1.24-12.33-1.42-18.47-.53-6.22-.08-12.4.91-18.29,2.9-1.5.88-1.41,5.01-1.23,8.79.18,3.78.7,7.91,2.37,8.62Z"/>
    <path class="cls-8" d="m1343.2,333.11c-13.48-.49-26.98.4-40.28,2.64"/>
    <path class="cls-8" d="m1344.08,346.48c-13.48-.46-26.98.46-40.28,2.73"/>
    <path class="cls-6" d="m1427.1,466.61c4.66-7.83,2.02-57.34,0-86.19s-5.8-78.27-11.43-85.39c-3.08-7.3-16.89-7.12-28.32-6.33-11.43.79-25.06,2.37-27.17,10.03-4.66,7.83-2.11,57.34,0,86.19,2.11,28.85,5.89,78.27,11.52,85.39,3.08,7.3,16.89,7.12,28.23,6.33,11.34-.79,25.06-2.37,27.17-10.03Z"/>
    <path class="cls-3" d="m1378.73,435.83c6.08,1.19,12.33,1.37,18.47.53,6.22.02,12.4-.99,18.29-2.99,1.58-.88,1.41-5.01,1.23-8.79s-.7-7.48-2.37-8.18c-6.09-1.15-12.32-1.33-18.47-.53-6.22-.01-12.4,1-18.29,2.99-1.5.88-1.41,5.01-1.14,8.79.26,3.78.62,7.48,2.29,8.18Z"/>
    <path class="cls-8" d="m1410.3,328.62c-13.48-.45-26.98.46-40.28,2.73"/>
    <path class="cls-8" d="m1411.27,342.08c-13.48-.44-26.97.44-40.28,2.64"/>
    <path class="cls-4" d="m1255.87,213.86c-42.3-13.02-71.15,5.1-82.58,42.13-7.39,23.83,1.41,48.63,11.08,68.07,2.73,5.12,3.92,10.93,3.43,16.71-3.66.58-6.68,3.16-7.83,6.68-1.17,3.9.29,8.11,3.61,10.47-3.9,19.58,5.66,37.17,24.95,43.13,14.25,4.4,25.68,0,34.3-20.49,5.29-.15,9.46-4.55,9.32-9.85-.07-2.58-1.18-5.02-3.08-6.78,2.81-5.07,7.03-9.22,12.14-11.96,18.73-10.64,40.01-26.21,47.31-50.04,12.84-41.61-13.65-76.07-52.65-88.07Z"/>
    <path class="cls-3" d="m1300.28,295.12c11.43-37.02-2.11-68.24-44.41-81.26-42.3-13.02-71.15,5.1-82.58,42.13-7.39,23.83,1.41,48.63,11.08,68.07,2.73,5.12,3.92,10.93,3.43,16.71-3.66.58-6.68,3.16-7.83,6.68-1.17,3.9.29,8.11,3.61,10.47-4.31,21.63,2.46,31.92,16.71,36.32,14.25,4.4,25.68,0,34.3-20.49,5.29-.15,9.46-4.55,9.32-9.85-.07-2.58-1.18-5.02-3.08-6.78,2.81-5.07,7.03-9.22,12.14-11.96,18.73-10.64,40.01-26.21,47.31-50.04Z"/>
    <path class="cls-8" d="m1204.51,345.95c6.66,1.24,13.15,3.25,19.35,5.98"/>
    <path class="cls-8" d="m1200.2,360.9c6.68,1.14,13.19,3.17,19.35,5.98"/>
    <path class="cls-6" d="m1215.86,280.96s-1.67,3.25,1.41,15.74c1.02,4.62,2.65,9.08,4.84,13.28,1.55,2.5,4.7,3.47,7.39,2.29,4.2-2.22,8.11-4.97,11.61-8.18,4.05-3.45,7.42-7.63,9.94-12.31.91-2.4.04-5.1-2.11-6.51-4.26-2.56-8.79-4.6-13.54-6.07-4.59-1.49-9.34-2.41-14.16-2.73-2.54-.01-4.78,1.68-5.45,4.13,0,0,.09.35.09.35Z"/>
    <path class="cls-10" d="m1225.44,312.53l-3.34,10.82"/>
    <path class="cls-6" d="m1256.49,164.99c2.37-10.87-.12-20.65-5.58-21.84-5.45-1.2-11.8,6.65-14.18,17.51-2.37,10.87.12,20.65,5.58,21.84,5.45,1.2,11.81-6.65,14.19-17.51Z"/>
    <path class="cls-6" d="m1182.66,193.42c5.04-2.4,5.26-12.49.47-22.53-4.78-10.04-12.74-16.23-17.78-13.84-5.05,2.4-5.26,12.49-.47,22.53,4.78,10.04,12.74,16.24,17.78,13.84Z"/>
    <path class="cls-6" d="m1150.17,245.79c1.63-5.34-5.67-12.3-16.3-15.56-10.64-3.25-20.58-1.56-22.21,3.78-1.64,5.35,5.66,12.31,16.3,15.57,10.64,3.25,20.58,1.56,22.22-3.78h0Z"/>
    <path class="cls-6" d="m1319.28,204.14c8.16-7.56,11.69-17.02,7.88-21.11-3.8-4.1-13.48-1.28-21.63,6.29-8.15,7.56-11.68,17.03-7.88,21.11,3.8,4.1,13.49,1.28,21.63-6.29Z"/>
    <path class="cls-6" d="m1343.49,264.1c11.08-.88,19.72-6.1,19.27-11.68-.44-5.57-9.79-9.37-20.87-8.49-11.09.88-19.72,6.11-19.28,11.68.44,5.57,9.79,9.37,20.88,8.49Z"/>
  </g>
</svg>