<svg xmlns="http://www.w3.org/2000/svg" fill="none" viewBox="-1.02 -1.02 98 98" height="98" width="98"><path fill="#00034a" stroke="#00034a" stroke-miterlimit="10" d="M82.13216399999999 38.66708199999999c1.9599829999999998 0.148738 3.895976 0.530179 5.769595 1.139525 1.9623819999999998 1.0051809999999999 4.474135 3.3753930000000003 5.625655000000001 5.258608000000001a7.854326 7.854326 0 0 1 -3.123498 11.088178 23.786085 23.786085 0 0 1 -7.803947 1.211495c-2.331828 13.420006 -10.718732 22.71853 -25.16551 25.211091a24.438613 24.438613 0 0 1 -1.211495 7.758366 7.849527999999999 7.849527999999999 0 0 1 -11.088178 3.123498c-1.816043 -1.1131360000000001 -4.43815 -3.610495 -5.39775 -5.4865129999999995a23.55818 23.55818 0 0 1 -1.161116 -5.896742000000001c-6.297375 -1.501774 -11.323279999999999 -4.397367 -15.077715000000001 -8.432485 -4.867571 -4.035118 -8.089428 -9.610394000000001 -9.66797 -16.349185000000002a24.678513000000002 24.678513000000002 0 0 1 -5.771994 -1.139525c-1.9623819999999998 -1.0051809999999999 -4.474135 -3.3753930000000003 -5.625655000000001 -5.258608000000001a7.851927000000001 7.851927000000001 0 0 1 3.123498 -11.088178 23.793281999999998 23.793281999999998 0 0 1 7.803947 -1.211495c2.331828 -13.420006 10.718732 -22.71853 25.16551 -25.211091 -0.016793 -2.6341020000000004 0.393436 -5.25381 1.211495 -7.758366a7.851927000000001 7.851927000000001 0 0 1 11.088178 -3.123498c1.9144020000000002 1.170712 4.382973 3.5049390000000002 5.39775 5.4865129999999995a23.55818 23.55818 0 0 1 1.161116 5.896742000000001c6.297375 1.501774 11.323279999999999 4.397367 15.077715000000001 8.432485 4.867571 4.035118 8.089428 9.610394000000001 9.66797 16.349185000000002Z" stroke-width="2.04"></path><path fill="#e29269" stroke="#00034a" stroke-miterlimit="10" d="M87.89936 39.806607a24.678513000000002 24.678513000000002 0 0 0 -7.803947 -1.211495c-2.3294289999999997 -13.420006 -10.718732 -22.71853 -25.16551 -25.211091a23.55818 23.55818 0 0 0 -1.211495 -7.758366 7.851927000000001 7.851927000000001 0 0 0 -13.981372 0 24.441012 24.441012 0 0 0 -1.211495 7.758366c-14.446778 2.4949600000000003 -22.833682000000003 11.791085 -25.16551 25.21349a23.793281999999998 23.793281999999998 0 0 0 -7.803947 1.209096 7.851927000000001 7.851927000000001 0 0 0 0 13.981372c2.5189500000000002 0.820458 5.155451 1.230687 7.803947 1.211495 2.331828 13.422405 10.718732 22.71853 25.16551 25.21349a23.553382 23.553382 0 0 0 1.211495 7.758366 7.851927000000001 7.851927000000001 0 0 0 13.981372 0 24.445809999999998 24.445809999999998 0 0 0 1.211495 -7.760765c14.446778 -2.492561 22.836081 -11.788686 25.16551 -25.211091a23.786085 23.786085 0 0 0 7.8063460000000005 -1.211495 7.854326 7.854326 0 0 0 0 -13.981372Z" stroke-width="2.04"></path><path fill="#ffffff" stroke="#00034a" stroke-miterlimit="10" d="M46.72772200000001 66.67300800000001a19.875715 19.875715 0 1 0 0 -39.75143 19.875715 19.875715 0 0 0 0 39.75143Z" stroke-width="2.04"></path><path fill="#e29269" stroke="#00034a" stroke-miterlimit="10" d="M46.72772200000001 55.325738a8.528445 8.528445 0 1 0 0 -17.05689 8.528445 8.528445 0 0 0 0 17.05689Z" stroke-width="2.04"></path></svg>