<svg xmlns="http://www.w3.org/2000/svg" fill="none" viewBox="-1.02 -1.02 98 98" height="98" width="98"><path fill="#00034a" stroke="#00034a" stroke-linecap="round" stroke-linejoin="round" stroke-miterlimit="10" d="M75.865976 11.44323a2.139908 2.139908 0 0 0 1.6073300000000001 -0.786872 24.7097 24.7097 0 0 0 2.3006409999999997 -5.771994 0.830054 0.830054 0 0 1 0.933211 -0.55177c0.582957 0.107955 1.6553099999999998 0.678917 2.149504 1.05556a7.360132 7.360132 0 0 1 2.000766 8.626804 7.453693 7.453693 0 0 1 -6.211011 5.7504029999999995l-0.251895 0.760483a56.630794 56.630794 0 0 1 -3.797617 9.200165 2.989154 2.989154 0 0 1 -3.91037 1.036368c-1.79925 -0.59975 -4.63007 -1.820841 -4.301407 -4.071103 0.546972 -3.3154179999999998 1.3914199999999999 -6.57326 2.530945 -9.730344 0.028788 -0.076768 0.062374 -0.153536 0.09596 -0.227905a1.36743 1.36743 0 0 0 0.158334 -0.532578 7.525663 7.525663 0 0 1 -1.564148 -8.096625A7.386521 7.386521 0 0 1 74.369 2.399a0.806064 0.806064 0 0 1 0.35985 0.055177c0.611745 0.24709699999999998 1.6361180000000002 0.602149 2.08713 1.10354a0.806064 0.806064 0 0 1 0.196718 0.6813159999999999 25.309450000000002 25.309450000000002 0 0 0 -1.5401580000000001 6.071869c0.019192 0.40783 0.158334 0.801266 0.393436 1.134727Z" stroke-width="2.04"></path><path fill="#00034a" stroke="#00034a" stroke-linecap="round" stroke-linejoin="round" stroke-miterlimit="10" d="M83.638736 31.889906999999997c0 -1.9311950000000002 1.5665470000000001 -3.497742 3.495343 -3.497742 2.2310700000000003 0 5.292194 2.03915 5.292194 4.394968 0 1.9311950000000002 -1.5665470000000001 3.495343 -3.497742 3.495343 -2.2310700000000003 0 -5.289795 -2.03915 -5.289795 -4.392569Z" stroke-width="2.04"></path><path fill="#00034a" stroke="#00034a" stroke-linecap="round" stroke-linejoin="round" stroke-miterlimit="10" d="M33.144584 80.496046c0 -3.1954680000000004 -3.6824649999999997 -5.843964 -6.738791000000001 -5.843964a4.946738 4.946738 0 0 0 -4.944339 4.946738c0 3.193069 3.6824649999999997 5.841565 6.738791000000001 5.841565a4.946738 4.946738 0 0 0 4.944339 -4.944339Z" stroke-width="2.04"></path><path fill="#00034a" stroke="#00034a" stroke-linecap="round" stroke-linejoin="round" stroke-miterlimit="10" d="M31.398111999999998 7.897507999999999c-15.576707 0 -28.202644 12.625937 -28.202644 28.200245000000002 0 16.365978000000002 16.255624 31.731573 32.525642 31.731573 15.574308 0 28.200245000000002 -12.625937 28.200245000000002 -28.200245000000002 0 -16.365978000000002 -16.253225 -31.731573 -32.523243 -31.731573Z" stroke-width="2.04"></path><path fill="#e29269" stroke="#00034a" stroke-linecap="round" stroke-linejoin="round" stroke-miterlimit="10" d="M31.398111999999998 64.300397c15.576707 0 28.202644 -12.625937 28.202644 -28.202644 0 -15.574308 -12.628336000000001 -28.200245000000002 -28.202644 -28.200245000000002 -15.576707 0 -28.202644 12.625937 -28.202644 28.200245000000002 0 15.576707 12.625937 28.202644 28.202644 28.202644Z" stroke-width="2.04"></path><path fill="#ffffff" stroke="#00034a" stroke-linecap="round" stroke-linejoin="round" stroke-miterlimit="10" d="M31.398111999999998 48.198309a12.100556 12.100556 0 1 0 0 -24.198712999999998 12.100556 12.100556 0 0 0 0 24.198712999999998Z" stroke-width="2.04"></path><path fill="#ffffff" stroke="#00034a" stroke-linecap="round" stroke-linejoin="round" stroke-miterlimit="10" d="M40.161659 50.038342c0.990787 -1.6793 0 -9.384888 -0.849246 -15.159281 -0.851645 -5.771994 -2.3030399999999998 -13.41041 -3.728046 -14.698673 -0.8276549999999999 -1.4034149999999999 -4.301407 -2.415793 -6.8995239999999995 -2.000766 -2.6005160000000003 0.412628 -5.774393 2.415793 -6.14144 4.001532 -0.990787 1.6793 0 9.363297 0.8276549999999999 15.13769 0.8276549999999999 5.771994 2.298242 13.41041 3.749637 14.720264 0.8276549999999999 1.4034149999999999 4.277417 2.415793 6.8995239999999995 2.003165 2.6221069999999997 -0.415027 5.7504029999999995 -2.415793 6.14144 -4.003931000000001Z" stroke-width="2.04"></path><path fill="#00034a" stroke="#00034a" stroke-linecap="round" stroke-linejoin="round" stroke-miterlimit="10" d="M71.401437 41.57467c7.751169 0.894827 17.229618000000002 4.1622650000000005 19.415107 7.566446 3.946355 6.14144 3.8336020000000004 16.541104999999998 3.053927 23.306285 -0.894827 7.799149 -4.253426999999999 16.541104999999998 -6.1870210000000005 18.402729 -3.013144 2.9003910000000004 -12.949802 3.797617 -20.703370000000003 2.9003910000000004 -7.751169 -0.897226 -17.229618000000002 -4.140674 -19.415107 -7.568845 -3.963148 -6.105455 -3.8288040000000003 -16.548302 -3.053927 -23.284694 0.894827 -7.82074 4.255826 -16.538706 6.1870210000000005 -18.40033 2.991553 -2.921982 12.949802 -3.819208 20.703370000000003 -2.921982Z" stroke-width="2.04"></path><path fill="#ffffff" stroke="#00034a" stroke-linecap="round" stroke-linejoin="round" stroke-miterlimit="10" d="M90.81654400000001 49.141116000000004c-2.185489 -3.4041810000000003 -11.663938 -6.669219999999999 -19.415107 -7.566446 -7.7535680000000005 -0.897226 -17.714216 0 -20.703370000000003 2.9195830000000003 -1.9311950000000002 1.864023 -5.292194 10.581988999999998 -6.18942 18.402729 -0.894827 7.82074 0.369446 16.999314000000002 1.8184420000000001 19.230384 2.185489 3.43057 11.663938 6.671619000000001 19.415107 7.568845 7.751169 0.897226 17.690226 0 20.703370000000003 -2.897992 1.9311950000000002 -1.864023 5.289795 -10.60358 6.18942 -18.402729 0.894827 -7.79675 -0.369446 -16.999314000000002 -1.8184420000000001 -19.254374Z" stroke-width="2.04"></path><path fill="#e29269" stroke="#00034a" stroke-linecap="round" stroke-linejoin="round" stroke-miterlimit="10" d="M70.710525 47.576968c-2.713269 -0.32146600000000003 -6.901922999999999 -0.712503 -6.786771000000001 10.949036 0.115152 11.663938 2.739658 12.030985 4.095093 12.191718 1.357834 0.16313200000000003 4.071103 0.48459800000000003 6.786771000000001 -10.925046 2.713269 -11.409644 -1.379425 -11.891843 -4.095093 -12.215708Z" stroke-width="2.04"></path><path fill="#e29269" stroke="#00034a" stroke-linecap="round" stroke-linejoin="round" stroke-miterlimit="10" d="M66.98487800000001 83.715504a4.116684 4.116684 0 1 0 0 -8.235767 4.116684 4.116684 0 0 0 0 8.235767Z" stroke-width="2.04"></path><path fill="#e29269" stroke="#00034a" stroke-linecap="round" stroke-linejoin="round" stroke-miterlimit="10" d="M83.062976 13.117732a7.362531 7.362531 0 0 0 -2.000766 -8.624405000000001 0.830054 0.830054 0 0 0 -1.2882630000000002 0.391037c-0.520583 2.012761 -1.29546 3.9535519999999997 -2.3006409999999997 5.771994a2.139908 2.139908 0 0 1 -3.795218 -1.240283c0.259092 -2.082332 0.7772760000000001 -4.121482 1.542557 -6.074268A0.8036650000000001 0.8036650000000001 0 0 0 74.369 2.399a7.384122 7.384122 0 0 0 -6.76518 5.704822 7.523264 7.523264 0 0 0 1.5665470000000001 8.096625c0 0.254294 -0.16073300000000001 0.506189 -0.254294 0.760483a55.191394 55.191394 0 0 0 -2.530945 9.730344c-0.275885 1.8856140000000001 1.266672 2.75885 2.509354 3.173877a2.991553 2.991553 0 0 0 3.91037 -1.036368 56.64039 56.64039 0 0 0 3.795218 -9.200165l0.251895 -0.760483a7.451294 7.451294 0 0 0 6.21341 -5.7504029999999995Z" stroke-width="2.04"></path><path fill="#e29269" stroke="#00034a" stroke-linecap="round" stroke-linejoin="round" stroke-miterlimit="10" d="M26.405793 84.543159a4.946738 4.946738 0 1 0 0 -9.891077000000001 4.946738 4.946738 0 0 0 0 9.891077000000001Z" stroke-width="2.04"></path><path fill="#e29269" stroke="#00034a" stroke-linecap="round" stroke-linejoin="round" stroke-miterlimit="10" d="M87.134079 35.38525a3.495343 3.495343 0 1 0 0 -6.993085 3.495343 3.495343 0 0 0 0 6.993085Z" stroke-width="2.04"></path></svg>