<?xml version="1.0" encoding="utf-8"?>
<!-- Generator: Adobe Illustrator 27.9.0, SVG Export Plug-In . SVG Version: 6.00 Build 0)  -->
<svg version="1.1" id="product-design" xmlns="http://www.w3.org/2000/svg" xmlns:xlink="http://www.w3.org/1999/xlink" x="0px"
	 y="0px" viewBox="0 0 165 165" style="enable-background:new 0 0 165 165;" xml:space="preserve">
<style type="text/css">
	.st0{fill:#494C7E;}
</style>
<path class="st0" d="M156.9,69.8c0.3,1.5,0.6,3.1,0.8,4.6c0.1,0.5,0.5,0.8,1,0.8h0.1c0.5-0.1,0.9-0.6,0.8-1.1
	c-0.2-1.6-0.5-3.1-0.8-4.7c-0.1-0.5-0.6-0.9-1.1-0.8C157.1,68.8,156.8,69.3,156.9,69.8z M108.4,12.3c0.2-0.5-0.1-1-0.6-1.2
	c-1.5-0.5-3-1-4.6-1.4c-0.5-0.1-1,0.2-1.2,0.7c-0.1,0.5,0.2,1,0.7,1.2c1.5,0.4,3,0.9,4.4,1.4C107.7,13,108.2,12.8,108.4,12.3z
	 M115.8,16.4c0.5,0.2,1.1,0,1.3-0.4c0.2-0.5,0-1.1-0.4-1.3c-1.4-0.7-2.9-1.4-4.4-2c-0.5-0.2-1,0-1.3,0.5c-0.2,0.5,0,1.1,0.5,1.3
	C113,15.1,114.4,15.8,115.8,16.4z M132.7,26.5c0.3-0.4,0.3-1-0.1-1.4c-1.2-1-2.5-2-3.7-3c-0.4-0.3-1-0.2-1.3,0.2
	c-0.3,0.4-0.2,1,0.2,1.3c1.2,0.9,2.5,1.9,3.6,2.9C131.7,26.9,132.4,26.9,132.7,26.5z M149,48c0.3,0.5,0.8,0.6,1.3,0.4
	c0.5-0.3,0.6-0.8,0.4-1.3c-0.8-1.4-1.6-2.8-2.4-4.1c-0.3-0.4-0.9-0.6-1.3-0.3s-0.6,0.9-0.3,1.3C147.4,45.3,148.2,46.7,149,48z
	 M123.9,21c0.4,0.3,1,0.2,1.3-0.3c0.3-0.4,0.2-1-0.3-1.3c-1.3-0.9-2.7-1.7-4.1-2.5c-0.5-0.3-1-0.1-1.3,0.4s-0.1,1,0.4,1.3
	C121.2,19.4,122.6,20.2,123.9,21z M154.5,60.8c0.5,1.5,0.9,3,1.3,4.5c0.1,0.5,0.7,0.8,1.2,0.7c0.5-0.1,0.8-0.7,0.7-1.2
	c-0.4-1.5-0.9-3.1-1.4-4.6c-0.2-0.5-0.7-0.8-1.2-0.6C154.6,59.7,154.4,60.3,154.5,60.8z M152.9,56.4c0.2,0.5,0.7,0.7,1.2,0.5
	s0.7-0.8,0.5-1.2c-0.6-1.5-1.2-2.9-1.9-4.4c-0.2-0.5-0.8-0.7-1.3-0.5s-0.7,0.8-0.5,1.3C151.7,53.6,152.4,55,152.9,56.4z M141.3,35.1
	c-0.4,0.3-0.5,0.9-0.1,1.4c1,1.2,1.9,2.4,2.8,3.7c0.3,0.4,0.9,0.5,1.3,0.2s0.5-0.9,0.2-1.3c-0.9-1.3-1.9-2.6-2.9-3.8
	C142.3,34.9,141.7,34.8,141.3,35.1z M136.1,28.3c-0.4-0.4-1-0.4-1.4,0s-0.4,1,0,1.4L138,33c0.4,0.4,1,0.4,1.4,0.1
	c0.4-0.4,0.4-1,0-1.4C138.4,30.5,137.3,29.4,136.1,28.3L136.1,28.3z M21,40.2c0.9-1.3,1.9-2.5,2.8-3.7c0.3-0.4,0.3-1-0.1-1.4
	c-0.4-0.3-1-0.3-1.4,0.1c-1,1.2-2,2.5-2.9,3.8c-0.3,0.4-0.2,1,0.2,1.3C20.1,40.7,20.7,40.6,21,40.2z M57.8,12.9
	c1.5-0.5,2.9-1,4.4-1.4c0.5-0.1,0.8-0.7,0.7-1.2s-0.7-0.8-1.2-0.7c-1.5,0.4-3.1,0.9-4.5,1.4c-0.5,0.2-0.8,0.7-0.6,1.2
	C56.8,12.8,57.3,13,57.8,12.9z M26.9,33l3.3-3.3c0.4-0.4,0.4-1,0-1.4s-1-0.4-1.4,0c-1.1,1.1-2.3,2.2-3.4,3.4c-0.4,0.4-0.3,1,0,1.4
	C26,33.4,26.6,33.4,26.9,33z M41.1,21c1.3-0.8,2.6-1.7,4-2.4c0.5-0.3,0.6-0.8,0.4-1.3c-0.3-0.5-0.8-0.6-1.3-0.4
	c-1.4,0.8-2.7,1.6-4.1,2.5c-0.4,0.3-0.6,0.9-0.3,1.3C40.1,21.2,40.7,21.3,41.1,21z M33.7,26.6c1.2-1,2.4-2,3.6-2.9
	c0.4-0.3,0.5-0.9,0.2-1.3s-0.9-0.5-1.3-0.2c-1.3,0.9-2.5,1.9-3.7,3C32,25.4,32,26,32.3,26.5C32.7,26.9,33.3,26.9,33.7,26.6z
	 M52.7,12.7c-1.5,0.6-2.9,1.3-4.3,2c-0.5,0.2-0.7,0.8-0.4,1.3c0.2,0.5,0.8,0.7,1.3,0.4c1.4-0.7,2.8-1.3,4.2-1.9
	c0.5-0.2,0.7-0.8,0.5-1.3C53.8,12.8,53.2,12.5,52.7,12.7z M6.3,75.2c0.5,0.1,1-0.3,1.1-0.8c0.2-1.5,0.5-3.1,0.8-4.6
	c0.1-0.5-0.2-1-0.8-1.1c-0.5-0.1-1,0.2-1.1,0.8C6,71,5.7,72.6,5.5,74.2C5.4,74.7,5.7,75.2,6.3,75.2z M10.8,57c0.5,0.2,1.1,0,1.2-0.5
	c0.6-1.4,1.2-2.9,1.9-4.3c0.2-0.5,0-1.1-0.5-1.3s-1.1,0-1.3,0.5c-0.7,1.4-1.3,2.9-1.9,4.4C10.1,56.2,10.3,56.8,10.8,57z M14.7,48.4
	c0.5,0.3,1,0.1,1.3-0.4c0.7-1.3,1.5-2.7,2.4-4c0.3-0.4,0.2-1-0.3-1.3c-0.4-0.3-1-0.2-1.3,0.3c-0.9,1.3-1.7,2.7-2.4,4.1
	C14.1,47.6,14.3,48.1,14.7,48.4z M8,66c0.5,0.1,1-0.2,1.2-0.7c0.4-1.5,0.8-3,1.3-4.5c0.2-0.5-0.1-1-0.6-1.2s-1,0.1-1.2,0.6
	c-0.5,1.5-1,3-1.4,4.6C7.2,65.3,7.5,65.8,8,66z M79.3,147.3c0.5,0,1-0.4,1-1c0-0.5-0.4-1-1-1H56.1c-0.5,0-1,0.4-1,1c0,0.5,0.4,1,1,1
	H79.3z M83,147.3h3.8c0.5,0,1-0.4,1-1c0-0.5-0.4-1-1-1H83c-0.5,0-1,0.4-1,1C82.1,146.8,82.5,147.3,83,147.3z M90.2,147.3h2.5
	c0.5,0,1-0.4,1-1c0-0.5-0.4-1-1-1h-2.5c-0.5,0-1,0.4-1,1C89.2,146.8,89.6,147.3,90.2,147.3z M84.7,151c0,0.5,0.4,1,1,1H109
	c0.5,0,1-0.4,1-1c0-0.5-0.4-1-1-1H85.7C85.2,150,84.7,150.5,84.7,151z M77.2,151c0,0.5,0.4,1,1,1H82c0.5,0,1-0.4,1-1
	c0-0.5-0.4-1-1-1h-3.8C77.6,150,77.2,150.5,77.2,151z M74.8,150h-2.5c-0.5,0-1,0.4-1,1c0,0.5,0.4,1,1,1h2.5c0.5,0,1-0.4,1-1
	C75.8,150.5,75.4,150,74.8,150z"/>
<path class="st0" d="M162.5,80.4h-2.4c0-0.5,0-1-0.1-1.5c0-0.5-0.5-0.9-1-0.9s-0.9,0.5-0.9,1s0.1,0.9,0.1,1.4h-2.1c-0.5,0-1,0.4-1,1
	v6.5c0,0.5,0.4,1,1,1h2.1c-1.1,19.5-9.4,37-22.3,49.8H92.7V89.9h1.2c2.3,0,4.2-1.9,4.2-4.2V64.5c0-2.3-1.9-4.2-4.2-4.2h-3.4
	c0.3-5.6,4.9-10.1,10.5-10.1c0.3,0,0.6-0.2,0.8-0.4c0.2-0.3,0.2-0.6,0.1-0.9L85.6,13h0.2c1.1,0,1.9-0.9,1.9-1.9V8.9
	C88.1,9,88.6,9,89,9h0.1c0.3,0,0.5-0.1,0.7-0.3h3.1c0.1,0.4,0.4,0.8,0.8,0.8c2.1,0.3,4.8,0.8,4.8,0.8c0.4,0,0.8-0.3,0.9-0.8
	c0.1-0.3-0.1-0.7-0.3-0.9h36.4c0.4,1.6,1.9,2.8,3.6,2.8c2.1,0,3.8-1.7,3.8-3.8s-1.7-3.8-3.8-3.8c-1.7,0-3.2,1.2-3.6,2.8H87.7v-2
	c0-1.1-0.9-1.9-1.9-1.9h-6.5c-1.1,0-1.9,0.9-1.9,1.9v2.3H29.5C29.1,5.2,27.6,4,25.9,4c-2.1,0-3.8,1.7-3.8,3.8s1.7,3.8,3.8,3.8
	c1.7,0,3.2-1.2,3.6-2.8h36.4c-0.2,0.2-0.4,0.6-0.3,0.9c0.1,0.5,0.6,0.8,1.1,0.7c1.5-0.3,3.1-0.6,4.6-0.8c0.4-0.1,0.7-0.4,0.8-0.8
	h3.1C75.4,8.9,75.7,9,75.9,9H76c0.4,0,0.9-0.1,1.4-0.1V11c0,1.1,0.9,1.9,1.9,1.9h0.2C62.2,50.9,62.8,49,63.3,49.7
	c0.2,0.3,0.5,0.4,0.8,0.4c5.7,0,10.3,4.5,10.5,10.1h-3.4c-2.3,0-4.2,1.9-4.2,4.2v21.2c0,2.3,1.9,4.2,4.2,4.2h1.2v48.7H29.1
	C16.2,125.8,7.9,108.3,6.8,88.8h2.1c0.5,0,1-0.4,1-1v-6.5c0-0.5-0.4-1-1-1H6.8c0-0.5,0-0.9,0.1-1.4c0-0.5-0.4-1-0.9-1s-1,0.4-1,0.9
	s-0.1,1-0.1,1.5H2.5c-0.5,0-1,0.4-1,1v6.5c0,0.5,0.4,1,1,1h2.4c2.2,41.4,36.2,73.6,77.6,73.6c41.1,0,75.4-31.9,77.6-73.6h2.4
	c0.5,0,1-0.4,1-1v-6.5C163.5,80.8,163.1,80.4,162.5,80.4z M3.4,82.3H8v4.6H3.4V82.3z M139.1,5.9c1,0,1.9,0.8,1.9,1.9
	c0,1-0.8,1.9-1.9,1.9s-1.9-0.8-1.9-1.9C137.3,6.8,138.1,5.9,139.1,5.9z M25.9,9.6c-1,0-1.9-0.8-1.9-1.9c0-1,0.8-1.9,1.9-1.9
	s1.9,0.8,1.9,1.9C27.7,8.8,26.9,9.6,25.9,9.6z M79.3,4.6h6.5v6.5h-6.5C79.3,11.1,79.3,4.6,79.3,4.6z M83.1,13v22
	c0,0.3,0.2,0.6,0.5,0.8c0.6,0.4,1,1,1,1.8c0,1.1-0.9,2.1-2.1,2.1c-1.1,0-2.1-0.9-2.1-2.1c0-0.7,0.4-1.4,1-1.8
	c0.3-0.2,0.5-0.5,0.5-0.8V13H83.1z M65.5,48.4l14.5-32v18.1c-0.9,0.8-1.4,1.9-1.4,3.1c0,2.2,1.8,4,4,4s4-1.8,4-4
	c0-1.2-0.5-2.3-1.4-3.1V16.4l14.5,31.9c-6,0.7-10.8,5.7-11,11.9H76.5C76.2,54.1,71.5,49.1,65.5,48.4z M68.8,85.6V64.5
	c0-1.3,1-2.3,2.3-2.3h22.8c1.3,0,2.3,1,2.3,2.3v21.2c0,1.3-1,2.3-2.3,2.3H71.1C69.8,88,68.8,86.9,68.8,85.6z M74.3,89.9h16.5v48.7
	H74.3C74.3,138.6,74.3,89.9,74.3,89.9z M73.3,140.5h60.4c-13.8,12.6-32,20-51.2,20c-18.4,0-36.7-6.6-51.2-20H73.3L73.3,140.5z
	 M161.6,86.9H157v-4.6h4.6V86.9z"/>
<path class="st0" d="M134.5,93.4c0-7.6-6.4-13.8-14.1-13.5c-7,0.3-12.7,6-12.9,13.1c-0.3,9.4,7,9,7,19.1c-1.4,0.5-2.3,1.8-2.3,3.3v4
	c0,1.6,1.1,3,2.6,3.4c1.2,2.3,3.6,3.8,6.3,3.8s5-1.5,6.3-3.8c1.5-0.4,2.6-1.7,2.6-3.4v-4c0-1.5-1-2.8-2.3-3.3
	C127.5,102.6,134.5,102.2,134.5,93.4z M109.4,93.1c0.2-6,5.2-11,11.1-11.2c6.6-0.3,12.1,5,12.1,11.6c0,7.9-7,8.7-7,18.5h-9.2
	C116.4,101.4,109.2,101.5,109.4,93.1z M121,124.7c-1.5,0-2.9-0.6-3.9-1.7h7.7C123.9,124,122.5,124.7,121,124.7z M127.9,119.4
	c0,0.9-0.7,1.6-1.6,1.6h-10.7c-0.9,0-1.6-0.7-1.6-1.6v-4c0-0.9,0.7-1.6,1.6-1.6h10.7c0.9,0,1.6,0.7,1.6,1.6V119.4z M23.9,71.2
	l1.4,2.3c-0.3,0.5-0.5,1.1-0.7,1.6L22,75.8c-0.4,0.1-0.7,0.5-0.7,0.9v5c0,0.4,0.3,0.8,0.7,0.9l2.6,0.7c0.2,0.6,0.4,1.1,0.7,1.6
	l-1.4,2.3c-0.2,0.4-0.2,0.9,0.1,1.2l3.5,3.5c0.3,0.3,0.8,0.4,1.2,0.1l2.3-1.4c0.5,0.3,1.1,0.5,1.6,0.7l0.7,2.6
	c0.1,0.4,0.5,0.7,0.9,0.7h5c0.4,0,0.8-0.3,0.9-0.7l0.7-2.6c0.6-0.2,1.1-0.4,1.6-0.7l2.3,1.4c0.4,0.2,0.9,0.2,1.2-0.1l3.5-3.5
	c0.3-0.3,0.4-0.8,0.1-1.2l-1.4-2.3c0.3-0.5,0.5-1.1,0.7-1.6l2.6-0.7c0.4-0.1,0.7-0.5,0.7-0.9v-5c0-0.4-0.3-0.8-0.7-0.9l-2.6-0.7
	c-0.2-0.6-0.4-1.1-0.7-1.6l1.4-2.3c0.2-0.4,0.2-0.9-0.1-1.2l-3.5-3.5c-0.3-0.3-0.8-0.4-1.2-0.1l-2.3,1.4c-0.5-0.3-1.1-0.5-1.6-0.7
	l-0.7-2.6c-0.1-0.4-0.5-0.7-0.9-0.7h-5c-0.4,0-0.8,0.3-0.9,0.7l-0.7,2.6c-0.6,0.2-1.1,0.4-1.6,0.7l-2.3-1.4
	c-0.4-0.2-0.9-0.2-1.2,0.1L24,70C23.7,70.3,23.7,70.8,23.9,71.2z M27.2,73l-1.3-2.1l2.4-2.4l2.1,1.3c0.3,0.2,0.7,0.2,1,0
	c0.7-0.4,1.5-0.7,2.3-0.9c0.3-0.1,0.6-0.4,0.7-0.7l0.6-2.4h3.5l0.6,2.4c0.1,0.3,0.3,0.6,0.7,0.7c0.8,0.2,1.5,0.5,2.3,0.9
	c0.3,0.2,0.7,0.2,1,0l2.1-1.3l2.4,2.4L46.3,73c-0.2,0.3-0.2,0.7,0,1c0.4,0.7,0.7,1.5,0.9,2.3c0.1,0.3,0.4,0.6,0.7,0.7l2.4,0.6V81
	l-2.4,0.6c-0.3,0.1-0.6,0.3-0.7,0.7c-0.2,0.8-0.5,1.6-0.9,2.3c-0.2,0.3-0.2,0.7,0,1l1.3,2.1l-2.4,2.4L43,88.8c-0.3-0.2-0.7-0.2-1,0
	c-0.7,0.4-1.5,0.7-2.3,0.9c-0.3,0.1-0.6,0.4-0.7,0.7l-0.6,2.4H35l-0.6-2.4c-0.1-0.3-0.3-0.6-0.7-0.7c-0.8-0.2-1.6-0.5-2.3-0.9
	c-0.3-0.2-0.7-0.2-1,0l-2.1,1.3l-2.4-2.4l1.3-2.1c0.2-0.3,0.2-0.7,0-1c-0.4-0.7-0.7-1.5-0.9-2.3c-0.1-0.3-0.4-0.6-0.7-0.7L23.2,81
	v-3.5l2.4-0.6c0.3-0.1,0.6-0.3,0.7-0.7c0.2-0.8,0.5-1.5,0.9-2.3C27.4,73.7,27.4,73.3,27.2,73z"/>
<path class="st0" d="M36.7,87c4.3,0,7.8-3.5,7.8-7.8s-3.5-7.8-7.8-7.8s-7.8,3.5-7.8,7.8S32.4,87,36.7,87z M36.7,73.4
	c3.2,0,5.9,2.6,5.9,5.9c0,3.2-2.6,5.9-5.9,5.9c-3.2,0-5.9-2.6-5.9-5.9C30.9,76,33.5,73.4,36.7,73.4z M55.2,92.9l-0.3,1.2
	c-0.2,0.1-0.4,0.1-0.5,0.2l-1.1-0.7c-0.4-0.2-0.9-0.2-1.2,0.1l-1.9,1.9c-0.3,0.3-0.4,0.8-0.1,1.2l0.7,1.1c-0.1,0.2-0.2,0.3-0.2,0.5
	l-1.2,0.3c-0.4,0.1-0.7,0.5-0.7,0.9v2.8c0,0.4,0.3,0.8,0.7,0.9l1.2,0.3c0.1,0.2,0.1,0.4,0.2,0.5l-0.7,1.1c-0.2,0.4-0.2,0.9,0.1,1.2
	l1.9,1.9c0.3,0.3,0.8,0.4,1.2,0.1l1.1-0.7c0.2,0.1,0.3,0.2,0.5,0.2l0.3,1.2c0.1,0.4,0.5,0.7,0.9,0.7h2.8c0.4,0,0.8-0.3,0.9-0.7
	l0.3-1.2c0.2-0.1,0.4-0.1,0.5-0.2l1.1,0.7c0.4,0.2,0.9,0.2,1.2-0.1l1.9-1.9c0.3-0.3,0.4-0.8,0.1-1.2l-0.7-1.1
	c0.1-0.2,0.2-0.3,0.2-0.5l1.2-0.3c0.4-0.1,0.7-0.5,0.7-0.9v-2.8c0-0.4-0.3-0.8-0.7-0.9l-1.2-0.3c-0.1-0.2-0.1-0.4-0.2-0.5L65,97
	c0.2-0.4,0.2-0.9-0.1-1.2L63,93.9c-0.3-0.3-0.8-0.4-1.2-0.1l-1.1,0.7c-0.2-0.1-0.3-0.2-0.5-0.2l-0.3-1.2c-0.1-0.4-0.5-0.7-0.9-0.7
	h-2.8C55.7,92.2,55.3,92.5,55.2,92.9z M56.6,95.1l0.3-1h1.3l0.3,1c0.1,0.3,0.3,0.6,0.7,0.7s0.8,0.3,1.2,0.5c0.3,0.2,0.7,0.2,1,0
	l0.9-0.5l0.9,0.9l-0.5,0.9c-0.2,0.3-0.2,0.7,0,1c0.2,0.4,0.4,0.8,0.5,1.2c0.1,0.3,0.4,0.6,0.7,0.7l1,0.3v1.3l-1,0.3
	c-0.3,0.1-0.6,0.3-0.7,0.7c-0.1,0.4-0.3,0.8-0.5,1.2c-0.2,0.3-0.2,0.7,0,1l0.5,0.9l-0.9,0.9l-0.9-0.5c-0.3-0.2-0.7-0.2-1,0
	c-0.4,0.2-0.8,0.4-1.2,0.5c-0.3,0.1-0.6,0.4-0.7,0.7l-0.3,1h-1.3l-0.3-1c-0.1-0.3-0.3-0.6-0.7-0.7s-0.8-0.3-1.2-0.5
	c-0.3-0.2-0.7-0.2-1,0l-0.9,0.5l-0.9-0.9l0.5-0.9c0.2-0.3,0.2-0.7,0-1c-0.2-0.4-0.4-0.8-0.5-1.2c-0.1-0.3-0.4-0.6-0.7-0.7l-1-0.3
	v-1.3l1-0.3c0.3-0.1,0.6-0.3,0.7-0.7c0.1-0.4,0.3-0.8,0.5-1.2c0.2-0.3,0.2-0.7,0-1l-0.4-1l0.9-0.9l0.9,0.5c0.3,0.2,0.7,0.2,1,0
	c0.4-0.2,0.8-0.4,1.2-0.5C56.3,95.7,56.5,95.4,56.6,95.1z"/>
<path class="st0" d="M53.7,101.2c0,2.1,1.7,3.7,3.7,3.7c2.1,0,3.7-1.7,3.7-3.7c0-2.1-1.7-3.7-3.7-3.7S53.7,99.1,53.7,101.2z
	 M57.5,99.4c1,0,1.8,0.8,1.8,1.8s-0.8,1.8-1.8,1.8s-1.8-0.8-1.8-1.8S56.5,99.4,57.5,99.4z M121.6,84.7c0-0.5-0.5-0.9-1-0.9
	c-5,0.2-9.1,4.4-9.3,9.4c0,0.5,0.4,1,0.9,1s0.9-0.4,1-0.9c0.1-4,3.4-7.4,7.4-7.5C121.2,85.6,121.6,85.2,121.6,84.7z"/>
</svg>
