<svg xmlns="http://www.w3.org/2000/svg" fill="none" viewBox="-1.02 -1.02 98 98" height="98" width="98"><path fill="#00034a" stroke="#00034a" stroke-miterlimit="10" d="M51.813601999999996 6.275784000000001a4.5844890000000005 4.5844890000000005 0 0 0 -4.58209 4.5844890000000005c0 2.811628 3.092311 6.410128 5.942323 6.410128a4.5844890000000005 4.5844890000000005 0 0 0 4.58209 -4.5844890000000005c0 -2.811628 -3.092311 -6.410128 -5.942323 -6.410128Z" stroke-width="2.04"></path><path fill="#00034a" stroke="#00034a" stroke-miterlimit="10" d="M65.567069 13.597532000000001a3.67047 3.67047 0 0 0 -3.67047 3.67047c0 2.25506 2.818825 5.097875 5.073885000000001 5.097875a3.67047 3.67047 0 0 0 3.67047 -3.67047c0 -2.25506 -2.818825 -5.097875 -5.073885000000001 -5.097875Z" stroke-width="2.04"></path><path fill="#00034a" stroke="#00034a" stroke-miterlimit="10" d="M69.777314 37.081343000000004c0.748488 -4.75002 1.753669 -5.7552010000000005 1.753669 -5.7552010000000005 0.105556 -0.13914200000000002 0.64773 -0.906822 1.3602329999999998 -1.9192 1.206697 -1.705689 2.9003910000000004 -4.107088 3.8096120000000004 -5.354568 2.665289 -3.76643 6.3141680000000004 -8.653193 7.741573 -9.120998a5.846362999999999 5.846362999999999 0 0 1 5.332977 0.83965c1.29546 0.8540439999999999 3.3633979999999997 3.14269 4.131078 4.526913 0.453411 0.81566 0.7005079999999999 1.72728 0.724498 2.6580920000000003 0.04798 1.496976 -3.344206 6.59725 -6.011894 10.36368l-1.573744 2.2262720000000003c-1.55935 2.211878 -3.408979 4.829187 -3.593702 5.1170670000000005 -1.4441979999999999 1.446597 -3.1187 2.6389 -4.9587330000000005 3.531328a21.051225000000002 21.051225000000002 0 0 1 -4.67805 1.9887709999999998 1.6840979999999999 1.6840979999999999 0 0 1 -1.3410410000000001 -0.273486c-0.890029 -0.635735 -2.1591 -2.051145 -2.7300619999999998 -3.02274a1.6840979999999999 1.6840979999999999 0 0 1 -0.223107 -0.659725 21.643778 21.643778 0 0 1 0.256693 -5.145855Z" stroke-width="2.04"></path><path fill="#00034a" stroke="#00034a" stroke-miterlimit="10" d="M33.523626 22.392266c6.832351999999999 0.6237400000000001 17.375957 1.8880130000000002 22.860071 4.2894120000000004 1.981574 0.8684379999999999 4.546105 2.95077 5.500907000000001 4.989920000000001 2.151903 2.339025 1.4034149999999999 12.700306 0.6309370000000001 21.37509 -0.772478 8.679582 -1.9647809999999999 19.134424 -4.466938 20.888093 -2.665289 3.7184500000000003 -18.102854 2.8308199999999997 -27.06072 2.012761 -7.60483 -0.6957099999999999 -19.806144 -2.163898 -24.524977000000003 -5.124264 -2.106322 -1.31945 -4.219841 -3.7232480000000003 -4.786005 -6.21341 -0.914019 -4.015925999999999 -0.307072 -12.213309 0.31906700000000005 -19.249575999999998 0.7700790000000001 -8.701172999999999 1.9647809999999999 -19.156015 4.466938 -20.909684 2.665289 -3.7184500000000003 18.102854 -2.8788 27.06072 -2.058342Z" stroke-width="2.04"></path><path fill="#e29269" stroke="#00034a" stroke-miterlimit="10" d="M59.766287 29.267799999999998c-1.9407910000000002 -4.138275 -17.284795 -6.057475 -26.242661000000002 -6.875534 -8.957866 -0.8180590000000001 -24.395431000000002 -1.660108 -27.06072 2.058342 -2.502157 1.753669 -3.6944600000000003 12.21091 -4.466938 20.909684 -0.772478 8.701172999999999 -1.520966 19.180005 0.606947 21.331908 1.96718 4.140674 17.308785 6.033485000000001 26.266651 6.851544 8.957866 0.820458 24.395431000000002 1.7080879999999998 27.06072 -2.0103619999999998 2.504556 -1.753669 3.6944600000000003 -12.21091 4.469337 -20.888093 0.7700790000000001 -8.677183 1.518567 -19.038464 -0.633336 -21.37509Z" stroke-width="2.04"></path><path fill="#ffffff" stroke="#00034a" stroke-miterlimit="10" d="M51.979133000000004 41.174037c-1.520966 -2.456576 -13.07455 -3.5097370000000003 -19.789351 -4.116684 -6.712402 -0.609346 -18.265986 -1.660108 -20.206777 0.491795 -1.8472300000000001 0.98359 -2.574127 7.017074999999999 -3.017942 12.11495 -0.443815 5.097875 -0.8420489999999999 11.17934 0.794069 12.467603 1.520966 2.4541769999999996 13.05056 3.531328 19.765361000000002 4.138275 6.712402 0.609346 18.265986 1.6385170000000002 20.209176 -0.489396 1.8472300000000001 -0.98359 2.5717280000000002 -7.017074999999999 3.0395329999999996 -12.13894 0.467805 -5.124264 0.8420489999999999 -11.157748999999999 -0.794069 -12.467603Z" stroke-width="2.04"></path><path fill="#ffffff" stroke="#00034a" stroke-miterlimit="10" d="M13.595132999999999 31.676396a2.75885 2.75885 0 1 0 0 -5.5177 2.75885 2.75885 0 0 0 0 5.5177Z" stroke-width="2.04"></path><path fill="#ffffff" stroke="#00034a" stroke-miterlimit="10" d="M22.742520000000003 32.520844a2.75885 2.75885 0 1 0 0 -5.520099 2.75885 2.75885 0 0 0 0 5.5177Z" stroke-width="2.04"></path><path fill="#e29269" stroke="#00034a" stroke-miterlimit="10" d="M71.530983 31.326142s-1.0051809999999999 1.00758 -1.7512699999999999 5.7552010000000005a21.643778 21.643778 0 0 0 -0.259092 5.145855 1.6840979999999999 1.6840979999999999 0 0 0 2.034352 1.448996 21.048826 21.048826 0 0 0 4.67805 -1.9887709999999998 18.246794 18.246794 0 0 0 4.9587330000000005 -3.531328c0.256693 -0.39823400000000003 3.7184500000000003 -5.284997 5.169845 -7.343339 2.665289 -3.76643 6.057475 -8.864305 6.009494999999999 -10.36368a5.774393 5.774393 0 0 0 -2.595718 -4.67805 5.846362999999999 5.846362999999999 0 0 0 -5.332977 -0.83965c-1.427405 0.467805 -5.073885000000001 5.354568 -7.741573 9.120998 -1.448996 1.9887709999999998 -4.889162 6.8995239999999995 -5.169845 7.2737680000000005Z" stroke-width="2.04"></path><path fill="#00034a" d="M81.242135 68.73134999999999a84.478386 84.478386 0 0 1 -1.6361180000000002 -1.405814 62.369202 62.369202 0 0 1 -7.2521770000000005 -7.41291c-0.940408 -1.3290460000000002 -2.391803 -2.75885 -2.238267 -4.505322 0.067172 -0.7844730000000001 0.412628 -1.518567 0.9715950000000001 -2.070337 0.7964680000000001 -1.053161 2.151903 -2.245464 3.79042 -1.240283a58.134967 58.134967 0 0 1 8.091827 6.2925770000000005 87.532313 87.532313 0 0 1 6.54927 6.407729c1.321849 1.000383 2.8428150000000003 3.0107449999999996 3.017942 4.745222a3.5049390000000002 3.5049390000000002 0 0 1 -0.86364 2.672486 84.723084 84.723084 0 0 1 -5.1434560000000005 7.578441 57.213751 57.213751 0 0 1 -6.7363919999999995 7.811144c-1.427405 1.309854 -2.9723610000000003 0.422224 -3.9775419999999997 -0.467805 -0.933211 -0.628538 -2.684481 -3.099508 -2.989154 -4.133477a3.3681959999999997 3.3681959999999997 0 0 1 0.131945 -2.27905 62.08612 62.08612 0 0 1 5.707221 -8.722764c0.813261 -1.089146 1.7080879999999998 -2.214277 2.5765260000000003 -3.2722360000000004Z" stroke-width="2.04"></path><path fill="#00034a" d="M65.10886 52.598075c-0.446214 -0.2399 -0.93561 -0.38384 -1.437001 -0.43182a3.761632 3.761632 0 0 0 -4.67805 2.550137 113.762979 113.762979 0 0 0 -3.951153 15.156882 113.573458 113.573458 0 0 0 -2.339025 15.459156 3.76643 3.76643 0 0 0 0.122349 1.508971c0.47260300000000005 1.6217240000000002 1.957584 3.773627 3.52653 4.5844890000000005 0.451012 0.235102 0.9452060000000001 0.374244 1.453794 0.412628a3.74244 3.74244 0 0 0 4.67805 -2.550137 112.12206300000001 112.12206300000001 0 0 0 3.9535519999999997 -15.132892c1.110737 -5.102672999999999 1.87122 -10.274917 2.267055 -15.483146a3.76643 3.76643 0 0 0 -0.115152 -1.492178c-0.45581 -1.5929360000000001 -2.077534 -3.8288040000000003 -3.483348 -4.58209Z" stroke-width="2.04"></path><path fill="#00034a" d="M40.531105 75.333398a173.361336 173.361336 0 0 1 -1.043565 -0.873236c0.88763 -1.0723530000000001 1.811245 -2.245464 2.648496 -3.344206a63.475141 63.475141 0 0 0 5.707221 -8.725163c0.31187000000000004 -0.7197 0.35985 -1.5257640000000001 0.13914200000000002 -2.27905 -0.316668 -1.069954 -2.103923 -3.5385250000000004 -2.9987500000000002 -4.133477 -1.0051809999999999 -0.88763 -2.5477380000000003 -1.77526 -3.975143 -0.46540600000000004a58.084588 58.084588 0 0 0 -6.7363919999999995 7.787154 84.739877 84.739877 0 0 0 -5.145855 7.602431 3.464156 3.464156 0 0 0 -0.542174 4.047113c0.55177 1.014777 1.70329 2.722865 2.5813240000000004 3.394585a79.33493 79.33493 0 0 0 6.54927 6.40533 59.046587 59.046587 0 0 0 8.163797 6.316567c1.6361180000000002 0.98359 2.993952 -0.187122 3.79042 -1.2618740000000002a3.320216 3.320216 0 0 0 0.371845 -4.279816c-0.628538 -0.760483 -1.0867470000000001 -1.51137 -1.640916 -2.295843a60.927403 60.927403 0 0 0 -7.86872 -7.895109Z" stroke-width="2.04"></path><path stroke="#00034a" stroke-miterlimit="10" d="M81.242135 68.73134999999999a84.478386 84.478386 0 0 1 -1.6361180000000002 -1.405814 62.369202 62.369202 0 0 1 -7.2521770000000005 -7.41291c-0.940408 -1.3290460000000002 -2.391803 -2.75885 -2.238267 -4.505322 0.067172 -0.7844730000000001 0.412628 -1.518567 0.9715950000000001 -2.070337 0.7964680000000001 -1.053161 2.151903 -2.245464 3.79042 -1.240283a58.134967 58.134967 0 0 1 8.091827 6.2925770000000005 87.532313 87.532313 0 0 1 6.54927 6.407729c1.321849 1.000383 2.8428150000000003 3.0107449999999996 3.017942 4.745222a3.5049390000000002 3.5049390000000002 0 0 1 -0.86364 2.672486 84.723084 84.723084 0 0 1 -5.1434560000000005 7.578441 57.213751 57.213751 0 0 1 -6.7363919999999995 7.811144c-1.427405 1.309854 -2.9723610000000003 0.422224 -3.9775419999999997 -0.467805 -0.933211 -0.628538 -2.684481 -3.099508 -2.989154 -4.133477a3.3681959999999997 3.3681959999999997 0 0 1 0.131945 -2.27905 62.08612 62.08612 0 0 1 5.707221 -8.722764c0.813261 -1.089146 1.7080879999999998 -2.214277 2.5765260000000003 -3.2722360000000004Z" stroke-width="2.04"></path><path stroke="#00034a" stroke-miterlimit="10" d="M65.10886 52.598075c-0.446214 -0.2399 -0.93561 -0.38384 -1.437001 -0.43182a3.761632 3.761632 0 0 0 -4.67805 2.550137 113.762979 113.762979 0 0 0 -3.951153 15.156882 113.573458 113.573458 0 0 0 -2.339025 15.459156 3.76643 3.76643 0 0 0 0.122349 1.508971c0.47260300000000005 1.6217240000000002 1.957584 3.773627 3.52653 4.5844890000000005 0.451012 0.235102 0.9452060000000001 0.374244 1.453794 0.412628a3.74244 3.74244 0 0 0 4.67805 -2.550137 112.12206300000001 112.12206300000001 0 0 0 3.9535519999999997 -15.132892c1.110737 -5.102672999999999 1.87122 -10.274917 2.267055 -15.483146a3.76643 3.76643 0 0 0 -0.115152 -1.492178c-0.45581 -1.5929360000000001 -2.077534 -3.8288040000000003 -3.483348 -4.58209Z" stroke-width="2.04"></path><path stroke="#00034a" stroke-miterlimit="10" d="M40.531105 75.333398a173.361336 173.361336 0 0 1 -1.043565 -0.873236c0.88763 -1.0723530000000001 1.811245 -2.245464 2.648496 -3.344206a63.475141 63.475141 0 0 0 5.707221 -8.725163c0.31187000000000004 -0.7197 0.35985 -1.5257640000000001 0.13914200000000002 -2.27905 -0.316668 -1.069954 -2.103923 -3.5385250000000004 -2.9987500000000002 -4.133477 -1.0051809999999999 -0.88763 -2.5477380000000003 -1.77526 -3.975143 -0.46540600000000004a58.084588 58.084588 0 0 0 -6.7363919999999995 7.787154 84.739877 84.739877 0 0 0 -5.145855 7.602431 3.464156 3.464156 0 0 0 -0.542174 4.047113c0.55177 1.014777 1.70329 2.722865 2.5813240000000004 3.394585a79.33493 79.33493 0 0 0 6.54927 6.40533 59.046587 59.046587 0 0 0 8.163797 6.316567c1.6361180000000002 0.98359 2.993952 -0.187122 3.79042 -1.2618740000000002a3.320216 3.320216 0 0 0 0.371845 -4.279816c-0.628538 -0.760483 -1.0867470000000001 -1.51137 -1.640916 -2.295843a60.927403 60.927403 0 0 0 -7.86872 -7.895109Z" stroke-width="2.04"></path><path fill="#ffffff" stroke="#00034a" stroke-miterlimit="10" d="M67.064045 56.3765a3.76643 3.76643 0 0 0 -3.389787 -4.210245 3.761632 3.761632 0 0 0 -4.67805 2.550137 113.762979 113.762979 0 0 0 -3.9535519999999997 15.156882 113.573458 113.573458 0 0 0 -2.339025 15.459156 3.76643 3.76643 0 0 0 3.461757 4.210245 3.74244 3.74244 0 0 0 4.67805 -2.550137 112.10526999999999 112.10526999999999 0 0 0 3.9535519999999997 -15.132892 113.23280000000001 113.23280000000001 0 0 0 2.267055 -15.483146Z" stroke-width="2.04"></path><path fill="#ffffff" stroke="#00034a" stroke-miterlimit="10" d="M41.078077 75.789208c-1.2858640000000001 -1.074752 -2.526147 -2.079933 -3.62249 -3.1570840000000002a98.8388 98.8388 0 0 0 3.0395329999999996 -3.812011 63.496732 63.496732 0 0 0 5.707221 -8.725163 3.3466050000000003 3.3466050000000003 0 0 0 -1.218692 -4.116684c-1.0051809999999999 -0.88763 -2.5477380000000003 -1.77526 -3.975143 -0.46540600000000004a58.084588 58.084588 0 0 0 -6.7363919999999995 7.787154 84.739877 84.739877 0 0 0 -5.145855 7.602431 3.464156 3.464156 0 0 0 0.39823400000000003 5.145855c2.058342 2.259858 4.24623 4.3997660000000005 6.54927 6.407729a59.044188 59.044188 0 0 0 8.161398 6.316567c1.6385170000000002 0.9811909999999999 2.993952 -0.187122 3.79042 -1.264273a3.320216 3.320216 0 0 0 0.374244 -4.279816 60.927403 60.927403 0 0 0 -7.321748 -7.4369000000000005Z" stroke-width="2.04"></path><path fill="#ffffff" stroke="#00034a" stroke-miterlimit="10" d="M77.962702 65.032092a115.41589 115.41589 0 0 0 3.74244 3.1330940000000003 101.170628 101.170628 0 0 0 -3.0395329999999996 3.836001 62.08612 62.08612 0 0 0 -5.707221 8.725163 3.3681959999999997 3.3681959999999997 0 0 0 1.216293 4.114285000000001c1.00758 0.890029 2.550137 1.777659 3.9775419999999997 0.467805a57.213751 57.213751 0 0 0 6.733993 -7.811144 84.775862 84.775862 0 0 0 5.145855 -7.578441 3.507338 3.507338 0 0 0 -0.513386 -5.121865 87.532313 87.532313 0 0 0 -6.54927 -6.407729 58.281306 58.281306 0 0 0 -8.091827 -6.2925770000000005c-1.6385170000000002 -1.00758 -2.993952 0.187122 -3.79042 1.240283a3.320216 3.320216 0 0 0 -0.374244 4.279816 62.35001 62.35001 0 0 0 7.2521770000000005 7.41291Z" stroke-width="2.04"></path><path fill="#e29269" stroke="#00034a" stroke-miterlimit="10" d="M65.567069 20.943270000000002a3.67047 3.67047 0 1 0 0 -7.345738 3.67047 3.67047 0 0 0 0 7.343339Z" stroke-width="2.04"></path><path fill="#e29269" stroke="#00034a" stroke-miterlimit="10" d="M51.813601999999996 15.444761999999999a4.58209 4.58209 0 1 0 0 -9.166579 4.58209 4.58209 0 0 0 0 9.166579Z" stroke-width="2.04"></path></svg>