<svg xmlns="http://www.w3.org/2000/svg" viewBox="0 0 68 68" id="scholarship"><path d="M18.4 26.2v-1.9c0-.7-.5-1.3-1.1-1.6v-3.4l3.9 1.7v7.4c0 .3.3.5.5.5 3.1 0 6 1.2 8.2 3.5.1.1.2.2.4.2s.3-.1.4-.2c2.2-2.3 5.1-3.5 8.2-3.5.3 0 .5-.2.5-.5V21l7.6-3.3c.2-.1.3-.3.3-.5s-.1-.4-.3-.5l-16.5-7c-.1-.1-.3-.1-.4 0l-16.5 7.1c-.2.1-.3.3-.3.5s.1.4.3.5l2.7 1.2v3.9c-.7.2-1.1.8-1.1 1.6v1.9c0 .3.2.5.5.5H18c.2-.2.4-.4.4-.7zm20 1.7c-3 .1-5.9 1.4-8.1 3.5-2.2-2.1-5-3.3-8.1-3.5v-6.5c.1 0 8.4 3.6 7.9 3.4.1.1.3.1.4 0l7.9-3.4v6.5zm-8.1-17.2 15.2 6.6-15.2 6.6c-20.8-9-13.6-5.9-15.2-6.6l15.2-6.6zm-12.9 15h-1.3v-1.4c0-.4.3-.6.6-.6.4 0 .6.3.6.6v1.4zM16.7 37c-.3 0-.5.2-.5.5s.2.5.5.5h27.1c.3 0 .5-.2.5-.5s-.2-.5-.5-.5H16.7zm0 6.7h27.1c.3 0 .5-.2.5-.5s-.2-.5-.5-.5H16.7c-.3 0-.5.2-.5.5s.2.5.5.5zM43 49c0-.3-.2-.5-.5-.5H16.7c-.3 0-.5.2-.5.5s.2.5.5.5h25.8c.3 0 .5-.2.5-.5z"></path><path d="M54.2 43.4c-.6 0-1.2.1-1.8.2V16h11.7c.3 0 .5-.2.5-.5V7.7c0-3.7-3-6.6-6.6-6.6H14.8c-3.7 0-6.6 3-6.6 6.6v47.5c-4.9.2-6.1-.4-6.1.5V58c0 3.6 3 6.6 6.6 6.6h37c.4 0 .8 0 1.1-.1.1 0 .1 0 .1-.1 2 1.5 4.5 2.5 7.2 2.5 6.5 0 11.8-5.3 11.8-11.8s-5.3-11.7-11.7-11.7zm9.4-35.7V15H52.3V7.7c0-2.9 2.2-5.5 5.6-5.6 3.2 0 5.7 2.5 5.7 5.6zM8.7 63.6c-3.1 0-5.6-2.5-5.6-5.6v-1.8h36V58c0 2.4 1.3 4.5 3.1 5.6H8.7zm37 0c-3.1 0-5.6-2.5-5.6-5.6v-2.3c0-.3-.2-.5-.5-.5H9.2V7.7c0-3.1 2.5-5.6 5.6-5.6h39.7c-1.9 1.1-3.1 3.3-3.1 5.6v36c-5.1 1.3-8.9 5.9-8.9 11.4 0 3.3 1.4 6.3 3.6 8.4-.2.1-.3.1-.4.1zm8.5 2.3c-5.9 0-10.8-4.8-10.8-10.8 0-5.9 4.8-10.8 10.8-10.8S65 49.1 65 55.1c-.1 6-4.9 10.8-10.8 10.8z"></path><path d="M55.2 50v-.2c0-.6-.4-1-1-1s-1 .4-1 1v.2c-2.1.7-3.1 3.5-1 5.5.5.5 1.2.7 2 .6.8 0 1.4.7 1.2 1.5-.1.4-.4.7-.8.8-.8.2-1.5-.4-1.5-1.1v-.2h-2v.2c0 1.4.9 2.6 2.2 3v.2c0 .6.4 1 1 1s1-.4 1-1v-.2c2.1-.7 3.1-3.5 1-5.5-.5-.5-1.2-.7-2-.6-.8 0-1.4-.7-1.2-1.5.1-.4.4-.7.8-.8.8-.2 1.5.4 1.5 1.1v.2h2V53c-.1-1.3-.9-2.6-2.2-3z"></path></svg>