<svg xmlns="http://www.w3.org/2000/svg" fill="none" viewBox="-1.02 -1.02 98 98" height="98" width="98"><path fill="#00034a" stroke="#00034a" stroke-miterlimit="10" d="M20.070034 81.304509c0.290279 1.6361180000000002 2.115918 4.8699699999999995 4.1046890000000005 4.8699699999999995 1.237884 0 2.336626 -1.2858640000000001 2.61491 -4.670853 3.3873879999999996 -0.32626400000000005 4.670853 -1.3770259999999999 4.670853 -2.61491 0 -1.8184420000000001 -3.344206 -3.5913030000000004 -4.836384 -3.8815820000000003 -0.28787999999999997 -1.643315 -2.11112 -4.8699699999999995 -4.107088 -4.8699699999999995 -1.237884 0 -2.336626 1.2618740000000002 -2.61491 4.670853 -3.45456 0.32626400000000005 -4.670853 1.3770259999999999 -4.670853 2.61491 0 1.8184420000000001 3.3466050000000003 3.5913030000000004 4.838782999999999 3.8815820000000003Z" stroke-width="2.04"></path><path fill="#00034a" stroke="#00034a" stroke-miterlimit="10" d="M67.299147 11.464821c-2.06314 0 -3.737642 1.672103 -3.737642 3.735243 0 2.307838 2.787638 5.4289369999999995 5.114668 5.4289369999999995 2.06314 0 3.737642 -1.672103 3.737642 -3.735243 0 -2.307838 -2.787638 -5.4289369999999995 -5.114668 -5.4289369999999995Z" stroke-width="2.04"></path><path fill="#00034a" stroke="#00034a" stroke-miterlimit="10" d="M80.21776200000001 32.84231c0.34785499999999997 2.334227 2.56693 6.107854 5.390553 6.107854 1.518567 0 2.7780419999999997 -1.564148 3.200266 -5.767196 4.224639 -0.422224 5.767196 -1.6816989999999998 5.767196 -3.200266 0 -2.1183170000000002 -4.119083 -3.812011 -5.891944 -4.215043 -0.345456 -2.339025 -2.56693 -6.107854 -5.392952 -6.107854 -1.516168 0 -2.7780419999999997 1.5401580000000001 -3.197867 5.767196 -4.227038 0.419825 -5.767196 1.6793 -5.767196 3.197867 0 2.1183170000000002 4.119083 3.81441 5.891944 4.215043Z" stroke-width="2.04"></path><path fill="#e29269" stroke="#00034a" stroke-miterlimit="10" d="M92.25594400000001 28.624868000000003c0 -1.516168 -1.5401580000000001 -2.7780419999999997 -5.764797 -3.197867 -0.422224 -4.227038 -1.6816989999999998 -5.767196 -3.200266 -5.767196 -1.516168 0 -2.7780419999999997 1.5401580000000001 -3.197867 5.767196 -4.227038 0.419825 -5.767196 1.6793 -5.767196 3.197867s1.5401580000000001 2.7780419999999997 5.767196 3.200266c0.419825 4.203048 1.6793 5.764797 3.197867 5.764797s2.7780419999999997 -1.564148 3.200266 -5.764797c4.224639 -0.422224 5.767196 -1.6816989999999998 5.767196 -3.200266Z" stroke-width="2.04"></path><path fill="#e29269" stroke="#00034a" stroke-miterlimit="10" d="M29.800378000000002 77.422927c0 -1.237884 -1.283465 -2.334227 -4.668454 -2.61491 -0.32866300000000004 -3.47855 -1.3770259999999999 -4.668454 -2.61491 -4.668454 -1.237884 0 -2.336626 1.2594750000000001 -2.61491 4.668454 -3.45456 0.32626400000000005 -4.670853 1.3770259999999999 -4.670853 2.61491 0 1.237884 1.283465 2.334227 4.670853 2.61491 0.32626400000000005 3.45456 1.3770259999999999 4.670853 2.61491 4.670853 1.237884 0 2.334227 -1.2858640000000001 2.61491 -4.670853 3.38259 -0.32626400000000005 4.668454 -1.3770259999999999 4.668454 -2.61491Z" stroke-width="2.04"></path><path fill="#00034a" stroke="#00034a" stroke-miterlimit="10" d="M44.525439999999996 11.414442c3.540924 -0.098359 6.362148 0.21351099999999998 7.4321019999999995 1.240283 1.163515 0.558967 2.8788 2.8788 3.466555 4.035118 1.5665470000000001 3.0803160000000003 2.7300619999999998 9.02024 3.648879 14.154100000000001 1.216293 6.772377 2.4301869999999997 14.967361 0.537376 16.881763 -1.70329 3.40658 -15.876582 6.350153 -24.258688 7.82074 -8.382106 1.470587 -22.788101 3.620091 -25.496572 0.93561 -1.235485 -0.578159 -3.008346 -3.041932 -3.5985 -4.2582249999999995 -1.516168 -3.1187 -2.643698 -8.859507 -3.5385250000000004 -13.861422C1.504173 31.590031999999997 0.28787999999999997 23.395048000000003 2.180691 21.480646 2.8788 19.986069 5.9615149999999995 18.585053 9.88388 17.371159c-0.35025399999999995 -3.128296 -0.23270300000000002 -6.652427 1.6816989999999998 -7.79675 1.098742 -1.2858640000000001 7.89271 -3.3394079999999997 13.472783999999999 -4.34219 5.580074000000001 -1.00758 12.561164 -1.2618740000000002 14.010159999999999 -0.515785 2.47097 0.453411 4.759616 4.596484 5.474518 6.698008Z" stroke-width="2.04"></path><path fill="#e29269" stroke="#00034a" stroke-miterlimit="10" d="M51.957542000000004 12.654725000000001c-1.189904 -1.144323 -4.5533019999999995 -1.4010159999999998 -8.66039 -1.189904 -0.772478 -3.176276 -2.079933 -6.350153 -4.251028 -6.748387 -1.446597 -0.746089 -8.427687 -0.489396 -14.010159999999999 0.513386 -5.575276 1.00758 -12.369244 3.058725 -13.467986 4.34219 -1.9144020000000002 1.146722 -2.031953 4.670853 -1.6793 7.799149 -3.9247639999999997 1.213894 -7.0050799999999995 2.61491 -7.7055880000000005 4.109487000000001 -1.892811 1.9144020000000002 -0.676518 10.109386 0.537376 16.881763 1.213894 6.769978 2.847613 14.895391 5.299391 16.039714 2.708471 2.6868800000000004 17.114466 0.537376 25.496572 -0.93561 8.382106 -1.470587 22.552999 -4.411761 24.258688 -7.82074 1.8904120000000002 -1.9144020000000002 0.676518 -10.109386 -0.537376 -16.879364 -1.213894 -6.772377 -2.850012 -14.945770000000001 -5.2778 -16.111684Z" stroke-width="2.04"></path><path stroke="#00034a" stroke-linecap="round" stroke-miterlimit="10" d="M18.896923 15.293625s2.6389 -0.606947 7.962281 -1.5401580000000001c5.3233809999999995 -0.93561 8.031851999999999 -1.2858640000000001 8.031851999999999 -1.2858640000000001" stroke-width="2.04"></path><path stroke="#00034a" stroke-linecap="round" stroke-miterlimit="10" d="M42.642224999999996 19.496673s1.026772 -0.23270300000000002 3.128296 -0.606947c2.101524 -0.374244 3.152286 -0.513386 3.152286 -0.513386" stroke-width="2.04"></path><path fill="#ffffff" stroke="#00034a" stroke-miterlimit="10" d="M29.800378000000002 43.124424a10.646761999999999 10.646761999999999 0 1 0 0 -21.293523999999998 10.646761999999999 10.646761999999999 0 0 0 0 21.293523999999998Z" stroke-width="2.04"></path><path fill="#00034a" stroke="#00034a" stroke-miterlimit="10" d="M88.144058 44.556627c-4.4213569999999995 -2.706072 -14.458773 -4.061507 -20.82332 -4.72603 -7.84473 -0.81566 -21.363094999999998 -1.6793 -23.790883 2.034352 -2.219075 1.77526 -3.5025399999999998 12.2349 -4.39017 21.012841 -0.88763 8.78034 -1.77526 19.168010000000002 0 21.363094999999998 0.659725 1.6673049999999998 3.500141 3.812011 5.06189 4.625272 4.70204 2.4541769999999996 14.086928 3.7232480000000003 20.151600000000002 4.337392 7.84473 0.794069 21.363094999999998 1.6793 23.793281999999998 -2.031953 2.334227 -1.77526 3.52653 -12.2349 4.411761 -21.012841 0.88763 -8.78034 1.79925 -19.168010000000002 -0.02399 -21.339105 -0.5685629999999999 -1.470587 -3.032336 -3.432969 -4.39017 -4.263023Z" stroke-width="2.04"></path><path fill="#ffffff" stroke="#00034a" stroke-miterlimit="10" d="M90.2024 46.674943999999996c-1.612128 -4.1574670000000005 -15.036932 -6.0238890000000005 -22.881662000000002 -6.8419479999999995 -7.84473 -0.81566 -21.363094999999998 -1.6793 -23.790883 2.031953 -2.219075 1.77526 -3.5025399999999998 12.2349 -4.39017 21.012841 -0.88763 8.78034 -1.77526 19.168010000000002 0 21.363094999999998 1.6337190000000001 4.133477 15.036932 6.0238890000000005 22.881662000000002 6.817958 7.84473 0.7916700000000001 21.363094999999998 1.6793 23.790883 -2.031953 2.336626 -1.77526 3.52653 -12.2349 4.41416 -21.012841 0.88763 -8.78034 1.79925 -19.168010000000002 -0.02399 -21.339105Z" stroke-width="2.04"></path><path fill="#e29269" stroke="#00034a" stroke-miterlimit="10" d="M84.646316 51.717642c-1.355435 -2.545339 -11.908636000000001 -3.946355 -18.071667 -4.670853 -6.16543 -0.724498 -16.764212 -1.425006 -18.678614 0.81566 -1.72728 1.029171 -2.521349 7.379324 -3.082715 12.633134 -0.558967 5.25381 -1.026772 11.673534 0.443815 13.02657 1.355435 2.5477380000000003 11.908636000000001 3.9487539999999997 18.071667 4.670853 6.16543 0.724498 16.764212 1.4010159999999998 18.678614 -0.81566 1.70329 -1.029171 2.521349 -7.379324 3.058725 -12.654725000000001 0.537376 -5.2778 1.050762 -11.651943000000001 -0.419825 -13.004979Z" stroke-width="2.04"></path><path fill="#ffffff" stroke="#00034a" stroke-miterlimit="10" d="M75.11988699999999 61.15051a27.758829 27.758829 0 0 0 -3.6656720000000003 -5.954318000000001 2.8955930000000003 2.8955930000000003 0 0 0 -3.7112529999999997 -0.374244 26.405793 26.405793 0 0 0 -4.670853 5.066688l-0.537376 0.748488a14.787436 14.787436 0 0 0 -1.6097290000000002 -2.336626 2.1734940000000003 2.1734940000000003 0 0 0 -2.826022 -0.280683 20.6314 20.6314 0 0 0 -3.57451 3.783223 15.78542 15.78542 0 0 0 -2.706072 5.136259 2.055943 2.055943 0 0 0 1.2594750000000001 2.195085c1.79925 1.0051809999999999 19.520663000000003 2.8955930000000003 22.135573 2.053544a2.71087 2.71087 0 0 0 2.334227 -2.4949600000000003s0.256693 -1.79925 -2.427788 -7.5424560000000005Z" stroke-width="2.04"></path><path fill="#e29269" stroke="#00034a" stroke-miterlimit="10" d="M67.299147 18.935306999999998a3.735243 3.735243 0 1 0 0 -7.470486 3.735243 3.735243 0 0 0 0 7.470486Z" stroke-width="2.04"></path></svg>