<svg xmlns="http://www.w3.org/2000/svg" fill="none" viewBox="-1.02 -1.02 98 98" height="98" width="98"><path fill="#00034a" stroke="#00034a" stroke-miterlimit="10" d="M76.77759599999999 60.617932c5.366563 0 11.831868000000002 0.115152 13.05056 1.381824 1.228288 0.64773 2.794835 2.2046810000000003 3.3586 3.490545 1.29546 2.943573 1.48738 8.895492 1.48738 12.741089 0 4.850777999999999 -0.39823400000000003 13.168111 -2.739658 14.432384 -0.940408 1.0867470000000001 -69.000038 3.47855 -82.94542500000001 -0.8612409999999999 -2.4877629999999997 -0.774877 -4.72603 -2.73486 -5.282598 -5.320982 -2.8356179999999997 -5.388154 -4.0783 -81.24933200000001 0.750887 -83.732297C5.673635000000001 1.48738 12.162930000000001 1.36743 17.529493000000002 1.36743c5.364164000000001 0 11.829469 0.117551 12.954600000000001 1.357834 1.2762680000000002 0.6501290000000001 2.862007 2.27905 3.4161759999999997 3.610495 1.245081 2.991553 1.4298039999999999 8.90029 1.4298039999999999 12.693109000000002v2.08713h1.947988c5.366563 0 11.947020000000002 0.11995 12.954600000000001 1.336243 1.1515199999999999 0.587755 2.689279 2.079933 3.26264 3.2674380000000003 1.384223 2.864406 1.585739 9.094609 1.585739 13.036166v2.08713h1.782457c5.366563 0 11.831868000000002 0.11995 13.05056 1.384223 1.053161 0.534977 2.5237480000000003 1.921599 3.1187 2.9867550000000005 1.51137 2.718067 1.72728 9.240948 1.72728 13.314449999999999v2.08713h2.017559Z" stroke-width="2.04"></path><path fill="#e29269" stroke="#00034a" stroke-miterlimit="10" d="M89.828156 61.999756000000005c-1.218692 -1.266672 -7.683997 -1.381824 -13.05056 -1.381824h-4.121482l0 -3.9823399999999998c0 -4.850777999999999 -0.304673 -13.168111 -2.742057 -14.408394000000001 -1.218692 -1.266672 -7.683997 -1.384223 -13.05056 -1.384223h-3.8863800000000004l0 -3.9823399999999998c0 -4.8483789999999996 -0.307072 -13.165712000000001 -2.742057 -14.408394000000001 -1.00758 -1.218692 -7.590436 -1.333844 -12.954600000000001 -1.333844h-4.05431l0 -3.9823399999999998c0 -4.850777999999999 -0.304673 -13.168111 -2.742057 -14.410793C29.358962 1.48738 22.893656999999997 1.36743 17.529493000000002 1.36743c-5.366563 0 -11.855858000000001 0.117551 -13.07455 1.381824C-0.367047 5.232219 0.873236 81.093397 3.708854 86.48395c0.146339 0.683715 0.400633 1.338642 0.750887 1.9431900000000002 2.341424 6.302173 84.339244 3.5385250000000004 85.370814 2.343823 2.341424 -1.264273 2.739658 -9.581606 2.739658 -14.432384 0 -4.8483789999999996 -0.304673 -13.05056 -2.739658 -14.336424000000001Z" stroke-width="2.04"></path></svg>