<svg xmlns="http://www.w3.org/2000/svg" fill="none" viewBox="-1.02 -1.02 98 98" height="98" width="98"><path fill="#00034a" stroke="#00034a" stroke-linecap="round" stroke-linejoin="round" stroke-miterlimit="10" d="M11.543988 60.135733c-2.696476 0 -4.881965 2.18309 -4.881965 4.879566 0 3.1618820000000003 3.732844 6.172627 6.7987660000000005 6.172627 2.694077 0 4.879566 -2.18309 4.879566 -4.879566 0 -3.159483 -3.732844 -6.172627 -6.796367000000001 -6.172627Z" stroke-width="2.04"></path><path fill="#00034a" stroke="#00034a" stroke-linecap="round" stroke-linejoin="round" stroke-miterlimit="10" d="M82.04580000000001 16.996915c3.447363 0 7.062656 3.701657 7.062656 7.2521770000000005a5.551286 5.551286 0 0 1 -5.551286 5.551286c-3.4497619999999998 0 -7.065055 -3.699258 -7.065055 -7.2521770000000005A5.551286 5.551286 0 0 1 82.04580000000001 16.996915Z" stroke-width="2.04"></path><path fill="#00034a" stroke="#00034a" stroke-linecap="round" stroke-linejoin="round" stroke-miterlimit="10" d="M61.294450000000005 11.769494c0 2.42299 3.04673 4.589287000000001 5.3857550000000005 4.589287000000001 2.017559 0 3.6536769999999996 -1.6361180000000002 3.6536769999999996 -3.656076 0 -2.42299 -3.0443309999999997 -4.586888 -5.383356000000001 -4.586888 -2.017559 0 -3.6536769999999996 1.6361180000000002 -3.6536769999999996 3.6536769999999996Z" stroke-width="2.04"></path><path fill="#00034a" stroke="#00034a" stroke-linecap="round" stroke-linejoin="round" stroke-miterlimit="10" d="M43.808139 2.1183170000000002a3.28663 3.28663 0 0 0 -2.0103619999999998 1.024373 15.403979000000001 15.403979000000001 0 0 0 -1.141924 1.158717C33.410873 0.525381 25.307050999999998 0.4798 17.858156 3.859991c-4.095093 1.849629 -11.172143 6.381340000000001 -11.335275 10.569994 0 3.754435 13.549551999999998 9.168978000000001 15.591101 6.7195990000000005A13.091343 13.091343 0 0 1 26.484959999999997 17.08088a9.483247 9.483247 0 0 1 5.251411 -0.7197c0.27828400000000003 0.151137 0.546972 0.31906700000000005 0.808463 0.498992a13.184904000000001 13.184904000000001 0 0 0 -0.926014 2.312636 3.3106199999999997 3.3106199999999997 0 0 0 1.413011 4.001532c2.444581 2.408596 9.792717999999999 2.399 12.443613000000001 2.3030399999999998a32.24256 32.24256 0 0 0 8.581223 -1.22349 4.301407 4.301407 0 0 0 2.727663 -4.397367 32.388899 32.388899 0 0 0 -2.54294 -8.278949c-0.34785499999999997 -0.9955849999999999 -2.845214 -6.4773000000000005 -5.042698 -7.866321 -1.105939 -0.724498 -4.0207239999999995 -1.756068 -5.390553 -1.590537Z" stroke-width="2.04"></path><path fill="#00034a" stroke="#00034a" stroke-linecap="round" stroke-linejoin="round" stroke-miterlimit="10" d="M63.561505000000004 39.480343000000005c9.06822 1.062757 19.870917 3.5385250000000004 21.744536 5.388154 2.4349849999999997 1.297859 5.337775000000001 3.737642 6.112652 6.448512 0.9883879999999999 3.466555 0.50379 8.559632 0 12.777073999999999 -0.741291 6.175026 -2.127913 16.423554 -6.429320000000001 17.531892 -1.249879 0.786872 -5.4601239999999995 0.9715950000000001 -10.502822 0.9715950000000001l0.16073300000000001 6.3141680000000004c1.688896 0.6957099999999999 2.499758 1.413011 2.315035 3.008346 -0.187122 1.5953350000000002 -1.134727 2.312636 -2.869204 2.312636 -0.878034 0.04798 -25.026368 -2.8907950000000002 -25.628517 -3.053927 -1.674502 -0.515785 -6.155834 -3.943956 -5.94952 -5.786388 0.184723 -1.664906 1.132328 -2.079933 2.960366 -2.312636l1.089146 -4.12628a28.528907999999998 28.528907999999998 0 0 1 -5.803181 -2.461374c-2.166297 -1.122732 -5.049895 -3.5841060000000002 -5.786388 -5.959116 -1.2618740000000002 -4.059108 -0.549371 -10.877066 0 -15.463954 0.738892 -6.199016 1.87122 -14.338823000000001 6.175026 -15.449560000000002 2.243065 -1.3434400000000002 13.345637 -1.204298 22.413857 -0.13914200000000002Z" stroke-width="2.04"></path><path fill="#e29269" stroke="#00034a" stroke-linecap="round" stroke-linejoin="round" stroke-miterlimit="10" d="M85.306041 44.868497c-1.8736190000000001 -1.849629 -12.676316 -4.325397 -21.742137000000003 -5.388154 -9.06822 -1.065156 -20.170792 -1.204298 -22.413857 0.13914200000000002 -4.301407 1.108338 -5.436134 9.250544 -6.175026 15.449560000000002 -0.741291 6.199016 -1.782457 16.469135 2.149504 18.505886a28.52411 28.52411 0 0 0 9.970244 3.3753930000000003l-1.6193250000000001 6.1294450000000005c-1.828038 0.23270300000000002 -2.775643 0.64773 -2.960366 2.312636 -0.184723 1.6673049999999998 0.508588 2.315035 2.312636 2.869204 0.59975 0.16073300000000001 24.748084000000002 3.099508 25.628517 3.053927 1.734477 0 2.6820820000000003 -0.7197 2.8668050000000003 -2.315035 0.184723 -1.5953350000000002 -0.6237400000000001 -2.312636 -2.312636 -3.005947l-0.16073300000000001 -6.3141680000000004c5.040299 0 9.250544 -0.184723 10.500423 -0.9715950000000001 4.301407 -1.110737 5.690428 -11.356866 6.429320000000001 -17.531892 0.741291 -6.177425 1.434602 -14.22607 -2.473369 -16.308402Z" stroke-width="2.04"></path><path fill="#ffffff" stroke="#00034a" stroke-linecap="round" stroke-linejoin="round" stroke-miterlimit="10" d="M76.492115 72.44020400000001c3.2146600000000003 -0.7628820000000001 4.025522 -6.522881 4.625272 -10.848278 0.602149 -4.325397 1.089146 -10.130977 -1.87122 -11.563180000000001 -1.3890209999999998 -1.31945 -9.507237 -3.123498 -16.19325 -3.91037 -6.683614 -0.786872 -15.125695 -0.9715950000000001 -16.793 0 -3.2146600000000003 0.7628820000000001 -4.023123 6.50129 -4.625272 10.848278 -0.59975 4.349387 -1.0867470000000001 10.106987 1.8736190000000001 11.563180000000001 1.410612 1.29546 9.507237 3.1019069999999997 16.329993 3.91037 6.8251550000000005 0.808463 14.92178 0.926014 16.653858 0Z" stroke-width="2.04"></path><path stroke="#00034a" stroke-linecap="round" stroke-linejoin="round" stroke-miterlimit="10" d="M51.050720000000005 83.079769a29.066284 29.066284 0 0 1 7.307353999999999 0.302274c2.44698 0.17032899999999998 4.862773000000001 0.6453310000000001 7.1946010000000005 1.410612" stroke-width="2.04"></path><path fill="#e29269" stroke="#00034a" stroke-linecap="round" stroke-linejoin="round" stroke-miterlimit="10" d="M64.95052600000001 15.425569999999999a3.6536769999999996 3.6536769999999996 0 1 0 0 -7.309753000000001 3.6536769999999996 3.6536769999999996 0 0 0 0 7.309753000000001Z" stroke-width="2.04"></path><path fill="#e29269" stroke="#00034a" stroke-linecap="round" stroke-linejoin="round" stroke-miterlimit="10" d="M11.543988 69.89726399999999a4.879566 4.879566 0 1 0 0 -9.76393 4.879566 4.879566 0 0 0 0 9.76393Z" stroke-width="2.04"></path><path fill="#e29269" stroke="#00034a" stroke-linecap="round" stroke-linejoin="round" stroke-miterlimit="10" d="M82.04580000000001 28.099487a5.551286 5.551286 0 1 0 0 -11.102572 5.551286 5.551286 0 0 0 0 11.102572Z" stroke-width="2.04"></path><path fill="#00034a" stroke="#00034a" stroke-linecap="round" stroke-linejoin="round" stroke-miterlimit="10" d="M7.10104 40.382366999999995a34.125775 34.125775 0 0 1 -2.54294 -8.281348 4.349387 4.349387 0 0 1 2.7300619999999998 -4.301407 34.682343 34.682343 0 0 1 8.602814 -1.2474800000000001c7.724780000000001 -0.280683 9.252943 1.2474800000000001 9.252943 1.2474800000000001 1.5401580000000001 0.940408 4.272619 3.171478 4.917949999999999 4.982723 0.254294 0.705306 0.256693 1.477784 0.009596 2.187888a13.386420000000001 13.386420000000001 0 0 1 -0.21351099999999998 0.6573260000000001 9.437666 9.437666 0 0 0 4.999516 -0.750887 13.088944000000001 13.088944000000001 0 0 0 4.440549 -4.071103c0.926014 -1.134727 4.330195 0.17512699999999998 6.558866 1.03157l0.635735 0.2399c2.065539 0.7772760000000001 8.744355 5.105072000000001 8.744355 7.657608000000001 -0.184723 4.1622650000000005 -7.240182 8.720365 -11.332876 10.569994 -8.953068 4.047113 -16.562696 3.308221 -22.368275999999998 -1.062757a15.048926999999999 15.048926999999999 0 0 1 -1.640916 1.756068 3.284231 3.284231 0 0 1 -4.210245 0.508588c-3.8384 -2.382207 -7.019474000000001 -7.021873 -8.583622 -11.124163Z" stroke-width="2.04"></path><path fill="#ffffff" stroke="#00034a" stroke-linecap="round" stroke-linejoin="round" stroke-miterlimit="10" d="M46.008022000000004 2.6341020000000004a3.28663 3.28663 0 0 0 -4.210245 0.508588 15.40158 15.40158 0 0 0 -1.664906 1.780058C34.396862 0.55177 26.787234 -0.187122 17.858156 3.8623900000000004c-4.095093 1.849629 -11.172143 6.381340000000001 -11.335275 10.569994 0 1.5953350000000002 3.053927 3.5625150000000003 5.20583 4.370978 2.149504 0.8108620000000001 6.151036 2.521349 7.192202000000001 1.27147A13.091343 13.091343 0 0 1 23.294290000000004 16.006128a9.483247 9.483247 0 0 1 9.250544 0.8540439999999999 13.184904000000001 13.184904000000001 0 0 0 -0.926014 2.312636 3.3106199999999997 3.3106199999999997 0 0 0 1.413011 4.001532s1.5257640000000001 1.504173 9.250544 1.225889a32.24256 32.24256 0 0 0 8.581223 -1.22349 4.301407 4.301407 0 0 0 2.7300619999999998 -4.394968 32.388899 32.388899 0 0 0 -2.54294 -8.281348c-0.34785499999999997 -0.9955849999999999 -2.845214 -6.4773000000000005 -5.042698 -7.8639220000000005Z" stroke-width="2.04"></path><path fill="#ffffff" stroke="#00034a" stroke-linecap="round" stroke-linejoin="round" stroke-miterlimit="10" d="M12.143738 48.222299a3.28663 3.28663 0 0 0 4.210245 -0.508588c0.592553 -0.539775 1.141924 -1.12753 1.643315 -1.756068 5.80558 4.370978 13.415208 5.10987 22.365877 1.062757 4.095093 -1.849629 11.148153 -6.40533 11.332876 -10.569994 0 -1.6193250000000001 -3.0515280000000002 -3.5625150000000003 -5.203431 -4.373377 -2.151903 -0.808463 -6.175026 -2.5189500000000002 -7.192202000000001 -1.27147a13.088944000000001 13.088944000000001 0 0 1 -4.442948 4.071103 9.437666 9.437666 0 0 1 -9.250544 -0.878034c0.379042 -0.741291 0.6885129999999999 -1.516168 0.9236150000000001 -2.312636a3.28663 3.28663 0 0 0 -1.386622 -3.8863800000000004s-1.5257640000000001 -1.5257640000000001 -9.252943 -1.2474800000000001a34.682343 34.682343 0 0 0 -8.602814 1.2474800000000001A4.349387 4.349387 0 0 0 4.5581 32.098620000000004a34.156962 34.156962 0 0 0 2.54294 8.281348c0.371845 0.9715950000000001 2.845214 6.4773000000000005 5.042698 7.839931999999999Z" stroke-width="2.04"></path></svg>