<svg xmlns="http://www.w3.org/2000/svg" enable-background="new 0 0 75 75" viewBox="0 0 75 75"><path d="M6.5630674,30.8894691c2.6603146,2.0338135,5.0304384,3.4800568,7.7487183,5.593811
		c-0.0526733,0.0801392-0.1182251,0.1473389-0.1583862,0.2391968c-1.6475058,2.8667755-3.17379,5.1941299-4.8017578,7.918457
		c-0.8309813,1.408123-0.0889025,3.231514,1.5024414,3.6035156l-0.0009766,0.003418
		c1.0489502,0.2536011,2.1031494,0.501709,3.1513672,0.7417603c-0.0063009,11.3366928,0.0120153,10.0871239-0.0117188,10.6903687
		c-0.0258789,0.6577148-0.0551758,1.4033203,0.3193359,2.0957031c0.3701172,0.6831055,0.8999023,0.8642578,1.3110352,0.9443359
		c0.2036886,0.0423355,23.3831291,6.5492668,24.5268555,6.9492226c2.8267059,0.9863815,3.5561104,0.9788818,7.730957-2.0463867
		c1.6922264-1.2247543,8.5920525-5.6805229,10.9506836-7.2060585c1.3901367-0.9023438,2.2197266-2.4335938,2.2197266-4.0961914
		V46.2236366c4.0525856-2.1760445,6.2841454-3.5311584,7.1230431-4.0167847
		c1.1015625-0.6342773,1.3974609-0.8046875,1.253418-1.387207c-0.1212997-0.4908981-4.3633499-4.9815636-8.4448814-7.4626465
		c2.4188728-2.6422882,4.5120201-4.7487278,6.7510338-7.1403809c1.3214188-1.4258099,0.7329636-3.2222576-0.8300781-3.4306641
		l0.0004883-0.0039063c-2.2244873-0.3944702-7.8687706-1.3737183-13.2034264-2.1271362
		c-0.0609741-0.7272339-0.2443848-1.4014282-0.5776367-1.9377441c1.5120087-0.9783955,2.2532959-3.2239504,0.8328247-5.8692007
		c-0.4326172-0.8061523-0.9057617-1.3544922-1.4892578-1.7246094c-0.067749-0.0429077-0.1420288-0.0646362-0.2119141-0.1016235
		c-0.0428467-1.0166054-0.4830322-1.7950792-1.1630859-2.6444702c-3.9787827-4.9242887-9.6395798-4.3596015-11.8608398-1.1630864
		c-2.4528923-3.2219672-8.0265388-3.277739-11.7202148,1.3393559c-0.676199,0.827158-1.1330261,1.6249113-1.1746826,2.6539307
		c-2.3743019,1.2618074-3.6210861,5.9058065-0.8674927,7.692626c-0.6519775,0.8068237-0.9906616,1.7202759-1.0097046,2.6917725
		c-5.5186672,1.4756603-8.0837154,2.3850555-17.6898193,5.7868652l0.0009766,0.0029297
		C5.3061357,27.8971367,5.0370622,29.7121449,6.5630674,30.8894691z M46.9188423,33.2198524
		c0.4317627-0.0776978,0.8514404-0.2059937,1.2506104-0.3834839c4.1874352,0.5870132,6.526516,0.890255,9.6410522,1.3552246
		c-2.0574493,0.9877205-4.5968361,2.1735153-6.3684082,3.0020752l-6.6254883-1.5904541
		C45.741291,35.0572548,46.4768867,34.2117958,46.9188423,33.2198524z M29.8058662,38.3883095
		c-5.5774155-0.9704895-5.4246254-1.0048828-11.0264893-2.0305786c3.9951191-1.1574745,7.8462791-2.303154,12.2060547-3.5608521
		c0.1765137,0.0883179,0.3497314,0.1647949,0.5234985,0.2362671c0.5049248,1.4268341,1.6421852,2.6950531,3.3078003,3.2213135
		L29.8058662,38.3883095z M10.5332823,46.1160316c-0.1073313-0.477623-0.1079149-0.3948059,2.0224609-3.840332
		c0.4025049-0.6503448,2.4287882-3.9247704,2.9688721-4.9314575c1.6713343,0.1664124,25.6951866,4.721508,26.8568115,4.9420776
		c-1.4670944,2.4282684-3.1932869,5.2731895-5.4741211,9.0333252c-0.1914063,0.3149414-0.5727539,0.4873047-0.934082,0.4321289
		c-7.7735348-1.2236328-16.0441418-2.852108-24.7163086-4.949707C10.9147015,46.668663,10.6355028,46.5382004,10.5332823,46.1160316
		z M17.1739082,61.5877113c-1.5351648-0.4632721-1.416153-0.2929115-1.5429697-0.5258789
		c-0.2354527-0.436718-0.1264648-1.1367111-0.1264648-1.8208008v-9.902832
		c5.932065,1.3555222,13.2296228,2.7926979,20.237793,3.8955078c0.8974915,0.1391449,1.9399529-0.2991486,2.4472656-1.1362305
		c1.841156-3.0318108,3.5442657-5.8324852,5.237915-8.6365356c-0.0480614,2.1627083-0.0132675,10.8183975-0.0250244,22.3840981
		c0,0.9573059,0.2563934,2.4799728-0.5309448,2.8979492c-0.675293,0.0477905-1.4661865-0.2242432-2.2268677-0.4902344
		C39.6739769,67.9147873,40.6547318,68.1958237,17.1739082,61.5877113z M59.5513496,56.3206215
		c0,1.152832-0.5742188,2.2138672-1.5351563,2.8374023c-12.5534363,8.1205406-11.6532555,7.794796-13.1108398,8.6909218
		c0.0202293-0.1963272-0.0063019,2.4903946,0.0115356-24.0293617c5.0241241,4.2164345,5.6651268,4.6321526,5.5650635,4.5567017
		c2.9565048,2.2292519,2.8143158,1.804306,5.3563232,0.5449219c0.9510422-0.470768,2.285305-1.1500816,3.7130737-1.9003906
		V56.3206215z M67.5371857,40.8425941c-5.6696472,3.3436394-11.3135262,6.2838707-14.1935997,7.6156006
		c-1.2261162-0.4248199-7.1168098-5.4761734-8.3567505-6.5422974c0.1021881-0.0481377,13.7925644-6.5191231,15.2788696-7.2471313
		C62.7970161,36.2161331,65.5482101,38.6610413,67.5371857,40.8425941z M66.7193146,24.2805824
		c0.4395065,0.0867043,0.2154312,0.5921078-0.0825195,0.9130859c-2.4358521,2.6016731-4.5352249,4.7010708-7.004879,7.4213867
		c-0.0405273,0.0556641-0.0830078,0.0986328-0.1298828,0.1323242c-1.3804665-0.0673485-8.1235847-0.9788132-9.5724487-1.1798706
		c0.2198486-0.2437744,0.4235229-0.5019531,0.588562-0.7874146c0.6761475-1.1706543,0.7617188-2.8625488,0.2817383-4.2982178
		c1.6720428-0.7468643,2.5989075-2.4910736,2.8601685-4.3181152C59.1746712,22.9468269,66.0107193,24.1320057,66.7193146,24.2805824
		z M46.8145332,6.8201337c1.5469894,0.704257,3.54179,2.5516248,3.8896484,3.8727422
		c-2.110939,0.1880417-1.1471367,2.0417566-0.168457,1.5549927c1.5597839-0.767354,3.8191338,3.3691587,1.996582,5.0444326
		c-0.4353638,0.4005737-1.0787354,0.5488892-1.5809937,0.3798828c-0.1522598-2.643569-2.1879539-1.6219959-1.6670532-0.5883789
		c0.3984375,0.7890625,0.0986328,1.9042969-0.6416016,2.3867188c-0.6236534,0.4061203-0.3347282,1.378418,0.409668,1.378418
		c0.6550713,0,1.3955688-1.0341854,1.654541-1.6928101c0.5723686,0.1367893,0.7851105,0.0744724,0.8883057,0.0671387
		c0.6627197,0.5318604,0.9122925,2.3591309,0.2462158,4.0084839c-1.2237282,3.0265179-3.7595558,1.912962-3.8595581,1.939209
		c-0.1460571-0.4524536-0.4013672-0.8694458-0.7542114-1.1994629c-0.3022461-0.2827148-0.7768555-0.2675781-1.0600586,0.0356445
		c-0.2827148,0.3022461-0.2670898,0.7768555,0.0356445,1.0600586c0.6966705,0.6515179,0.4907265,1.8290653-0.3999023,2.1972656
		c-0.9105644,0.3763046-0.3509598,1.7685776,0.5722656,1.3867188c0.824585-0.3406982,1.4329834-1.0765991,1.6484375-1.9368896
		c0.7916603,0.1725788,1.0885391,0.1278,1.3164063,0.1152344c0.3907471,1.0512085,0.355896,2.3744507-0.1210938,3.2000732
		c-0.7421875,1.2841797-2.4384766,2.0200195-3.9345703,1.7143555c-0.4067383-0.0834885-0.8017578,0.1787109-0.8852539,0.5844727
		c-0.0830078,0.40625,0.1787109,0.8022461,0.5844727,0.8852539c0.072876,0.0148926,0.1470947,0.010498,0.2203369,0.0220337
		c-1.2801437,1.8392258-3.6668015,1.9892845-5.0655518,0.9266968l-0.020874-4.8206177
		c0.6415405-0.161375,0.4947929,0.6028442,1.2137451,0.6028442c0.1191406,0,0.2392578-0.0283203,0.3515625-0.0878906
		c1.0000076-0.5313778-0.0410652-2.131731-1.5718994-2.0375366l-0.0159912-3.7020874
		c0.3106689-0.9178181,1.5122948-1.1528568,2.1958008-0.5152588c0.3022461,0.2817383,0.7768555,0.2666016,1.0600586-0.0366211
		c0.2827148-0.3027344,0.2661133-0.7773438-0.0366211-1.0600586c-0.7759705-0.7233677-2.063015-1.0382862-3.2282104-0.4528198
		l-0.026062-6.0210571c0.0635376-0.08496,0.1158447-0.1791983,0.1390381-0.289794
		c0.0854492-0.4106445,0.4804688-0.777832,0.918457-0.8544922c0.4263306-0.0764771,0.911499,0.1245728,1.1581421,0.461792
		c0.0567589,0.7679701,0.5463791,2.072875,1.3154907,2.072875c0.644371,0,0.9936829-0.7689476,0.5566406-1.2529297
		c-0.5538902-0.6116486-0.5202408-1.5805769,0.0820313-2.2163076c0.284668-0.3007813,0.2719727-0.7753906-0.0283203-1.0605469
		c-0.3012695-0.2836914-0.7749023-0.2714844-1.0605469,0.0283203c-0.2197876,0.2318726-0.3925781,0.5025635-0.5348511,0.7877197
		c-0.7884445-0.4208975-1.712616-0.4724751-2.5561523-0.0067139l-0.0203857-4.7069092
		C40.4828186,6.9547725,43.5488319,5.3518934,46.8145332,6.8201337z M27.8755684,19.3438148
		c0.4088459,1.0019646,1.4078045,1.6447754,2.0258789,1.6447754c0.8846798,0,1.0336857-1.2750931,0.1733398-1.4794922
		c-0.9362106-0.2225418-1.2360706-1.4253101-0.5141602-2.0605469c0.3110352-0.2739258,0.3408203-0.7480469,0.0673828-1.0585938
		c-0.2739258-0.3105469-0.7470703-0.3413086-1.0585938-0.0673828c-0.4506836,0.3970947-0.7255249,0.9408569-0.8383179,1.5182495
		c-0.6668167,0.2055607-1.2625351,0.0104294-1.6690063-0.3639526c-1.8150616-1.6704254,0.4249268-5.8201857,1.996582-5.0444326
		c0.3720703,0.1850586,0.8217773,0.0332031,1.0048828-0.3388672c0.184082-0.3710938,0.0322266-0.8208008-0.3388672-1.0048828
		c-0.2590942-0.1282349-0.5446167-0.185791-0.8364868-0.2116699c0.1369476-0.5170517,0.4290466-0.9405384,0.7886353-1.380127
		c3.5241814-4.4033084,8.7281609-3.6038923,9.8531494-0.4625854l0.008728,2.0202637
		c-0.6906509-0.2580776-1.3365211-0.2954569-2.1265869,0.0129395c-0.1104736-0.3496704-0.277832-0.682251-0.5077515-0.9768677
		c-0.2548828-0.3261719-0.7255859-0.3852539-1.0527344-0.1298828c-0.3266602,0.2548828-0.3847656,0.7260742-0.1298828,1.0527344
		c0.4921875,0.6303711,0.4521484,1.6621094-0.0869141,2.2524414c-0.438839,0.4810343-0.0940361,1.2558594,0.5537109,1.2558594
		c0.6883469,0,1.1796417-1.1032801,1.3130493-1.7741699c0.6066818-0.5675583,1.5013695-0.5069942,2.0446167,0.0447388
		l0.0290527,6.720336c-0.9651184-0.4837437-1.9208183-0.4155979-2.6074219-0.0143433
		c-0.005249,0.0030518-0.0087891,0.0079346-0.0139771,0.0110474c-0.2824707-0.3577271-0.6537476-0.6425781-1.0875854-0.7952271
		c-0.3925781-0.1386719-0.8193359,0.0678711-0.956543,0.4584961c-0.1376953,0.390625,0.0678711,0.8188477,0.4584961,0.956543
		c0.2998047,0.1055908,0.536377,0.414856,0.6087036,0.7471313c-0.0302734,0.1591263-0.0298462,0.3216553-0.0163574,0.4833374
		c-0.0914307,0.2809448-0.3041382,0.5275879-0.5610962,0.6196289c-0.920208,0.3309517-0.4427376,1.7488785,0.5068359,1.4121094
		c0.9550781-0.3427734,1.6142578-1.3081055,1.6030273-2.3481445c-0.000061-0.0078735-0.0018921-0.0154419-0.0020752-0.0232544
		c0.2014809-0.3570919,0.6889-0.4024372,1.0709229-0.2990112c0.4718971,0.127079,0.7763977,0.4325371,1.0049438,0.6016235
		l0.0355835,8.2235107c-0.6271362-0.1459961-1.1474609-0.0369873-1.5209961,0.1235962
		c-0.7900391,0.3388672-1.3530273,1.105957-1.440918,1.6518555c-0.0715904,0.443861,0.2575607,0.8867188,0.7431641,0.8867188
		c0.3583984,0,0.6708984-0.2475586,0.7299805-0.6142578c0.0297852-0.0893555,0.2524414-0.4453125,0.6264648-0.5717773
		c0.2557373-0.0839844,0.546814-0.0454102,0.8691406,0.1130371l0.0131836,3.0431519
		c-1.4914207,1.3262367-3.9696655,1.0808907-5.2498779-0.7595215c0.0740356-0.0064087,0.1522217-0.0067139,0.2210693-0.0206909
		c0.4057617-0.0830078,0.6674805-0.4790039,0.5844727-0.8852539c-0.0830078-0.4057617-0.4804688-0.6650391-0.8852539-0.5844727
		c-1.2859039,0.2642021-5.3013744-2.3875141-4.9833374-4.7078247c0.7731514,0.1998672,1.5327644,0.1669922,2.2926636-0.1707764
		c0.2154064,0.5516663,0.804285,1.3981323,1.3962402,1.3981323c0.7293968,0,1.0299911-0.9421291,0.4326172-1.362793
		c-0.4902344-0.3457031-0.6831055-1.0942383-0.4204102-1.6337891c0.1811523-0.3725586,0.0263672-0.8212891-0.3461914-1.0024414
		c-0.3725586-0.1826172-0.8212891-0.0268555-1.0024414,0.3461914c-0.09729,0.1998901-0.1577148,0.4107666-0.2019653,0.6245117
		c-0.0481567,0.024353-0.0993042,0.0401001-0.1427612,0.0756836c-0.5688477,0.4677734-1.5874023,0.465332-2.2670898-0.0053711
		c-0.4443359-0.3076172-2.0375977-1.9438477-2.1137695-3.6879883c-0.0389404-0.8924561,0.3374634-1.6739502,1.1069946-2.3884277
		C27.1608582,19.4187965,27.3436623,19.4683838,27.8755684,19.3438148z M7.2432432,28.8103676
		c0.1122937-0.0421085,11.3337526-4.0873737,17.4398193-5.7259521c0.4671631,1.5452881,1.5562134,2.8344727,2.2698364,3.4324341
		c-0.5780029,1.9871254,0.7008324,3.8590431,2.3017578,5.1573486c-2.663311,0.7866364-12.3220348,3.6584244-13.6305552,3.9286499
		c-0.059082-0.0292969-0.1245117-0.0786133-0.2163086-0.1645508C10.4649839,31.5534172,5.974371,29.2923985,7.2432432,28.8103676z"/><path d="M44.3545723,10.2327318c0.3891182-0.2650213,0.928318-0.114234,1.128418,0.3100586
		c0.1759491,0.3754921,0.6231613,0.5355282,0.9975586,0.3598633c1.4194832-0.6653843-0.9227142-3.2959986-2.9658203-1.9130859
		c-0.3432617,0.2319336-0.4335938,0.6977539-0.2016602,1.0415039S44.0108223,10.4651537,44.3545723,10.2327318z"/></svg>