<?xml version="1.0" encoding="UTF-8"?>
<svg id="Layer_1" data-name="Layer 1" xmlns="http://www.w3.org/2000/svg" viewBox="0 0 1719 1080">
  <defs>
    <style>
      .cls-1 {
        stroke: #d3cdcb;
        stroke-dasharray: 0 50;
        stroke-width: 9px;
      }

      .cls-1, .cls-2, .cls-3, .cls-4, .cls-5, .cls-6, .cls-7, .cls-8 {
        stroke-miterlimit: 10;
      }

      .cls-1, .cls-7, .cls-8 {
        fill: none;
      }

      .cls-2, .cls-3, .cls-4, .cls-5, .cls-6, .cls-7, .cls-8 {
        stroke: #00034a;
        stroke-width: 2.04px;
      }

      .cls-2, .cls-5, .cls-7 {
        stroke-linecap: round;
      }

      .cls-2, .cls-6 {
        fill: #e29269;
      }

      .cls-9 {
        letter-spacing: -.01em;
      }

      .cls-3 {
        fill: #fff;
      }

      .cls-4, .cls-5, .cls-10 {
        fill: #00034a;
      }

      .cls-11 {
        font-family: Inter-Black, Inter;
        font-size: 92px;
        font-weight: 800;
      }

      .cls-12 {
        letter-spacing: -.03em;
      }

      .cls-13 {
        letter-spacing: -.02em;
      }

      .cls-14 {
        letter-spacing: -.06em;
      }

      .cls-15 {
        fill: #f9e9e1;
      }

      .cls-15, .cls-10 {
        stroke-width: 0px;
      }
    </style>
  </defs>
  <rect class="cls-15" x="-2" width="1721" height="1082"/>
  <rect class="cls-1" x="67.5" y="72" width="1584" height="936" rx="27.08" ry="27.08"/>
  <text class="cls-11" transform="translate(124.37 209.43)"><tspan x="0" y="0">Visual </tspan><tspan x="0" y="138">B</tspan><tspan class="cls-12" x="61.42" y="138">r</tspan><tspan x="98.92" y="138">anding</tspan></text>
  <text class="cls-11" transform="translate(1030.37 789.43)"><tspan class="cls-9" x="0" y="0">R</tspan><tspan x="60.38" y="0">esponsi</tspan><tspan class="cls-13" x="428.24" y="0">v</tspan><tspan x="482.34" y="0">e </tspan><tspan class="cls-14" x="0" y="123">W</tspan><tspan x="94.74" y="123">eb Design</tspan></text>
  <g>
    <path class="cls-4" d="m1322.46,277.22c-9.96,0-18.04,8.08-18.04,18.05,0,11.07,12.17,25.23,23.39,25.23,9.96,0,18.04-8.08,18.04-18.05,0-11.07-12.17-25.23-23.39-25.23Z"/>
    <path class="cls-4" d="m1376.6,306.04c-7.98,0-14.45,6.47-14.45,14.45h0c0,8.88,11.1,20.07,19.97,20.07,7.98,0,14.45-6.47,14.45-14.45h0c0-8.88-11.1-20.07-19.97-20.07Z"/>
    <path class="cls-4" d="m1393.17,398.48c2.95-18.7,6.9-22.65,6.9-22.65.42-.55,2.55-3.57,5.35-7.55,4.75-6.71,11.42-16.17,15-21.08,10.49-14.83,24.85-34.06,30.47-35.9,7.12-2.39,14.95-1.15,20.99,3.31,5.1,3.36,13.24,12.37,16.26,17.82,1.78,3.21,2.76,6.8,2.85,10.46.19,5.89-13.16,25.97-23.66,40.79l-6.19,8.76c-6.14,8.71-13.42,19.01-14.15,20.14-5.68,5.69-12.28,10.39-19.52,13.9-5.8,3.34-11.98,5.97-18.41,7.83-1.83.4-3.75.01-5.28-1.08-3.5-2.5-8.5-8.07-10.75-11.9-.47-.79-.77-1.68-.88-2.6-.47-6.77-.13-13.57,1.01-20.26h0Z"/>
    <path class="cls-4" d="m1250.46,340.66c26.89,2.46,68.4,7.43,89.98,16.88,7.8,3.42,17.89,11.61,21.65,19.64,8.47,9.21,5.52,49.99,2.48,84.14-3.04,34.17-7.73,75.32-17.58,82.22-10.49,14.64-71.26,11.14-106.52,7.92-29.93-2.74-77.96-8.52-96.54-20.17-8.29-5.19-16.61-14.66-18.84-24.46-3.6-15.81-1.21-48.07,1.26-75.77,3.03-34.25,7.73-75.4,17.58-82.31,10.49-14.64,71.26-11.33,106.52-8.1Z"/>
    <path class="cls-6" d="m1353.61,367.72c-7.64-16.29-68.04-23.84-103.3-27.06-35.26-3.22-96.03-6.53-106.52,8.1-9.85,6.9-14.54,48.07-17.58,82.31-3.04,34.25-5.99,75.5,2.39,83.97,7.74,16.3,68.13,23.75,103.39,26.97,35.26,3.23,96.03,6.72,106.52-7.91,9.86-6.9,14.54-48.07,17.59-82.22,3.03-34.16,5.98-74.94-2.49-84.14h0Z"/>
    <path class="cls-3" d="m1323.11,414.59c-5.99-9.67-51.46-13.82-77.9-16.2-26.42-2.4-71.9-6.53-79.54,1.94-7.27,3.87-10.13,27.62-11.88,47.69-1.75,20.07-3.31,44,3.13,49.08,5.99,9.66,51.37,13.9,77.8,16.29,26.42,2.4,71.9,6.45,79.55-1.93,7.27-3.87,10.12-27.62,11.96-47.78,1.84-20.17,3.31-43.92-3.13-49.08Z"/>
    <path class="cls-3" d="m1172.02,377.2c6,0,10.86-4.86,10.86-10.86s-4.86-10.86-10.86-10.86-10.86,4.86-10.86,10.86,4.86,10.86,10.86,10.86Z"/>
    <path class="cls-3" d="m1208.11,380.53c6.17,0,11.14-5.14,10.85-11.38-.25-5.53-4.8-10.08-10.34-10.34-6.23-.29-11.38,4.68-11.38,10.85s4.86,10.86,10.86,10.86h0Z"/>
    <path class="cls-6" d="m1400.07,375.82s-3.96,3.97-6.89,22.65c-1.15,6.69-1.49,13.49-1.02,20.26.43,3.64,3.72,6.24,7.35,5.81.22-.03.44-.06.65-.11,6.43-1.86,12.61-4.48,18.41-7.83,7.24-3.51,13.84-8.21,19.52-13.9,1.01-1.57,14.64-20.8,20.35-28.91,10.49-14.83,23.84-34.89,23.65-40.79-.19-7.44-4-14.32-10.22-18.41-6.04-4.46-13.87-5.69-20.99-3.31-5.62,1.84-19.97,21.08-30.47,35.9-5.7,7.83-19.24,27.16-20.35,28.63Z"/>
    <path class="cls-10" d="m1438.37,523.06c-2.17-1.82-4.32-3.66-6.44-5.53-10.31-8.92-19.86-18.68-28.55-29.18-3.7-5.23-9.41-10.86-8.81-17.73.26-3.09,1.62-5.98,3.82-8.15,3.14-4.15,8.47-8.84,14.92-4.88,11.33,7.3,21.98,15.59,31.85,24.77,9.03,7.95,17.63,16.37,25.78,25.22,5.2,3.94,11.19,11.85,11.88,18.68.38,3.83-.85,7.64-3.4,10.52-6.21,10.3-12.96,20.26-20.25,29.83-7.89,11.03-16.77,21.32-26.52,30.75-5.62,5.16-11.7,1.66-15.66-1.84-3.67-2.47-10.57-12.2-11.77-16.27-.88-2.96-.69-6.13.52-8.97,6.51-12.05,14.03-23.54,22.47-34.34,3.2-4.29,6.72-8.72,10.14-12.88h0Z"/>
    <path class="cls-10" d="m1374.79,459.67c-1.76-.94-3.68-1.51-5.66-1.7-7.84-2.32-16.08,2.15-18.4,9.99,0,.01,0,.03-.01.04-6.55,19.51-11.75,39.44-15.55,59.66-4.46,20.05-7.54,40.38-9.21,60.85-.24,1.99-.08,4.01.48,5.94,1.86,6.38,7.71,14.85,13.88,18.05,1.78.93,3.72,1.47,5.72,1.62,7.79,2.35,16.01-2.06,18.36-9.85.02-.06.04-.13.06-.19,6.57-19.47,11.77-39.37,15.56-59.57,4.37-20.09,7.37-40.44,8.92-60.95.24-1.97.09-3.97-.45-5.87-1.79-6.27-8.18-15.07-13.71-18.04h0Z"/>
    <path class="cls-10" d="m1278.05,549.05c-1.37-1.14-2.74-2.29-4.11-3.44,3.49-4.22,7.13-8.84,10.43-13.16,8.42-10.81,15.93-22.3,22.47-34.34,1.23-2.83,1.42-6.01.55-8.97-1.25-4.21-8.28-13.93-11.8-16.27-3.96-3.49-10.03-6.99-15.65-1.83-9.73,9.41-18.6,19.67-26.52,30.65-7.29,9.6-14.05,19.59-20.26,29.93-4.1,4.28-4.96,10.72-2.13,15.93,2.17,3.99,6.7,10.72,10.16,13.36,8.1,8.89,16.71,17.31,25.78,25.21,9.97,9.21,20.72,17.53,32.13,24.86,6.44,3.87,11.78-.74,14.92-4.97,4.54-4.5,5.16-11.63,1.46-16.85-2.47-2.99-4.28-5.95-6.46-9.04-9.35-11.28-19.72-21.69-30.97-31.08Z"/>
    <path class="cls-8" d="m1438.37,523.06c-2.17-1.82-4.32-3.66-6.44-5.53-10.31-8.92-19.86-18.68-28.55-29.18-3.7-5.23-9.41-10.86-8.81-17.73.26-3.09,1.62-5.98,3.82-8.15,3.14-4.15,8.47-8.84,14.92-4.88,11.33,7.3,21.98,15.59,31.85,24.77,9.03,7.95,17.63,16.37,25.78,25.22,5.2,3.94,11.19,11.85,11.88,18.68.38,3.83-.85,7.64-3.4,10.52-6.21,10.3-12.96,20.26-20.25,29.83-7.89,11.03-16.77,21.32-26.52,30.75-5.62,5.16-11.7,1.66-15.66-1.84-3.67-2.47-10.57-12.2-11.77-16.27-.88-2.96-.69-6.13.52-8.97,6.51-12.05,14.03-23.54,22.47-34.34,3.2-4.29,6.72-8.72,10.14-12.88h0Z"/>
    <path class="cls-8" d="m1374.79,459.67c-1.76-.94-3.68-1.51-5.66-1.7-7.84-2.32-16.08,2.15-18.4,9.99,0,.01,0,.03-.01.04-6.55,19.51-11.75,39.44-15.55,59.66-4.46,20.05-7.54,40.38-9.21,60.85-.24,1.99-.08,4.01.48,5.94,1.86,6.38,7.71,14.85,13.88,18.05,1.78.93,3.72,1.47,5.72,1.62,7.79,2.35,16.01-2.06,18.36-9.85.02-.06.04-.13.06-.19,6.57-19.47,11.77-39.37,15.56-59.57,4.37-20.09,7.37-40.44,8.92-60.95.24-1.97.09-3.97-.45-5.87-1.79-6.27-8.18-15.07-13.71-18.04h0Z"/>
    <path class="cls-8" d="m1278.05,549.05c-1.37-1.14-2.74-2.29-4.11-3.44,3.49-4.22,7.13-8.84,10.43-13.16,8.42-10.81,15.93-22.3,22.47-34.34,1.23-2.83,1.42-6.01.55-8.97-1.25-4.21-8.28-13.93-11.8-16.27-3.96-3.49-10.03-6.99-15.65-1.83-9.73,9.41-18.6,19.67-26.52,30.65-7.29,9.6-14.05,19.59-20.26,29.93-4.1,4.28-4.96,10.72-2.13,15.93,2.17,3.99,6.7,10.72,10.16,13.36,8.1,8.89,16.71,17.31,25.78,25.21,9.97,9.21,20.72,17.53,32.13,24.86,6.44,3.87,11.78-.74,14.92-4.97,4.54-4.5,5.16-11.63,1.46-16.85-2.47-2.99-4.28-5.95-6.46-9.04-9.35-11.28-19.72-21.69-30.97-31.08Z"/>
    <path class="cls-3" d="m1382.49,474.43c1-8.13-4.78-15.53-12.9-16.53-.15-.02-.29-.03-.44-.05-7.84-2.32-16.08,2.15-18.4,9.99,0,.01,0,.03-.01.04-6.55,19.51-11.75,39.44-15.56,59.66-4.46,20.05-7.54,40.38-9.21,60.85-.99,8.13,4.8,15.52,12.93,16.5.23.03.46.05.7.07,7.79,2.35,16.01-2.06,18.36-9.85.02-.06.04-.13.06-.19,6.57-19.47,11.77-39.37,15.56-59.57,4.38-20.09,7.36-40.45,8.92-60.95Z"/>
    <path class="cls-3" d="m1280.15,550.84c-5.06-4.23-9.94-8.19-14.26-12.43,4.11-4.9,8.1-9.91,11.96-15.01,8.42-10.81,15.93-22.3,22.47-34.34,2.53-5.85.51-12.68-4.8-16.2-3.96-3.49-10.03-6.99-15.65-1.83-9.73,9.41-18.6,19.67-26.52,30.65-7.29,9.6-14.05,19.59-20.26,29.93-5.21,5.44-5.01,14.07.43,19.28.36.35.74.67,1.14.98,8.1,8.9,16.71,17.32,25.78,25.22,9.96,9.21,20.71,17.53,32.13,24.86,6.45,3.86,11.78-.74,14.92-4.98,4.55-4.5,5.17-11.63,1.47-16.85-8.75-10.56-18.39-20.36-28.82-29.27h0Z"/>
    <path class="cls-3" d="m1425.39,508.5c4.82,4.21,9.73,8.33,14.73,12.33-4.11,4.94-8.1,9.97-11.96,15.1-8.44,10.8-15.95,22.29-22.47,34.34-2.49,5.85-.48,12.64,4.79,16.19,3.97,3.5,10.04,7,15.66,1.84,9.74-9.43,18.61-19.72,26.51-30.75,7.28-9.57,14.05-19.53,20.26-29.83,5.05-5.71,4.51-14.44-1.2-19.49-.27-.23-.54-.46-.82-.67-8.15-8.85-16.75-17.27-25.78-25.22-9.87-9.18-20.53-17.46-31.85-24.77-6.45-3.97-11.78.74-14.92,4.88-4.55,4.5-5.17,11.63-1.47,16.85,8.69,10.5,18.24,20.26,28.55,29.18h0Z"/>
    <path class="cls-6" d="m1376.92,334.95c7.98,0,14.46-6.47,14.46-14.46s-6.47-14.46-14.46-14.46h0c-7.98,0-14.45,6.47-14.45,14.45s6.47,14.45,14.45,14.45h0Z"/>
    <path class="cls-6" d="m1322.46,313.31c9.96,0,18.04-8.08,18.04-18.04s-8.08-18.04-18.04-18.04-18.04,8.08-18.04,18.04,8.08,18.04,18.04,18.04Z"/>
  </g>
  <g>
    <path class="cls-4" d="m335.39,670.25c2.8,1.57,4.96,2.77,6.31,3.42,5.71,2.61,12.11,9.6,15.6,14.81,7.71,11.48,11.41,31.2,13.5,49.12,2.79,23.9,2.28,54.12-9.95,63.82-7.52,5.99-44.15,17.56-75.98,21.28-25.4,2.96-55.04,1.68-70.27-1.06-9.75-1.76-18.09-8.74-23.78-16.72-8.56-12.02-13.41-33.55-15.49-51.89-2.7-23.89-3.29-51.49,9.12-61.2.84-.72,2.1-1.87,3.71-3.34,2.72-2.5,6.44-5.92,10.89-9.74-.72-4.32-1.33-8.65-1.85-13-1.52-13.08-2.79-28.87,1.85-32.41,4.3-6.5,37.4-10.97,56.72-13.25,19.33-2.27,52.59-5.31,58.25,0,3.91,1.68,9.81,9.34,11.2,13.25,2.24,6.3,3.5,15.76,4.48,24.25.15,1.57.33,3.08.51,4.56.23,1.87.44,3.7.57,5.53,1.69.93,3.25,1.79,4.63,2.58Z"/>
    <path class="cls-4" d="m261.77,928.16c-.7,6.01-6.14,10.32-12.16,9.62-31.18-3.47-54.87-15.84-69.71-35.2-18.03-19.25-25.91-46.85-21.89-80.44.43-6.05,5.68-10.6,11.72-10.17,1.65.12,3.24.6,4.67,1.42,4.12,2.35,9.17,8.42,10.28,12.86.35,1.44.42,2.93.17,4.4-2.8,23.75,1.31,43.09,11.86,57.41,11.52,11.87,28.51,19.35,50.6,21.95,7.02.99,15.26,11.3,14.45,18.14Z"/>
    <path class="cls-5" d="m292.15,914.16c-8.81,0-15.95,7.14-15.95,15.95,0,10.08,14.31,22.4,24.25,22.4,8.81,0,15.95-7.14,15.95-15.95,0-10.07-14.31-22.4-24.25-22.4Z"/>
    <path class="cls-4" d="m479.47,720.94c-.79-.89-1.68-1.68-2.66-2.35l12.63-21.35c1.92-3.22,2.49-7.07,1.61-10.71-4.14-18.83-10.89-31.24-14.35-33.27-3.57-2.21-5.92-5.08-9.56-7.21-8.45-5.23-86.61,2.61-132.61,80.03-31.66,53.26-36.8,82.3-4.98,108.72l-3.97,6.5c-3.15,5.53-7.54,12.89-10.43,17.71-1.52,2.54-2.61,4.38-2.9,4.91-3.47,6.87-5.18,14.5-4.98,22.2-.72,6.48-.72,13.02,0,19.5.15.87.48,1.69.98,2.41,2.39,3.47,7.93,6.88,11.47,8.99,1.52.91,3.37,1.1,5.05.54,6.1-2.32,11.91-5.36,17.31-9.03,6.39-4.05,12.09-9.09,16.89-14.94l13.5-22.7,1.76-3.05c.68-1.15,1.38-2.33,2.05-3.54,38.23,15.28,61.36-2.87,92.85-56.3,12.55-20.83,20.57-44.07,23.55-68.21.68-5.49-1.76-10.9-6.33-14.01l-6.85-4.82h0Z"/>
    <path class="cls-3" d="m341.42,673.67c-2.79-1.35-9.03-5.06-17.3-9.45,0-4.31-.76-8.45-1.18-13.09-1.52-13.17-3.72-28.7-9.21-31.06-5.66-5.31-38.91-2.27-58.25,0-19.33,2.28-52.42,6.76-56.72,13.25-4.64,3.54-3.38,19.33-1.85,32.41.51,4.22,1.1,8.45,1.85,13-7.09,6.08-12.32,11.15-14.6,13.08-12.41,9.71-11.82,37.31-9.12,61.2s10.13,53.19,24.32,59.85c8.44,4.14,46.93,7.09,78.75,3.38,31.82-3.72,68.45-15.28,75.97-21.28,12.24-9.7,12.75-39.92,9.96-63.81-2.79-23.89-8.45-50.99-22.63-57.48h0Z"/>
    <path class="cls-7" d="m218.2,678.56c14.68-.11,29.34-1.13,43.89-3.04,14.59-1.43,29.09-3.77,43.39-7"/>
    <path class="cls-7" d="m258.89,646.74l1.1,9.62"/>
    <path class="cls-7" d="m229.76,650.12l1.1,9.62"/>
    <path class="cls-7" d="m287.92,643.45l1.1,9.54"/>
    <path class="cls-6" d="m299.74,745.93c-2.61-22.96-33.76-42.71-35.96-42.2-2.19.51-27.94,26.5-25.33,49.47.25,15.52,13.04,27.91,28.56,27.66,1.75-.03,3.49-.22,5.2-.57,15.52.07,28.15-12.45,28.22-27.96,0-2.15-.23-4.29-.7-6.38Z"/>
    <path class="cls-6" d="m467.05,711.93l12.83-21.69c1.92-3.23,2.48-7.08,1.6-10.72-4.14-18.83-10.89-31.24-14.34-33.27-8.45-5.23-86.61,2.62-132.61,80.03-31.66,53.26-36.8,82.3-4.98,108.72l-3.97,6.5c-4.81,8.45-12.49,21.1-13.33,22.63-3.47,6.87-5.18,14.5-4.98,22.2-.72,6.48-.72,13.02,0,19.5.57,3.31,3.71,5.53,7.02,4.96.31-.05.61-.13.91-.23,6.1-2.33,11.91-5.36,17.3-9.04,6.39-4.04,12.09-9.09,16.89-14.94l13.5-22.7c1.18-2.12,2.53-4.31,3.8-6.58,38.24,15.28,61.37-2.87,92.85-56.3,12.55-20.83,20.58-44.07,23.56-68.21.68-5.49-1.76-10.9-6.33-14.02l-9.72-6.83h0Z"/>
    <path class="cls-7" d="m349.8,814.64c19.33-32.59,46.34-84.92,88.8-126.03"/>
    <path class="cls-2" d="m293.18,946.25c7.94-.49,14.41-6.95,14.91-14.89.58-9.27-6.76-16.98-15.91-16.99h-.03c-8.81,0-15.95,7.16-15.94,15.97,0,9.14,7.7,16.48,16.97,15.91Z"/>
    <path class="cls-6" d="m256.69,922.18c-.7,6.01-6.14,10.32-12.16,9.62-61.45-6.84-93.86-48.28-86.52-109.65.44-6.04,5.7-10.58,11.75-10.14,6.04.44,10.58,5.7,10.14,11.75-.02.31-.06.61-.11.92-5.83,49.21,18.06,79.51,67.53,85.35,5.91.83,10.07,6.23,9.37,12.15Z"/>
  </g>
  <g>
    <path class="cls-4" d="m650.78,719.76c1.16,6.54,8.46,19.46,16.4,19.46,4.95,0,9.34-5.14,10.45-18.67,13.54-1.3,18.67-5.5,18.67-10.45,0-7.27-13.36-14.35-19.33-15.51-1.15-6.57-8.44-19.46-16.41-19.46-4.95,0-9.34,5.04-10.45,18.67-13.81,1.3-18.67,5.5-18.67,10.45,0,7.27,13.37,14.35,19.34,15.51Z"/>
    <path class="cls-4" d="m839.53,440.65c-8.25,0-14.94,6.68-14.94,14.93,0,9.22,11.14,21.7,20.44,21.7,8.25,0,14.94-6.68,14.94-14.93,0-9.22-11.14-21.7-20.44-21.7Z"/>
    <path class="cls-4" d="m891.13,526.08c1.39,9.33,10.26,24.41,21.54,24.41,6.07,0,11.1-6.25,12.79-23.05,16.88-1.69,23.05-6.72,23.05-12.79,0-8.47-16.46-15.23-23.55-16.84-1.38-9.35-10.26-24.41-21.55-24.41-6.06,0-11.1,6.16-12.78,23.05-16.89,1.68-23.05,6.71-23.05,12.78,0,8.47,16.46,15.24,23.55,16.84h0Z"/>
    <path class="cls-6" d="m939.26,509.4c0-6.06-6.16-11.1-23.04-12.78-1.69-16.89-6.72-23.05-12.79-23.05s-11.1,6.16-12.78,23.05c-16.89,1.68-23.05,6.71-23.05,12.78s6.16,11.1,23.05,12.79c1.68,16.8,6.71,23.04,12.78,23.04s11.1-6.25,12.79-23.04c16.88-1.69,23.05-6.72,23.05-12.79h0Z"/>
    <path class="cls-6" d="m689.67,704.24c0-4.95-5.13-9.33-18.66-10.45-1.31-13.9-5.5-18.66-10.45-18.66s-9.34,5.03-10.45,18.66c-13.81,1.3-18.67,5.5-18.67,10.45s5.13,9.33,18.67,10.45c1.3,13.81,5.5,18.67,10.45,18.67s9.33-5.14,10.45-18.67c13.52-1.3,18.66-5.5,18.66-10.45Z"/>
    <path class="cls-4" d="m748.51,440.32c14.15-.39,25.43.85,29.7,4.96,4.65,2.23,11.5,11.5,13.85,16.13,6.26,12.31,10.91,36.05,14.58,56.57,4.86,27.07,9.71,59.82,2.15,67.47-6.81,13.61-63.45,25.38-96.95,31.25-33.5,5.88-91.07,14.47-101.89,3.74-4.94-2.31-12.02-12.16-14.38-17.02-6.06-12.46-10.57-35.41-14.14-55.4-4.85-27.07-9.71-59.82-2.15-67.47,2.79-5.97,15.11-11.57,30.78-16.42-1.4-12.5-.93-26.59,6.72-31.16,4.39-5.14,31.54-13.35,53.84-17.35,22.3-4.03,50.2-5.04,55.99-2.06,9.87,1.81,19.02,18.37,21.88,26.77h0Z"/>
    <path class="cls-6" d="m778.22,445.13c-4.76-4.57-18.2-5.6-34.61-4.76-3.09-12.69-8.31-25.38-16.99-26.97-5.78-2.98-33.68-1.96-55.99,2.05-22.28,4.03-49.43,12.22-53.82,17.35-7.65,4.58-8.12,18.67-6.71,31.17-15.68,4.85-28,10.45-30.79,16.42-7.56,7.65-2.7,40.4,2.15,67.47,4.85,27.06,11.38,59.53,21.18,64.1,10.82,10.74,68.4,2.15,101.89-3.74,33.5-5.88,90.13-17.63,96.95-31.25,7.55-7.65,2.7-40.4-2.15-67.46-4.85-27.07-11.39-59.73-21.09-64.39h0Z"/>
    <path class="cls-7" d="m646.09,455.95s10.55-2.43,31.82-6.16c21.27-3.74,32.1-5.14,32.1-5.14"/>
    <path class="cls-7" d="m740.99,472.75s4.1-.93,12.5-2.43c8.4-1.5,12.6-2.05,12.6-2.05"/>
    <path class="cls-3" d="m689.67,567.17c23.5,0,42.55-19.05,42.55-42.55s-19.05-42.55-42.55-42.55-42.55,19.05-42.55,42.55,19.05,42.55,42.55,42.55Z"/>
    <path class="cls-4" d="m922.83,572.9c-17.67-10.81-57.78-16.23-83.22-18.89-31.35-3.26-85.38-6.71-95.08,8.13-8.87,7.09-14,48.9-17.54,83.98-3.55,35.09-7.09,76.6,0,85.38,2.64,6.66,13.99,15.23,20.23,18.48,18.79,9.81,56.3,14.88,80.53,17.33,31.35,3.17,85.38,6.71,95.09-8.12,9.33-7.09,14.09-48.9,17.63-83.98,3.55-35.09,7.19-76.6-.1-85.28-2.27-5.88-12.12-13.72-17.54-17.04Z"/>
    <path class="cls-3" d="m931.06,581.36c-6.44-16.61-60.09-24.07-91.44-27.34-31.35-3.26-85.38-6.71-95.08,8.12-8.87,7.09-14,48.9-17.54,83.98-3.55,35.09-7.09,76.6,0,85.38,6.53,16.52,60.09,24.07,91.44,27.25,31.35,3.16,85.38,6.71,95.08-8.12,9.34-7.09,14.09-48.9,17.64-83.98,3.55-35.09,7.19-76.6-.1-85.28Z"/>
    <path class="cls-6" d="m908.85,601.52c-5.42-10.17-47.59-15.77-72.22-18.67-24.64-2.9-67-5.69-74.65,3.26-6.9,4.11-10.08,29.49-12.32,50.49-2.23,21-4.1,46.65,1.77,52.06,5.42,10.18,47.59,15.78,72.22,18.67,24.64,2.9,67,5.6,74.65-3.26,6.81-4.11,10.08-29.49,12.22-50.57,2.15-21.09,4.2-46.57-1.68-51.97Z"/>
    <path class="cls-3" d="m870.78,639.21c-3.86-8.52-8.78-16.51-14.65-23.8-3.92-4.04-10.18-4.67-14.83-1.5-7.08,5.91-13.36,12.71-18.67,20.25l-2.15,2.99c-1.84-3.31-3.99-6.44-6.43-9.34-2.97-3.12-7.77-3.6-11.29-1.12-5.38,4.42-10.18,9.5-14.29,15.12-4.84,6.11-8.51,13.07-10.81,20.53-.53,3.73,1.54,7.35,5.03,8.77,7.19,4.02,78.01,11.57,88.46,8.21,5.08-.7,8.97-4.86,9.33-9.97,0,0,1.03-7.19-9.7-30.14Z"/>
    <path class="cls-6" d="m840.48,470.75c7.43-.46,13.48-6.51,13.95-13.94.54-8.68-6.33-15.88-14.89-15.88h-.01c-8.24,0-14.93,6.69-14.92,14.93,0,8.56,7.21,15.43,15.88,14.89Z"/>
  </g>
</svg>