<svg xmlns="http://www.w3.org/2000/svg" fill="none" viewBox="-1.02 -1.02 98 98" height="98" width="98"><path fill="#00034a" stroke="#00034a" stroke-miterlimit="10" d="M81.263726 36.87263c0 -2.8068299999999997 -3.737642 -4.884364 -6.3093699999999995 -4.884364 -2.156701 0 -3.905572 1.748871 -3.905572 3.905572 0 2.8068299999999997 3.7400409999999997 4.881965 6.3093699999999995 4.881965 2.1591 0 3.905572 -1.748871 3.905572 -3.905572Z" stroke-width="2.04"></path><path fill="#00034a" stroke="#00034a" stroke-miterlimit="10" d="M83.504392 25.542153000000003c0 -2.156701 1.748871 -3.905572 3.9031730000000002 -3.905572 2.574127 0 6.3093699999999995 2.077534 6.3093699999999995 4.881965 0 2.1591 -1.746472 3.905572 -3.9031730000000002 3.905572 -2.5717280000000002 0 -6.3093699999999995 -2.077534 -6.3093699999999995 -4.881965Z" stroke-width="2.04"></path><path fill="#00034a" stroke="#00034a" stroke-miterlimit="10" d="M66.843337 15.723046c0.323865 0.693311 0.6237400000000001 1.293061 0.902024 1.8472300000000001 -0.439017 0.415027 -0.9236150000000001 0.878034 -1.456193 1.432203l-0.021591 0.02399c-0.41742599999999996 0.40543100000000004 -6.011894 5.863156 -3.536126 8.247762 0.851645 0.9164180000000001 3.0107449999999996 1.748871 4.215043 1.979175 0.693311 0.131945 1.410612 0.04078300000000001 2.048746 -0.26389a16.497923 16.497923 0 0 0 4.483731 -3.67047 16.3132 16.3132 0 0 0 3.5337270000000003 -4.622873c0.31187000000000004 -0.614144 0.43182 -1.3050560000000002 0.34785499999999997 -1.986372a17.028102 17.028102 0 0 0 -1.804048 -5.498507999999999 17.606261 17.606261 0 0 0 -2.979558 -4.968329000000001c-0.849246 -0.825256 -3.1187 -1.72728 -4.265422 -1.89521a3.372994 3.372994 0 0 0 -2.043948 0.34065799999999996c-3.197867 1.494577 0.448613 8.777941 0.5757599999999999 9.029836l0 0.004798Z" stroke-width="2.04"></path><path fill="#00034a" stroke="#00034a" stroke-miterlimit="10" d="M60.118939999999995 1.880816a3.372994 3.372994 0 0 0 -4.087896 0.832453 105.152968 105.152968 0 0 0 -6.191819 11.021006000000002 109.89099300000001 109.89099300000001 0 0 0 -5.01391 11.553583999999999 3.396984 3.396984 0 0 0 1.698492 4.186255c0.820458 0.403032 1.585739 0.5757599999999999 2.4061969999999997 0.976393a3.396984 3.396984 0 0 0 4.354185 -1.204298 107.719898 107.719898 0 0 0 6.18942 -11.021006000000002 111.894158 111.894158 0 0 0 4.901157 -11.623154999999999 3.418575 3.418575 0 0 0 -1.8472300000000001 -3.74244c-0.8108620000000001 -0.40783 -1.5929360000000001 -0.580558 -2.4061969999999997 -0.978792Z" stroke-width="2.04"></path><path fill="#00034a" stroke="#00034a" stroke-miterlimit="10" d="M41.469114000000005 25.009575c0.698109 0.107955 1.4154099999999998 -0.009596 2.03915 -0.338259 3.1906700000000003 -1.6073300000000001 -0.43421899999999997 -8.845113 -0.5757599999999999 -9.123397l0 -0.004798a19.863719999999997 19.863719999999997 0 0 0 -0.902024 -1.8472300000000001c0.463007 -0.41742599999999996 0.947605 -0.878034 1.480183 -1.432203l0.019192 -0.021591c0.403032 -0.393436 5.995101 -5.860757 3.5385250000000004 -8.25256 -0.851645 -0.86364 -3.07072 -1.734477 -4.241432 -1.9287960000000002a3.351403 3.351403 0 0 0 -2.046347 0.307072 16.96093 16.96093 0 0 0 -4.481332 3.672869 16.76901 16.76901 0 0 0 -3.536126 4.620474 3.651278 3.651278 0 0 0 -0.34785499999999997 1.9887709999999998c0.283082 1.921599 0.892428 3.7808240000000004 1.804048 5.498507999999999a16.284412 16.284412 0 0 0 3.003548 4.944339c0.83965 0.8468469999999999 3.09471 1.739275 4.24623 1.9192Z" stroke-width="2.04"></path><path fill="#e29269" stroke="#00034a" stroke-miterlimit="10" d="M61.968569 5.625655000000001a3.418575 3.418575 0 0 0 -1.8472300000000001 -3.74244 3.372994 3.372994 0 0 0 -4.090295 0.830054 105.152968 105.152968 0 0 0 -6.191819 11.021006000000002 109.83821499999999 109.83821499999999 0 0 0 -5.01391 11.553583999999999 3.394585 3.394585 0 0 0 6.052677 2.979558 111.997315 111.997315 0 0 0 11.090577000000001 -22.644161Z" stroke-width="2.04"></path><path fill="#e29269" stroke="#00034a" stroke-miterlimit="10" d="M40.526307 14.566728a19.808543 19.808543 0 0 0 -0.902024 -1.8472300000000001c0.463007 -0.41742599999999996 0.947605 -0.878034 1.480183 -1.434602 0.13914200000000002 -0.136743 6.076667 -5.822373 3.5577170000000002 -8.271752A3.349004 3.349004 0 0 0 40.783 2.365414c-1.6936939999999998 0.9596 -3.209862 2.2022820000000003 -4.481332 3.675268a16.76901 16.76901 0 0 0 -3.536126 4.620474 3.651278 3.651278 0 0 0 -0.34785499999999997 1.9887709999999998 17.032899999999998 17.032899999999998 0 0 0 1.804048 5.498507999999999 16.28921 16.28921 0 0 0 3.003548 4.944339 3.303423 3.303423 0 0 0 3.8815820000000003 0.59975c3.212261 -1.616926 -0.48459800000000003 -8.941073 -0.5757599999999999 -9.125796Z" stroke-width="2.04"></path><path fill="#e29269" stroke="#00034a" stroke-miterlimit="10" d="M66.843337 15.723046c0.323865 0.693311 0.6237400000000001 1.293061 0.902024 1.8472300000000001 -0.439017 0.415027 -0.9236150000000001 0.878034 -1.456193 1.432203 -0.13914200000000002 0.13914200000000002 -6.100657 5.822373 -3.5577170000000002 8.271752a3.327413 3.327413 0 0 0 3.8575920000000004 0.741291 16.495524 16.495524 0 0 0 4.483731 -3.675268A16.3132 16.3132 0 0 0 74.6089 19.71978c0.309471 -0.614144 0.43182 -1.3050560000000002 0.345456 -1.986372a17.032899999999998 17.032899999999998 0 0 0 -1.801649 -5.500907000000001 17.611059 17.611059 0 0 0 -2.9819570000000004 -4.965929999999999 3.372994 3.372994 0 0 0 -3.9031730000000002 -0.578159c-3.2146600000000003 1.501774 0.48459800000000003 8.849911 0.5757599999999999 9.034634Z" stroke-width="2.04"></path><path fill="#00034a" stroke="#00034a" stroke-miterlimit="10" d="M26.453772999999998 36.771872c7.077050000000001 -1.074752 15.348802 -1.63132 20.012458000000002 -1.283465 4.704439 0.35025399999999995 7.818341 3.5097370000000003 9.960648 7.638416 1.720083 3.3106199999999997 2.564531 8.302939 3.188271 12.419623 0.9691960000000001 6.398133 2.4253889999999996 17.052092 -1.571345 19.359930000000002 -1.017176 1.134727 -5.177042 2.56693 -10.258124 3.883981l0.990787 3.2914280000000002c0.88763 0.463007 3.987138 4.5844890000000005 4.068704 5.30179 0.184723 1.6193250000000001 -0.59975 2.497359 -2.310237 3.075518 -0.878034 0.299875 -25.902003 4.042315 -26.549733 4.042315 -1.883215 0 -5.661639999999999 -3.991936 -5.939924 -5.764797 -0.27828400000000003 -1.756068 0.55177 -2.44698 2.310237 -3.188271V82.5256c-3.905572 0.086364 -6.9571 -0.134344 -8.06064 -0.731695 -2.18309 -0.491795 -4.929945 -4.3182 -6.076667 -6.254193000000001 -2.264656 -3.8240060000000002 -3.394585 -10.627569999999999 -4.095093 -15.224054 -0.9691960000000001 -6.376542 -2.077534 -14.902588 1.9192 -17.188835 1.87122 -1.9887709999999998 12.985787 -4.922748 22.411458000000003 -6.354951Z" stroke-width="2.04"></path><path fill="#e29269" stroke="#00034a" stroke-miterlimit="10" d="M49.745664000000005 36.148132c-2.310237 -1.31945 -13.863821 -0.808463 -23.291891 0.6237400000000001 -9.42807 1.432203 -20.540238 4.36618 -22.411458000000003 6.354951 -3.996734 2.286247 -2.8883959999999997 10.812292999999999 -1.9192 17.188835 0.9715950000000001 6.378940999999999 2.773244 17.00891 7.278566 18.023687 1.3650309999999999 0.738892 5.70962 0.902024 10.953834 0.6237400000000001v6.585255c-1.756068 0.738892 -2.588521 1.432203 -2.310237 3.1906700000000003 0.275885 1.753669 1.17551 2.307838 3.04673 2.307838 0.64773 0 25.674098 -3.74244 26.552132 -4.042315 1.7080879999999998 -0.5757599999999999 2.4949600000000003 -1.456193 2.310237 -3.0731189999999997 -0.184723 -1.616926 -1.27147 -2.171095 -3.1666800000000004 -2.310237l-1.89521 -6.28538c5.08588 -1.3170510000000002 9.243347 -2.7492539999999996 10.260523000000001 -3.8815820000000003 3.996734 -2.310237 2.54294 -12.961796999999999 1.571345 -19.362329s-2.47097 -14.926578000000001 -6.9786909999999995 -15.943754Z" stroke-width="2.04"></path><path fill="#ffffff" stroke="#00034a" stroke-miterlimit="10" d="M48.567755000000005 66.255582c3.003548 -1.640916 2.310237 -7.6480120000000005 1.547355 -12.131743 -0.7628820000000001 -4.481332 -1.732078 -10.442846999999999 -5.105072000000001 -11.136158000000002 -1.756068 -0.902024 -10.399665 -0.463007 -17.445528 0.59975 -7.048262 1.062757 -15.413575 3.2362509999999998 -16.845778 4.622873 -3.003548 1.6385170000000002 -2.310237 7.624022 -1.547355 12.129344 0.7628820000000001 4.505322 1.732078 10.445246000000001 5.107471 11.114567000000001 1.777659 0.9236150000000001 10.397265999999998 0.48459800000000003 17.443129 -0.59975 7.048262 -1.0867470000000001 15.365595 -3.1906700000000003 16.845778 -4.598883Z" stroke-width="2.04"></path><path stroke="#00034a" stroke-linecap="round" stroke-miterlimit="10" d="M25.969175 83.976995a30.735988 30.735988 0 0 1 7.417708 -1.7104869999999999 29.860353 29.860353 0 0 1 7.602431 -0.5757599999999999" stroke-width="2.04"></path><path fill="#00034a" stroke="#00034a" stroke-miterlimit="10" d="M80.685567 50.357409c-4.044714 -2.47097 -8.665188 -3.8575920000000004 -11.323279999999999 -2.6101120000000004a31.218187 31.218187 0 0 0 -15.341605 25.06955c0.18232399999999999 4.670853 7.103439 10.478832 10.725929 12.693109000000002 4.044714 2.47097 8.665188 3.859991 11.323279999999999 2.612511a31.218187 31.218187 0 0 0 15.341605 -25.06955c-0.184723 -4.670853 -7.103439 -10.481231 -10.725929 -12.695508Z" stroke-width="2.04"></path><path fill="#ffffff" stroke="#00034a" stroke-miterlimit="10" d="M69.362287 47.747296999999996c2.6580920000000003 -1.2474800000000001 7.278566 0.13914200000000002 11.323279999999999 2.6101120000000004 4.042315 2.47097 7.369728 5.9615149999999995 7.48488 8.897891a31.215788 31.215788 0 0 1 -15.341605 25.06955c-2.6580920000000003 1.2474800000000001 -7.278566 -0.13914200000000002 -11.323279999999999 -2.612511 -4.042315 -2.47097 -7.369728 -5.9615149999999995 -7.48488 -8.895492a31.215788 31.215788 0 0 1 15.341605 -25.06955Z" stroke-width="2.04"></path><path stroke="#00034a" stroke-linecap="round" stroke-miterlimit="10" d="M81.309307 66.855332a23.87005 23.87005 0 0 1 -15.665470000000001 -9.588803" stroke-width="2.04"></path><path stroke="#00034a" stroke-linecap="round" stroke-miterlimit="10" d="m77.31257299999999 55.788745 -4.807596 7.8327350000000004" stroke-width="2.04"></path><path fill="#e29269" stroke="#00034a" stroke-linecap="round" stroke-miterlimit="10" d="M72.504977 66.670609a3.0491289999999998 3.0491289999999998 0 1 0 0 -6.0982579999999995 3.0491289999999998 3.0491289999999998 0 0 0 0 6.0982579999999995Z" stroke-width="2.04"></path><path fill="#e29269" stroke="#00034a" stroke-miterlimit="10" d="M74.954356 39.79941a3.905572 3.905572 0 1 0 0 -7.811144 3.905572 3.905572 0 0 0 0 7.811144Z" stroke-width="2.04"></path><path fill="#e29269" stroke="#00034a" stroke-miterlimit="10" d="M87.407565 29.447725000000002a3.905572 3.905572 0 1 0 0 -7.811144 3.905572 3.905572 0 0 0 0 7.811144Z" stroke-width="2.04"></path></svg>