<svg xmlns="http://www.w3.org/2000/svg" fill="none" viewBox="-1.02 -1.02 98 98" height="98" width="98"><path fill="#00034a" stroke="#00034a" stroke-miterlimit="10" d="M50.937967 16.421155c0.772478 0.43182 1.36743 0.7628820000000001 1.7368759999999999 0.9428070000000001 1.573744 0.7197 3.3346099999999996 2.643698 4.296609 4.0783 2.123115 3.1618820000000003 3.14269 8.595617 3.7184500000000003 13.53036 0.76768 6.5828560000000005 0.628538 14.907386 -2.742057 17.579872 -2.070337 1.650512 -12.162930000000001 4.836384 -20.928876 5.860757 -6.995484 0.81566 -15.16168 0.463007 -19.357531 -0.292678 -2.6868800000000004 -0.48459800000000003 -4.982723 -2.4061969999999997 -6.54927 -4.6060799999999995 -2.358217 -3.3106199999999997 -3.6944600000000003 -9.240948 -4.267821 -14.293242000000001 -0.74369 -6.580457 -0.906822 -14.182888 2.5117529999999997 -16.857773 0.23270300000000002 -0.19911700000000002 0.578159 -0.515785 1.021974 -0.921216 0.748488 -0.6885129999999999 1.77526 -1.63132 2.9987500000000002 -2.6820820000000003a77.95070700000001 77.95070700000001 0 0 1 -0.508588 -3.581707c-0.419825 -3.603298 -0.76768 -7.952685 0.510987 -8.929078 1.185106 -1.789654 10.301305999999999 -3.02274 15.624687 -3.651278 5.325780000000001 -0.626139 14.487561 -1.46339 16.044512 0 1.077151 0.463007 2.7012739999999997 2.5717280000000002 3.085114 3.651278 0.6165430000000001 1.734477 0.9643980000000001 4.34219 1.2330860000000001 6.681215000000001 0.04078300000000001 0.43182 0.09116199999999999 0.849246 0.13914200000000002 1.257076 0.062374 0.515785 0.11995 1.019575 0.15593500000000002 1.523365 0.46540600000000004 0.256693 0.894827 0.49419399999999997 1.2762680000000002 0.710104Z" stroke-width="2.04"></path><path fill="#00034a" stroke="#00034a" stroke-miterlimit="10" d="M30.659219999999998 87.46754a3.02274 3.02274 0 0 1 -3.349004 2.650895c-8.588420000000001 -0.954802 -15.116099 -4.363781 -19.201596 -9.696757999999999 -4.965929999999999 -5.30179 -7.137025 -12.90662 -6.031085999999999 -22.157164a3.02274 3.02274 0 0 1 4.517317 -2.408596c1.134727 0.64773 2.526147 2.319833 2.8308199999999997 3.5433230000000004 0.09596 0.39583500000000005 0.115152 0.808463 0.04798 1.211495 -0.772478 6.542072999999999 0.35985 11.870252 3.2674380000000003 15.814207999999999 3.173877 3.269837 7.854326 5.330578 13.938189999999999 6.04548 1.933594 0.273486 4.203048 3.111503 3.979941 4.997117Z" stroke-width="2.04"></path><path fill="#00034a" stroke="#00034a" stroke-linecap="round" stroke-miterlimit="10" d="M39.026932 83.60994799999999c-2.427788 0 -4.394968 1.96718 -4.394968 4.394968 0 2.775643 3.941557 6.170228 6.681215000000001 6.170228 2.427788 0 4.394968 -1.96718 4.394968 -4.394968 0 -2.773244 -3.941557 -6.170228 -6.681215000000001 -6.170228Z" stroke-width="2.04"></path><path fill="#00034a" stroke="#00034a" stroke-miterlimit="10" d="M90.62702300000001 30.368941000000003a4.059108 4.059108 0 0 0 -0.731695 -0.64773l3.47855 -5.882348c0.52778 -0.88763 0.686114 -1.947988 0.443815 -2.95077 -1.139525 -5.186637999999999 -2.9987500000000002 -8.605213000000001 -3.9535519999999997 -9.16418 -0.98359 -0.609346 -1.63132 -1.398617 -2.6341020000000004 -1.986372 -2.32703 -1.441799 -23.858055 0.7197 -36.529573 22.044411 -8.720365 14.672284 -10.138174 22.67055 -1.372228 29.949116l-1.093944 1.789654c-0.8684379999999999 1.523365 -2.077534 3.55052 -2.874002 4.879566 -0.41742599999999996 0.7005079999999999 -0.7197 1.206697 -0.7988670000000001 1.353036a12.815458 12.815458 0 0 0 -1.372228 6.115051 24.167526 24.167526 0 0 0 0 5.371360999999999c0.04078300000000001 0.2399 0.131945 0.46540600000000004 0.268688 0.6645230000000001 0.6573260000000001 0.954802 2.185489 1.89521 3.159483 2.475768a1.676901 1.676901 0 0 0 1.3914199999999999 0.148738A23.054389999999998 23.054389999999998 0 0 0 52.778 82.041002a19.489476 19.489476 0 0 0 4.651661 -4.116684l3.7184500000000003 -6.254193000000001 0.48459800000000003 -0.83965c0.187122 -0.316668 0.379042 -0.6429320000000001 0.563765 -0.973994 10.531609999999999 4.207846 16.903354 -0.7916700000000001 25.578138000000003 -15.509535a47.76409 47.76409 0 0 0 6.486896000000001 -18.788968 4.068704 4.068704 0 0 0 -1.744073 -3.859991l-1.8880130000000002 -1.3290460000000002Z" stroke-width="2.04"></path><path fill="#ffffff" stroke="#00034a" stroke-miterlimit="10" d="M52.674843 17.363962c-0.76768 -0.371845 -2.4877629999999997 -1.393819 -4.766813 -2.602915 0 -1.187505 -0.20871299999999998 -2.32703 -0.323865 -3.6056969999999997 -0.419825 -3.627288 -1.024373 -7.904705 -2.535743 -8.557233 -1.55935 -1.46339 -10.718732 -0.626139 -16.044512 0 -5.325780000000001 0.628538 -14.439581 1.8616240000000002 -15.624687 3.651278 -1.278667 0.976393 -0.9308120000000001 5.325780000000001 -0.510987 8.929078 0.13914200000000002 1.163515 0.302274 2.32703 0.510987 3.581707 -1.952786 1.674502 -3.394585 3.07072 -4.023123 3.603298 -3.418575 2.674885 -3.255443 10.277315999999999 -2.5117529999999997 16.857773 0.74369 6.580457 2.7900370000000003 14.650693 6.698008 16.485928 2.324631 1.139525 12.928211000000001 1.952786 21.694156999999997 0.9308120000000001 8.765946 -1.024373 18.85614 -4.207846 20.926477000000002 -5.860757 3.372994 -2.672486 3.512136 -10.997015999999999 2.744456 -17.577473 -0.76768 -6.580457 -2.32703 -14.046145000000001 -6.232602 -15.8334Z" stroke-width="2.04"></path><path stroke="#00034a" stroke-linecap="round" stroke-miterlimit="10" d="M18.657023 18.7122a98.45016199999999 98.45016199999999 0 0 0 12.09096 -0.837251 96.82364 96.82364 0 0 0 11.951818000000001 -1.9287960000000002" stroke-width="2.04"></path><path stroke="#00034a" stroke-linecap="round" stroke-miterlimit="10" d="m29.865151 9.946254 0.302274 2.650895" stroke-width="2.04"></path><path stroke="#00034a" stroke-linecap="round" stroke-miterlimit="10" d="m21.842895000000002 10.877066 0.302274 2.650895" stroke-width="2.04"></path><path stroke="#00034a" stroke-linecap="round" stroke-miterlimit="10" d="m37.863417 9.039432 0.302274 2.626905" stroke-width="2.04"></path><path fill="#e29269" stroke="#00034a" stroke-miterlimit="10" d="M41.118860000000005 37.268465c-0.7197 -6.323764000000001 -9.300923 -11.764696 -9.905470999999999 -11.625554000000001 -0.604548 0.13914200000000002 -7.695992 7.3001570000000005 -6.976292 13.62632a7.743972 7.743972 0 0 0 9.300923 7.46089 7.739174 7.739174 0 0 0 7.58084 -9.461656Z" stroke-width="2.04"></path><path fill="#e29269" stroke="#00034a" stroke-miterlimit="10" d="m87.206049 27.8284 3.5337270000000003 -5.975909000000001c0.52778 -0.890029 0.683715 -1.9503869999999999 0.441416 -2.9531690000000004 -1.139525 -5.186637999999999 -2.9987500000000002 -8.605213000000001 -3.951153 -9.16418 -2.32703 -1.4394 -23.858055 0.7220989999999999 -36.529573 22.04681 -8.720365 14.672284 -10.138174 22.67055 -1.372228 29.949116l-1.093944 1.789654c-1.324248 2.32703 -3.440166 5.8127770000000005 -3.672869 6.232602a12.815458 12.815458 0 0 0 -1.372228 6.115051 24.167526 24.167526 0 0 0 0 5.371360999999999 1.674502 1.674502 0 0 0 2.185489 1.3026570000000002 23.025602000000003 23.025602000000003 0 0 0 4.766813 -2.490162 19.479879999999998 19.479879999999998 0 0 0 4.651661 -4.114285000000001l3.7184500000000003 -6.254193000000001c0.32626400000000005 -0.582957 0.698109 -1.187505 1.0459640000000001 -1.813644 10.534009 4.207846 16.905753 -0.7916700000000001 25.578138000000003 -15.509535a47.76409 47.76409 0 0 0 6.489295 -18.788968 4.071103 4.071103 0 0 0 -1.744073 -3.8623900000000004L87.20365000000001 27.8284Z" stroke-width="2.04"></path><path stroke="#00034a" stroke-linecap="round" stroke-miterlimit="10" d="M54.908312 56.196575c5.325780000000001 -8.977058 12.765079 -23.392649 24.462602999999998 -34.715929" stroke-width="2.04"></path><path fill="#e29269" stroke="#00034a" stroke-linecap="round" stroke-miterlimit="10" d="M39.026932 92.399884a4.394968 4.394968 0 1 0 0 -8.789936 4.394968 4.394968 0 0 0 0 8.789936Z" stroke-width="2.04"></path><path fill="#e29269" stroke="#00034a" stroke-miterlimit="10" d="M29.260603 85.819427a3.02274 3.02274 0 0 1 -3.349004 2.650895C8.984255000000001 86.587107 0.055177 75.170266 2.077534 58.266912a3.02274 3.02274 0 1 1 5.999899 0.6957099999999999c-1.604931 13.556749 4.9755259999999994 21.902870000000004 18.601846 23.5102a3.02274 3.02274 0 0 1 2.5813240000000004 3.3466050000000003Z" stroke-width="2.04"></path></svg>