<?xml version="1.0" encoding="utf-8"?>
<!-- Generator: Adobe Illustrator 25.2.3, SVG Export Plug-In . SVG Version: 6.00 Build 0)  -->
<svg version="1.1" id="Layer_1" xmlns="http://www.w3.org/2000/svg" xmlns:xlink="http://www.w3.org/1999/xlink" x="0px" y="0px"
	 viewBox="0 0 898.52 1030.02" style="enable-background:new 0 0 898.52 1030.02;" xml:space="preserve">
<style type="text/css">
	.st0{fill:#F2CB05;}
	.st1{fill:#3F7E43;}
	.st2{fill:#7503A6;}
	.st3{fill:#FFFFFF;}
	.st4{fill:#414144;}
</style>
<g>
	<g>
		<g>
			<circle class="st0" cx="294.24" cy="294.24" r="294.18"/>
			<circle class="st1" cx="604.3" cy="482.6" r="294.18"/>
			<circle class="st2" cx="461.96" cy="395.74" r="294.18"/>
		</g>
		<g>
			<path class="st3" d="M330.13,264.2l-22.47,107.74h-21.09l-13.24-55.41c-1.54-6.46-3.08-14.47-3.69-18.47
				c-0.46,4-2,12.16-3.54,18.47l-13.54,55.41h-20.16L209.92,264.2h22.47l9.39,52.48c0.92,5.23,2.16,13.24,2.62,17.7
				c0.77-4.46,2.46-12.47,3.69-17.7l12.62-52.48h18.78l12.77,52.48c1.23,5.23,2.92,13.24,3.69,17.7c0.46-4.46,1.69-12.62,2.62-17.7
				l9.39-52.48H330.13z"/>
			<path class="st3" d="M406.78,331.62c0,3.08-0.15,5.23-0.31,6.77h-48.33c0.77,11.08,8.93,15.24,16.62,15.24
				c5.85,0,10.77-2.15,13.85-5.69l15.08,12.62c-6.47,8.31-18.16,13.08-28.94,13.08c-23.24,0-38.02-16.47-38.02-42.02
				c0-24.78,15.55-42.17,36.02-42.17C394.31,289.44,406.78,308.53,406.78,331.62z M386.15,322.38c-0.61-7.23-4.92-14.47-14.47-14.47
				c-7.69,0-12.47,6.31-13.24,14.47H386.15z"/>
			<path class="st3" d="M514.06,349.93H499.9v22.01h-20.78v-22.01h-58.95v-19.39l57.1-66.34h22.63v65.72h14.16V349.93z
				 M479.58,288.83c-2,2.77-6,8-9.54,12.16L454.65,319c-3.39,4-7.85,8.93-10.16,11.24c3.69,0,15.24-0.31,21.39-0.31h13.24v-17.55
				C479.12,306.22,479.58,292.83,479.58,288.83z"/>
			<path class="st3" d="M297.65,415.19l-20.01,9.23c-3.85-7.39-10.01-11.7-19.7-11.7c-16.16,0-25.4,14.16-25.4,34.17
				c0,19.39,9.39,34.17,25.55,34.17c9.7,0,15.39-4.16,21.09-13.7l18.16,10.77c-7.39,15.24-20.32,24.32-39.87,24.32
				c-28.17,0-47.1-21.55-47.1-55.56c0-32.78,19.7-55.56,47.87-55.56C278.56,391.33,290.88,401.18,297.65,415.19z"/>
			<path class="st3" d="M385.69,500.76h-21.24v-43.71c0-14.47-4.92-18.78-13.7-18.78c-8.77,0-13.85,4.31-13.85,18.32v44.17h-21.24
				V399.18l21.24-10.62v36.79c3.69-3.85,10.47-7.08,18.93-7.08c20.63,0,29.86,14.16,29.86,36.94V500.76z"/>
			<path class="st3" d="M471.27,500.76h-21.24v-5.39c-3.85,4-10.62,7.08-18.16,7.08c-15.08,0-30.17-9.23-30.17-28.78
				c0-17.85,14.47-26.78,32.78-26.78c7.39,0,12.16,1.54,15.55,3.23v-4c0-5.69-3.85-10.31-11.54-10.31c-9.7,0-14.78,1.39-22.16,5.39
				l-8.16-14.78c9.39-5.39,17.24-8.16,30.32-8.16c19.55,0,32.78,10.16,32.78,28.32V500.76z M450.03,477.06V466.9
				c-3.69-2.31-7.23-3.39-14.78-3.39c-8,0-12.31,3.69-12.31,10.16c0,5.7,3.23,10.77,12.31,10.77
				C442.18,484.45,447.72,480.91,450.03,477.06z"/>
			<path class="st3" d="M561.16,500.76h-21.24v-43.71c0-14.47-4.93-18.78-13.7-18.78s-13.85,4.31-13.85,18.32v44.17h-21.24v-80.81
				h21.24v5.39c3.69-3.85,10.47-7.08,18.93-7.08c20.63,0,29.86,14.16,29.86,36.94V500.76z"/>
			<path class="st3" d="M646.59,487.06c0,26.63-6.47,40.33-34.79,43.4l-7.54-16.01c16.62-2.31,21.09-6.31,21.09-18.78
				c-4,3.54-9.39,6.77-17.08,6.77c-17.24,0-31.4-12.93-31.4-43.1c0-24.16,11.39-41.1,31.4-41.1c7.08,0,13.24,2.77,17.08,6.31v-4.62
				h21.24V487.06z M625.34,475.67V445.2c-3.23-4.46-8.16-6.93-14.31-6.93c-8.16,0-12.62,7.08-12.62,20.63
				c0,16.62,5.54,23.55,13.85,23.55C618.88,482.45,622.27,479.68,625.34,475.67z"/>
			<path class="st3" d="M733.4,460.44c0,3.08-0.15,5.23-0.31,6.77h-48.33c0.77,11.08,8.93,15.24,16.62,15.24
				c5.85,0,10.77-2.15,13.85-5.69l15.08,12.62c-6.47,8.31-18.16,13.08-28.94,13.08c-23.24,0-38.02-16.47-38.02-42.02
				c0-24.78,15.55-42.17,36.02-42.17C720.93,418.26,733.4,437.35,733.4,460.44z M712.77,451.2c-0.61-7.23-4.92-14.47-14.47-14.47
				c-7.69,0-12.47,6.31-13.24,14.47H712.77z"/>
		</g>
	</g>
	<g>
		<path class="st4" d="M65.61,902.24c-0.48-1.46-1.11-2.78-1.88-3.95c-0.78-1.17-1.7-2.16-2.76-2.99c-1.07-0.83-2.27-1.46-3.62-1.89
			c-1.35-0.43-2.83-0.65-4.43-0.65c-2.64,0-5.04,0.68-7.2,2.04c-2.16,1.36-3.88,3.37-5.15,6.02c-1.28,2.65-1.91,5.91-1.91,9.76
			c0,3.85,0.64,7.11,1.94,9.76c1.29,2.65,3.04,4.66,5.24,6.02c2.2,1.36,4.68,2.04,7.44,2.04c2.55,0,4.8-0.55,6.75-1.64
			c1.95-1.09,3.47-2.64,4.56-4.65c1.09-2.01,1.64-4.37,1.64-7.1l1.65,0.35H54.48v-4.78h16.96v4.78c0,3.67-0.78,6.85-2.34,9.57
			c-1.56,2.71-3.7,4.81-6.44,6.29c-2.73,1.49-5.87,2.23-9.4,2.23c-3.94,0-7.4-0.93-10.38-2.78c-2.98-1.85-5.3-4.49-6.96-7.92
			c-1.66-3.42-2.49-7.48-2.49-12.17c0-3.52,0.47-6.69,1.42-9.51c0.95-2.82,2.29-5.22,4.03-7.21s3.8-3.51,6.17-4.56
			c2.38-1.06,4.99-1.59,7.85-1.59c2.35,0,4.54,0.35,6.58,1.06c2.04,0.7,3.86,1.69,5.46,2.98c1.6,1.28,2.94,2.81,4.01,4.59
			c1.07,1.78,1.81,3.74,2.22,5.9H65.61z"/>
		<path class="st4" d="M84.65,893.89c-1,0-1.86-0.34-2.58-1.02c-0.72-0.68-1.08-1.5-1.08-2.46s0.36-1.77,1.08-2.46
			c0.72-0.68,1.58-1.02,2.58-1.02c1,0,1.86,0.34,2.58,1.02c0.72,0.68,1.08,1.5,1.08,2.46s-0.36,1.78-1.08,2.46
			C86.51,893.55,85.65,893.89,84.65,893.89z M82.04,932.85v-33.39h5.13v33.39H82.04z"/>
		<path class="st4" d="M96.56,932.85v-33.39h4.96v5.04h0.35c0.61-1.65,1.71-2.99,3.3-4.02c1.6-1.03,3.39-1.54,5.39-1.54
			c0.38,0,0.85,0.01,1.41,0.02c0.57,0.01,0.99,0.04,1.28,0.06v5.22c-0.17-0.04-0.57-0.11-1.19-0.21c-0.61-0.09-1.26-0.14-1.95-0.14
			c-1.62,0-3.07,0.33-4.34,1.01c-1.27,0.67-2.27,1.6-3,2.78c-0.73,1.18-1.1,2.52-1.1,4.03v21.13H96.56z"/>
		<path class="st4" d="M124.47,888.33v44.52h-5.13v-44.52H124.47z"/>
		<path class="st4" d="M157.52,906.94l-4.61,1.3c-0.29-0.77-0.71-1.52-1.27-2.25c-0.56-0.73-1.32-1.34-2.27-1.82
			s-2.18-0.72-3.67-0.72c-2.04,0-3.74,0.47-5.1,1.4c-1.35,0.93-2.03,2.12-2.03,3.55c0,1.28,0.46,2.28,1.39,3.02
			c0.93,0.74,2.38,1.35,4.35,1.85l4.96,1.22c2.99,0.72,5.21,1.83,6.68,3.32c1.46,1.49,2.19,3.39,2.19,5.73
			c0,1.91-0.55,3.62-1.64,5.13c-1.09,1.51-2.62,2.7-4.58,3.57c-1.96,0.87-4.23,1.3-6.83,1.3c-3.41,0-6.23-0.74-8.46-2.22
			c-2.23-1.48-3.65-3.64-4.24-6.48l4.87-1.22c0.46,1.8,1.34,3.14,2.64,4.04s3,1.35,5.1,1.35c2.39,0,4.29-0.51,5.71-1.53
			c1.41-1.02,2.12-2.25,2.12-3.68c0-1.16-0.41-2.14-1.22-2.92c-0.81-0.79-2.06-1.38-3.74-1.77l-5.56-1.3
			c-3.06-0.72-5.3-1.85-6.73-3.38c-1.43-1.53-2.14-3.45-2.14-5.75c0-1.89,0.53-3.55,1.6-5c1.07-1.45,2.52-2.59,4.37-3.41
			c1.85-0.83,3.95-1.24,6.29-1.24c3.31,0,5.9,0.72,7.79,2.17C155.38,902.65,156.72,904.56,157.52,906.94z"/>
		<path class="st4" d="M192.91,933.63c-2.12,0-4.04-0.4-5.76-1.21c-1.73-0.8-3.1-1.97-4.11-3.5c-1.01-1.53-1.52-3.38-1.52-5.55
			c0-1.91,0.38-3.47,1.13-4.66c0.75-1.2,1.76-2.13,3.02-2.82c1.26-0.68,2.66-1.19,4.18-1.53c1.53-0.34,3.07-0.61,4.62-0.82
			c2.03-0.26,3.68-0.46,4.94-0.6c1.27-0.14,2.2-0.37,2.78-0.71c0.59-0.33,0.88-0.91,0.88-1.74v-0.17c0-2.14-0.58-3.81-1.75-5
			c-1.17-1.19-2.93-1.78-5.29-1.78c-2.45,0-4.37,0.54-5.76,1.61c-1.39,1.07-2.37,2.22-2.94,3.43l-4.87-1.74
			c0.87-2.03,2.03-3.61,3.49-4.75s3.05-1.94,4.78-2.39c1.73-0.46,3.44-0.69,5.12-0.69c1.07,0,2.31,0.13,3.71,0.38
			c1.4,0.25,2.75,0.77,4.07,1.55c1.31,0.78,2.4,1.96,3.27,3.54c0.87,1.58,1.3,3.7,1.3,6.35v22h-5.13v-4.52h-0.26
			c-0.35,0.73-0.93,1.5-1.74,2.33c-0.81,0.83-1.89,1.53-3.24,2.11S194.85,933.63,192.91,933.63z M193.69,929.03
			c2.03,0,3.74-0.4,5.14-1.2c1.4-0.8,2.46-1.83,3.17-3.09c0.72-1.26,1.08-2.59,1.08-3.98v-4.7c-0.22,0.26-0.69,0.5-1.42,0.71
			c-0.73,0.21-1.57,0.39-2.52,0.54c-0.95,0.15-1.87,0.28-2.76,0.39c-0.89,0.11-1.61,0.2-2.16,0.27c-1.33,0.17-2.58,0.45-3.73,0.84
			c-1.15,0.39-2.08,0.96-2.78,1.72c-0.7,0.76-1.05,1.79-1.05,3.1c0,1.78,0.66,3.13,1.99,4.03
			C189.96,928.57,191.65,929.03,193.69,929.03z"/>
		<path class="st4" d="M222.74,912.76v20.09h-5.13v-33.39h4.96v5.22H223c0.78-1.7,1.97-3.06,3.56-4.1c1.6-1.04,3.65-1.55,6.17-1.55
			c2.26,0,4.24,0.46,5.94,1.38c1.69,0.92,3.01,2.31,3.96,4.17c0.94,1.86,1.41,4.22,1.41,7.05v21.22h-5.13v-20.87
			c0-2.62-0.68-4.67-2.04-6.14c-1.36-1.47-3.23-2.21-5.61-2.21c-1.64,0-3.1,0.36-4.38,1.07c-1.28,0.71-2.29,1.75-3.03,3.11
			C223.11,909.17,222.74,910.82,222.74,912.76z"/>
		<path class="st4" d="M266.04,933.55c-2.78,0-5.24-0.71-7.37-2.12c-2.13-1.41-3.8-3.41-5-6c-1.2-2.59-1.8-5.65-1.8-9.19
			c0-3.51,0.6-6.55,1.8-9.13c1.2-2.58,2.88-4.57,5.02-5.98c2.15-1.41,4.62-2.11,7.44-2.11c2.17,0,3.89,0.36,5.16,1.08
			c1.27,0.72,2.24,1.53,2.91,2.44c0.67,0.91,1.2,1.65,1.58,2.23h0.44v-16.44h5.13v44.52h-4.96v-5.13h-0.61
			c-0.38,0.61-0.91,1.37-1.61,2.29s-1.69,1.74-2.98,2.46C269.9,933.19,268.19,933.55,266.04,933.55z M266.74,928.94
			c2.06,0,3.8-0.54,5.22-1.62c1.42-1.08,2.5-2.58,3.24-4.5c0.74-1.92,1.11-4.14,1.11-6.66c0-2.49-0.36-4.68-1.09-6.56
			c-0.72-1.88-1.8-3.34-3.22-4.39c-1.42-1.05-3.17-1.58-5.26-1.58c-2.17,0-3.98,0.56-5.42,1.66c-1.44,1.11-2.52,2.61-3.24,4.5
			c-0.72,1.89-1.08,4.01-1.08,6.36c0,2.38,0.37,4.53,1.1,6.47c0.73,1.93,1.82,3.47,3.26,4.61
			C262.8,928.37,264.59,928.94,266.74,928.94z"/>
		<path class="st4" d="M317.43,932.85l-12.17-44.52h5.48l9.3,36.26h0.44l9.48-36.26h6.09l9.48,36.26h0.43l9.31-36.26h5.48
			l-12.17,44.52H343l-9.82-35.48h-0.35L323,932.85H317.43z"/>
		<path class="st4" d="M377.17,933.55c-3.01,0-5.66-0.72-7.92-2.15c-2.27-1.43-4.04-3.44-5.31-6.02c-1.27-2.58-1.9-5.6-1.9-9.04
			c0-3.48,0.64-6.51,1.9-9.11c1.27-2.59,3.04-4.61,5.31-6.04c2.27-1.43,4.91-2.15,7.92-2.15c3.01,0,5.66,0.72,7.92,2.15
			c2.27,1.43,4.04,3.45,5.3,6.04c1.27,2.6,1.9,5.63,1.9,9.11c0,3.45-0.63,6.46-1.9,9.04c-1.27,2.58-3.04,4.59-5.3,6.02
			C382.83,932.83,380.19,933.55,377.17,933.55z M377.17,928.94c2.29,0,4.17-0.59,5.65-1.76c1.48-1.17,2.57-2.72,3.28-4.63
			c0.71-1.91,1.06-3.99,1.06-6.22c0-2.23-0.36-4.31-1.06-6.24c-0.71-1.93-1.81-3.48-3.28-4.67c-1.48-1.19-3.36-1.78-5.65-1.78
			c-2.29,0-4.17,0.59-5.65,1.78c-1.48,1.19-2.57,2.75-3.28,4.67c-0.71,1.93-1.07,4.01-1.07,6.24c0,2.23,0.36,4.3,1.07,6.22
			c0.71,1.91,1.8,3.46,3.28,4.63C373,928.35,374.88,928.94,377.17,928.94z"/>
		<path class="st4" d="M400.13,932.85v-33.39h4.96v5.22h0.44c0.7-1.78,1.82-3.17,3.37-4.16c1.55-0.99,3.41-1.49,5.59-1.49
			c2.2,0,4.04,0.5,5.51,1.49c1.47,0.99,2.62,2.38,3.45,4.16h0.35c0.85-1.73,2.14-3.1,3.85-4.12c1.71-1.02,3.76-1.53,6.15-1.53
			c2.99,0,5.43,0.93,7.33,2.79c1.9,1.86,2.85,4.76,2.85,8.68v22.35h-5.13V910.5c0-2.46-0.67-4.22-2.02-5.28
			c-1.35-1.06-2.93-1.59-4.76-1.59c-2.35,0-4.17,0.71-5.46,2.12c-1.29,1.41-1.93,3.2-1.93,5.36v21.74h-5.22v-22.87
			c0-1.9-0.62-3.43-1.85-4.6s-2.82-1.75-4.76-1.75c-1.33,0-2.58,0.36-3.73,1.07c-1.15,0.71-2.08,1.69-2.78,2.94
			c-0.7,1.25-1.05,2.7-1.05,4.34v20.87H400.13z"/>
		<path class="st4" d="M467.35,933.55c-3.22,0-5.99-0.71-8.32-2.14c-2.33-1.43-4.12-3.43-5.37-6c-1.25-2.57-1.88-5.57-1.88-8.99
			c0-3.42,0.63-6.44,1.88-9.05c1.25-2.62,3.01-4.66,5.26-6.13c2.25-1.47,4.89-2.21,7.9-2.21c1.74,0,3.46,0.29,5.15,0.87
			c1.69,0.58,3.24,1.52,4.63,2.81c1.39,1.3,2.5,3.01,3.33,5.14c0.83,2.13,1.24,4.75,1.24,7.87v2.17h-25.74v-4.43h20.52
			c0-1.89-0.37-3.57-1.12-5.05c-0.75-1.48-1.8-2.64-3.17-3.5c-1.37-0.86-2.98-1.28-4.84-1.28c-2.04,0-3.81,0.51-5.29,1.51
			c-1.49,1.01-2.63,2.31-3.42,3.92c-0.8,1.61-1.2,3.33-1.2,5.18v2.96c0,2.52,0.44,4.66,1.32,6.4c0.88,1.75,2.1,3.07,3.66,3.98
			c1.57,0.91,3.38,1.36,5.46,1.36c1.35,0,2.57-0.19,3.66-0.58c1.09-0.38,2.04-0.96,2.84-1.74c0.8-0.78,1.41-1.74,1.85-2.9l4.96,1.39
			c-0.52,1.68-1.4,3.15-2.63,4.42c-1.23,1.27-2.75,2.25-4.57,2.96S469.61,933.55,467.35,933.55z"/>
		<path class="st4" d="M494.13,912.76v20.09H489v-33.39h4.96v5.22h0.43c0.78-1.7,1.97-3.06,3.56-4.1c1.6-1.04,3.65-1.55,6.17-1.55
			c2.26,0,4.24,0.46,5.94,1.38c1.69,0.92,3.01,2.31,3.96,4.17c0.94,1.86,1.41,4.22,1.41,7.05v21.22h-5.13v-20.87
			c0-2.62-0.68-4.67-2.04-6.14c-1.36-1.47-3.23-2.21-5.61-2.21c-1.64,0-3.1,0.36-4.38,1.07s-2.29,1.75-3.03,3.11
			C494.5,909.17,494.13,910.82,494.13,912.76z"/>
		<path class="st4" d="M578.56,902.24h-5.39c-0.32-1.55-0.87-2.91-1.66-4.09c-0.79-1.18-1.75-2.16-2.87-2.97
			c-1.12-0.8-2.37-1.41-3.73-1.81c-1.36-0.41-2.78-0.61-4.26-0.61c-2.7,0-5.13,0.68-7.32,2.04c-2.18,1.36-3.91,3.37-5.2,6.02
			c-1.28,2.65-1.92,5.91-1.92,9.76c0,3.85,0.64,7.11,1.92,9.76c1.28,2.65,3.01,4.66,5.2,6.02c2.18,1.36,4.62,2.04,7.32,2.04
			c1.48,0,2.9-0.2,4.26-0.61c1.36-0.41,2.61-1.01,3.73-1.82c1.12-0.8,2.08-1.8,2.87-2.98c0.79-1.18,1.34-2.54,1.66-4.08h5.39
			c-0.4,2.28-1.14,4.31-2.22,6.11c-1.07,1.8-2.41,3.32-4,4.58c-1.59,1.25-3.38,2.21-5.36,2.86s-4.09,0.98-6.34,0.98
			c-3.8,0-7.17-0.93-10.13-2.78c-2.96-1.85-5.28-4.49-6.98-7.92c-1.7-3.42-2.55-7.48-2.55-12.17c0-4.7,0.85-8.76,2.55-12.18
			c1.69-3.42,4.02-6.06,6.98-7.91s6.33-2.78,10.13-2.78c2.25,0,4.36,0.33,6.34,0.98c1.98,0.65,3.76,1.6,5.36,2.86
			c1.59,1.25,2.93,2.78,4,4.57S578.16,899.95,578.56,902.24z"/>
		<path class="st4" d="M600.13,933.55c-3.01,0-5.66-0.72-7.92-2.15c-2.27-1.43-4.04-3.44-5.3-6.02c-1.27-2.58-1.9-5.6-1.9-9.04
			c0-3.48,0.63-6.51,1.9-9.11c1.27-2.59,3.04-4.61,5.3-6.04c2.27-1.43,4.91-2.15,7.92-2.15s5.66,0.72,7.92,2.15
			c2.27,1.43,4.04,3.45,5.31,6.04c1.27,2.6,1.9,5.63,1.9,9.11c0,3.45-0.63,6.46-1.9,9.04c-1.27,2.58-3.04,4.59-5.31,6.02
			C605.78,932.83,603.14,933.55,600.13,933.55z M600.13,928.94c2.29,0,4.17-0.59,5.65-1.76c1.48-1.17,2.57-2.72,3.28-4.63
			c0.71-1.91,1.07-3.99,1.07-6.22c0-2.23-0.36-4.31-1.07-6.24c-0.71-1.93-1.8-3.48-3.28-4.67c-1.48-1.19-3.36-1.78-5.65-1.78
			s-4.17,0.59-5.65,1.78c-1.48,1.19-2.57,2.75-3.28,4.67c-0.71,1.93-1.06,4.01-1.06,6.24c0,2.23,0.35,4.3,1.06,6.22
			s1.81,3.46,3.28,4.63C595.96,928.35,597.84,928.94,600.13,928.94z"/>
		<path class="st4" d="M628.21,912.76v20.09h-5.13v-33.39h4.96v5.22h0.43c0.78-1.7,1.97-3.06,3.56-4.1c1.6-1.04,3.65-1.55,6.17-1.55
			c2.26,0,4.24,0.46,5.94,1.38c1.69,0.92,3.01,2.31,3.96,4.17c0.94,1.86,1.41,4.22,1.41,7.05v21.22h-5.13v-20.87
			c0-2.62-0.68-4.67-2.04-6.14c-1.36-1.47-3.23-2.21-5.61-2.21c-1.64,0-3.1,0.36-4.38,1.07s-2.29,1.75-3.03,3.11
			C628.59,909.17,628.21,910.82,628.21,912.76z"/>
		<path class="st4" d="M664.04,912.76v20.09h-5.13v-33.39h4.96v5.22h0.44c0.78-1.7,1.97-3.06,3.56-4.1
			c1.59-1.04,3.65-1.55,6.17-1.55c2.26,0,4.24,0.46,5.93,1.38c1.7,0.92,3.01,2.31,3.96,4.17c0.94,1.86,1.41,4.22,1.41,7.05v21.22
			h-5.13v-20.87c0-2.62-0.68-4.67-2.04-6.14c-1.36-1.47-3.23-2.21-5.61-2.21c-1.64,0-3.1,0.36-4.38,1.07
			c-1.28,0.71-2.29,1.75-3.03,3.11S664.04,910.82,664.04,912.76z"/>
		<path class="st4" d="M708.74,933.55c-3.22,0-5.99-0.71-8.32-2.14s-4.12-3.43-5.37-6s-1.88-5.57-1.88-8.99
			c0-3.42,0.63-6.44,1.88-9.05c1.25-2.62,3.01-4.66,5.26-6.13c2.25-1.47,4.89-2.21,7.9-2.21c1.74,0,3.46,0.29,5.15,0.87
			c1.7,0.58,3.24,1.52,4.63,2.81c1.39,1.3,2.5,3.01,3.33,5.14c0.83,2.13,1.24,4.75,1.24,7.87v2.17h-25.74v-4.43h20.52
			c0-1.89-0.37-3.57-1.12-5.05c-0.75-1.48-1.81-2.64-3.17-3.5c-1.37-0.86-2.98-1.28-4.84-1.28c-2.04,0-3.81,0.51-5.29,1.51
			c-1.49,1.01-2.63,2.31-3.42,3.92c-0.8,1.61-1.2,3.33-1.2,5.18v2.96c0,2.52,0.44,4.66,1.32,6.4c0.88,1.75,2.1,3.07,3.66,3.98
			c1.56,0.91,3.38,1.36,5.46,1.36c1.35,0,2.57-0.19,3.66-0.58c1.09-0.38,2.04-0.96,2.84-1.74c0.8-0.78,1.41-1.74,1.85-2.9l4.96,1.39
			c-0.52,1.68-1.4,3.15-2.63,4.42c-1.23,1.27-2.75,2.25-4.56,2.96C713.03,933.2,711,933.55,708.74,933.55z"/>
		<path class="st4" d="M743.95,933.55c-3.13,0-5.83-0.74-8.09-2.22c-2.26-1.48-4-3.51-5.22-6.11c-1.22-2.59-1.83-5.56-1.83-8.89
			c0-3.39,0.63-6.39,1.88-8.99c1.25-2.6,3.01-4.64,5.26-6.11c2.25-1.47,4.89-2.21,7.9-2.21c2.35,0,4.46,0.44,6.35,1.3
			s3.43,2.09,4.63,3.65c1.2,1.56,1.95,3.39,2.24,5.48h-5.13c-0.39-1.52-1.26-2.87-2.6-4.05c-1.34-1.18-3.14-1.77-5.4-1.77
			c-2,0-3.75,0.52-5.25,1.55c-1.5,1.04-2.67,2.49-3.5,4.37c-0.83,1.88-1.25,4.08-1.25,6.6c0,2.58,0.41,4.83,1.23,6.74
			c0.82,1.91,1.98,3.4,3.48,4.46s3.26,1.59,5.29,1.59c1.33,0,2.54-0.23,3.63-0.7c1.09-0.46,2.01-1.13,2.76-2
			c0.75-0.87,1.29-1.91,1.61-3.13h5.13c-0.29,1.97-1,3.74-2.14,5.32c-1.14,1.57-2.64,2.82-4.5,3.74S746.42,933.55,743.95,933.55z"/>
		<path class="st4" d="M779.09,899.46v4.35h-17.3v-4.35H779.09z M766.82,891.46h5.13v31.83c0,1.45,0.21,2.53,0.64,3.25
			s0.98,1.2,1.65,1.43c0.67,0.24,1.39,0.36,2.14,0.36c0.57,0,1.03-0.03,1.39-0.1c0.36-0.06,0.65-0.12,0.87-0.16l1.04,4.61
			c-0.35,0.13-0.83,0.26-1.46,0.4c-0.62,0.14-1.41,0.2-2.37,0.2c-1.45,0-2.87-0.31-4.25-0.93c-1.38-0.63-2.53-1.57-3.43-2.85
			c-0.91-1.27-1.36-2.88-1.36-4.83V891.46z"/>
		<path class="st4" d="M789.43,893.89c-1,0-1.86-0.34-2.58-1.02c-0.72-0.68-1.08-1.5-1.08-2.46s0.36-1.77,1.08-2.46
			c0.72-0.68,1.58-1.02,2.58-1.02c1,0,1.86,0.34,2.58,1.02c0.72,0.68,1.08,1.5,1.08,2.46s-0.36,1.78-1.08,2.46
			C791.29,893.55,790.43,893.89,789.43,893.89z M786.82,932.85v-33.39h5.13v33.39H786.82z"/>
		<path class="st4" d="M806.48,912.76v20.09h-5.13v-33.39h4.96v5.22h0.44c0.78-1.7,1.97-3.06,3.56-4.1
			c1.59-1.04,3.65-1.55,6.17-1.55c2.26,0,4.24,0.46,5.93,1.38c1.7,0.92,3.01,2.31,3.96,4.17c0.94,1.86,1.41,4.22,1.41,7.05v21.22
			h-5.13v-20.87c0-2.62-0.68-4.67-2.04-6.14c-1.36-1.47-3.23-2.21-5.61-2.21c-1.64,0-3.1,0.36-4.38,1.07
			c-1.28,0.71-2.29,1.75-3.03,3.11C806.84,909.17,806.48,910.82,806.48,912.76z"/>
		<path class="st4" d="M850.65,946.07c-2.48,0-4.61-0.31-6.39-0.95c-1.78-0.63-3.26-1.46-4.45-2.48c-1.18-1.02-2.12-2.11-2.81-3.27
			l4.09-2.87c0.46,0.61,1.05,1.31,1.76,2.1c0.71,0.79,1.68,1.48,2.92,2.07c1.24,0.59,2.87,0.88,4.88,0.88c2.7,0,4.92-0.65,6.67-1.96
			c1.75-1.3,2.63-3.35,2.63-6.13v-6.78h-0.44c-0.38,0.61-0.91,1.36-1.6,2.25c-0.69,0.89-1.67,1.68-2.96,2.37s-3.01,1.03-5.18,1.03
			c-2.7,0-5.11-0.64-7.25-1.91c-2.14-1.27-3.83-3.13-5.06-5.57c-1.24-2.43-1.86-5.39-1.86-8.87c0-3.42,0.6-6.4,1.81-8.95
			c1.2-2.54,2.88-4.51,5.02-5.91c2.14-1.4,4.62-2.1,7.44-2.1c2.17,0,3.9,0.36,5.18,1.08s2.27,1.53,2.96,2.44
			c0.69,0.91,1.22,1.65,1.6,2.23h0.52v-5.3h4.96v34.35c0,2.87-0.65,5.21-1.95,7.01c-1.3,1.81-3.04,3.13-5.22,3.98
			C855.74,945.64,853.32,946.07,850.65,946.07z M850.48,927.72c2.06,0,3.8-0.47,5.22-1.41c1.42-0.94,2.5-2.3,3.24-4.07
			c0.74-1.77,1.11-3.88,1.11-6.35c0-2.41-0.36-4.53-1.09-6.37c-0.73-1.84-1.8-3.28-3.22-4.33c-1.42-1.04-3.17-1.57-5.26-1.57
			c-2.17,0-3.98,0.55-5.42,1.65c-1.44,1.1-2.52,2.58-3.24,4.43s-1.08,3.91-1.08,6.17c0,2.32,0.37,4.37,1.1,6.14
			c0.73,1.78,1.82,3.17,3.26,4.17C846.54,927.22,848.33,927.72,850.48,927.72z"/>
		<path class="st4" d="M95.17,983.42v4.35h-18v-4.35H95.17z M82.56,1016.81v-38c0-1.91,0.45-3.51,1.35-4.78
			c0.9-1.27,2.07-2.23,3.5-2.87c1.43-0.64,2.95-0.96,4.54-0.96c1.26,0,2.29,0.1,3.09,0.31c0.8,0.2,1.39,0.39,1.78,0.57l-1.48,4.43
			c-0.26-0.09-0.62-0.19-1.08-0.32c-0.46-0.13-1.05-0.2-1.79-0.2c-1.7,0-2.92,0.43-3.66,1.28c-0.75,0.85-1.12,2.11-1.12,3.76v36.78
			H82.56z"/>
		<path class="st4" d="M114.56,1017.5c-3.01,0-5.66-0.72-7.92-2.15c-2.27-1.43-4.04-3.44-5.3-6.02c-1.27-2.58-1.9-5.6-1.9-9.04
			c0-3.48,0.63-6.51,1.9-9.11c1.27-2.59,3.04-4.61,5.3-6.04c2.27-1.43,4.91-2.15,7.92-2.15c3.01,0,5.66,0.72,7.92,2.15
			c2.27,1.43,4.04,3.45,5.31,6.04c1.27,2.6,1.9,5.63,1.9,9.11c0,3.45-0.63,6.46-1.9,9.04c-1.27,2.58-3.04,4.59-5.31,6.02
			C120.22,1016.79,117.58,1017.5,114.56,1017.5z M114.56,1012.89c2.29,0,4.17-0.59,5.65-1.76c1.48-1.17,2.57-2.72,3.28-4.63
			c0.71-1.91,1.07-3.99,1.07-6.22c0-2.23-0.36-4.31-1.07-6.24c-0.71-1.93-1.8-3.48-3.28-4.67c-1.48-1.19-3.36-1.78-5.65-1.78
			c-2.29,0-4.17,0.59-5.65,1.78c-1.48,1.19-2.57,2.75-3.28,4.67c-0.71,1.93-1.06,4.01-1.06,6.24c0,2.23,0.35,4.3,1.06,6.22
			c0.71,1.91,1.81,3.46,3.28,4.63C110.39,1012.31,112.27,1012.89,114.56,1012.89z"/>
		<path class="st4" d="M137.52,1016.81v-33.39h4.96v5.04h0.35c0.61-1.65,1.71-2.99,3.31-4.02c1.59-1.03,3.39-1.54,5.39-1.54
			c0.38,0,0.85,0.01,1.41,0.02c0.57,0.01,0.99,0.04,1.28,0.06v5.22c-0.17-0.04-0.57-0.11-1.18-0.21c-0.62-0.09-1.27-0.14-1.95-0.14
			c-1.62,0-3.07,0.33-4.34,1.01c-1.27,0.67-2.27,1.6-3,2.78c-0.73,1.18-1.1,2.52-1.1,4.03v21.13H137.52z"/>
		<path class="st4" d="M178.22,1016.81v-44.52h26.87v4.78h-21.48v15.04h20.09v4.78h-20.09v15.13h21.83v4.78H178.22z"/>
		<path class="st4" d="M219.26,996.72v20.09h-5.13v-33.39h4.96v5.22h0.43c0.78-1.7,1.97-3.06,3.56-4.1c1.6-1.04,3.65-1.55,6.17-1.55
			c2.26,0,4.24,0.46,5.94,1.38c1.69,0.92,3.01,2.31,3.96,4.17c0.94,1.86,1.41,4.22,1.41,7.05v21.22h-5.13v-20.87
			c0-2.62-0.68-4.67-2.04-6.14c-1.36-1.47-3.23-2.21-5.61-2.21c-1.64,0-3.1,0.36-4.38,1.07c-1.28,0.71-2.29,1.75-3.03,3.11
			C219.63,993.13,219.26,994.78,219.26,996.72z"/>
		<path class="st4" d="M276.04,983.42l-12.35,33.39h-5.22l-12.35-33.39h5.56l9.22,26.61h0.35l9.22-26.61H276.04z"/>
		<path class="st4" d="M285.43,977.85c-1,0-1.86-0.34-2.58-1.02c-0.72-0.68-1.08-1.5-1.08-2.46s0.36-1.77,1.08-2.46
			c0.72-0.68,1.58-1.02,2.58-1.02c1,0,1.86,0.34,2.58,1.02c0.72,0.68,1.08,1.5,1.08,2.46s-0.36,1.78-1.08,2.46
			C287.29,977.51,286.43,977.85,285.43,977.85z M282.82,1016.81v-33.39h5.13v33.39H282.82z"/>
		<path class="st4" d="M297.34,1016.81v-33.39h4.96v5.04h0.35c0.61-1.65,1.71-2.99,3.3-4.02c1.6-1.03,3.39-1.54,5.39-1.54
			c0.38,0,0.85,0.01,1.41,0.02c0.57,0.01,0.99,0.04,1.28,0.06v5.22c-0.17-0.04-0.57-0.11-1.19-0.21c-0.61-0.09-1.26-0.14-1.95-0.14
			c-1.62,0-3.07,0.33-4.34,1.01s-2.27,1.6-3,2.78c-0.73,1.18-1.1,2.52-1.1,4.03v21.13H297.34z"/>
		<path class="st4" d="M332.65,1017.5c-3.01,0-5.66-0.72-7.92-2.15c-2.27-1.43-4.04-3.44-5.3-6.02c-1.27-2.58-1.9-5.6-1.9-9.04
			c0-3.48,0.63-6.51,1.9-9.11c1.27-2.59,3.04-4.61,5.3-6.04c2.27-1.43,4.91-2.15,7.92-2.15s5.66,0.72,7.92,2.15
			c2.27,1.43,4.04,3.45,5.31,6.04c1.27,2.6,1.9,5.63,1.9,9.11c0,3.45-0.63,6.46-1.9,9.04c-1.27,2.58-3.04,4.59-5.31,6.02
			C338.3,1016.79,335.66,1017.5,332.65,1017.5z M332.65,1012.89c2.29,0,4.17-0.59,5.65-1.76c1.48-1.17,2.57-2.72,3.28-4.63
			s1.07-3.99,1.07-6.22c0-2.23-0.36-4.31-1.07-6.24c-0.71-1.93-1.8-3.48-3.28-4.67c-1.48-1.19-3.36-1.78-5.65-1.78
			s-4.17,0.59-5.65,1.78c-1.48,1.19-2.57,2.75-3.28,4.67c-0.71,1.93-1.06,4.01-1.06,6.24c0,2.23,0.35,4.3,1.06,6.22
			s1.81,3.46,3.28,4.63C328.48,1012.31,330.36,1012.89,332.65,1012.89z"/>
		<path class="st4" d="M360.74,996.72v20.09h-5.13v-33.39h4.96v5.22H361c0.78-1.7,1.97-3.06,3.56-4.1c1.6-1.04,3.65-1.55,6.17-1.55
			c2.26,0,4.24,0.46,5.94,1.38c1.69,0.92,3.01,2.31,3.96,4.17c0.94,1.86,1.41,4.22,1.41,7.05v21.22h-5.13v-20.87
			c0-2.62-0.68-4.67-2.04-6.14c-1.36-1.47-3.23-2.21-5.61-2.21c-1.64,0-3.1,0.36-4.38,1.07s-2.29,1.75-3.03,3.11
			C361.11,993.13,360.74,994.78,360.74,996.72z"/>
		<path class="st4" d="M391.43,1016.81v-33.39h4.96v5.22h0.44c0.7-1.78,1.82-3.17,3.37-4.16c1.55-0.99,3.41-1.49,5.59-1.49
			c2.2,0,4.04,0.5,5.51,1.49c1.47,0.99,2.62,2.38,3.45,4.16h0.35c0.85-1.73,2.14-3.1,3.85-4.12s3.76-1.53,6.15-1.53
			c2.99,0,5.43,0.93,7.33,2.79c1.9,1.86,2.85,4.76,2.85,8.68v22.35h-5.13v-22.35c0-2.46-0.67-4.22-2.02-5.28
			c-1.35-1.06-2.93-1.59-4.76-1.59c-2.35,0-4.17,0.71-5.46,2.12c-1.29,1.41-1.93,3.2-1.93,5.36v21.74h-5.22v-22.87
			c0-1.9-0.62-3.43-1.85-4.6s-2.82-1.75-4.76-1.75c-1.33,0-2.58,0.36-3.73,1.07c-1.15,0.71-2.08,1.69-2.78,2.94
			c-0.7,1.25-1.05,2.7-1.05,4.34v20.87H391.43z"/>
		<path class="st4" d="M458.65,1017.5c-3.22,0-5.99-0.71-8.32-2.14c-2.33-1.43-4.12-3.43-5.37-6c-1.25-2.57-1.88-5.57-1.88-8.99
			c0-3.42,0.63-6.44,1.88-9.05c1.25-2.62,3.01-4.66,5.26-6.13c2.25-1.47,4.89-2.21,7.9-2.21c1.74,0,3.46,0.29,5.15,0.87
			c1.69,0.58,3.24,1.52,4.63,2.81c1.39,1.3,2.5,3.01,3.33,5.14c0.82,2.13,1.24,4.75,1.24,7.87v2.17h-25.74v-4.43h20.52
			c0-1.89-0.37-3.57-1.12-5.05c-0.75-1.48-1.8-2.64-3.17-3.5c-1.37-0.86-2.98-1.28-4.84-1.28c-2.04,0-3.81,0.51-5.29,1.51
			c-1.49,1.01-2.63,2.31-3.42,3.92c-0.8,1.61-1.2,3.33-1.2,5.18v2.96c0,2.52,0.44,4.66,1.32,6.4c0.88,1.75,2.1,3.07,3.66,3.98
			c1.57,0.91,3.38,1.36,5.46,1.36c1.35,0,2.57-0.19,3.66-0.58c1.09-0.38,2.04-0.96,2.84-1.74c0.8-0.78,1.41-1.74,1.85-2.9l4.96,1.39
			c-0.52,1.68-1.4,3.15-2.63,4.42s-2.75,2.25-4.57,2.96S460.91,1017.5,458.65,1017.5z"/>
		<path class="st4" d="M485.43,996.72v20.09h-5.13v-33.39h4.96v5.22h0.43c0.78-1.7,1.97-3.06,3.56-4.1c1.6-1.04,3.65-1.55,6.17-1.55
			c2.26,0,4.24,0.46,5.94,1.38c1.69,0.92,3.01,2.31,3.96,4.17c0.94,1.86,1.41,4.22,1.41,7.05v21.22h-5.13v-20.87
			c0-2.62-0.68-4.67-2.04-6.14c-1.36-1.47-3.23-2.21-5.61-2.21c-1.64,0-3.1,0.36-4.38,1.07s-2.29,1.75-3.03,3.11
			C485.8,993.13,485.43,994.78,485.43,996.72z"/>
		<path class="st4" d="M530.65,983.42v4.35h-17.3v-4.35H530.65z M518.39,975.42h5.13v31.83c0,1.45,0.21,2.53,0.64,3.25
			c0.43,0.72,0.98,1.2,1.65,1.43c0.67,0.24,1.39,0.36,2.14,0.36c0.57,0,1.03-0.03,1.39-0.1c0.36-0.06,0.65-0.12,0.87-0.16l1.04,4.61
			c-0.35,0.13-0.83,0.26-1.46,0.4c-0.62,0.14-1.41,0.2-2.37,0.2c-1.45,0-2.87-0.31-4.25-0.93c-1.38-0.63-2.53-1.57-3.43-2.85
			c-0.91-1.27-1.36-2.88-1.36-4.83V975.42z"/>
		<path class="st4" d="M548.22,1017.59c-2.12,0-4.04-0.4-5.76-1.21c-1.73-0.8-3.1-1.97-4.11-3.5c-1.01-1.53-1.52-3.38-1.52-5.55
			c0-1.91,0.38-3.47,1.13-4.66c0.75-1.2,1.76-2.13,3.02-2.82c1.26-0.68,2.66-1.19,4.18-1.53c1.53-0.34,3.07-0.61,4.62-0.82
			c2.03-0.26,3.68-0.46,4.94-0.6c1.27-0.14,2.2-0.37,2.78-0.71c0.59-0.33,0.88-0.91,0.88-1.74v-0.17c0-2.14-0.58-3.81-1.75-5
			c-1.17-1.19-2.93-1.78-5.29-1.78c-2.45,0-4.37,0.54-5.76,1.61c-1.39,1.07-2.37,2.22-2.94,3.43l-4.87-1.74
			c0.87-2.03,2.03-3.61,3.49-4.75c1.46-1.14,3.05-1.94,4.78-2.39c1.73-0.46,3.44-0.69,5.12-0.69c1.07,0,2.31,0.13,3.71,0.38
			c1.4,0.25,2.75,0.77,4.07,1.55c1.31,0.78,2.4,1.96,3.27,3.54c0.87,1.58,1.3,3.7,1.3,6.35v22h-5.13v-4.52h-0.26
			c-0.35,0.73-0.93,1.5-1.74,2.33c-0.81,0.83-1.89,1.53-3.24,2.11C551.8,1017.3,550.16,1017.59,548.22,1017.59z M549,1012.98
			c2.03,0,3.74-0.4,5.14-1.2c1.4-0.8,2.46-1.83,3.17-3.09c0.72-1.26,1.08-2.59,1.08-3.98v-4.7c-0.22,0.26-0.69,0.5-1.42,0.71
			c-0.73,0.21-1.57,0.39-2.52,0.54c-0.95,0.15-1.87,0.28-2.76,0.39c-0.89,0.11-1.61,0.2-2.16,0.27c-1.33,0.17-2.58,0.45-3.73,0.84
			c-1.15,0.39-2.08,0.96-2.78,1.72c-0.7,0.76-1.05,1.79-1.05,3.1c0,1.78,0.66,3.13,1.99,4.03
			C545.27,1012.53,546.95,1012.98,549,1012.98z"/>
		<path class="st4" d="M578.04,972.28v44.52h-5.13v-44.52H578.04z"/>
		<path class="st4" d="M641.17,986.2h-5.39c-0.32-1.55-0.87-2.91-1.66-4.09c-0.79-1.18-1.75-2.16-2.87-2.97
			c-1.12-0.8-2.37-1.41-3.73-1.81c-1.36-0.41-2.78-0.61-4.26-0.61c-2.7,0-5.13,0.68-7.32,2.04c-2.18,1.36-3.91,3.37-5.2,6.02
			c-1.28,2.65-1.92,5.91-1.92,9.76c0,3.85,0.64,7.11,1.92,9.76c1.28,2.65,3.01,4.66,5.2,6.02c2.18,1.36,4.62,2.04,7.32,2.04
			c1.48,0,2.9-0.2,4.26-0.61c1.36-0.41,2.61-1.01,3.73-1.82c1.12-0.8,2.08-1.8,2.87-2.98c0.79-1.18,1.34-2.54,1.66-4.08h5.39
			c-0.4,2.28-1.14,4.31-2.22,6.11c-1.07,1.8-2.41,3.32-4,4.58c-1.59,1.25-3.38,2.21-5.36,2.86s-4.09,0.98-6.34,0.98
			c-3.8,0-7.17-0.93-10.13-2.78c-2.96-1.85-5.28-4.49-6.98-7.92c-1.7-3.42-2.55-7.48-2.55-12.17c0-4.7,0.85-8.76,2.55-12.18
			c1.69-3.42,4.02-6.06,6.98-7.91c2.96-1.85,6.33-2.78,10.13-2.78c2.25,0,4.36,0.33,6.34,0.98c1.98,0.65,3.76,1.6,5.36,2.86
			s2.93,2.78,4,4.57S640.77,983.91,641.17,986.2z"/>
		<path class="st4" d="M654.3,996.72v20.09h-5.13v-44.52h5.13v16.35h0.44c0.78-1.73,1.96-3.1,3.53-4.12
			c1.57-1.02,3.67-1.53,6.29-1.53c2.28,0,4.27,0.45,5.98,1.36c1.71,0.91,3.04,2.29,3.99,4.15c0.95,1.86,1.42,4.23,1.42,7.1v21.22
			h-5.13v-20.87c0-2.65-0.68-4.71-2.05-6.16c-1.37-1.46-3.26-2.19-5.68-2.19c-1.68,0-3.19,0.36-4.51,1.07s-2.37,1.75-3.13,3.11
			C654.68,993.13,654.3,994.78,654.3,996.72z"/>
		<path class="st4" d="M695.17,1017.59c-2.12,0-4.04-0.4-5.76-1.21c-1.73-0.8-3.1-1.97-4.11-3.5c-1.01-1.53-1.52-3.38-1.52-5.55
			c0-1.91,0.38-3.47,1.13-4.66c0.75-1.2,1.76-2.13,3.02-2.82c1.26-0.68,2.66-1.19,4.18-1.53c1.53-0.34,3.07-0.61,4.62-0.82
			c2.03-0.26,3.68-0.46,4.94-0.6c1.27-0.14,2.2-0.37,2.78-0.71c0.59-0.33,0.88-0.91,0.88-1.74v-0.17c0-2.14-0.58-3.81-1.75-5
			c-1.17-1.19-2.93-1.78-5.29-1.78c-2.45,0-4.37,0.54-5.76,1.61c-1.39,1.07-2.37,2.22-2.94,3.43l-4.87-1.74
			c0.87-2.03,2.03-3.61,3.49-4.75c1.46-1.14,3.05-1.94,4.78-2.39c1.73-0.46,3.44-0.69,5.12-0.69c1.07,0,2.31,0.13,3.71,0.38
			c1.4,0.25,2.75,0.77,4.07,1.55c1.31,0.78,2.4,1.96,3.27,3.54c0.87,1.58,1.3,3.7,1.3,6.35v22h-5.13v-4.52h-0.26
			c-0.35,0.73-0.93,1.5-1.74,2.33c-0.81,0.83-1.89,1.53-3.24,2.11C698.76,1017.3,697.11,1017.59,695.17,1017.59z M695.95,1012.98
			c2.03,0,3.74-0.4,5.14-1.2c1.4-0.8,2.46-1.83,3.17-3.09c0.72-1.26,1.08-2.59,1.08-3.98v-4.7c-0.22,0.26-0.69,0.5-1.42,0.71
			c-0.73,0.21-1.57,0.39-2.52,0.54c-0.95,0.15-1.87,0.28-2.76,0.39c-0.89,0.11-1.61,0.2-2.16,0.27c-1.33,0.17-2.58,0.45-3.73,0.84
			c-1.15,0.39-2.08,0.96-2.78,1.72c-0.7,0.76-1.05,1.79-1.05,3.1c0,1.78,0.66,3.13,1.99,4.03
			C692.23,1012.53,693.91,1012.98,695.95,1012.98z"/>
		<path class="st4" d="M725,996.72v20.09h-5.13v-33.39h4.96v5.22h0.43c0.78-1.7,1.97-3.06,3.56-4.1c1.6-1.04,3.65-1.55,6.17-1.55
			c2.26,0,4.24,0.46,5.94,1.38c1.69,0.92,3.01,2.31,3.96,4.17c0.94,1.86,1.41,4.22,1.41,7.05v21.22h-5.13v-20.87
			c0-2.62-0.68-4.67-2.04-6.14c-1.36-1.47-3.23-2.21-5.61-2.21c-1.64,0-3.1,0.36-4.38,1.07s-2.29,1.75-3.03,3.11
			C725.37,993.13,725,994.78,725,996.72z"/>
		<path class="st4" d="M769.17,1030.02c-2.48,0-4.61-0.31-6.39-0.95c-1.78-0.63-3.26-1.46-4.44-2.48c-1.18-1.02-2.12-2.11-2.81-3.27
			l4.09-2.87c0.46,0.61,1.05,1.31,1.76,2.1c0.71,0.79,1.69,1.48,2.92,2.07c1.24,0.59,2.87,0.88,4.88,0.88c2.7,0,4.92-0.65,6.68-1.96
			c1.75-1.3,2.63-3.35,2.63-6.13v-6.78h-0.44c-0.38,0.61-0.91,1.36-1.6,2.25c-0.69,0.89-1.67,1.68-2.96,2.37s-3.01,1.03-5.19,1.03
			c-2.7,0-5.11-0.64-7.25-1.91c-2.14-1.27-3.83-3.13-5.07-5.57c-1.24-2.43-1.86-5.39-1.86-8.87c0-3.42,0.6-6.4,1.8-8.95
			c1.2-2.54,2.88-4.51,5.02-5.91c2.15-1.4,4.62-2.1,7.44-2.1c2.17,0,3.9,0.36,5.19,1.08c1.28,0.72,2.27,1.53,2.95,2.44
			s1.22,1.65,1.6,2.23h0.52v-5.3h4.96v34.35c0,2.87-0.65,5.21-1.95,7.01c-1.3,1.81-3.04,3.13-5.22,3.98
			C774.26,1029.6,771.84,1030.02,769.17,1030.02z M769,1011.68c2.06,0,3.8-0.47,5.22-1.41c1.42-0.94,2.5-2.3,3.24-4.07
			c0.74-1.77,1.11-3.88,1.11-6.35c0-2.41-0.36-4.53-1.09-6.37c-0.72-1.84-1.8-3.28-3.22-4.33c-1.42-1.04-3.17-1.57-5.26-1.57
			c-2.17,0-3.98,0.55-5.42,1.65c-1.44,1.1-2.52,2.58-3.24,4.43s-1.08,3.91-1.08,6.17c0,2.32,0.37,4.37,1.1,6.14
			c0.73,1.78,1.82,3.17,3.26,4.17C765.06,1011.17,766.85,1011.68,769,1011.68z"/>
		<path class="st4" d="M807,1017.5c-3.22,0-5.99-0.71-8.32-2.14c-2.33-1.43-4.12-3.43-5.37-6c-1.25-2.57-1.88-5.57-1.88-8.99
			c0-3.42,0.63-6.44,1.88-9.05c1.25-2.62,3.01-4.66,5.26-6.13c2.25-1.47,4.89-2.21,7.9-2.21c1.74,0,3.46,0.29,5.15,0.87
			c1.69,0.58,3.24,1.52,4.63,2.81c1.39,1.3,2.5,3.01,3.33,5.14c0.83,2.13,1.24,4.75,1.24,7.87v2.17h-25.74v-4.43h20.52
			c0-1.89-0.37-3.57-1.12-5.05c-0.75-1.48-1.8-2.64-3.17-3.5c-1.37-0.86-2.98-1.28-4.84-1.28c-2.04,0-3.81,0.51-5.29,1.51
			c-1.49,1.01-2.63,2.31-3.42,3.92c-0.8,1.61-1.2,3.33-1.2,5.18v2.96c0,2.52,0.44,4.66,1.32,6.4c0.88,1.75,2.1,3.07,3.66,3.98
			c1.57,0.91,3.38,1.36,5.46,1.36c1.35,0,2.57-0.19,3.66-0.58c1.09-0.38,2.04-0.96,2.84-1.74s1.41-1.74,1.85-2.9l4.96,1.39
			c-0.52,1.68-1.4,3.15-2.63,4.42c-1.23,1.27-2.75,2.25-4.57,2.96C811.29,1017.15,809.26,1017.5,807,1017.5z"/>
	</g>
</g>
</svg>
