<svg width="516" height="407" viewBox="0 0 516 407" fill="none" xmlns="http://www.w3.org/2000/svg">
<path d="M515.664 98.9221C515.664 44.3741 463.027 0 398.327 0C344.586 0 299.162 30.6211 285.332 72.2667H60.2468C50.0461 72.2696 40.263 76.3186 33.0439 83.5253C25.8247 90.7321 21.7589 100.508 21.7384 110.709V334.071H8.48251C6.31349 334.071 4.23315 334.931 2.69838 336.464C1.16362 337.997 0.299924 340.076 0.296997 342.245V362.04C0.302841 373.957 5.03697 385.384 13.4601 393.814C21.8832 402.243 33.3069 406.985 45.2234 407H375.748C387.659 406.985 399.077 402.247 407.5 393.825C415.922 385.403 420.66 373.984 420.674 362.074V342.278C420.671 340.111 419.809 338.034 418.277 336.501C416.745 334.969 414.667 334.107 412.5 334.104H399.244V197.833C463.502 197.424 515.664 153.216 515.664 98.9221ZM398.327 16.3489C454.013 16.3489 499.304 53.3881 499.304 98.9221C499.304 144.456 454.013 181.495 398.327 181.495C380.575 181.572 363.033 177.649 347.005 170.018C345.912 169.491 344.717 169.213 343.504 169.203C342.291 169.194 341.091 169.453 339.99 169.963L301.769 187.726L316.527 154.365C317.142 152.96 317.35 151.412 317.13 149.895C316.909 148.378 316.268 146.953 315.279 145.782C303.592 131.951 297.406 115.757 297.406 98.9221C297.35 53.3881 342.652 16.3489 398.327 16.3489ZM404.314 362.107C404.306 369.681 401.294 376.943 395.939 382.301C390.583 387.658 383.323 390.673 375.748 390.684H45.2234C37.6488 390.673 30.3879 387.658 25.0329 382.301C19.6779 376.943 16.6657 369.681 16.657 362.107V350.419H404.314V362.107ZM210.48 214.304C203.384 214.304 196.447 212.199 190.547 208.257C184.646 204.314 180.048 198.711 177.332 192.155C174.616 185.599 173.906 178.384 175.29 171.425C176.675 164.465 180.092 158.072 185.11 153.054C190.128 148.036 196.521 144.619 203.48 143.234C210.44 141.85 217.655 142.561 224.211 145.276C230.767 147.992 236.37 152.591 240.313 158.491C244.255 164.391 246.359 171.328 246.359 178.424C246.348 187.936 242.564 197.056 235.838 203.782C229.112 210.508 219.992 214.292 210.48 214.304ZM211.187 230.652C227.377 230.67 242.899 237.109 254.348 248.558C265.796 260.006 272.235 275.528 272.253 291.718V334.104H148.719V291.718C148.736 275.528 155.176 260.006 166.624 248.558C178.072 237.109 193.594 230.67 209.784 230.652H211.187ZM288.602 334.104V291.718C288.584 276.522 284.102 261.667 275.712 248.998C267.322 236.328 255.394 226.404 241.411 220.457C250.278 213.939 256.861 204.787 260.218 194.307C263.576 183.827 263.537 172.554 260.108 162.096C256.678 151.639 250.033 142.533 241.121 136.077C232.209 129.62 221.485 126.144 210.48 126.144C199.475 126.144 188.751 129.62 179.839 136.077C170.927 142.533 164.282 151.639 160.853 162.096C157.423 172.554 157.385 183.827 160.742 194.307C164.1 204.787 170.682 213.939 179.55 220.457C165.573 226.41 153.653 236.337 145.27 249.006C136.886 261.674 132.408 276.526 132.392 291.718V334.104H38.1536V110.709C38.1682 104.854 40.5005 99.2428 44.6407 95.1027C48.7808 90.9626 54.3918 88.6302 60.2468 88.6156H281.631C281.215 92.0354 281.005 95.4771 281.002 98.9221C281.002 118.033 287.375 136.392 299.493 152.31L278.052 200.981C277.38 202.502 277.188 204.192 277.501 205.825C277.815 207.458 278.618 208.957 279.805 210.121C280.993 211.285 282.506 212.06 284.145 212.341C285.784 212.623 287.47 212.398 288.977 211.697L343.437 186.4C355.963 191.925 369.263 195.494 382.873 196.983V334.104H288.602Z" fill="#EBB194"/>
<path d="M340.233 80.9935H456.421C458.539 80.9157 460.543 80.0198 462.014 78.4943C463.484 76.9687 464.306 74.9324 464.306 72.8135C464.306 70.6946 463.484 68.6583 462.014 67.1328C460.543 65.6072 458.539 64.7113 456.421 64.6335H340.233C338.116 64.7113 336.111 65.6072 334.641 67.1328C333.17 68.6583 332.348 70.6946 332.348 72.8135C332.348 74.9324 333.17 76.9687 334.641 78.4943C336.111 80.0198 338.116 80.9157 340.233 80.9935ZM456.421 116.851H436.537C435.438 116.81 434.341 116.992 433.314 117.385C432.286 117.778 431.348 118.374 430.556 119.137C429.764 119.901 429.134 120.816 428.703 121.829C428.273 122.841 428.051 123.93 428.051 125.031C428.051 126.131 428.273 127.22 428.703 128.232C429.134 129.245 429.764 130.16 430.556 130.924C431.348 131.688 432.286 132.284 433.314 132.677C434.341 133.069 435.438 133.251 436.537 133.211H456.421C458.539 133.133 460.543 132.237 462.014 130.711C463.484 129.186 464.306 127.15 464.306 125.031C464.306 122.912 463.484 120.875 462.014 119.35C460.543 117.824 458.539 116.929 456.421 116.851ZM340.233 133.211H404.303C406.421 133.133 408.426 132.237 409.896 130.711C411.367 129.186 412.188 127.15 412.188 125.031C412.188 122.912 411.367 120.875 409.896 119.35C408.426 117.824 406.421 116.929 404.303 116.851H340.233C338.116 116.929 336.111 117.824 334.641 119.35C333.17 120.875 332.348 122.912 332.348 125.031C332.348 127.15 333.17 129.186 334.641 130.711C336.111 132.237 338.116 133.133 340.233 133.211Z" fill="#F3D0BF"/>
</svg>
