<svg width="419" height="437" viewBox="0 0 419 437" fill="none" xmlns="http://www.w3.org/2000/svg">
<path d="M7.40663 436.995H57.3513C58.3104 437.03 59.2667 436.872 60.164 436.531C61.0613 436.191 61.8814 435.674 62.5761 435.012C63.2709 434.35 63.8262 433.556 64.2095 432.676C64.5927 431.796 64.7962 430.848 64.808 429.889V411.072H353.666V429.889C353.678 430.848 353.881 431.796 354.265 432.676C354.648 433.556 355.203 434.35 355.898 435.012C356.593 435.674 357.413 436.191 358.31 436.531C359.207 436.872 360.164 437.03 361.123 436.995H411.068C412.024 437.029 412.977 436.87 413.872 436.529C414.766 436.187 415.582 435.67 416.273 435.007C416.963 434.345 417.514 433.55 417.892 432.671C418.27 431.792 418.468 430.846 418.474 429.889V376.844C418.475 374.877 417.696 372.99 416.308 371.596C414.919 370.202 413.035 369.416 411.068 369.41H393.477V67.5901H411.068C413.035 67.5839 414.919 66.7978 416.308 65.4041C417.696 64.0104 418.475 62.123 418.474 60.1557V7.11128C418.468 6.15426 418.27 5.20818 417.892 4.32903C417.514 3.44987 416.963 2.65549 416.273 1.99289C415.582 1.33029 414.766 0.812931 413.872 0.471417C412.977 0.129903 412.024 -0.0288259 411.068 0.00462176H361.123C360.164 -0.029761 359.207 0.127972 358.31 0.468544C357.413 0.809116 356.593 1.32565 355.898 1.98778C355.203 2.64991 354.648 3.44426 354.265 4.32413C353.881 5.204 353.678 6.15162 353.666 7.11128V25.9278H64.808V7.11128C64.7962 6.15162 64.5927 5.204 64.2095 4.32413C63.8262 3.44426 63.2709 2.64991 62.5761 1.98778C61.8814 1.32565 61.0613 0.809116 60.164 0.468544C59.2667 0.127972 58.3104 -0.029761 57.3513 0.00462176H7.40663C6.45017 -0.0288259 5.49672 0.129903 4.60269 0.471417C3.70866 0.812931 2.89221 1.33029 2.20164 1.99289C1.51108 2.65549 0.960419 3.44987 0.582255 4.32903C0.204092 5.20818 0.00610245 6.15426 1.46675e-06 7.11128V60.1557C-0.00123381 62.123 0.777823 64.0104 2.1663 65.4041C3.55479 66.7978 5.43934 67.5839 7.40663 67.5901H24.9974V369.41H7.40663C5.43934 369.416 3.55479 370.202 2.1663 371.596C0.777823 372.99 -0.00123381 374.877 1.46675e-06 376.844V429.889C0.00610245 430.846 0.204092 431.792 0.582255 432.671C0.960419 433.55 1.51108 434.345 2.20164 435.007C2.89221 435.67 3.70866 436.187 4.60269 436.529C5.49672 436.87 6.45017 437.029 7.40663 436.995ZM403.661 422.182H368.48V384.223H403.661V422.182ZM368.48 14.8179H403.661V52.7768H368.48V14.8179ZM14.8132 14.8179H49.9947V52.7768H14.8132V14.8179ZM39.8106 67.5901H57.3513C59.3238 67.5857 61.2145 66.8017 62.6113 65.4091C64.0081 64.0164 64.7977 62.1281 64.808 60.1557V40.741H353.666V60.1557C353.677 62.1281 354.466 64.0164 355.863 65.4091C357.26 66.8017 359.15 67.5857 361.123 67.5901H378.664V369.41H361.123C359.15 369.414 357.26 370.198 355.863 371.591C354.466 372.984 353.677 374.872 353.666 376.844V396.259H64.808V376.844C64.7977 374.872 64.0081 372.984 62.6113 371.591C61.2145 370.198 59.3238 369.414 57.3513 369.41H39.8106V67.5901ZM14.8132 384.223H49.9947V422.182H14.8132V384.223Z" fill="#EBB194"/>
<path d="M139.848 314.786H131.597C129.633 314.786 127.749 315.566 126.36 316.955C124.971 318.344 124.191 320.228 124.191 322.193C124.191 324.157 124.971 326.041 126.36 327.43C127.749 328.819 129.633 329.599 131.597 329.599H143.947L156.743 375.931C157.17 377.502 158.099 378.89 159.387 379.885C160.675 380.881 162.253 381.428 163.881 381.446H257.517C259.169 381.428 260.768 380.865 262.065 379.843C263.363 378.822 264.286 377.399 264.69 375.798L276.545 329.599H286.877C288.841 329.599 290.725 328.819 292.114 327.43C293.503 326.041 294.284 324.157 294.284 322.193C294.284 320.228 293.503 318.344 292.114 316.955C290.725 315.566 288.841 314.786 286.877 314.786H280.347L302.729 227.769C303.188 225.999 302.964 224.121 302.101 222.508L215.784 59.4511C215.152 58.2618 214.209 57.2672 213.054 56.5741C211.9 55.881 210.578 55.5157 209.232 55.5175C207.885 55.5193 206.565 55.8882 205.412 56.5843C204.26 57.2805 203.319 58.2777 202.691 59.4687L116.377 222.552C115.493 224.191 115.28 226.108 115.784 227.9L139.848 314.786ZM251.773 366.632H169.519L159.317 329.599H261.251L251.773 366.632ZM209.237 192.654C211.823 192.654 214.352 193.421 216.502 194.857C218.652 196.294 220.328 198.337 221.318 200.726C222.308 203.115 222.567 205.745 222.062 208.281C221.558 210.818 220.312 213.148 218.484 214.976C216.655 216.805 214.325 218.051 211.788 218.555C209.252 219.06 206.622 218.801 204.233 217.811C201.844 216.821 199.801 215.145 198.364 212.995C196.928 210.845 196.161 208.316 196.161 205.73C196.165 202.263 197.544 198.939 199.995 196.488C202.446 194.037 205.77 192.658 209.237 192.654ZM201.83 92.7652V178.847C195.323 180.639 189.687 184.731 185.967 190.362C182.246 195.994 180.695 202.783 181.599 209.472C182.503 216.161 185.803 222.294 190.885 226.736C195.967 231.177 202.488 233.625 209.237 233.625C215.987 233.625 222.507 231.177 227.589 226.736C232.672 222.294 235.971 216.161 236.875 209.472C237.78 202.783 236.228 195.994 232.507 190.362C228.787 184.731 223.151 180.639 216.644 178.847V92.7652L287.669 226.859L265.052 314.786H155.218L130.843 226.789L201.83 92.7652Z" fill="#F3D0BF"/>
</svg>
