<svg width="451" height="370" viewBox="0 0 451 370" fill="none" xmlns="http://www.w3.org/2000/svg">
<path d="M431.907 155.261H398.032V26.8178C398.032 11.9974 386.035 0 371.214 0H26.8178C11.9974 0 0 11.9974 0 26.8178V249.123C0 263.943 11.9974 276.646 26.8178 276.646H69.8673L53.6355 314.05C50.8126 320.402 57.8699 326.047 63.5157 322.519L145.38 276.646H189.136V318.99C189.136 330.282 198.31 338.751 208.896 338.751H354.277L406.501 368.391C412.147 371.92 419.204 365.568 416.381 359.217L407.206 338.045H431.201C442.493 338.045 450.962 328.87 450.962 318.284V175.021C451.668 163.729 442.493 155.261 431.907 155.261ZM143.263 262.532C141.852 262.532 141.146 262.532 139.735 263.237L74.8074 299.935L86.8049 271.706C88.922 266.766 85.3934 261.826 80.4533 261.826H26.8178C19.7605 261.826 14.1146 256.18 14.1146 249.123V26.8178C14.1146 19.7605 19.7605 14.1146 26.8178 14.1146H370.509C377.566 14.1146 383.212 19.7605 383.212 26.8178V249.123C383.212 256.18 377.566 261.826 370.509 261.826H143.263V262.532ZM437.553 318.99C437.553 322.519 434.73 324.636 431.907 324.636H397.326C392.386 324.636 388.858 329.576 390.975 334.516L395.915 345.808L360.628 325.342C359.217 324.636 358.511 324.636 357.1 324.636H208.896C205.368 324.636 203.25 321.813 203.25 318.99V276.646H370.509C385.329 276.646 397.326 264.649 397.326 249.829V169.375H431.201C434.73 169.375 436.847 172.198 436.847 175.021V318.99H437.553Z" fill="#EBB194"/>
<path d="M74.1013 134.089C71.2783 143.263 81.8643 149.615 88.9216 144.675L115.034 125.62L141.146 144.675C148.909 150.321 158.789 142.558 155.966 134.089L146.086 103.037L172.198 83.982C179.961 78.3362 175.726 67.0445 166.552 67.0445H134.088L124.208 35.9924C121.385 27.5236 108.682 27.5236 105.859 35.9924L95.9789 67.0445H63.5153C54.3408 67.0445 50.8122 79.0419 57.8695 83.982L83.9815 103.037L74.1013 134.089ZM77.6299 80.4534H99.5076C103.742 80.4534 107.271 77.6304 108.682 74.1018L115.739 53.6356L122.797 74.1018C124.208 78.3362 127.737 80.4534 131.971 80.4534H153.849L134.794 93.1565C131.265 95.2737 129.854 99.5081 131.265 103.742L138.323 124.209L120.679 111.506C117.151 109.388 112.916 109.388 109.388 111.506L91.7445 124.914L98.8018 104.448C100.213 100.214 98.8018 95.9794 95.2732 93.8623L77.6299 80.4534ZM225.128 83.982L251.24 103.037L241.359 134.089C238.536 143.263 249.122 149.615 256.18 144.675L282.292 125.62L308.404 144.675C315.461 150.321 326.047 142.558 323.224 134.089L313.344 103.037L339.456 83.982C347.219 78.3362 342.985 67.0445 333.81 67.0445H301.346L291.466 35.9924C288.643 27.5236 275.94 27.5236 273.117 35.9924L263.237 67.0445H230.773C221.599 66.3388 218.07 78.3362 225.128 83.982ZM266.766 80.4534C271 80.4534 274.529 77.6304 275.94 74.1018L282.997 53.6356L290.055 74.1018C291.466 78.3362 294.995 80.4534 299.229 80.4534H321.107L302.052 93.1565C298.524 95.2737 297.112 99.5081 298.524 103.742L305.581 124.209L287.938 111.506C284.409 109.388 280.175 109.388 276.646 111.506L259.003 124.209L266.06 103.742C267.471 99.5081 266.06 95.2737 262.531 93.1565L244.888 80.4534H266.766ZM329.576 184.196H67.7497C63.5153 184.196 60.6924 187.019 60.6924 191.253C60.6924 195.487 63.5153 198.31 67.7497 198.31H329.576C333.81 198.31 336.633 195.487 336.633 191.253C336.633 187.724 333.81 184.196 329.576 184.196ZM235.714 232.185C235.714 227.951 232.891 225.128 228.656 225.128H67.7497C63.5153 225.128 60.6924 227.951 60.6924 232.185C60.6924 236.42 63.5153 239.243 67.7497 239.243H227.951C232.185 239.243 235.714 236.42 235.714 232.185Z" fill="#F3D0BF"/>
</svg>
