<svg width="520" height="412" viewBox="0 0 520 412" fill="none" xmlns="http://www.w3.org/2000/svg">
<path d="M171.381 216.387C144.653 216.387 122.911 194.64 122.911 167.912C122.911 141.184 144.653 119.447 171.381 119.447C198.109 119.447 219.851 141.184 219.851 167.912C219.851 194.64 198.109 216.387 171.381 216.387ZM171.381 140.221C156.11 140.221 143.685 152.646 143.685 167.912C143.685 183.188 156.11 195.613 171.381 195.613C186.652 195.613 199.077 183.188 199.077 167.912C199.077 152.646 186.652 140.221 171.381 140.221Z" fill="#EBB194"/>
<path d="M228.508 292.553H114.254C108.518 292.553 103.867 287.907 103.867 282.166V262.995C103.867 231.095 129.824 205.138 161.73 205.138H181.032C212.938 205.138 238.895 231.095 238.895 262.995V282.166C238.895 287.907 234.244 292.553 228.508 292.553ZM124.641 271.779H218.121V262.995C218.121 242.546 201.481 225.911 181.032 225.911H161.73C141.281 225.911 124.641 242.546 124.641 262.995V271.779Z" fill="#EBB194"/>
<path d="M31.1602 292.553C25.4241 292.553 20.7734 287.907 20.7734 282.166V64.0447C20.7734 41.131 39.4117 22.4978 62.3203 22.4978H301.215C306.951 22.4978 311.602 27.1435 311.602 32.8846C311.602 38.6257 306.951 43.2713 301.215 43.2713H62.3203C50.8635 43.2713 41.5469 52.593 41.5469 64.0447V282.166C41.5469 287.907 36.8962 292.553 31.1602 292.553Z" fill="#EBB194"/>
<path d="M72.7072 292.553C66.9711 292.553 62.3204 287.907 62.3204 282.166V74.4315C62.3204 68.6904 66.9711 64.0447 72.7072 64.0447H270.055C275.791 64.0447 280.442 68.6904 280.442 74.4315C280.442 80.1726 275.791 84.8182 270.055 84.8182H83.0939V282.166C83.0939 287.907 78.4432 292.553 72.7072 292.553Z" fill="#EBB194"/>
<path d="M215.925 354.873H72.0833C32.3368 354.873 0 322.536 0 282.795C0 277.054 4.6507 271.779 10.3867 271.779H237.875C241.755 271.779 245.315 273.94 247.101 277.388C248.881 280.837 248.597 284.986 246.36 288.161C234.553 304.877 227.61 324.585 226.292 345.156C225.942 350.623 221.403 354.873 215.925 354.873ZM21.7878 292.553C26.5247 316.41 47.2779 334.1 72.0833 334.1H206.543C208.556 319.574 212.948 305.546 219.531 292.553H21.7878Z" fill="#EBB194"/>
<path d="M362.237 216.387C302.579 216.387 254.044 167.851 254.044 108.188C254.044 48.5356 302.579 0 362.237 0C421.895 0 470.43 48.5356 470.43 108.188C470.43 167.851 421.895 216.387 362.237 216.387ZM362.237 20.7735C314.031 20.7735 274.817 59.9874 274.817 108.188C274.817 156.399 314.031 195.613 362.237 195.613C410.443 195.613 449.657 156.399 449.657 108.188C449.657 59.9874 410.443 20.7735 362.237 20.7735ZM508.95 412H215.525C209.789 412 205.138 407.354 205.138 401.613V352.388C205.138 279.427 264.496 220.069 337.457 220.069H387.017C459.978 220.069 519.336 279.427 519.336 352.388V401.613C519.336 407.354 514.686 412 508.95 412ZM225.911 391.227H498.563V352.388C498.563 290.879 448.526 240.842 387.017 240.842H337.457C275.948 240.842 225.911 290.879 225.911 352.388V391.227Z" fill="#EBB194"/>
</svg>
