<?xml version="1.0" encoding="utf-8"?>
<!-- Generator: Adobe Illustrator 22.1.0, SVG Export Plug-In . SVG Version: 6.00 Build 0)  -->
<svg version="1.1" id="Layer_1" xmlns="http://www.w3.org/2000/svg" xmlns:xlink="http://www.w3.org/1999/xlink" x="0px" y="0px"
	 viewBox="0 0 267.3 234" style="enable-background:new 0 0 267.3 234;" xml:space="preserve">
<style type="text/css">
	.st0{fill:#74C2AB;}
	.st1{fill:#484545;}
</style>
<g>
	<g>
		<g>
			<path class="st0" d="M61.6,105.7c0,5.4,2.4,7.9,5.5,7.9c5.1,0,6.5-5.9,7.2-9.8c0.2-1.4,3.9-3.4,6.7-3.4c0.9,0,1.2,0.4,1.2,1.1
				c0,0.9-0.7,1.6-1.2,3.8c-0.5,2.3-1.2,7.1-1.3,9.3c-1,19.7-6.1,34-20.6,34c-7.1,0-13.1-4.7-13.1-11.3c0-7.7,6.3-11.3,11.7-11.3
				c1.7,0,2.7,0.3,2.7,1.1c0,0.4-0.3,0.8-0.9,1.2c-1.5,0.9-3.1,2.6-3.1,4.6c0,2.6,1.5,4.5,5,4.5c6.3,0,10.3-9.8,11.5-22.2
				c-1.7,2.8-5.1,7.2-11.7,7.2c-6.5,0-12-5-12-13.6c0-17,12.6-31.5,23.8-31.5c6,0,9.6,3.5,9.6,8.5c0,4.1-1.9,7.1-4.7,7.1
				c-1.9,0-3.5-1.2-3.5-3.2c0-3.4,2.9-3.6,2.9-5.8c0-1.2-0.8-1.9-2.3-1.9c-1.6,0-3.2,0.5-5.7,2.6C64.8,88.7,61.6,97.2,61.6,105.7z"
				/>
			<path class="st0" d="M83.5,120c0-4.7,2.4-9.4,2.4-12c0-1.2-0.4-1.4-0.4-2.3c0-1.6,3.9-2.7,8.1-2.7c1.6,0,2.5,0.7,2.5,1.9
				c0,2.9-2.3,7.5-2.3,12.3c0,1.9,1.1,3,2.4,3c1.2,0,1.8-0.6,2.8-1.5c0.5-0.5,0.8-0.7,1.2-0.7c0.7,0,1,0.6,1,1
				c0,0.8-0.4,1.4-1.2,2.3c-1.5,2-4.7,4.8-9.3,4.8C85.9,126,83.5,123.3,83.5,120z M93.1,89.1c2.6,0,4.1,1.7,4.1,3.9
				c0,2.9-2.6,6-5.4,6c-2.3,0-4.1-1.7-4.1-3.9C87.8,92.2,90.4,89.1,93.1,89.1z"/>
			<path class="st0" d="M107.8,124.1c0,1.2-0.5,1.5-1.6,1.5c-2.2,0-5,0.4-6.1,0.4c-0.9,0-1.5-0.4-1.5-1.6c0-2.7,3.1-12.5,3.1-16.5
				c0-1.2-0.5-1.4-0.5-2.3c0-1.6,3.9-2.7,8.2-2.7c1.6,0,2.5,0.7,2.5,1.9c0,1.2-0.4,3.1-0.4,3.1s2-4.7,6.4-4.7c2,0,3.4,1.2,3.4,3.4
				c0,2.7-1.7,5.8-4.7,5.8c-2,0-3.1-1.5-3.1-2.8c-0.4,0.1-1.4,1.1-2.5,3.1C109.5,115.2,107.8,121.3,107.8,124.1z"/>
			<path class="st0" d="M120.7,119.2c0-6.6,5.6-16,5.6-27.3c0-2.4-1.2-3.6-2.8-3.6c-0.7,0-1-0.3-1-0.9c0-1.5,3.9-3.9,8-3.9
				c3.8,0,6.2,2,6.2,5.7c0,6.1-5.8,20.9-5.8,27.9c0,1.9,1,3,2.3,3c1.2,0,1.8-0.6,2.8-1.5c0.5-0.5,0.8-0.7,1.2-0.7c0.7,0,1,0.6,1,1
				c0,0.8-0.4,1.4-1.2,2.3c-1.5,2-4.6,4.8-9.2,4.8C123,126,120.7,123,120.7,119.2z"/>
			<path class="st0" d="M141.8,118.8c0,1.8,0.7,3.1,2,3.1c1,0,1.6-0.7,1.6-2c0-4.3-7.2-5-7.2-10.4c0-4.6,4.6-6.9,10.1-6.9
				c5.3,0,7.7,2,7.7,5c0,2-1,3.7-3.4,3.7c-1.4,0-2.6-1.1-2.6-2.5c0-1.1,0.6-1.5,0.6-2.2c0-0.7-0.6-1-1.4-1c-0.9,0-2.1,1-2.1,2.4
				c0,4.3,8,4.9,8,10.2c0,4.7-3.8,7.9-10.2,7.9c-5.5,0-9.5-2.4-9.5-6.3c0-2.3,1.7-3.7,3.4-3.7C140.6,116.1,141.8,117.1,141.8,118.8z
				"/>
		</g>
	</g>
	<g>
		<g>
			<path class="st1" d="M101.6,150.6c0-0.8,0.2-1.3,1.1-1.3h12.5c0.6,0,0.9,0.3,0.9,0.8v15.5c0,1-0.3,1.5-1.3,1.5h-3
				c-1.1,0-1.6-0.2-2-1.1l-0.2-0.5c-2.4,1.2-5.6,2.1-9.6,2.1c-11.9,0-20.6-5.9-20.6-18.8c0-10.5,7.4-18.3,20.9-18.3
				c12.4,0,15.4,5.2,15.4,9.2c0,3.1-2.5,5-5.4,5c-2.6,0-4.9-1.9-4.9-4.9c0-1,0.3-1.9,0.7-2.7c-1.4-0.4-3.2-0.6-5.2-0.6
				c-8.7,0-12.3,5.7-12.3,12.5c0,6.9,3.6,11.9,11.8,11.9c3.1,0,5.5-0.6,7.4-1.6v-2.6c0-1.1-0.7-1.6-1.7-1.6h-3.4
				c-0.8,0-1.2-0.4-1.2-1.3V150.6z"/>
			<path class="st1" d="M135,139.9c10.7,0,15.1,6.5,15.1,13.9c0,7.3-4.3,13.9-15.1,13.9c-10.8,0-15-6.6-15-13.9
				C119.9,146.5,124.2,139.9,135,139.9z M128.7,153.9c0,5.4,2,8.4,6.2,8.4c4.2,0,6.3-3,6.3-8.4c0-5.4-2-8.4-6.3-8.4
				C130.8,145.4,128.7,148.4,128.7,153.9z"/>
			<path class="st1" d="M181.6,161.5h0.4c1.1,0,1.2,0.2,1.2,0.9v3.5c0,0.9-0.2,1.1-1.2,1.1h-15.3c-0.9,0-1.2-0.2-1.2-1.1v-3.5
				c0-0.6,0.2-0.9,1.2-0.9h0.4c2.1,0,2.9-0.5,2.9-2.8v-19.3c0-2.3-0.8-2.8-2.9-2.8h-0.4c-1,0-1.2-0.2-1.2-0.9v-3.5
				c0-0.9,0.3-1.1,1.2-1.1H182c0.9,0,1.2,0.2,1.2,1.1v3.5c0,0.6-0.2,0.9-1.2,0.9h-0.5c-2,0-2.8,0.3-2.8,2.8v19.3
				C178.7,161.2,179.5,161.5,181.6,161.5z"/>
			<path class="st1" d="M188.9,131h29.6c1.8,0,2.2,0.1,2.3,2.3l0.4,7.5c0,0.8,0.1,1.2-0.9,1.2h-3.9c-0.8,0-1.1-0.2-1.3-1.1l-0.2-1.6
				c-0.3-2.3-1.5-2.3-6.4-2.3h-0.3v22.2c0.1,1.9,0.8,2.2,2.8,2.2h0.5c1,0,1.2,0.2,1.2,0.9v3.5c0,0.9-0.2,1.1-1.2,1.1H196
				c-0.9,0-1.2-0.2-1.2-1.1v-3.5c0-0.6,0.2-0.9,1.2-0.9h0.4c2,0,2.8-0.5,2.8-2.8V137H199c-4.8,0-6,0.1-6.3,2.3l-0.2,1.6
				c-0.1,0.8-0.5,1.1-1.3,1.1h-4c-1,0-0.9-0.3-0.9-1.2l0.4-7.5C186.7,131.1,187.1,131,188.9,131z"/>
		</g>
	</g>
</g>
</svg>
